%TF.GenerationSoftware,KiCad,Pcbnew,9.0.5*%
%TF.CreationDate,2025-11-13T14:50:54-05:00*%
%TF.ProjectId,F25,4632352e-6b69-4636-9164-5f7063625858,v1.0.1*%
%TF.SameCoordinates,Original*%
%TF.FileFunction,Copper,L1,Top*%
%TF.FilePolarity,Positive*%
%FSLAX46Y46*%
G04 Gerber Fmt 4.6, Leading zero omitted, Abs format (unit mm)*
G04 Created by KiCad (PCBNEW 9.0.5) date 2025-11-13 14:50:54*
%MOMM*%
%LPD*%
G01*
G04 APERTURE LIST*
G04 Aperture macros list*
%AMRoundRect*
0 Rectangle with rounded corners*
0 $1 Rounding radius*
0 $2 $3 $4 $5 $6 $7 $8 $9 X,Y pos of 4 corners*
0 Add a 4 corners polygon primitive as box body*
4,1,4,$2,$3,$4,$5,$6,$7,$8,$9,$2,$3,0*
0 Add four circle primitives for the rounded corners*
1,1,$1+$1,$2,$3*
1,1,$1+$1,$4,$5*
1,1,$1+$1,$6,$7*
1,1,$1+$1,$8,$9*
0 Add four rect primitives between the rounded corners*
20,1,$1+$1,$2,$3,$4,$5,0*
20,1,$1+$1,$4,$5,$6,$7,0*
20,1,$1+$1,$6,$7,$8,$9,0*
20,1,$1+$1,$8,$9,$2,$3,0*%
G04 Aperture macros list end*
%TA.AperFunction,SMDPad,CuDef*%
%ADD10RoundRect,0.140000X-0.170000X0.140000X-0.170000X-0.140000X0.170000X-0.140000X0.170000X0.140000X0*%
%TD*%
%TA.AperFunction,SMDPad,CuDef*%
%ADD11RoundRect,0.140000X0.170000X-0.140000X0.170000X0.140000X-0.170000X0.140000X-0.170000X-0.140000X0*%
%TD*%
%TA.AperFunction,SMDPad,CuDef*%
%ADD12RoundRect,0.140000X0.140000X0.170000X-0.140000X0.170000X-0.140000X-0.170000X0.140000X-0.170000X0*%
%TD*%
%TA.AperFunction,SMDPad,CuDef*%
%ADD13RoundRect,0.150000X-0.587500X-0.150000X0.587500X-0.150000X0.587500X0.150000X-0.587500X0.150000X0*%
%TD*%
%TA.AperFunction,SMDPad,CuDef*%
%ADD14RoundRect,0.075000X0.075000X-0.350000X0.075000X0.350000X-0.075000X0.350000X-0.075000X-0.350000X0*%
%TD*%
%TA.AperFunction,SMDPad,CuDef*%
%ADD15RoundRect,0.075000X0.350000X0.075000X-0.350000X0.075000X-0.350000X-0.075000X0.350000X-0.075000X0*%
%TD*%
%TA.AperFunction,ComponentPad*%
%ADD16C,0.600000*%
%TD*%
%TA.AperFunction,ComponentPad*%
%ADD17C,5.000000*%
%TD*%
%TA.AperFunction,SMDPad,CuDef*%
%ADD18R,0.900000X1.500000*%
%TD*%
%TA.AperFunction,SMDPad,CuDef*%
%ADD19R,1.500000X0.900000*%
%TD*%
%TA.AperFunction,HeatsinkPad*%
%ADD20C,0.600000*%
%TD*%
%TA.AperFunction,HeatsinkPad*%
%ADD21R,3.900000X3.900000*%
%TD*%
%TA.AperFunction,ComponentPad*%
%ADD22R,1.308000X1.308000*%
%TD*%
%TA.AperFunction,ComponentPad*%
%ADD23C,1.308000*%
%TD*%
%TA.AperFunction,SMDPad,CuDef*%
%ADD24RoundRect,0.135000X-0.185000X0.135000X-0.185000X-0.135000X0.185000X-0.135000X0.185000X0.135000X0*%
%TD*%
%TA.AperFunction,SMDPad,CuDef*%
%ADD25R,0.600000X1.160000*%
%TD*%
%TA.AperFunction,SMDPad,CuDef*%
%ADD26R,0.300000X1.160000*%
%TD*%
%TA.AperFunction,HeatsinkPad*%
%ADD27O,0.900000X2.000000*%
%TD*%
%TA.AperFunction,HeatsinkPad*%
%ADD28O,0.900000X1.700000*%
%TD*%
%TA.AperFunction,SMDPad,CuDef*%
%ADD29RoundRect,0.140000X-0.140000X-0.170000X0.140000X-0.170000X0.140000X0.170000X-0.140000X0.170000X0*%
%TD*%
%TA.AperFunction,SMDPad,CuDef*%
%ADD30RoundRect,0.218750X0.218750X0.256250X-0.218750X0.256250X-0.218750X-0.256250X0.218750X-0.256250X0*%
%TD*%
%TA.AperFunction,SMDPad,CuDef*%
%ADD31R,1.955800X2.260600*%
%TD*%
%TA.AperFunction,ComponentPad*%
%ADD32C,1.800000*%
%TD*%
%TA.AperFunction,SMDPad,CuDef*%
%ADD33R,0.550000X0.950000*%
%TD*%
%TA.AperFunction,SMDPad,CuDef*%
%ADD34R,0.900000X1.700000*%
%TD*%
%TA.AperFunction,SMDPad,CuDef*%
%ADD35R,1.003300X0.508000*%
%TD*%
%TA.AperFunction,SMDPad,CuDef*%
%ADD36RoundRect,0.135000X0.185000X-0.135000X0.185000X0.135000X-0.185000X0.135000X-0.185000X-0.135000X0*%
%TD*%
%TA.AperFunction,ViaPad*%
%ADD37C,0.450000*%
%TD*%
%TA.AperFunction,ViaPad*%
%ADD38C,0.500000*%
%TD*%
%TA.AperFunction,Conductor*%
%ADD39C,0.200000*%
%TD*%
%TA.AperFunction,Conductor*%
%ADD40C,0.300000*%
%TD*%
G04 APERTURE END LIST*
D10*
%TO.P,R3,1*%
%TO.N,+3V3*%
X159402235Y-98386769D03*
%TO.P,R3,2*%
%TO.N,/SCL*%
X159402235Y-99346769D03*
%TD*%
D11*
%TO.P,R2,1*%
%TO.N,+3V3*%
X159400000Y-101360000D03*
%TO.P,R2,2*%
%TO.N,/SDA*%
X159400000Y-100400000D03*
%TD*%
D12*
%TO.P,C9,1*%
%TO.N,+3V3*%
X161900000Y-108150000D03*
%TO.P,C9,2*%
%TO.N,GND*%
X160940000Y-108150000D03*
%TD*%
D13*
%TO.P,Q2,1,G*%
%TO.N,/VBUS*%
X172192500Y-91940000D03*
%TO.P,Q2,2,S*%
%TO.N,Net-(Q2-S)*%
X172192500Y-93840000D03*
%TO.P,Q2,3,D*%
%TO.N,BAT+*%
X174067500Y-92890000D03*
%TD*%
D11*
%TO.P,R5,1*%
%TO.N,Net-(Q2-S)*%
X177370000Y-94900000D03*
%TO.P,R5,2*%
%TO.N,Net-(U5-EN)*%
X177370000Y-93940000D03*
%TD*%
D14*
%TO.P,U2,1,CLKIN*%
%TO.N,GND*%
X164650000Y-100950000D03*
%TO.P,U2,2,NC*%
%TO.N,unconnected-(U2-NC-Pad2)*%
X165150000Y-100950000D03*
%TO.P,U2,3,NC*%
%TO.N,unconnected-(U2-NC-Pad3)*%
X165650000Y-100950000D03*
%TO.P,U2,4,NC*%
%TO.N,unconnected-(U2-NC-Pad4)*%
X166150000Y-100950000D03*
%TO.P,U2,5,NC*%
%TO.N,unconnected-(U2-NC-Pad5)*%
X166650000Y-100950000D03*
%TO.P,U2,6,AUX_DA*%
%TO.N,unconnected-(U2-AUX_DA-Pad6)*%
X167150000Y-100950000D03*
D15*
%TO.P,U2,7,AUX_CL*%
%TO.N,unconnected-(U2-AUX_CL-Pad7)*%
X167850000Y-100250000D03*
%TO.P,U2,8,VLOGIC*%
%TO.N,+3V3*%
X167850000Y-99750000D03*
%TO.P,U2,9,AD0*%
%TO.N,GND*%
X167850000Y-99250000D03*
%TO.P,U2,10,REGOUT*%
%TO.N,Net-(U2-REGOUT)*%
X167850000Y-98750000D03*
%TO.P,U2,11,FSYNC*%
%TO.N,GND*%
X167850000Y-98250000D03*
%TO.P,U2,12,INT*%
%TO.N,unconnected-(U2-INT-Pad12)*%
X167850000Y-97750000D03*
D14*
%TO.P,U2,13,VDD*%
%TO.N,+3V3*%
X167150000Y-97050000D03*
%TO.P,U2,14,NC*%
%TO.N,unconnected-(U2-NC-Pad14)*%
X166650000Y-97050000D03*
%TO.P,U2,15,NC*%
%TO.N,unconnected-(U2-NC-Pad15)*%
X166150000Y-97050000D03*
%TO.P,U2,16,NC*%
%TO.N,unconnected-(U2-NC-Pad16)*%
X165650000Y-97050000D03*
%TO.P,U2,17,NC*%
%TO.N,unconnected-(U2-NC-Pad17)*%
X165150000Y-97050000D03*
%TO.P,U2,18,GND*%
%TO.N,GND*%
X164650000Y-97050000D03*
D15*
%TO.P,U2,19,RESV*%
%TO.N,unconnected-(U2-RESV-Pad19)*%
X163950000Y-97750000D03*
%TO.P,U2,20,CPOUT*%
%TO.N,Net-(U2-CPOUT)*%
X163950000Y-98250000D03*
%TO.P,U2,21,RESV*%
%TO.N,unconnected-(U2-RESV-Pad21)*%
X163950000Y-98750000D03*
%TO.P,U2,22,RESV*%
%TO.N,unconnected-(U2-RESV-Pad22)*%
X163950000Y-99250000D03*
%TO.P,U2,23,SCL*%
%TO.N,/SCL*%
X163950000Y-99750000D03*
%TO.P,U2,24,SDA*%
%TO.N,/SDA*%
X163950000Y-100250000D03*
%TD*%
D16*
%TO.P,H3,1,1*%
%TO.N,GND*%
X137500000Y-111500000D03*
X138090000Y-110090000D03*
X138090000Y-112910000D03*
D17*
X139470000Y-111465000D03*
D16*
X139500000Y-109500000D03*
X139500000Y-113500000D03*
X140910000Y-110090000D03*
X140910000Y-112910000D03*
X141500000Y-111500000D03*
%TD*%
D18*
%TO.P,U4,1,GND*%
%TO.N,GND*%
X137130000Y-104100000D03*
%TO.P,U4,2,3V3*%
%TO.N,+3V3*%
X138400000Y-104100000D03*
%TO.P,U4,3,EN*%
%TO.N,/ESP_EN*%
X139670000Y-104100000D03*
%TO.P,U4,4,GPIO4*%
%TO.N,unconnected-(U4-GPIO4-Pad4)*%
X140940000Y-104100000D03*
%TO.P,U4,5,GPIO5*%
%TO.N,unconnected-(U4-GPIO5-Pad5)*%
X142210000Y-104100000D03*
%TO.P,U4,6,GPIO6*%
%TO.N,unconnected-(U4-GPIO6-Pad6)*%
X143480000Y-104100000D03*
%TO.P,U4,7,GPIO7*%
%TO.N,unconnected-(U4-GPIO7-Pad7)*%
X144750000Y-104100000D03*
%TO.P,U4,8,GPIO15*%
%TO.N,unconnected-(U4-GPIO15-Pad8)*%
X146020000Y-104100000D03*
%TO.P,U4,9,GPIO16*%
%TO.N,unconnected-(U4-GPIO16-Pad9)*%
X147290000Y-104100000D03*
%TO.P,U4,10,GPIO17*%
%TO.N,unconnected-(U4-GPIO17-Pad10)*%
X148560000Y-104100000D03*
%TO.P,U4,11,GPIO18*%
%TO.N,unconnected-(U4-GPIO18-Pad11)*%
X149830000Y-104100000D03*
%TO.P,U4,12,GPIO8*%
%TO.N,/SDA*%
X151100000Y-104100000D03*
%TO.P,U4,13,GPIO19/USB_D-*%
%TO.N,USB_D-*%
X152370000Y-104100000D03*
%TO.P,U4,14,GPIO20/USB_D+*%
%TO.N,USB_D+*%
X153640000Y-104100000D03*
D19*
%TO.P,U4,15,GPIO3*%
%TO.N,unconnected-(U4-GPIO3-Pad15)*%
X154890000Y-102335000D03*
%TO.P,U4,16,GPIO46*%
%TO.N,unconnected-(U4-GPIO46-Pad16)*%
X154890000Y-101065000D03*
%TO.P,U4,17,GPIO9*%
%TO.N,/SCL*%
X154890000Y-99795000D03*
%TO.P,U4,18,GPIO10*%
%TO.N,/CS*%
X154890000Y-98525000D03*
%TO.P,U4,19,GPIO11*%
%TO.N,/MOSI*%
X154890000Y-97255000D03*
%TO.P,U4,20,GPIO12*%
%TO.N,/SCK*%
X154890000Y-95985000D03*
%TO.P,U4,21,GPIO13*%
%TO.N,/MISO*%
X154890000Y-94715000D03*
%TO.P,U4,22,GPIO14*%
%TO.N,unconnected-(U4-GPIO14-Pad22)*%
X154890000Y-93445000D03*
%TO.P,U4,23,GPIO21*%
%TO.N,unconnected-(U4-GPIO21-Pad23)*%
X154890000Y-92175000D03*
%TO.P,U4,24,GPIO47*%
%TO.N,unconnected-(U4-GPIO47-Pad24)*%
X154890000Y-90905000D03*
%TO.P,U4,25,GPIO48*%
%TO.N,unconnected-(U4-GPIO48-Pad25)*%
X154890000Y-89635000D03*
%TO.P,U4,26,GPIO45*%
%TO.N,unconnected-(U4-GPIO45-Pad26)*%
X154890000Y-88365000D03*
D18*
%TO.P,U4,27,GPIO0*%
%TO.N,/ESP_IO0*%
X153640000Y-86600000D03*
%TO.P,U4,28,GPIO35\u002A*%
%TO.N,unconnected-(U4-GPIO35\u002A-Pad28)*%
X152370000Y-86600000D03*
%TO.P,U4,29,GPIO36\u002A*%
%TO.N,unconnected-(U4-GPIO36\u002A-Pad29)*%
X151100000Y-86600000D03*
%TO.P,U4,30,GPIO37\u002A*%
%TO.N,unconnected-(U4-GPIO37\u002A-Pad30)*%
X149830000Y-86600000D03*
%TO.P,U4,31,GPIO38*%
%TO.N,unconnected-(U4-GPIO38-Pad31)*%
X148560000Y-86600000D03*
%TO.P,U4,32,GPIO39*%
%TO.N,/LED*%
X147290000Y-86600000D03*
%TO.P,U4,33,GPIO40*%
%TO.N,/BUZZER*%
X146020000Y-86600000D03*
%TO.P,U4,34,GPIO41*%
%TO.N,unconnected-(U4-GPIO41-Pad34)*%
X144750000Y-86600000D03*
%TO.P,U4,35,GPIO42*%
%TO.N,unconnected-(U4-GPIO42-Pad35)*%
X143480000Y-86600000D03*
%TO.P,U4,36,RXD0/U0RXD/GPIO44*%
%TO.N,unconnected-(U4-RXD0{slash}U0RXD{slash}GPIO44-Pad36)*%
X142210000Y-86600000D03*
%TO.P,U4,37,TXD0/U0TXD/GPIO43*%
%TO.N,unconnected-(U4-TXD0{slash}U0TXD{slash}GPIO43-Pad37)*%
X140940000Y-86600000D03*
%TO.P,U4,38,GPIO2*%
%TO.N,unconnected-(U4-GPIO2-Pad38)*%
X139670000Y-86600000D03*
%TO.P,U4,39,GPIO1*%
%TO.N,unconnected-(U4-GPIO1-Pad39)*%
X138400000Y-86600000D03*
%TO.P,U4,40,GND*%
%TO.N,GND*%
X137130000Y-86600000D03*
D20*
%TO.P,U4,41,EPAD(GND)*%
X144150000Y-98250000D03*
X145550000Y-98250000D03*
X143450000Y-97550000D03*
X144850000Y-97550000D03*
X146250000Y-97550000D03*
X144150000Y-96850000D03*
D21*
X144850000Y-96850000D03*
D20*
X145550000Y-96850000D03*
X143450000Y-96150000D03*
X144850000Y-96150000D03*
X146250000Y-96150000D03*
X144150000Y-95450000D03*
X145550000Y-95450000D03*
%TD*%
D22*
%TO.P,J3,1,1*%
%TO.N,BAT+*%
X168600000Y-87350000D03*
D23*
%TO.P,J3,2,2*%
%TO.N,GND*%
X166600000Y-87350000D03*
%TD*%
D24*
%TO.P,R6,1*%
%TO.N,GND*%
X158900000Y-105580002D03*
%TO.P,R6,2*%
%TO.N,Net-(J4-CC1)*%
X158900000Y-106600000D03*
%TD*%
D25*
%TO.P,J4,A1,GND*%
%TO.N,GND*%
X149300000Y-108390000D03*
%TO.P,J4,A4,VBUS*%
%TO.N,/VBUS*%
X150100000Y-108390000D03*
D26*
%TO.P,J4,A5,CC1*%
%TO.N,Net-(J4-CC1)*%
X151250000Y-108390000D03*
%TO.P,J4,A6,D+*%
%TO.N,USB_D+*%
X152250000Y-108390000D03*
%TO.P,J4,A7,D-*%
%TO.N,USB_D-*%
X152750000Y-108390000D03*
%TO.P,J4,A8,SBU1*%
%TO.N,unconnected-(J4-SBU1-PadA8)*%
X153750000Y-108390000D03*
D25*
%TO.P,J4,A9,VBUS*%
%TO.N,/VBUS*%
X154900000Y-108390000D03*
%TO.P,J4,A12,GND*%
%TO.N,GND*%
X155700000Y-108390000D03*
%TO.P,J4,B1,GND*%
X155700000Y-108390000D03*
%TO.P,J4,B4,VBUS*%
%TO.N,/VBUS*%
X154900000Y-108390000D03*
D26*
%TO.P,J4,B5,CC2*%
%TO.N,Net-(J4-CC2)*%
X154250000Y-108390000D03*
%TO.P,J4,B6,D+*%
%TO.N,USB_D+*%
X153250000Y-108390000D03*
%TO.P,J4,B7,D-*%
%TO.N,USB_D-*%
X151750000Y-108390000D03*
%TO.P,J4,B8,SBU2*%
%TO.N,unconnected-(J4-SBU2-PadB8)*%
X150750000Y-108390000D03*
D25*
%TO.P,J4,B9,VBUS*%
%TO.N,/VBUS*%
X150100000Y-108390000D03*
%TO.P,J4,B12,GND*%
%TO.N,GND*%
X149300000Y-108390000D03*
D27*
%TO.P,J4,S1,SHIELD*%
X148180000Y-108970000D03*
D28*
X148180000Y-113140000D03*
D27*
X156820000Y-108970000D03*
D28*
X156820000Y-113140000D03*
%TD*%
D29*
%TO.P,R7,1*%
%TO.N,+3V3*%
X167720000Y-112300000D03*
%TO.P,R7,2*%
%TO.N,Net-(D2-A)*%
X168680000Y-112300000D03*
%TD*%
%TO.P,C1,1*%
%TO.N,GND*%
X137320000Y-106000000D03*
%TO.P,C1,2*%
%TO.N,+3V3*%
X138280000Y-106000000D03*
%TD*%
D30*
%TO.P,D1,1,K*%
%TO.N,GND*%
X171687501Y-113700000D03*
%TO.P,D1,2,A*%
%TO.N,Net-(D1-A)*%
X170112499Y-113700000D03*
%TD*%
D11*
%TO.P,C8,1*%
%TO.N,GND*%
X177390000Y-96830000D03*
%TO.P,C8,2*%
%TO.N,Net-(Q2-S)*%
X177390000Y-95870000D03*
%TD*%
D10*
%TO.P,R8,1*%
%TO.N,/BUZZER*%
X168250000Y-106920000D03*
%TO.P,R8,2*%
%TO.N,GND*%
X168250000Y-107880000D03*
%TD*%
D31*
%TO.P,CR1,1*%
%TO.N,Net-(Q2-S)*%
X169871700Y-91700000D03*
%TO.P,CR1,2*%
%TO.N,/VBUS*%
X165528300Y-91700000D03*
%TD*%
D32*
%TO.P,LS1,1*%
%TO.N,Net-(LS1-Pad1)*%
X175700000Y-100500010D03*
%TO.P,LS1,2*%
%TO.N,Net-(Q1-D)*%
X175700000Y-105499989D03*
%TD*%
D33*
%TO.P,U1,1,VDD*%
%TO.N,+3V3*%
X161900000Y-106900000D03*
%TO.P,U1,2,PS*%
%TO.N,GND*%
X163150000Y-106900000D03*
%TO.P,U1,3,GND*%
X164400000Y-106900000D03*
%TO.P,U1,4,CSB*%
%TO.N,/CS*%
X165650000Y-106900000D03*
%TO.P,U1,5,CSB*%
X165650000Y-104750000D03*
%TO.P,U1,6,SDO*%
%TO.N,/MISO*%
X164400000Y-104750000D03*
%TO.P,U1,7,SDI/SDA*%
%TO.N,/MOSI*%
X163150000Y-104750000D03*
%TO.P,U1,8,SCLK*%
%TO.N,/SCK*%
X161900000Y-104750000D03*
%TD*%
D13*
%TO.P,Q1,1,G*%
%TO.N,/BUZZER*%
X169762500Y-107050000D03*
%TO.P,Q1,2,S*%
%TO.N,GND*%
X169762500Y-108950000D03*
%TO.P,Q1,3,D*%
%TO.N,Net-(Q1-D)*%
X171637500Y-108000000D03*
%TD*%
D11*
%TO.P,C7,1*%
%TO.N,Net-(U2-REGOUT)*%
X169719999Y-98850000D03*
%TO.P,C7,2*%
%TO.N,GND*%
X169719999Y-97890000D03*
%TD*%
D29*
%TO.P,R1,1*%
%TO.N,/LED*%
X167720000Y-113500000D03*
%TO.P,R1,2*%
%TO.N,Net-(D1-A)*%
X168680000Y-113500000D03*
%TD*%
D34*
%TO.P,SW1,1,A*%
%TO.N,GND*%
X146500001Y-107800000D03*
%TO.P,SW1,2,B*%
%TO.N,/ESP_EN*%
X143099999Y-107800000D03*
%TD*%
D16*
%TO.P,H1,1,1*%
%TO.N,GND*%
X174900000Y-89100000D03*
X175490000Y-87690000D03*
X175490000Y-90510000D03*
D17*
X176870000Y-89065000D03*
D16*
X176900000Y-87100000D03*
X176900000Y-91100000D03*
X178310000Y-87690000D03*
X178310000Y-90510000D03*
X178900000Y-89100000D03*
%TD*%
D10*
%TO.P,R11,1*%
%TO.N,/ESP_EN*%
X140000000Y-106020000D03*
%TO.P,R11,2*%
%TO.N,+3V3*%
X140000000Y-106980000D03*
%TD*%
%TO.P,R9,1*%
%TO.N,GND*%
X163500000Y-90140000D03*
%TO.P,R9,2*%
%TO.N,/VBUS*%
X163500000Y-91100000D03*
%TD*%
%TO.P,C3,1*%
%TO.N,/ESP_EN*%
X141400000Y-106020000D03*
%TO.P,C3,2*%
%TO.N,GND*%
X141400000Y-106980000D03*
%TD*%
D35*
%TO.P,U5,1,VIN*%
%TO.N,Net-(Q2-S)*%
X174532550Y-97370001D03*
%TO.P,U5,2,GND*%
%TO.N,GND*%
X174532550Y-96420000D03*
%TO.P,U5,3,EN*%
%TO.N,Net-(U5-EN)*%
X174532550Y-95469999D03*
%TO.P,U5,4,NC*%
%TO.N,unconnected-(U5-NC-Pad4)*%
X171827450Y-95469999D03*
%TO.P,U5,5,VOUT*%
%TO.N,+3V3*%
X171827450Y-97370001D03*
%TD*%
D11*
%TO.P,C10,1*%
%TO.N,GND*%
X171080000Y-99210000D03*
%TO.P,C10,2*%
%TO.N,+3V3*%
X171080000Y-98250000D03*
%TD*%
%TO.P,R4,1*%
%TO.N,+3V3*%
X169719999Y-104030000D03*
%TO.P,R4,2*%
%TO.N,Net-(LS1-Pad1)*%
X169719999Y-103070000D03*
%TD*%
D10*
%TO.P,C4,1*%
%TO.N,GND*%
X169719999Y-99890000D03*
%TO.P,C4,2*%
%TO.N,+3V3*%
X169719999Y-100850000D03*
%TD*%
D36*
%TO.P,R16,1*%
%TO.N,USB_D+*%
X153500000Y-106709999D03*
%TO.P,R16,2*%
X153500000Y-105690001D03*
%TD*%
D34*
%TO.P,SW2,1,A*%
%TO.N,GND*%
X165000001Y-112500000D03*
%TO.P,SW2,2,B*%
%TO.N,/ESP_IO0*%
X161599999Y-112500000D03*
%TD*%
D29*
%TO.P,C2,1*%
%TO.N,GND*%
X137320000Y-107000000D03*
%TO.P,C2,2*%
%TO.N,+3V3*%
X138280000Y-107000000D03*
%TD*%
D36*
%TO.P,R12,1*%
%TO.N,Net-(J4-CC2)*%
X157900000Y-106609999D03*
%TO.P,R12,2*%
%TO.N,GND*%
X157900000Y-105590001D03*
%TD*%
D11*
%TO.P,C6,1*%
%TO.N,Net-(U2-CPOUT)*%
X162500000Y-97580000D03*
%TO.P,C6,2*%
%TO.N,GND*%
X162500000Y-96620000D03*
%TD*%
D30*
%TO.P,D2,1,K*%
%TO.N,GND*%
X171687501Y-112000000D03*
%TO.P,D2,2,A*%
%TO.N,Net-(D2-A)*%
X170112499Y-112000000D03*
%TD*%
D12*
%TO.P,C5,1*%
%TO.N,GND*%
X168080000Y-95800000D03*
%TO.P,C5,2*%
%TO.N,+3V3*%
X167120000Y-95800000D03*
%TD*%
D16*
%TO.P,H2,1,1*%
%TO.N,GND*%
X174900000Y-111500000D03*
X175490000Y-110090000D03*
X175490000Y-112910000D03*
D17*
X176870000Y-111465000D03*
D16*
X176900000Y-109500000D03*
X176900000Y-113500000D03*
X178310000Y-110090000D03*
X178310000Y-112910000D03*
X178900000Y-111500000D03*
%TD*%
D36*
%TO.P,R17,1*%
%TO.N,USB_D-*%
X152500000Y-106709999D03*
%TO.P,R17,2*%
X152500000Y-105690001D03*
%TD*%
D37*
%TO.N,GND*%
X158900000Y-104690001D03*
X157900000Y-104690001D03*
%TO.N,/SDA*%
X157200000Y-100300000D03*
X151100000Y-102000000D03*
%TO.N,/MOSI*%
X153100000Y-97255000D03*
X163150000Y-103700000D03*
%TO.N,/ESP_IO0*%
X168401938Y-109541938D03*
X157200000Y-86900000D03*
%TO.N,/VBUS*%
X150200000Y-109900000D03*
X154800000Y-109900000D03*
D38*
X163450000Y-94900000D03*
D37*
X155700000Y-107000000D03*
%TO.N,GND*%
X170471007Y-99824101D03*
X149300000Y-107000000D03*
X167800000Y-108500000D03*
X175879999Y-96420000D03*
X162500000Y-95500000D03*
X172200000Y-99000000D03*
X165000000Y-114500000D03*
X163150000Y-108100000D03*
X164400000Y-108090509D03*
X160475000Y-109275000D03*
X136500000Y-107000000D03*
X137100000Y-88500000D03*
X142100000Y-107900000D03*
X173100000Y-113700000D03*
X164300000Y-95800000D03*
X163500000Y-89100000D03*
X169100000Y-95800000D03*
X171700000Y-110600000D03*
X178620000Y-96830000D03*
X169700000Y-96800000D03*
X136500000Y-106000000D03*
X165600000Y-102200000D03*
X146500001Y-109800000D03*
%TO.N,/BUZZER*%
X153100000Y-92250000D03*
X169000000Y-105800000D03*
%TO.N,/LED*%
X147500000Y-92250000D03*
X166900000Y-113940000D03*
%TO.N,/SCK*%
X156400000Y-97900000D03*
X161900000Y-103700000D03*
%TO.N,/CS*%
X159449042Y-97500000D03*
X165650000Y-103700000D03*
X166200000Y-108150000D03*
%TO.N,/MISO*%
X164400000Y-103700000D03*
X153100000Y-94715000D03*
%TD*%
D39*
%TO.N,/SCL*%
X157053231Y-99346769D02*
X160766769Y-99346769D01*
X155931250Y-99800000D02*
X156600000Y-99800000D01*
X156600000Y-99800000D02*
X157053231Y-99346769D01*
X155926250Y-99795000D02*
X155931250Y-99800000D01*
X154890000Y-99795000D02*
X155926250Y-99795000D01*
X160766769Y-99346769D02*
X161170000Y-99750000D01*
X161170000Y-99750000D02*
X163950000Y-99750000D01*
%TO.N,/SDA*%
X157200000Y-100300000D02*
X163900000Y-100300000D01*
X163900000Y-100300000D02*
X163950000Y-100250000D01*
%TO.N,/CS*%
X158100000Y-97500000D02*
X156974000Y-98626000D01*
X154991000Y-98626000D02*
X154890000Y-98525000D01*
X159449042Y-97500000D02*
X158100000Y-97500000D01*
X156974000Y-98626000D02*
X154991000Y-98626000D01*
%TO.N,+3V3*%
X138400000Y-105980000D02*
X138380000Y-106000000D01*
X167120000Y-95800000D02*
X167120000Y-97020000D01*
X138400000Y-104100000D02*
X138400000Y-105980000D01*
X167120000Y-97020000D02*
X167150000Y-97050000D01*
X138380000Y-106000000D02*
X138380000Y-107000000D01*
%TO.N,Net-(U2-CPOUT)*%
X163170000Y-98250000D02*
X163950000Y-98250000D01*
X162500000Y-97580000D02*
X163170000Y-98250000D01*
%TO.N,Net-(U2-REGOUT)*%
X167850000Y-98750000D02*
X169619999Y-98750000D01*
X169619999Y-98750000D02*
X169719999Y-98850000D01*
%TO.N,BAT+*%
X168600000Y-87350000D02*
X169554000Y-87350000D01*
X174067500Y-91863500D02*
X174067500Y-92890000D01*
X169554000Y-87350000D02*
X174067500Y-91863500D01*
%TO.N,Net-(LS1-Pad1)*%
X175700000Y-100499700D02*
X173129700Y-103070000D01*
X173129700Y-103070000D02*
X169719999Y-103070000D01*
%TO.N,Net-(Q1-D)*%
X173199789Y-108000000D02*
X175700000Y-105499789D01*
X171637500Y-108000000D02*
X173199789Y-108000000D01*
%TO.N,/SDA*%
X151100000Y-104100000D02*
X151100000Y-102000000D01*
%TO.N,/MOSI*%
X163150000Y-103700000D02*
X163150000Y-104750000D01*
X153100000Y-97255000D02*
X154890000Y-97255000D01*
X153155000Y-97255000D02*
X153100000Y-97200000D01*
%TO.N,/ESP_EN*%
X139670000Y-105690000D02*
X140000000Y-106020000D01*
X139670000Y-104100000D02*
X139670000Y-105690000D01*
X140000000Y-106020000D02*
X141400000Y-106020000D01*
X143159999Y-107260000D02*
X143159999Y-107399999D01*
X141919999Y-106020000D02*
X143159999Y-107260000D01*
X141400000Y-106020000D02*
X141919999Y-106020000D01*
%TO.N,/ESP_IO0*%
X168401938Y-109541938D02*
X167943876Y-110000000D01*
X167943876Y-110000000D02*
X162400000Y-110000000D01*
X153640000Y-86600000D02*
X156900000Y-86600000D01*
X161599999Y-110800001D02*
X161599999Y-112500000D01*
X156900000Y-86600000D02*
X157200000Y-86900000D01*
X162400000Y-110000000D02*
X161599999Y-110800001D01*
%TO.N,Net-(Q2-S)*%
X170052500Y-91700000D02*
X172192500Y-93840000D01*
X169871700Y-91700000D02*
X170052500Y-91700000D01*
X177370000Y-94900000D02*
X177370000Y-95850000D01*
X174284900Y-97370001D02*
X174532550Y-97370001D01*
X173190000Y-96275101D02*
X174284900Y-97370001D01*
X175889999Y-97370001D02*
X174532550Y-97370001D01*
X172192500Y-93840000D02*
X173190000Y-94837500D01*
X173190000Y-94837500D02*
X173190000Y-96275101D01*
X177390000Y-95870000D02*
X175889999Y-97370001D01*
X177370000Y-95850000D02*
X177390000Y-95870000D01*
%TO.N,Net-(D1-A)*%
X168880000Y-113700000D02*
X168680000Y-113500000D01*
X170112499Y-113700000D02*
X168880000Y-113700000D01*
%TO.N,Net-(D2-A)*%
X169812499Y-112300000D02*
X170112499Y-112000000D01*
X168680000Y-112300000D02*
X169812499Y-112300000D01*
%TO.N,Net-(J4-CC1)*%
X157109999Y-111490001D02*
X158900000Y-109700000D01*
X151250000Y-109222000D02*
X153518001Y-111490001D01*
X151250000Y-108390000D02*
X151250000Y-109222000D01*
X158900000Y-109700000D02*
X158900000Y-106600000D01*
X153518001Y-111490001D02*
X157109999Y-111490001D01*
%TO.N,/VBUS*%
X163450000Y-93778300D02*
X163450000Y-94900000D01*
X170501900Y-89620000D02*
X172192500Y-91310600D01*
X155700000Y-107050000D02*
X154900000Y-107850000D01*
X155700000Y-107000000D02*
X155700000Y-107050000D01*
X172192500Y-91310600D02*
X172192500Y-91940000D01*
D40*
X150100000Y-108390000D02*
X150200000Y-108490000D01*
D39*
X165528300Y-91700000D02*
X165528300Y-90655464D01*
X165528300Y-90655464D02*
X166563764Y-89620000D01*
X165528300Y-91700000D02*
X163450000Y-93778300D01*
D40*
X154900000Y-108390000D02*
X154800000Y-108490000D01*
X154800000Y-108490000D02*
X154800000Y-109900000D01*
D39*
X165528300Y-91700000D02*
X164100000Y-91700000D01*
X164100000Y-91700000D02*
X163500000Y-91100000D01*
X166563764Y-89620000D02*
X170501900Y-89620000D01*
X154900000Y-107850000D02*
X154900000Y-108390000D01*
D40*
X150200000Y-108490000D02*
X150200000Y-109900000D01*
D39*
%TO.N,USB_D-*%
X151900000Y-107600000D02*
X152550000Y-107600000D01*
X152700000Y-105490001D02*
X152700000Y-104430000D01*
X152750000Y-107800000D02*
X152750000Y-108390000D01*
X152700000Y-104430000D02*
X152370000Y-104100000D01*
X151750000Y-107750000D02*
X151900000Y-107600000D01*
X152750000Y-106959999D02*
X152750000Y-107400000D01*
X152500000Y-106709999D02*
X152750000Y-106959999D01*
X152500000Y-105690001D02*
X152700000Y-105490001D01*
X152550000Y-107600000D02*
X152750000Y-107800000D01*
X152750000Y-107400000D02*
X152750000Y-108390000D01*
X151750000Y-108390000D02*
X151750000Y-107750000D01*
%TO.N,USB_D+*%
X152250000Y-109020000D02*
X152430000Y-109200000D01*
X153300000Y-104440000D02*
X153640000Y-104100000D01*
X153300000Y-105490001D02*
X153300000Y-104440000D01*
X152250000Y-108390000D02*
X152250000Y-109020000D01*
X153100000Y-109200000D02*
X153250000Y-109050000D01*
X153250000Y-109050000D02*
X153250000Y-108390000D01*
X153250000Y-106959999D02*
X153250000Y-108390000D01*
X152430000Y-109200000D02*
X153100000Y-109200000D01*
X153500000Y-106709999D02*
X153250000Y-106959999D01*
X153500000Y-105690001D02*
X153300000Y-105490001D01*
%TO.N,Net-(U5-EN)*%
X175840001Y-95469999D02*
X177370000Y-93940000D01*
X174532550Y-95469999D02*
X175840001Y-95469999D01*
%TO.N,GND*%
X141400000Y-107200000D02*
X142100000Y-107900000D01*
X168250000Y-108950000D02*
X169762500Y-108950000D01*
X164650000Y-100950000D02*
X164650000Y-101408824D01*
X164300000Y-95800000D02*
X164300000Y-96700000D01*
X171990000Y-99210000D02*
X171080000Y-99210000D01*
X137420000Y-107000000D02*
X136500000Y-107000000D01*
X169079999Y-99250000D02*
X169719999Y-99890000D01*
X137130000Y-105810000D02*
X137320000Y-106000000D01*
X168080000Y-95800000D02*
X169100000Y-95800000D01*
X167800000Y-108500000D02*
X168250000Y-108950000D01*
X169700000Y-97870001D02*
X169719999Y-97890000D01*
X168240000Y-107880000D02*
X168240000Y-108060000D01*
X155700000Y-108390000D02*
X156240000Y-108390000D01*
X137130000Y-104100000D02*
X137130000Y-105810000D01*
X137320000Y-106000000D02*
X137320000Y-107000000D01*
X149300000Y-107000000D02*
X149300000Y-108390000D01*
X167850000Y-99250000D02*
X169079999Y-99250000D01*
X164650000Y-101408824D02*
X165441176Y-102200000D01*
X165441176Y-102200000D02*
X165600000Y-102200000D01*
X171687501Y-113700000D02*
X173100000Y-113700000D01*
X164400000Y-106900000D02*
X164400000Y-108090509D01*
X171700000Y-111987501D02*
X171687501Y-112000000D01*
X165000001Y-112500000D02*
X165000000Y-114500000D01*
X137130000Y-88470000D02*
X137100000Y-88500000D01*
X168240000Y-108060000D02*
X167800000Y-108500000D01*
X164300000Y-96700000D02*
X164650000Y-97050000D01*
X169700000Y-96900000D02*
X169700000Y-97870001D01*
X160475000Y-109275000D02*
X160940000Y-108810000D01*
X141400000Y-106980000D02*
X141400000Y-107200000D01*
X171700000Y-110600000D02*
X171700000Y-111987501D01*
X148760000Y-108390000D02*
X148180000Y-108970000D01*
X146500001Y-107800000D02*
X146500001Y-109800000D01*
X163500000Y-89100000D02*
X163500000Y-90140000D01*
X175879999Y-96420000D02*
X174532549Y-96420000D01*
X149300000Y-108390000D02*
X148760000Y-108390000D01*
X169719999Y-99890000D02*
X170405108Y-99890000D01*
X156240000Y-108390000D02*
X156820000Y-108970000D01*
X162500000Y-95500000D02*
X162500000Y-96620000D01*
X178640000Y-96830000D02*
X177390000Y-96830000D01*
X172200000Y-99000000D02*
X171990000Y-99210000D01*
X137320000Y-106000000D02*
X136500000Y-106000000D01*
X170405108Y-99890000D02*
X170471007Y-99824101D01*
X171080000Y-99210000D02*
X171080000Y-99215108D01*
X163150000Y-106900000D02*
X163150000Y-108100000D01*
X137130000Y-86600000D02*
X137130000Y-88470000D01*
X160940000Y-108810000D02*
X160940000Y-108150000D01*
%TO.N,Net-(J4-CC2)*%
X154250000Y-110100000D02*
X154750000Y-110600000D01*
X154750000Y-110600000D02*
X157200000Y-110600000D01*
X157900000Y-109900000D02*
X157900000Y-106609999D01*
X154250000Y-108390000D02*
X154250000Y-110100000D01*
X157200000Y-110600000D02*
X157900000Y-109900000D01*
%TO.N,/BUZZER*%
X146020000Y-86600000D02*
X146020000Y-92020000D01*
X147000000Y-93000000D02*
X152350000Y-93000000D01*
X152350000Y-93000000D02*
X153100000Y-92250000D01*
X146020000Y-92020000D02*
X147000000Y-93000000D01*
X169632500Y-106920000D02*
X169762500Y-107050000D01*
X169000000Y-106287500D02*
X169762500Y-107050000D01*
X169000000Y-105800000D02*
X169000000Y-106287500D01*
X168250000Y-106920000D02*
X169632500Y-106920000D01*
%TO.N,/LED*%
X167290000Y-113940000D02*
X167720000Y-113510000D01*
X147500000Y-86810000D02*
X147290000Y-86600000D01*
X166900000Y-113940000D02*
X167290000Y-113940000D01*
X147500000Y-92250000D02*
X147500000Y-86810000D01*
X167720000Y-113510000D02*
X167720000Y-113500000D01*
%TO.N,/SCK*%
X161900000Y-103700000D02*
X161900000Y-104750000D01*
X155840000Y-95985000D02*
X154890000Y-95985000D01*
X156400000Y-97900000D02*
X156400000Y-96545000D01*
X156400000Y-96545000D02*
X155840000Y-95985000D01*
%TO.N,/CS*%
X166200000Y-108150000D02*
X165700000Y-107650000D01*
X165700000Y-107650000D02*
X165700000Y-106950000D01*
X165650000Y-103700000D02*
X165650000Y-104750000D01*
%TO.N,/MISO*%
X164400000Y-103700000D02*
X164400000Y-104750000D01*
X153115000Y-94715000D02*
X153100000Y-94700000D01*
X153100000Y-94715000D02*
X154890000Y-94715000D01*
%TO.N,GND*%
X157900000Y-104690001D02*
X157900000Y-105590001D01*
X158900000Y-104690001D02*
X158900000Y-105580002D01*
%TD*%
%TA.AperFunction,Conductor*%
%TO.N,+3V3*%
G36*
X180347539Y-85640185D02*
G01*
X180393294Y-85692989D01*
X180404500Y-85744500D01*
X180404500Y-114895500D01*
X180384815Y-114962539D01*
X180332011Y-115008294D01*
X180280500Y-115019500D01*
X165755670Y-115019500D01*
X165688631Y-114999815D01*
X165642876Y-114947011D01*
X165632932Y-114877853D01*
X165641109Y-114848047D01*
X165644261Y-114840436D01*
X165697619Y-114711620D01*
X165717327Y-114612544D01*
X165725500Y-114571457D01*
X165725500Y-114428541D01*
X165697620Y-114288385D01*
X165697619Y-114288384D01*
X165697619Y-114288380D01*
X165642929Y-114156347D01*
X165621396Y-114124121D01*
X165615746Y-114106075D01*
X165605523Y-114090167D01*
X165601071Y-114059204D01*
X165600520Y-114057444D01*
X165600500Y-114055232D01*
X165600500Y-114011457D01*
X166174499Y-114011457D01*
X166202379Y-114151614D01*
X166202381Y-114151620D01*
X166257069Y-114283650D01*
X166257074Y-114283659D01*
X166336467Y-114402478D01*
X166336470Y-114402482D01*
X166437517Y-114503529D01*
X166437521Y-114503532D01*
X166556340Y-114582925D01*
X166556346Y-114582928D01*
X166556347Y-114582929D01*
X166688380Y-114637619D01*
X166688384Y-114637619D01*
X166688385Y-114637620D01*
X166828542Y-114665500D01*
X166828545Y-114665500D01*
X166971457Y-114665500D01*
X167065751Y-114646742D01*
X167111620Y-114637619D01*
X167243653Y-114582929D01*
X167243658Y-114582925D01*
X167243661Y-114582924D01*
X167275874Y-114561400D01*
X167342551Y-114540521D01*
X167344766Y-114540501D01*
X167369054Y-114540501D01*
X167369057Y-114540501D01*
X167521785Y-114499577D01*
X167571904Y-114470639D01*
X167658716Y-114420520D01*
X167738067Y-114341168D01*
X167744395Y-114336291D01*
X167769805Y-114326402D01*
X167793739Y-114313334D01*
X167807073Y-114311900D01*
X167809508Y-114310953D01*
X167811717Y-114311401D01*
X167820098Y-114310500D01*
X167924682Y-114310500D01*
X167924690Y-114310500D01*
X167960993Y-114307643D01*
X167960995Y-114307642D01*
X167960997Y-114307642D01*
X168001975Y-114295736D01*
X168116395Y-114262494D01*
X168136879Y-114250379D01*
X168204601Y-114233196D01*
X168263119Y-114250379D01*
X168283605Y-114262494D01*
X168283607Y-114262494D01*
X168283608Y-114262495D01*
X168439002Y-114307642D01*
X168439005Y-114307642D01*
X168439007Y-114307643D01*
X168475310Y-114310500D01*
X168475318Y-114310500D01*
X168884682Y-114310500D01*
X168884690Y-114310500D01*
X168920993Y-114307643D01*
X168925635Y-114306294D01*
X168928628Y-114305425D01*
X168951372Y-114302184D01*
X168951282Y-114301459D01*
X168951290Y-114301458D01*
X168960494Y-114300884D01*
X168963187Y-114300501D01*
X168966634Y-114300500D01*
X168966637Y-114300501D01*
X168966654Y-114300501D01*
X168966670Y-114300500D01*
X169191814Y-114300500D01*
X169258853Y-114320185D01*
X169297350Y-114359400D01*
X169323922Y-114402479D01*
X169325719Y-114405392D01*
X169444607Y-114524280D01*
X169444611Y-114524283D01*
X169587703Y-114612544D01*
X169587706Y-114612545D01*
X169587712Y-114612549D01*
X169747314Y-114665436D01*
X169845825Y-114675500D01*
X169845830Y-114675500D01*
X170379168Y-114675500D01*
X170379173Y-114675500D01*
X170477684Y-114665436D01*
X170637286Y-114612549D01*
X170780390Y-114524281D01*
X170812319Y-114492352D01*
X170873642Y-114458867D01*
X170943334Y-114463851D01*
X170987681Y-114492352D01*
X171019609Y-114524280D01*
X171019613Y-114524283D01*
X171162705Y-114612544D01*
X171162708Y-114612545D01*
X171162714Y-114612549D01*
X171322316Y-114665436D01*
X171420827Y-114675500D01*
X171420832Y-114675500D01*
X171954170Y-114675500D01*
X171954175Y-114675500D01*
X172052686Y-114665436D01*
X172212288Y-114612549D01*
X172355392Y-114524281D01*
X172474282Y-114405391D01*
X172502649Y-114359401D01*
X172510234Y-114352578D01*
X172514473Y-114343297D01*
X172535772Y-114329608D01*
X172554595Y-114312679D01*
X172566230Y-114310034D01*
X172573251Y-114305523D01*
X172608186Y-114300500D01*
X172655233Y-114300500D01*
X172722272Y-114320185D01*
X172724124Y-114321398D01*
X172756348Y-114342930D01*
X172822363Y-114370274D01*
X172888380Y-114397619D01*
X172888384Y-114397619D01*
X172888385Y-114397620D01*
X173028542Y-114425500D01*
X173028545Y-114425500D01*
X173171457Y-114425500D01*
X173287172Y-114402482D01*
X173311620Y-114397619D01*
X173443653Y-114342929D01*
X173562479Y-114263532D01*
X173663532Y-114162479D01*
X173742929Y-114043653D01*
X173797619Y-113911620D01*
X173809777Y-113850498D01*
X173825500Y-113771457D01*
X173825500Y-113628542D01*
X173797620Y-113488385D01*
X173797619Y-113488384D01*
X173797619Y-113488380D01*
X173742929Y-113356347D01*
X173742928Y-113356346D01*
X173742925Y-113356340D01*
X173663532Y-113237521D01*
X173663529Y-113237517D01*
X173562482Y-113136470D01*
X173562478Y-113136467D01*
X173443659Y-113057074D01*
X173443650Y-113057069D01*
X173311620Y-113002381D01*
X173311614Y-113002379D01*
X173171457Y-112974500D01*
X173171455Y-112974500D01*
X173028545Y-112974500D01*
X173028543Y-112974500D01*
X172888385Y-113002379D01*
X172888379Y-113002381D01*
X172756348Y-113057069D01*
X172724124Y-113078602D01*
X172706077Y-113084252D01*
X172690168Y-113094477D01*
X172659206Y-113098928D01*
X172657446Y-113099480D01*
X172655233Y-113099500D01*
X172608186Y-113099500D01*
X172541147Y-113079815D01*
X172502649Y-113040599D01*
X172474282Y-112994609D01*
X172417354Y-112937681D01*
X172383869Y-112876358D01*
X172388853Y-112806666D01*
X172417354Y-112762319D01*
X172442167Y-112737506D01*
X172474282Y-112705391D01*
X172562550Y-112562287D01*
X172615437Y-112402685D01*
X172625501Y-112304174D01*
X172625501Y-111695826D01*
X172615437Y-111597315D01*
X172562550Y-111437713D01*
X172562546Y-111437707D01*
X172562545Y-111437704D01*
X172513453Y-111358114D01*
X172475443Y-111296491D01*
X173869500Y-111296491D01*
X173869500Y-111633508D01*
X173907231Y-111968381D01*
X173907233Y-111968397D01*
X173982223Y-112296953D01*
X173982227Y-112296965D01*
X174093532Y-112615054D01*
X174239752Y-112918683D01*
X174239754Y-112918686D01*
X174419054Y-113204039D01*
X174573639Y-113397883D01*
X174621167Y-113457482D01*
X174629175Y-113467523D01*
X174867477Y-113705825D01*
X175130961Y-113915946D01*
X175416314Y-114095246D01*
X175719949Y-114241469D01*
X175944906Y-114320185D01*
X176038034Y-114352772D01*
X176038046Y-114352776D01*
X176366606Y-114427767D01*
X176701492Y-114465499D01*
X176701493Y-114465500D01*
X176701496Y-114465500D01*
X177038507Y-114465500D01*
X177038507Y-114465499D01*
X177373394Y-114427767D01*
X177701954Y-114352776D01*
X178020051Y-114241469D01*
X178323686Y-114095246D01*
X178609039Y-113915946D01*
X178872523Y-113705825D01*
X179110825Y-113467523D01*
X179320946Y-113204039D01*
X179500246Y-112918686D01*
X179646469Y-112615051D01*
X179757776Y-112296954D01*
X179832767Y-111968394D01*
X179870500Y-111633504D01*
X179870500Y-111296496D01*
X179832767Y-110961606D01*
X179757776Y-110633046D01*
X179646469Y-110314949D01*
X179518666Y-110049564D01*
X179500247Y-110011316D01*
X179495912Y-110004417D01*
X179320946Y-109725961D01*
X179110825Y-109462477D01*
X178872523Y-109224175D01*
X178848202Y-109204780D01*
X178780135Y-109150498D01*
X178609039Y-109014054D01*
X178344162Y-108847620D01*
X178323683Y-108834752D01*
X178020054Y-108688532D01*
X177701965Y-108577227D01*
X177701953Y-108577223D01*
X177373397Y-108502233D01*
X177373381Y-108502231D01*
X177038508Y-108464500D01*
X177038504Y-108464500D01*
X176701496Y-108464500D01*
X176701491Y-108464500D01*
X176366618Y-108502231D01*
X176366602Y-108502233D01*
X176038046Y-108577223D01*
X176038034Y-108577227D01*
X175719945Y-108688532D01*
X175416316Y-108834752D01*
X175130962Y-109014053D01*
X174867477Y-109224174D01*
X174629174Y-109462477D01*
X174419053Y-109725962D01*
X174239752Y-110011316D01*
X174093532Y-110314945D01*
X173982227Y-110633034D01*
X173982223Y-110633046D01*
X173907233Y-110961602D01*
X173907231Y-110961618D01*
X173869500Y-111296491D01*
X172475443Y-111296491D01*
X172474284Y-111294612D01*
X172474281Y-111294608D01*
X172355392Y-111175719D01*
X172349725Y-111171238D01*
X172350849Y-111169816D01*
X172343297Y-111166367D01*
X172329605Y-111145061D01*
X172312669Y-111126226D01*
X172310027Y-111114598D01*
X172305523Y-111107589D01*
X172300500Y-111072654D01*
X172300500Y-111044766D01*
X172320185Y-110977727D01*
X172321399Y-110975874D01*
X172342929Y-110943653D01*
X172397619Y-110811620D01*
X172412036Y-110739143D01*
X172425500Y-110671457D01*
X172425500Y-110528542D01*
X172397620Y-110388385D01*
X172397619Y-110388384D01*
X172397619Y-110388380D01*
X172342929Y-110256347D01*
X172342928Y-110256346D01*
X172342925Y-110256340D01*
X172263532Y-110137521D01*
X172263529Y-110137517D01*
X172162482Y-110036470D01*
X172162478Y-110036467D01*
X172043659Y-109957074D01*
X172043650Y-109957069D01*
X171911620Y-109902381D01*
X171911614Y-109902379D01*
X171771457Y-109874500D01*
X171771455Y-109874500D01*
X171628545Y-109874500D01*
X171628543Y-109874500D01*
X171488385Y-109902379D01*
X171488379Y-109902381D01*
X171356349Y-109957069D01*
X171356340Y-109957074D01*
X171237521Y-110036467D01*
X171237517Y-110036470D01*
X171136470Y-110137517D01*
X171136467Y-110137521D01*
X171057074Y-110256340D01*
X171057069Y-110256349D01*
X171002381Y-110388379D01*
X171002379Y-110388385D01*
X170974500Y-110528542D01*
X170974500Y-110528545D01*
X170974500Y-110671455D01*
X170974500Y-110671457D01*
X170974499Y-110671457D01*
X171002379Y-110811614D01*
X171002381Y-110811620D01*
X171034509Y-110889185D01*
X171057071Y-110943653D01*
X171069064Y-110961602D01*
X171078601Y-110975874D01*
X171084252Y-110993920D01*
X171094477Y-111009831D01*
X171098928Y-111040788D01*
X171099480Y-111042551D01*
X171099500Y-111044766D01*
X171099500Y-111057235D01*
X171079815Y-111124274D01*
X171040599Y-111162772D01*
X171034772Y-111166367D01*
X171019608Y-111175720D01*
X170987680Y-111207648D01*
X170926356Y-111241133D01*
X170856665Y-111236147D01*
X170812320Y-111207648D01*
X170780391Y-111175719D01*
X170780386Y-111175716D01*
X170637294Y-111087455D01*
X170637288Y-111087452D01*
X170637286Y-111087451D01*
X170477684Y-111034564D01*
X170477682Y-111034563D01*
X170379180Y-111024500D01*
X170379173Y-111024500D01*
X169845825Y-111024500D01*
X169845817Y-111024500D01*
X169747315Y-111034563D01*
X169747314Y-111034564D01*
X169704546Y-111048736D01*
X169587714Y-111087450D01*
X169587703Y-111087455D01*
X169444611Y-111175716D01*
X169444607Y-111175719D01*
X169325718Y-111294608D01*
X169325715Y-111294612D01*
X169237454Y-111437704D01*
X169237449Y-111437715D01*
X169230719Y-111458025D01*
X169190944Y-111515469D01*
X169126427Y-111542289D01*
X169078419Y-111538093D01*
X168920997Y-111492357D01*
X168920991Y-111492356D01*
X168884697Y-111489500D01*
X168884690Y-111489500D01*
X168475310Y-111489500D01*
X168475302Y-111489500D01*
X168439008Y-111492356D01*
X168439002Y-111492357D01*
X168283609Y-111537504D01*
X168283604Y-111537506D01*
X168262628Y-111549911D01*
X168194903Y-111567092D01*
X168136389Y-111549911D01*
X168116191Y-111537966D01*
X168116190Y-111537965D01*
X167970001Y-111495493D01*
X167970000Y-111495494D01*
X167970000Y-111801645D01*
X167952734Y-111864763D01*
X167947507Y-111873600D01*
X167947504Y-111873608D01*
X167902357Y-112029002D01*
X167902356Y-112029008D01*
X167899500Y-112065302D01*
X167899500Y-112176000D01*
X167879815Y-112243039D01*
X167827011Y-112288794D01*
X167775500Y-112300000D01*
X167720000Y-112300000D01*
X167720000Y-112426000D01*
X167700315Y-112493039D01*
X167647511Y-112538794D01*
X167596000Y-112550000D01*
X166941210Y-112550000D01*
X166942854Y-112570910D01*
X166987968Y-112726195D01*
X167053136Y-112836388D01*
X167055167Y-112844396D01*
X167060425Y-112850772D01*
X167063634Y-112877765D01*
X167070319Y-112904112D01*
X167067911Y-112913740D01*
X167068674Y-112920153D01*
X167061200Y-112940585D01*
X167057905Y-112953764D01*
X167055701Y-112958293D01*
X166987506Y-113073605D01*
X166969596Y-113135248D01*
X166964971Y-113144755D01*
X166948282Y-113163088D01*
X166934940Y-113183981D01*
X166925174Y-113188474D01*
X166917938Y-113196424D01*
X166893987Y-113202824D01*
X166871467Y-113213187D01*
X166853470Y-113214500D01*
X166828543Y-113214500D01*
X166688385Y-113242379D01*
X166688379Y-113242381D01*
X166556349Y-113297069D01*
X166556340Y-113297074D01*
X166437521Y-113376467D01*
X166437517Y-113376470D01*
X166336470Y-113477517D01*
X166336467Y-113477521D01*
X166257074Y-113596340D01*
X166257069Y-113596349D01*
X166202381Y-113728379D01*
X166202379Y-113728385D01*
X166174500Y-113868542D01*
X166174500Y-113868545D01*
X166174500Y-114011455D01*
X166174500Y-114011457D01*
X166174499Y-114011457D01*
X165600500Y-114011457D01*
X165600500Y-113914142D01*
X165620185Y-113847103D01*
X165672989Y-113801348D01*
X165681159Y-113797962D01*
X165692332Y-113793796D01*
X165807547Y-113707546D01*
X165893797Y-113592331D01*
X165944092Y-113457483D01*
X165950501Y-113397873D01*
X165950500Y-112049999D01*
X166941209Y-112049999D01*
X166941210Y-112050000D01*
X167470000Y-112050000D01*
X167470000Y-111495494D01*
X167469998Y-111495493D01*
X167323809Y-111537965D01*
X167323806Y-111537967D01*
X167184625Y-111620278D01*
X167184616Y-111620285D01*
X167070285Y-111734616D01*
X167070278Y-111734625D01*
X166987968Y-111873804D01*
X166987966Y-111873809D01*
X166942855Y-112029081D01*
X166942854Y-112029087D01*
X166941209Y-112049999D01*
X165950500Y-112049999D01*
X165950500Y-111602128D01*
X165944092Y-111542517D01*
X165942394Y-111537965D01*
X165893798Y-111407671D01*
X165893794Y-111407664D01*
X165807548Y-111292455D01*
X165807545Y-111292452D01*
X165692336Y-111206206D01*
X165692329Y-111206202D01*
X165557483Y-111155908D01*
X165557484Y-111155908D01*
X165497884Y-111149501D01*
X165497882Y-111149500D01*
X165497874Y-111149500D01*
X165497865Y-111149500D01*
X164502130Y-111149500D01*
X164502124Y-111149501D01*
X164442517Y-111155908D01*
X164307672Y-111206202D01*
X164307665Y-111206206D01*
X164192456Y-111292452D01*
X164192453Y-111292455D01*
X164106207Y-111407664D01*
X164106203Y-111407671D01*
X164055909Y-111542517D01*
X164050018Y-111597315D01*
X164049502Y-111602123D01*
X164049501Y-111602135D01*
X164049501Y-113397870D01*
X164049502Y-113397876D01*
X164055909Y-113457483D01*
X164106203Y-113592328D01*
X164106207Y-113592335D01*
X164192453Y-113707544D01*
X164192456Y-113707547D01*
X164307665Y-113793793D01*
X164307667Y-113793794D01*
X164307670Y-113793796D01*
X164318829Y-113797958D01*
X164336557Y-113811227D01*
X164356703Y-113820428D01*
X164363983Y-113831756D01*
X164374764Y-113839826D01*
X164382504Y-113860576D01*
X164394477Y-113879206D01*
X164397627Y-113901115D01*
X164399184Y-113905289D01*
X164399500Y-113914141D01*
X164399500Y-114055232D01*
X164379815Y-114122271D01*
X164378603Y-114124122D01*
X164357070Y-114156348D01*
X164302381Y-114288379D01*
X164302379Y-114288385D01*
X164274500Y-114428541D01*
X164274500Y-114428545D01*
X164274500Y-114571455D01*
X164274500Y-114571457D01*
X164274499Y-114571457D01*
X164302379Y-114711614D01*
X164302381Y-114711620D01*
X164358891Y-114848047D01*
X164366360Y-114917517D01*
X164335085Y-114979996D01*
X164274996Y-115015648D01*
X164244330Y-115019500D01*
X136129500Y-115019500D01*
X136062461Y-114999815D01*
X136016706Y-114947011D01*
X136005500Y-114895500D01*
X136005500Y-111296491D01*
X136469500Y-111296491D01*
X136469500Y-111633508D01*
X136507231Y-111968381D01*
X136507233Y-111968397D01*
X136582223Y-112296953D01*
X136582227Y-112296965D01*
X136693532Y-112615054D01*
X136839752Y-112918683D01*
X136839754Y-112918686D01*
X137019054Y-113204039D01*
X137173639Y-113397883D01*
X137221167Y-113457482D01*
X137229175Y-113467523D01*
X137467477Y-113705825D01*
X137730961Y-113915946D01*
X138016314Y-114095246D01*
X138319949Y-114241469D01*
X138544906Y-114320185D01*
X138638034Y-114352772D01*
X138638046Y-114352776D01*
X138966606Y-114427767D01*
X139301492Y-114465499D01*
X139301493Y-114465500D01*
X139301496Y-114465500D01*
X139638507Y-114465500D01*
X139638507Y-114465499D01*
X139973394Y-114427767D01*
X140301954Y-114352776D01*
X140620051Y-114241469D01*
X140923686Y-114095246D01*
X141209039Y-113915946D01*
X141472523Y-113705825D01*
X141710825Y-113467523D01*
X141920946Y-113204039D01*
X142100246Y-112918686D01*
X142231382Y-112646379D01*
X147229500Y-112646379D01*
X147229500Y-113633620D01*
X147266025Y-113817243D01*
X147266027Y-113817251D01*
X147337676Y-113990228D01*
X147337681Y-113990237D01*
X147441697Y-114145907D01*
X147441700Y-114145911D01*
X147574088Y-114278299D01*
X147574092Y-114278302D01*
X147729762Y-114382318D01*
X147729768Y-114382321D01*
X147729769Y-114382322D01*
X147902749Y-114453973D01*
X148086379Y-114490499D01*
X148086383Y-114490500D01*
X148086384Y-114490500D01*
X148273617Y-114490500D01*
X148273618Y-114490499D01*
X148457251Y-114453973D01*
X148630231Y-114382322D01*
X148785908Y-114278302D01*
X148918302Y-114145908D01*
X149022322Y-113990231D01*
X149093973Y-113817251D01*
X149130500Y-113633616D01*
X149130500Y-112646384D01*
X149093973Y-112462749D01*
X149022322Y-112289769D01*
X149022321Y-112289768D01*
X149022318Y-112289762D01*
X148918302Y-112134092D01*
X148918299Y-112134088D01*
X148785911Y-112001700D01*
X148785907Y-112001697D01*
X148630237Y-111897681D01*
X148630228Y-111897676D01*
X148457251Y-111826027D01*
X148457243Y-111826025D01*
X148273620Y-111789500D01*
X148273616Y-111789500D01*
X148086384Y-111789500D01*
X148086379Y-111789500D01*
X147902756Y-111826025D01*
X147902748Y-111826027D01*
X147729771Y-111897676D01*
X147729762Y-111897681D01*
X147574092Y-112001697D01*
X147574088Y-112001700D01*
X147441700Y-112134088D01*
X147441697Y-112134092D01*
X147337681Y-112289762D01*
X147337676Y-112289771D01*
X147266027Y-112462748D01*
X147266025Y-112462756D01*
X147229500Y-112646379D01*
X142231382Y-112646379D01*
X142246469Y-112615051D01*
X142357776Y-112296954D01*
X142432767Y-111968394D01*
X142470500Y-111633504D01*
X142470500Y-111296496D01*
X142432767Y-110961606D01*
X142357776Y-110633046D01*
X142246469Y-110314949D01*
X142118666Y-110049564D01*
X142100247Y-110011316D01*
X142095912Y-110004417D01*
X141920946Y-109725961D01*
X141710825Y-109462477D01*
X141472523Y-109224175D01*
X141448202Y-109204780D01*
X141380135Y-109150498D01*
X141209039Y-109014054D01*
X140944162Y-108847620D01*
X140923683Y-108834752D01*
X140620054Y-108688532D01*
X140301965Y-108577227D01*
X140301953Y-108577223D01*
X139973397Y-108502233D01*
X139973381Y-108502231D01*
X139638508Y-108464500D01*
X139638504Y-108464500D01*
X139301496Y-108464500D01*
X139301491Y-108464500D01*
X138966618Y-108502231D01*
X138966602Y-108502233D01*
X138638046Y-108577223D01*
X138638034Y-108577227D01*
X138319945Y-108688532D01*
X138016316Y-108834752D01*
X137730962Y-109014053D01*
X137467477Y-109224174D01*
X137229174Y-109462477D01*
X137019053Y-109725962D01*
X136839752Y-110011316D01*
X136693532Y-110314945D01*
X136582227Y-110633034D01*
X136582223Y-110633046D01*
X136507233Y-110961602D01*
X136507231Y-110961618D01*
X136469500Y-111296491D01*
X136005500Y-111296491D01*
X136005500Y-107766025D01*
X136025185Y-107698986D01*
X136077989Y-107653231D01*
X136147147Y-107643287D01*
X136176950Y-107651463D01*
X136288380Y-107697619D01*
X136288384Y-107697619D01*
X136288385Y-107697620D01*
X136428542Y-107725500D01*
X136428545Y-107725500D01*
X136571457Y-107725500D01*
X136678329Y-107704241D01*
X136711620Y-107697619D01*
X136714517Y-107696418D01*
X136716158Y-107696242D01*
X136717451Y-107695850D01*
X136717525Y-107696094D01*
X136783983Y-107688940D01*
X136825103Y-107704240D01*
X136923605Y-107762494D01*
X136935759Y-107766025D01*
X137079002Y-107807642D01*
X137079005Y-107807642D01*
X137079007Y-107807643D01*
X137115310Y-107810500D01*
X137115318Y-107810500D01*
X137524682Y-107810500D01*
X137524690Y-107810500D01*
X137560993Y-107807643D01*
X137560995Y-107807642D01*
X137560997Y-107807642D01*
X137601975Y-107795736D01*
X137716395Y-107762494D01*
X137737369Y-107750089D01*
X137805088Y-107732906D01*
X137863613Y-107750090D01*
X137883803Y-107762031D01*
X138030000Y-107804504D01*
X138030000Y-107498352D01*
X138047267Y-107435233D01*
X138052494Y-107426395D01*
X138053518Y-107422873D01*
X138097642Y-107270997D01*
X138097643Y-107270991D01*
X138097762Y-107269478D01*
X138099295Y-107250000D01*
X138530000Y-107250000D01*
X138530000Y-107804503D01*
X138676195Y-107762031D01*
X138815374Y-107679721D01*
X138815383Y-107679714D01*
X138929714Y-107565383D01*
X138929721Y-107565374D01*
X139012031Y-107426195D01*
X139012032Y-107426193D01*
X139016257Y-107411651D01*
X139053863Y-107352765D01*
X139117335Y-107323557D01*
X139186522Y-107333302D01*
X139239457Y-107378905D01*
X139242066Y-107383123D01*
X139320279Y-107515375D01*
X139320285Y-107515383D01*
X139434616Y-107629714D01*
X139434625Y-107629721D01*
X139573804Y-107712031D01*
X139729089Y-107757145D01*
X139750000Y-107758789D01*
X139750000Y-107230000D01*
X139180020Y-107230000D01*
X139159224Y-107245521D01*
X139113030Y-107248757D01*
X139113030Y-107250000D01*
X139095292Y-107250000D01*
X139089525Y-107250404D01*
X139088788Y-107250000D01*
X138530000Y-107250000D01*
X138099295Y-107250000D01*
X138100500Y-107234690D01*
X138100500Y-106765310D01*
X138097643Y-106729007D01*
X138095749Y-106722489D01*
X138052495Y-106573608D01*
X138052492Y-106573600D01*
X138047266Y-106564763D01*
X138042916Y-106548862D01*
X138035023Y-106536580D01*
X138030000Y-106501645D01*
X138030000Y-106498352D01*
X138047267Y-106435233D01*
X138052494Y-106426395D01*
X138055400Y-106416395D01*
X138097642Y-106270997D01*
X138097643Y-106270991D01*
X138097730Y-106269883D01*
X138100500Y-106234690D01*
X138100500Y-105765310D01*
X138097643Y-105729007D01*
X138096624Y-105725500D01*
X138052495Y-105573608D01*
X138052492Y-105573600D01*
X138047266Y-105564763D01*
X138030000Y-105501645D01*
X138030000Y-105184000D01*
X138049685Y-105116961D01*
X138102489Y-105071206D01*
X138148887Y-105061112D01*
X138150000Y-105060000D01*
X138150000Y-102850000D01*
X137902155Y-102850000D01*
X137842627Y-102856401D01*
X137842619Y-102856403D01*
X137809047Y-102868925D01*
X137739355Y-102873909D01*
X137722381Y-102868925D01*
X137687482Y-102855908D01*
X137687483Y-102855908D01*
X137627883Y-102849501D01*
X137627881Y-102849500D01*
X137627873Y-102849500D01*
X137627864Y-102849500D01*
X136632129Y-102849500D01*
X136632123Y-102849501D01*
X136572516Y-102855908D01*
X136437671Y-102906202D01*
X136437664Y-102906206D01*
X136322455Y-102992452D01*
X136322452Y-102992455D01*
X136230888Y-103114769D01*
X136228855Y-103113247D01*
X136188925Y-103153177D01*
X136120652Y-103168028D01*
X136055188Y-103143610D01*
X136013318Y-103087676D01*
X136005500Y-103044344D01*
X136005500Y-94852135D01*
X142399500Y-94852135D01*
X142399500Y-98847870D01*
X142399501Y-98847876D01*
X142405908Y-98907483D01*
X142456202Y-99042328D01*
X142456206Y-99042335D01*
X142542452Y-99157544D01*
X142542455Y-99157547D01*
X142657664Y-99243793D01*
X142657671Y-99243797D01*
X142792517Y-99294091D01*
X142792516Y-99294091D01*
X142799444Y-99294835D01*
X142852127Y-99300500D01*
X146847872Y-99300499D01*
X146907483Y-99294091D01*
X147042331Y-99243796D01*
X147157546Y-99157546D01*
X147243796Y-99042331D01*
X147294091Y-98907483D01*
X147300500Y-98847873D01*
X147300499Y-94852128D01*
X147294091Y-94792517D01*
X147287869Y-94775836D01*
X147243797Y-94657671D01*
X147243793Y-94657664D01*
X147157547Y-94542455D01*
X147157544Y-94542452D01*
X147042335Y-94456206D01*
X147042328Y-94456202D01*
X146907482Y-94405908D01*
X146907483Y-94405908D01*
X146847883Y-94399501D01*
X146847881Y-94399500D01*
X146847873Y-94399500D01*
X146847864Y-94399500D01*
X142852129Y-94399500D01*
X142852123Y-94399501D01*
X142792516Y-94405908D01*
X142657671Y-94456202D01*
X142657664Y-94456206D01*
X142542455Y-94542452D01*
X142542452Y-94542455D01*
X142456206Y-94657664D01*
X142456202Y-94657671D01*
X142405908Y-94792517D01*
X142399501Y-94852116D01*
X142399501Y-94852123D01*
X142399500Y-94852135D01*
X136005500Y-94852135D01*
X136005500Y-87655655D01*
X136025185Y-87588616D01*
X136077989Y-87542861D01*
X136147147Y-87532917D01*
X136210703Y-87561942D01*
X136230002Y-87585893D01*
X136230888Y-87585231D01*
X136322452Y-87707544D01*
X136322455Y-87707547D01*
X136437665Y-87793794D01*
X136437667Y-87793794D01*
X136437669Y-87793796D01*
X136448830Y-87797958D01*
X136466557Y-87811227D01*
X136486703Y-87820428D01*
X136493983Y-87831756D01*
X136504764Y-87839826D01*
X136512504Y-87860576D01*
X136524477Y-87879206D01*
X136527627Y-87901115D01*
X136529184Y-87905289D01*
X136529500Y-87914141D01*
X136529500Y-88010333D01*
X136509815Y-88077372D01*
X136508602Y-88079223D01*
X136457077Y-88156335D01*
X136457069Y-88156349D01*
X136402381Y-88288379D01*
X136402379Y-88288385D01*
X136374500Y-88428542D01*
X136374500Y-88428545D01*
X136374500Y-88571455D01*
X136374500Y-88571457D01*
X136374499Y-88571457D01*
X136402379Y-88711614D01*
X136402381Y-88711620D01*
X136457069Y-88843650D01*
X136457074Y-88843659D01*
X136536467Y-88962478D01*
X136536470Y-88962482D01*
X136637517Y-89063529D01*
X136637521Y-89063532D01*
X136756340Y-89142925D01*
X136756346Y-89142928D01*
X136756347Y-89142929D01*
X136888380Y-89197619D01*
X136888384Y-89197619D01*
X136888385Y-89197620D01*
X137028542Y-89225500D01*
X137028545Y-89225500D01*
X137171457Y-89225500D01*
X137265751Y-89206742D01*
X137311620Y-89197619D01*
X137443653Y-89142929D01*
X137562479Y-89063532D01*
X137663532Y-88962479D01*
X137742929Y-88843653D01*
X137797619Y-88711620D01*
X137806742Y-88665751D01*
X137825500Y-88571457D01*
X137825500Y-88428542D01*
X137797620Y-88288385D01*
X137797619Y-88288384D01*
X137797619Y-88288380D01*
X137742929Y-88156347D01*
X137742928Y-88156346D01*
X137740598Y-88150720D01*
X137742497Y-88149933D01*
X137741630Y-88146472D01*
X137735523Y-88136969D01*
X137730500Y-88102034D01*
X137730500Y-87970093D01*
X137750185Y-87903054D01*
X137802989Y-87857299D01*
X137867754Y-87846804D01*
X137902127Y-87850500D01*
X138897872Y-87850499D01*
X138957483Y-87844091D01*
X138991667Y-87831340D01*
X139061358Y-87826357D01*
X139078327Y-87831338D01*
X139112517Y-87844091D01*
X139172127Y-87850500D01*
X140167872Y-87850499D01*
X140227483Y-87844091D01*
X140261667Y-87831340D01*
X140331358Y-87826357D01*
X140348327Y-87831338D01*
X140382517Y-87844091D01*
X140442127Y-87850500D01*
X141437872Y-87850499D01*
X141497483Y-87844091D01*
X141531667Y-87831340D01*
X141601358Y-87826357D01*
X141618327Y-87831338D01*
X141652517Y-87844091D01*
X141712127Y-87850500D01*
X142707872Y-87850499D01*
X142767483Y-87844091D01*
X142801667Y-87831340D01*
X142871358Y-87826357D01*
X142888327Y-87831338D01*
X142922517Y-87844091D01*
X142982127Y-87850500D01*
X143977872Y-87850499D01*
X144037483Y-87844091D01*
X144071667Y-87831340D01*
X144141358Y-87826357D01*
X144158327Y-87831338D01*
X144192517Y-87844091D01*
X144252127Y-87850500D01*
X145247872Y-87850499D01*
X145247874Y-87850498D01*
X145247887Y-87850498D01*
X145276803Y-87847388D01*
X145282244Y-87846804D01*
X145351003Y-87859208D01*
X145402141Y-87906818D01*
X145419500Y-87970093D01*
X145419500Y-91933330D01*
X145419499Y-91933348D01*
X145419499Y-92099054D01*
X145419498Y-92099054D01*
X145441328Y-92180522D01*
X145460423Y-92251785D01*
X145464917Y-92259568D01*
X145464919Y-92259578D01*
X145464922Y-92259577D01*
X145539477Y-92388712D01*
X145539481Y-92388717D01*
X145658349Y-92507585D01*
X145658355Y-92507590D01*
X146515139Y-93364374D01*
X146515149Y-93364385D01*
X146519479Y-93368715D01*
X146519480Y-93368716D01*
X146631284Y-93480520D01*
X146653961Y-93493612D01*
X146718095Y-93530639D01*
X146718097Y-93530641D01*
X146768213Y-93559576D01*
X146768215Y-93559577D01*
X146920942Y-93600500D01*
X146920943Y-93600500D01*
X152263331Y-93600500D01*
X152263347Y-93600501D01*
X152270943Y-93600501D01*
X152429054Y-93600501D01*
X152429057Y-93600501D01*
X152581785Y-93559577D01*
X152631904Y-93530639D01*
X152718716Y-93480520D01*
X152830520Y-93368716D01*
X152830520Y-93368714D01*
X152840728Y-93358507D01*
X152840730Y-93358504D01*
X153210119Y-92989114D01*
X153253744Y-92960886D01*
X153263431Y-92957204D01*
X153311620Y-92947619D01*
X153443653Y-92892929D01*
X153458302Y-92883140D01*
X153471446Y-92878145D01*
X153492822Y-92876482D01*
X153513281Y-92870076D01*
X153526962Y-92873828D01*
X153541106Y-92872729D01*
X153559986Y-92882886D01*
X153580662Y-92888558D01*
X153590141Y-92899110D01*
X153602635Y-92905832D01*
X153613026Y-92924584D01*
X153627354Y-92940534D01*
X153631161Y-92957313D01*
X153636500Y-92966947D01*
X153635795Y-92977733D01*
X153639500Y-92994056D01*
X153639500Y-93942870D01*
X153639501Y-93942879D01*
X153641272Y-93959351D01*
X153628865Y-94028110D01*
X153581253Y-94079246D01*
X153513553Y-94096524D01*
X153449093Y-94075706D01*
X153443653Y-94072071D01*
X153443651Y-94072070D01*
X153443648Y-94072068D01*
X153311620Y-94017381D01*
X153311614Y-94017379D01*
X153171457Y-93989500D01*
X153171455Y-93989500D01*
X153028545Y-93989500D01*
X153028543Y-93989500D01*
X152888385Y-94017379D01*
X152888379Y-94017381D01*
X152756349Y-94072069D01*
X152756340Y-94072074D01*
X152637521Y-94151467D01*
X152637517Y-94151470D01*
X152536470Y-94252517D01*
X152536467Y-94252521D01*
X152457074Y-94371340D01*
X152457069Y-94371349D01*
X152402381Y-94503379D01*
X152402379Y-94503385D01*
X152374500Y-94643542D01*
X152374500Y-94643545D01*
X152374500Y-94786455D01*
X152374500Y-94786457D01*
X152374499Y-94786457D01*
X152402379Y-94926614D01*
X152402381Y-94926620D01*
X152457069Y-95058650D01*
X152457074Y-95058659D01*
X152536467Y-95177478D01*
X152536470Y-95177482D01*
X152637517Y-95278529D01*
X152637521Y-95278532D01*
X152756340Y-95357925D01*
X152756346Y-95357928D01*
X152756347Y-95357929D01*
X152888380Y-95412619D01*
X152888384Y-95412619D01*
X152888385Y-95412620D01*
X153028542Y-95440500D01*
X153028545Y-95440500D01*
X153171457Y-95440500D01*
X153265751Y-95421742D01*
X153311620Y-95412619D01*
X153443653Y-95357929D01*
X153449087Y-95354298D01*
X153515760Y-95333416D01*
X153583141Y-95351896D01*
X153629835Y-95403871D01*
X153641271Y-95470647D01*
X153639500Y-95487127D01*
X153639500Y-95487130D01*
X153639500Y-96482870D01*
X153639501Y-96482879D01*
X153641272Y-96499351D01*
X153628865Y-96568110D01*
X153581253Y-96619246D01*
X153513553Y-96636524D01*
X153449093Y-96615706D01*
X153443653Y-96612071D01*
X153443651Y-96612070D01*
X153443648Y-96612068D01*
X153311620Y-96557381D01*
X153311614Y-96557379D01*
X153171457Y-96529500D01*
X153171455Y-96529500D01*
X153028545Y-96529500D01*
X153028543Y-96529500D01*
X152888385Y-96557379D01*
X152888379Y-96557381D01*
X152756349Y-96612069D01*
X152756340Y-96612074D01*
X152637521Y-96691467D01*
X152637517Y-96691470D01*
X152536470Y-96792517D01*
X152536467Y-96792521D01*
X152457074Y-96911340D01*
X152457069Y-96911349D01*
X152402381Y-97043379D01*
X152402379Y-97043385D01*
X152374500Y-97183542D01*
X152374500Y-97183545D01*
X152374500Y-97326455D01*
X152374500Y-97326457D01*
X152374499Y-97326457D01*
X152402379Y-97466614D01*
X152402381Y-97466620D01*
X152457069Y-97598650D01*
X152457074Y-97598659D01*
X152536467Y-97717478D01*
X152536470Y-97717482D01*
X152637517Y-97818529D01*
X152637521Y-97818532D01*
X152756340Y-97897925D01*
X152756347Y-97897929D01*
X152888380Y-97952619D01*
X152888384Y-97952619D01*
X152888385Y-97952620D01*
X153028542Y-97980500D01*
X153028545Y-97980500D01*
X153171457Y-97980500D01*
X153265751Y-97961742D01*
X153311620Y-97952619D01*
X153443653Y-97897929D01*
X153449087Y-97894298D01*
X153515760Y-97873416D01*
X153583141Y-97891896D01*
X153629835Y-97943871D01*
X153641272Y-98010649D01*
X153639500Y-98027130D01*
X153639500Y-99022870D01*
X153639501Y-99022876D01*
X153645908Y-99082481D01*
X153658659Y-99116669D01*
X153663642Y-99186361D01*
X153658659Y-99203331D01*
X153645908Y-99237518D01*
X153639501Y-99297116D01*
X153639500Y-99297135D01*
X153639500Y-100292870D01*
X153639501Y-100292876D01*
X153645908Y-100352481D01*
X153658659Y-100386669D01*
X153663642Y-100456361D01*
X153658659Y-100473331D01*
X153645908Y-100507518D01*
X153639501Y-100567116D01*
X153639500Y-100567135D01*
X153639500Y-101562870D01*
X153639501Y-101562876D01*
X153645908Y-101622481D01*
X153658659Y-101656669D01*
X153663642Y-101726361D01*
X153658659Y-101743331D01*
X153645908Y-101777518D01*
X153641380Y-101819641D01*
X153639501Y-101837123D01*
X153639500Y-101837135D01*
X153639500Y-102725500D01*
X153619815Y-102792539D01*
X153567011Y-102838294D01*
X153515500Y-102849500D01*
X153142130Y-102849500D01*
X153142123Y-102849501D01*
X153082518Y-102855908D01*
X153048331Y-102868659D01*
X152978639Y-102873642D01*
X152961669Y-102868659D01*
X152944140Y-102862121D01*
X152927483Y-102855909D01*
X152927482Y-102855908D01*
X152867883Y-102849501D01*
X152867881Y-102849500D01*
X152867873Y-102849500D01*
X152867864Y-102849500D01*
X151872129Y-102849500D01*
X151872123Y-102849501D01*
X151837753Y-102853196D01*
X151768994Y-102840789D01*
X151717857Y-102793178D01*
X151700500Y-102729906D01*
X151700500Y-102444766D01*
X151720185Y-102377727D01*
X151721399Y-102375874D01*
X151742929Y-102343653D01*
X151797619Y-102211620D01*
X151825500Y-102071455D01*
X151825500Y-101928545D01*
X151825500Y-101928542D01*
X151797620Y-101788385D01*
X151797619Y-101788384D01*
X151797619Y-101788380D01*
X151749965Y-101673334D01*
X151742930Y-101656349D01*
X151742925Y-101656340D01*
X151663532Y-101537521D01*
X151663529Y-101537517D01*
X151562482Y-101436470D01*
X151562478Y-101436467D01*
X151443659Y-101357074D01*
X151443650Y-101357069D01*
X151311620Y-101302381D01*
X151311614Y-101302379D01*
X151171457Y-101274500D01*
X151171455Y-101274500D01*
X151028545Y-101274500D01*
X151028543Y-101274500D01*
X150888385Y-101302379D01*
X150888379Y-101302381D01*
X150756349Y-101357069D01*
X150756340Y-101357074D01*
X150637521Y-101436467D01*
X150637517Y-101436470D01*
X150536470Y-101537517D01*
X150536467Y-101537521D01*
X150457074Y-101656340D01*
X150457069Y-101656349D01*
X150402381Y-101788379D01*
X150402379Y-101788385D01*
X150374500Y-101928542D01*
X150374500Y-101928545D01*
X150374500Y-102071455D01*
X150374500Y-102071457D01*
X150374499Y-102071457D01*
X150402379Y-102211614D01*
X150402381Y-102211620D01*
X150457070Y-102343651D01*
X150478601Y-102375874D01*
X150499480Y-102442551D01*
X150499500Y-102444766D01*
X150499500Y-102729906D01*
X150479815Y-102796945D01*
X150427011Y-102842700D01*
X150362247Y-102853195D01*
X150327873Y-102849500D01*
X150327865Y-102849500D01*
X149332129Y-102849500D01*
X149332123Y-102849501D01*
X149272518Y-102855908D01*
X149238331Y-102868659D01*
X149168639Y-102873642D01*
X149151669Y-102868659D01*
X149134140Y-102862121D01*
X149117483Y-102855909D01*
X149117482Y-102855908D01*
X149057883Y-102849501D01*
X149057881Y-102849500D01*
X149057873Y-102849500D01*
X149057864Y-102849500D01*
X148062129Y-102849500D01*
X148062123Y-102849501D01*
X148002518Y-102855908D01*
X147968331Y-102868659D01*
X147898639Y-102873642D01*
X147881669Y-102868659D01*
X147864140Y-102862121D01*
X147847483Y-102855909D01*
X147847482Y-102855908D01*
X147787883Y-102849501D01*
X147787881Y-102849500D01*
X147787873Y-102849500D01*
X147787864Y-102849500D01*
X146792129Y-102849500D01*
X146792123Y-102849501D01*
X146732518Y-102855908D01*
X146698331Y-102868659D01*
X146628639Y-102873642D01*
X146611669Y-102868659D01*
X146594140Y-102862121D01*
X146577483Y-102855909D01*
X146577482Y-102855908D01*
X146517883Y-102849501D01*
X146517881Y-102849500D01*
X146517873Y-102849500D01*
X146517864Y-102849500D01*
X145522129Y-102849500D01*
X145522123Y-102849501D01*
X145462518Y-102855908D01*
X145428331Y-102868659D01*
X145358639Y-102873642D01*
X145341669Y-102868659D01*
X145324140Y-102862121D01*
X145307483Y-102855909D01*
X145307482Y-102855908D01*
X145247883Y-102849501D01*
X145247881Y-102849500D01*
X145247873Y-102849500D01*
X145247864Y-102849500D01*
X144252129Y-102849500D01*
X144252123Y-102849501D01*
X144192518Y-102855908D01*
X144158331Y-102868659D01*
X144088639Y-102873642D01*
X144071669Y-102868659D01*
X144054140Y-102862121D01*
X144037483Y-102855909D01*
X144037482Y-102855908D01*
X143977883Y-102849501D01*
X143977881Y-102849500D01*
X143977873Y-102849500D01*
X143977864Y-102849500D01*
X142982129Y-102849500D01*
X142982123Y-102849501D01*
X142922518Y-102855908D01*
X142888331Y-102868659D01*
X142818639Y-102873642D01*
X142801669Y-102868659D01*
X142784140Y-102862121D01*
X142767483Y-102855909D01*
X142767482Y-102855908D01*
X142707883Y-102849501D01*
X142707881Y-102849500D01*
X142707873Y-102849500D01*
X142707864Y-102849500D01*
X141712129Y-102849500D01*
X141712123Y-102849501D01*
X141652518Y-102855908D01*
X141618331Y-102868659D01*
X141548639Y-102873642D01*
X141531669Y-102868659D01*
X141514140Y-102862121D01*
X141497483Y-102855909D01*
X141497482Y-102855908D01*
X141437883Y-102849501D01*
X141437881Y-102849500D01*
X141437873Y-102849500D01*
X141437864Y-102849500D01*
X140442129Y-102849500D01*
X140442123Y-102849501D01*
X140382518Y-102855908D01*
X140348331Y-102868659D01*
X140278639Y-102873642D01*
X140261669Y-102868659D01*
X140244140Y-102862121D01*
X140227483Y-102855909D01*
X140227482Y-102855908D01*
X140167883Y-102849501D01*
X140167881Y-102849500D01*
X140167873Y-102849500D01*
X140167864Y-102849500D01*
X139172129Y-102849500D01*
X139172123Y-102849501D01*
X139112520Y-102855908D01*
X139112517Y-102855908D01*
X139112517Y-102855909D01*
X139077620Y-102868925D01*
X139077617Y-102868926D01*
X139007925Y-102873909D01*
X138990952Y-102868925D01*
X138957379Y-102856403D01*
X138957372Y-102856401D01*
X138897844Y-102850000D01*
X138650000Y-102850000D01*
X138650000Y-105356000D01*
X138630315Y-105423039D01*
X138577511Y-105468794D01*
X138531112Y-105478887D01*
X138530000Y-105480000D01*
X138530000Y-106750000D01*
X139072707Y-106750000D01*
X139101536Y-106732756D01*
X139133536Y-106733784D01*
X139133536Y-106730000D01*
X139501648Y-106730000D01*
X139564766Y-106747267D01*
X139573605Y-106752494D01*
X139573608Y-106752494D01*
X139573610Y-106752496D01*
X139729002Y-106797642D01*
X139729005Y-106797642D01*
X139729007Y-106797643D01*
X139765310Y-106800500D01*
X139765318Y-106800500D01*
X139876000Y-106800500D01*
X139943039Y-106820185D01*
X139988794Y-106872989D01*
X140000000Y-106924500D01*
X140000000Y-106980000D01*
X140126000Y-106980000D01*
X140193039Y-106999685D01*
X140238794Y-107052489D01*
X140250000Y-107104000D01*
X140250000Y-107758789D01*
X140270910Y-107757145D01*
X140426195Y-107712031D01*
X140565374Y-107629721D01*
X140565383Y-107629714D01*
X140611964Y-107583133D01*
X140673287Y-107549647D01*
X140742978Y-107554631D01*
X140787327Y-107583132D01*
X140834307Y-107630112D01*
X140834311Y-107630115D01*
X140834313Y-107630117D01*
X140973605Y-107712494D01*
X141069400Y-107740325D01*
X141122484Y-107771719D01*
X141360883Y-108010118D01*
X141394368Y-108071441D01*
X141394819Y-108073607D01*
X141402379Y-108111614D01*
X141402380Y-108111618D01*
X141457069Y-108243650D01*
X141457074Y-108243659D01*
X141536467Y-108362478D01*
X141536470Y-108362482D01*
X141637517Y-108463529D01*
X141637521Y-108463532D01*
X141756340Y-108542925D01*
X141756349Y-108542930D01*
X141780639Y-108552991D01*
X141888380Y-108597619D01*
X141888384Y-108597619D01*
X141888385Y-108597620D01*
X142028542Y-108625500D01*
X142028545Y-108625500D01*
X142030335Y-108625500D01*
X142031239Y-108625765D01*
X142034605Y-108626097D01*
X142034542Y-108626735D01*
X142097374Y-108645185D01*
X142143129Y-108697989D01*
X142153625Y-108736246D01*
X142155908Y-108757483D01*
X142206201Y-108892328D01*
X142206205Y-108892335D01*
X142292451Y-109007544D01*
X142292454Y-109007547D01*
X142407663Y-109093793D01*
X142407670Y-109093797D01*
X142542516Y-109144091D01*
X142542515Y-109144091D01*
X142549443Y-109144835D01*
X142602126Y-109150500D01*
X143597871Y-109150499D01*
X143657482Y-109144091D01*
X143792330Y-109093796D01*
X143907545Y-109007546D01*
X143993795Y-108892331D01*
X144044090Y-108757483D01*
X144050499Y-108697873D01*
X144050498Y-106902128D01*
X144044090Y-106842517D01*
X144043111Y-106839893D01*
X143993796Y-106707671D01*
X143993792Y-106707664D01*
X143907546Y-106592455D01*
X143907543Y-106592452D01*
X143792334Y-106506206D01*
X143792327Y-106506202D01*
X143657481Y-106455908D01*
X143657482Y-106455908D01*
X143597882Y-106449501D01*
X143597880Y-106449500D01*
X143597872Y-106449500D01*
X143597864Y-106449500D01*
X143250096Y-106449500D01*
X143183057Y-106429815D01*
X143162415Y-106413181D01*
X142407589Y-105658355D01*
X142400520Y-105651286D01*
X142400519Y-105651284D01*
X142311412Y-105562177D01*
X142287823Y-105518974D01*
X142277930Y-105500857D01*
X142279208Y-105482993D01*
X142282914Y-105431165D01*
X142324786Y-105375231D01*
X142383183Y-105353451D01*
X142390250Y-105350815D01*
X142399096Y-105350499D01*
X142707871Y-105350499D01*
X142707872Y-105350499D01*
X142767483Y-105344091D01*
X142801667Y-105331340D01*
X142871358Y-105326357D01*
X142888327Y-105331338D01*
X142922517Y-105344091D01*
X142982127Y-105350500D01*
X143977872Y-105350499D01*
X144037483Y-105344091D01*
X144071667Y-105331340D01*
X144141358Y-105326357D01*
X144158327Y-105331338D01*
X144192517Y-105344091D01*
X144252127Y-105350500D01*
X145247872Y-105350499D01*
X145307483Y-105344091D01*
X145341667Y-105331340D01*
X145411358Y-105326357D01*
X145428327Y-105331338D01*
X145462517Y-105344091D01*
X145522127Y-105350500D01*
X146517872Y-105350499D01*
X146577483Y-105344091D01*
X146611667Y-105331340D01*
X146681358Y-105326357D01*
X146698327Y-105331338D01*
X146732517Y-105344091D01*
X146792127Y-105350500D01*
X147787872Y-105350499D01*
X147847483Y-105344091D01*
X147881667Y-105331340D01*
X147951358Y-105326357D01*
X147968327Y-105331338D01*
X148002517Y-105344091D01*
X148062127Y-105350500D01*
X149057872Y-105350499D01*
X149117483Y-105344091D01*
X149151667Y-105331340D01*
X149221358Y-105326357D01*
X149238327Y-105331338D01*
X149272517Y-105344091D01*
X149332127Y-105350500D01*
X150327872Y-105350499D01*
X150387483Y-105344091D01*
X150421667Y-105331340D01*
X150491358Y-105326357D01*
X150508327Y-105331338D01*
X150542517Y-105344091D01*
X150602127Y-105350500D01*
X151556400Y-105350499D01*
X151623439Y-105370183D01*
X151669194Y-105422987D01*
X151680019Y-105484216D01*
X151679500Y-105490809D01*
X151679500Y-105889170D01*
X151679501Y-105889192D01*
X151682335Y-105925206D01*
X151727129Y-106079389D01*
X151727130Y-106079392D01*
X151761128Y-106136880D01*
X151778310Y-106204604D01*
X151761128Y-106263120D01*
X151727130Y-106320607D01*
X151727129Y-106320610D01*
X151682335Y-106474790D01*
X151682334Y-106474796D01*
X151679500Y-106510810D01*
X151679500Y-106909168D01*
X151679501Y-106909192D01*
X151682751Y-106950493D01*
X151679296Y-106966932D01*
X151680898Y-106983655D01*
X151672262Y-107000416D01*
X151668385Y-107018870D01*
X151656365Y-107031270D01*
X151648897Y-107045765D01*
X151621160Y-107067590D01*
X151619914Y-107068309D01*
X151618095Y-107069360D01*
X151574689Y-107094420D01*
X151531285Y-107119479D01*
X151531282Y-107119481D01*
X151381285Y-107269479D01*
X151381273Y-107269491D01*
X151377570Y-107273193D01*
X151316243Y-107306670D01*
X151289902Y-107309500D01*
X151052131Y-107309500D01*
X151052119Y-107309501D01*
X151013253Y-107313679D01*
X150986748Y-107313679D01*
X150947874Y-107309500D01*
X150552130Y-107309500D01*
X150552119Y-107309501D01*
X150513253Y-107313679D01*
X150486748Y-107313679D01*
X150447875Y-107309500D01*
X150447873Y-107309500D01*
X150129244Y-107309500D01*
X150062205Y-107289815D01*
X150016450Y-107237011D01*
X150006506Y-107167853D01*
X150007627Y-107161308D01*
X150025500Y-107071457D01*
X150025500Y-106928542D01*
X149997620Y-106788385D01*
X149997619Y-106788384D01*
X149997619Y-106788380D01*
X149942929Y-106656347D01*
X149942928Y-106656346D01*
X149942925Y-106656340D01*
X149863532Y-106537521D01*
X149863529Y-106537517D01*
X149762482Y-106436470D01*
X149762478Y-106436467D01*
X149643659Y-106357074D01*
X149643650Y-106357069D01*
X149511620Y-106302381D01*
X149511614Y-106302379D01*
X149371457Y-106274500D01*
X149371455Y-106274500D01*
X149228545Y-106274500D01*
X149228543Y-106274500D01*
X149088385Y-106302379D01*
X149088379Y-106302381D01*
X148956349Y-106357069D01*
X148956340Y-106357074D01*
X148837521Y-106436467D01*
X148837517Y-106436470D01*
X148736470Y-106537517D01*
X148736467Y-106537521D01*
X148657074Y-106656340D01*
X148657069Y-106656349D01*
X148602381Y-106788379D01*
X148602379Y-106788385D01*
X148574500Y-106928542D01*
X148574500Y-106928545D01*
X148574500Y-107071455D01*
X148574500Y-107071457D01*
X148574499Y-107071457D01*
X148602379Y-107211614D01*
X148602381Y-107211620D01*
X148653855Y-107335889D01*
X148655059Y-107347092D01*
X148660460Y-107356982D01*
X148658727Y-107381208D01*
X148661324Y-107405359D01*
X148656150Y-107417244D01*
X148655476Y-107426674D01*
X148638562Y-107457651D01*
X148625733Y-107474789D01*
X148569800Y-107516661D01*
X148500108Y-107521647D01*
X148479015Y-107515042D01*
X148457251Y-107506027D01*
X148457243Y-107506025D01*
X148273620Y-107469500D01*
X148273616Y-107469500D01*
X148086384Y-107469500D01*
X148086379Y-107469500D01*
X147902756Y-107506025D01*
X147902748Y-107506027D01*
X147729771Y-107577676D01*
X147729762Y-107577681D01*
X147643391Y-107635393D01*
X147576713Y-107656271D01*
X147509333Y-107637786D01*
X147462643Y-107585807D01*
X147450500Y-107532291D01*
X147450500Y-106902129D01*
X147450499Y-106902123D01*
X147450498Y-106902116D01*
X147444092Y-106842517D01*
X147443113Y-106839893D01*
X147393798Y-106707671D01*
X147393794Y-106707664D01*
X147307548Y-106592455D01*
X147307545Y-106592452D01*
X147192336Y-106506206D01*
X147192329Y-106506202D01*
X147057483Y-106455908D01*
X147057484Y-106455908D01*
X146997884Y-106449501D01*
X146997882Y-106449500D01*
X146997874Y-106449500D01*
X146997865Y-106449500D01*
X146002130Y-106449500D01*
X146002124Y-106449501D01*
X145942517Y-106455908D01*
X145807672Y-106506202D01*
X145807665Y-106506206D01*
X145692456Y-106592452D01*
X145692453Y-106592455D01*
X145606207Y-106707664D01*
X145606203Y-106707671D01*
X145555909Y-106842517D01*
X145549677Y-106900489D01*
X145549502Y-106902123D01*
X145549501Y-106902135D01*
X145549501Y-108697870D01*
X145549502Y-108697876D01*
X145555909Y-108757483D01*
X145606203Y-108892328D01*
X145606207Y-108892335D01*
X145692453Y-109007544D01*
X145692456Y-109007547D01*
X145807666Y-109093794D01*
X145807668Y-109093794D01*
X145807670Y-109093796D01*
X145818831Y-109097958D01*
X145836558Y-109111227D01*
X145856704Y-109120428D01*
X145863984Y-109131756D01*
X145874765Y-109139826D01*
X145882505Y-109160576D01*
X145894478Y-109179206D01*
X145897628Y-109201115D01*
X145899185Y-109205289D01*
X145899501Y-109214141D01*
X145899501Y-109355232D01*
X145879816Y-109422271D01*
X145878604Y-109424122D01*
X145857071Y-109456348D01*
X145802382Y-109588379D01*
X145802380Y-109588385D01*
X145774501Y-109728542D01*
X145774501Y-109728545D01*
X145774501Y-109871455D01*
X145774501Y-109871457D01*
X145774500Y-109871457D01*
X145802380Y-110011614D01*
X145802382Y-110011620D01*
X145857070Y-110143650D01*
X145857075Y-110143659D01*
X145936468Y-110262478D01*
X145936471Y-110262482D01*
X146037518Y-110363529D01*
X146037522Y-110363532D01*
X146156341Y-110442925D01*
X146156347Y-110442928D01*
X146156348Y-110442929D01*
X146288381Y-110497619D01*
X146288385Y-110497619D01*
X146288386Y-110497620D01*
X146428543Y-110525500D01*
X146428546Y-110525500D01*
X146571458Y-110525500D01*
X146697142Y-110500499D01*
X146711621Y-110497619D01*
X146843654Y-110442929D01*
X146962480Y-110363532D01*
X147063533Y-110262479D01*
X147142930Y-110143653D01*
X147173023Y-110071001D01*
X147216863Y-110016598D01*
X147283157Y-109994533D01*
X147350857Y-110011812D01*
X147390686Y-110049564D01*
X147441694Y-110125903D01*
X147441700Y-110125911D01*
X147574088Y-110258299D01*
X147574092Y-110258302D01*
X147729762Y-110362318D01*
X147729771Y-110362323D01*
X147730148Y-110362479D01*
X147902749Y-110433973D01*
X148077395Y-110468712D01*
X148086379Y-110470499D01*
X148086383Y-110470500D01*
X148086384Y-110470500D01*
X148273617Y-110470500D01*
X148273618Y-110470499D01*
X148457251Y-110433973D01*
X148630231Y-110362322D01*
X148785908Y-110258302D01*
X148918302Y-110125908D01*
X149022322Y-109970231D01*
X149093973Y-109797251D01*
X149097970Y-109777152D01*
X149099421Y-109774378D01*
X149099295Y-109771248D01*
X149115509Y-109743622D01*
X149130354Y-109715242D01*
X149133076Y-109713691D01*
X149134662Y-109710990D01*
X149163236Y-109696516D01*
X149191069Y-109680667D01*
X149194197Y-109680834D01*
X149196992Y-109679419D01*
X149228859Y-109682692D01*
X149260839Y-109684406D01*
X149264315Y-109686334D01*
X149266496Y-109686558D01*
X149275434Y-109692500D01*
X149296935Y-109704423D01*
X149302357Y-109708750D01*
X149364087Y-109770480D01*
X149420573Y-109803092D01*
X149427847Y-109808897D01*
X149442774Y-109830181D01*
X149460715Y-109848996D01*
X149463223Y-109859337D01*
X149467967Y-109866100D01*
X149468588Y-109881449D01*
X149474500Y-109905817D01*
X149474500Y-109971455D01*
X149474500Y-109971457D01*
X149474499Y-109971457D01*
X149502379Y-110111614D01*
X149502381Y-110111620D01*
X149557069Y-110243650D01*
X149557074Y-110243659D01*
X149636467Y-110362478D01*
X149636470Y-110362482D01*
X149737517Y-110463529D01*
X149737521Y-110463532D01*
X149856340Y-110542925D01*
X149856346Y-110542928D01*
X149856347Y-110542929D01*
X149988380Y-110597619D01*
X149988384Y-110597619D01*
X149988385Y-110597620D01*
X150128542Y-110625500D01*
X150128545Y-110625500D01*
X150271457Y-110625500D01*
X150397136Y-110600500D01*
X150411620Y-110597619D01*
X150543653Y-110542929D01*
X150662479Y-110463532D01*
X150763532Y-110362479D01*
X150842929Y-110243653D01*
X150897619Y-110111620D01*
X150915657Y-110020939D01*
X150917525Y-110011549D01*
X150949910Y-109949638D01*
X151010626Y-109915064D01*
X151080395Y-109918803D01*
X151126823Y-109948059D01*
X153149285Y-111970521D01*
X153149287Y-111970522D01*
X153149291Y-111970525D01*
X153250588Y-112029008D01*
X153286217Y-112049578D01*
X153438944Y-112090502D01*
X153438946Y-112090502D01*
X153604655Y-112090502D01*
X153604671Y-112090501D01*
X155878836Y-112090501D01*
X155945875Y-112110186D01*
X155991630Y-112162990D01*
X156001574Y-112232148D01*
X155981939Y-112283390D01*
X155977683Y-112289759D01*
X155977676Y-112289771D01*
X155906027Y-112462748D01*
X155906025Y-112462756D01*
X155869500Y-112646379D01*
X155869500Y-113633620D01*
X155906025Y-113817243D01*
X155906027Y-113817251D01*
X155977676Y-113990228D01*
X155977681Y-113990237D01*
X156081697Y-114145907D01*
X156081700Y-114145911D01*
X156214088Y-114278299D01*
X156214092Y-114278302D01*
X156369762Y-114382318D01*
X156369768Y-114382321D01*
X156369769Y-114382322D01*
X156542749Y-114453973D01*
X156726379Y-114490499D01*
X156726383Y-114490500D01*
X156726384Y-114490500D01*
X156913617Y-114490500D01*
X156913618Y-114490499D01*
X157097251Y-114453973D01*
X157270231Y-114382322D01*
X157425908Y-114278302D01*
X157558302Y-114145908D01*
X157662322Y-113990231D01*
X157733973Y-113817251D01*
X157770500Y-113633616D01*
X157770500Y-112646384D01*
X157733973Y-112462749D01*
X157662322Y-112289769D01*
X157662321Y-112289768D01*
X157662318Y-112289762D01*
X157558302Y-112134092D01*
X157558299Y-112134088D01*
X157524404Y-112100193D01*
X157520066Y-112092248D01*
X157512819Y-112086824D01*
X157503582Y-112062061D01*
X157490919Y-112038870D01*
X157491564Y-112029841D01*
X157488401Y-112021360D01*
X157494017Y-111995538D01*
X157495903Y-111969178D01*
X157501721Y-111960125D01*
X157503252Y-111953087D01*
X157524398Y-111924837D01*
X157590519Y-111858717D01*
X157590520Y-111858714D01*
X159380520Y-110068716D01*
X159459577Y-109931784D01*
X159500501Y-109779057D01*
X159500501Y-109620942D01*
X159500501Y-109613347D01*
X159500500Y-109613329D01*
X159500500Y-109346457D01*
X159749499Y-109346457D01*
X159777379Y-109486614D01*
X159777381Y-109486620D01*
X159832069Y-109618650D01*
X159832074Y-109618659D01*
X159911467Y-109737478D01*
X159911470Y-109737482D01*
X160012517Y-109838529D01*
X160012521Y-109838532D01*
X160131340Y-109917925D01*
X160131346Y-109917928D01*
X160131347Y-109917929D01*
X160263380Y-109972619D01*
X160263384Y-109972619D01*
X160263385Y-109972620D01*
X160403542Y-110000500D01*
X160403545Y-110000500D01*
X160546457Y-110000500D01*
X160640751Y-109981742D01*
X160686620Y-109972619D01*
X160818653Y-109917929D01*
X160937479Y-109838532D01*
X161038532Y-109737479D01*
X161117929Y-109618653D01*
X161172619Y-109486620D01*
X161180180Y-109448606D01*
X161188945Y-109431849D01*
X161192965Y-109413371D01*
X161211704Y-109388338D01*
X161212563Y-109386697D01*
X161214058Y-109385175D01*
X161298506Y-109300728D01*
X161298511Y-109300724D01*
X161308714Y-109290520D01*
X161308716Y-109290520D01*
X161420520Y-109178716D01*
X161477826Y-109079459D01*
X161499577Y-109041785D01*
X161499579Y-109041776D01*
X161502685Y-109034280D01*
X161504071Y-109034854D01*
X161535727Y-108982915D01*
X161598573Y-108952384D01*
X161648926Y-108955310D01*
X161650000Y-108954504D01*
X161650000Y-108648352D01*
X161667267Y-108585233D01*
X161672494Y-108576395D01*
X161678581Y-108555446D01*
X161717642Y-108420997D01*
X161717643Y-108420991D01*
X161720499Y-108384697D01*
X161720500Y-108384690D01*
X161720500Y-107915310D01*
X161717643Y-107879007D01*
X161714540Y-107868327D01*
X161672495Y-107723608D01*
X161672492Y-107723600D01*
X161667266Y-107714763D01*
X161650000Y-107651645D01*
X161650000Y-107150000D01*
X161125000Y-107150000D01*
X161125000Y-107215500D01*
X161105315Y-107282539D01*
X161052511Y-107328294D01*
X161001000Y-107339500D01*
X160735302Y-107339500D01*
X160699008Y-107342356D01*
X160699002Y-107342357D01*
X160543609Y-107387504D01*
X160543606Y-107387505D01*
X160404315Y-107469881D01*
X160404307Y-107469887D01*
X160289887Y-107584307D01*
X160289881Y-107584315D01*
X160207505Y-107723606D01*
X160207504Y-107723609D01*
X160162357Y-107879002D01*
X160162356Y-107879008D01*
X160159500Y-107915302D01*
X160159500Y-108384697D01*
X160162356Y-108420991D01*
X160162357Y-108420997D01*
X160183327Y-108493174D01*
X160183128Y-108563044D01*
X160145186Y-108621714D01*
X160133142Y-108630871D01*
X160012521Y-108711467D01*
X160012517Y-108711470D01*
X159911470Y-108812517D01*
X159911467Y-108812521D01*
X159832074Y-108931340D01*
X159832069Y-108931349D01*
X159777381Y-109063379D01*
X159777379Y-109063385D01*
X159749500Y-109203542D01*
X159749500Y-109203545D01*
X159749500Y-109346455D01*
X159749500Y-109346457D01*
X159749499Y-109346457D01*
X159500500Y-109346457D01*
X159500500Y-107269595D01*
X159520185Y-107202556D01*
X159536814Y-107181918D01*
X159591135Y-107127598D01*
X159672869Y-106989393D01*
X159715363Y-106843128D01*
X159717664Y-106835208D01*
X159717665Y-106835202D01*
X159720499Y-106799188D01*
X159720500Y-106799181D01*
X159720499Y-106400820D01*
X159717665Y-106364796D01*
X159672869Y-106210607D01*
X159663874Y-106195398D01*
X159638873Y-106153123D01*
X159621689Y-106085399D01*
X159638873Y-106026879D01*
X159665884Y-105981206D01*
X159672869Y-105969395D01*
X159713965Y-105827941D01*
X159717664Y-105815210D01*
X159717665Y-105815204D01*
X159720499Y-105779190D01*
X159720500Y-105779183D01*
X159720499Y-105380822D01*
X159717665Y-105344798D01*
X159672869Y-105190609D01*
X159591135Y-105052404D01*
X159591134Y-105052403D01*
X159589757Y-105050074D01*
X159572574Y-104982350D01*
X159581928Y-104939500D01*
X159597619Y-104901621D01*
X159624603Y-104765967D01*
X159625500Y-104761458D01*
X159625500Y-104618543D01*
X159597620Y-104478386D01*
X159597619Y-104478385D01*
X159597619Y-104478381D01*
X159542929Y-104346348D01*
X159542928Y-104346347D01*
X159542925Y-104346341D01*
X159463532Y-104227522D01*
X159463529Y-104227518D01*
X159362482Y-104126471D01*
X159362478Y-104126468D01*
X159243659Y-104047075D01*
X159243650Y-104047070D01*
X159111620Y-103992382D01*
X159111614Y-103992380D01*
X158971457Y-103964501D01*
X158971455Y-103964501D01*
X158828545Y-103964501D01*
X158828543Y-103964501D01*
X158688385Y-103992380D01*
X158688379Y-103992382D01*
X158556349Y-104047070D01*
X158556342Y-104047074D01*
X158468890Y-104105508D01*
X158402213Y-104126385D01*
X158334833Y-104107900D01*
X158331110Y-104105508D01*
X158243657Y-104047074D01*
X158243650Y-104047070D01*
X158111620Y-103992382D01*
X158111614Y-103992380D01*
X157971457Y-103964501D01*
X157971455Y-103964501D01*
X157828545Y-103964501D01*
X157828543Y-103964501D01*
X157688385Y-103992380D01*
X157688379Y-103992382D01*
X157556349Y-104047070D01*
X157556340Y-104047075D01*
X157437521Y-104126468D01*
X157437517Y-104126471D01*
X157336470Y-104227518D01*
X157336467Y-104227522D01*
X157257074Y-104346341D01*
X157257069Y-104346350D01*
X157202381Y-104478380D01*
X157202379Y-104478386D01*
X157174500Y-104618543D01*
X157174500Y-104618546D01*
X157174500Y-104761456D01*
X157174500Y-104761458D01*
X157174499Y-104761458D01*
X157202379Y-104901615D01*
X157202381Y-104901621D01*
X157218070Y-104939498D01*
X157220507Y-104945380D01*
X157227976Y-105014849D01*
X157212678Y-105055953D01*
X157127133Y-105200603D01*
X157127129Y-105200612D01*
X157082335Y-105354792D01*
X157082334Y-105354798D01*
X157079500Y-105390812D01*
X157079500Y-105789170D01*
X157079501Y-105789192D01*
X157082335Y-105825206D01*
X157127129Y-105979389D01*
X157127130Y-105979392D01*
X157127131Y-105979394D01*
X157142970Y-106006176D01*
X157161128Y-106036880D01*
X157178310Y-106104604D01*
X157161128Y-106163120D01*
X157127130Y-106220607D01*
X157127129Y-106220610D01*
X157082335Y-106374790D01*
X157082334Y-106374796D01*
X157079500Y-106410810D01*
X157079500Y-106809168D01*
X157079501Y-106809190D01*
X157082335Y-106845204D01*
X157127129Y-106999387D01*
X157127131Y-106999392D01*
X157202951Y-107127598D01*
X157208865Y-107137597D01*
X157263182Y-107191914D01*
X157277888Y-107218845D01*
X157294477Y-107244659D01*
X157295368Y-107250858D01*
X157296666Y-107253235D01*
X157299500Y-107279594D01*
X157299500Y-107404222D01*
X157279815Y-107471261D01*
X157227011Y-107517016D01*
X157157853Y-107526960D01*
X157128048Y-107518783D01*
X157097255Y-107506028D01*
X157097243Y-107506025D01*
X156913620Y-107469500D01*
X156913616Y-107469500D01*
X156726384Y-107469500D01*
X156726379Y-107469500D01*
X156542756Y-107506024D01*
X156542748Y-107506027D01*
X156520984Y-107515042D01*
X156492592Y-107518093D01*
X156464690Y-107524164D01*
X156458297Y-107521779D01*
X156451515Y-107522509D01*
X156425980Y-107509726D01*
X156399225Y-107499748D01*
X156392387Y-107492910D01*
X156389036Y-107491233D01*
X156374268Y-107474792D01*
X156370592Y-107469881D01*
X156361438Y-107457653D01*
X156337021Y-107392191D01*
X156346143Y-107335892D01*
X156397619Y-107211620D01*
X156407689Y-107160997D01*
X156425500Y-107071457D01*
X156425500Y-106928542D01*
X156397620Y-106788385D01*
X156397619Y-106788384D01*
X156397619Y-106788380D01*
X156342929Y-106656347D01*
X156342928Y-106656346D01*
X156342925Y-106656340D01*
X156263532Y-106537521D01*
X156263529Y-106537517D01*
X156162482Y-106436470D01*
X156162478Y-106436467D01*
X156043659Y-106357074D01*
X156043650Y-106357069D01*
X155911620Y-106302381D01*
X155911614Y-106302379D01*
X155771457Y-106274500D01*
X155771455Y-106274500D01*
X155628545Y-106274500D01*
X155628543Y-106274500D01*
X155488385Y-106302379D01*
X155488379Y-106302381D01*
X155356349Y-106357069D01*
X155356340Y-106357074D01*
X155237521Y-106436467D01*
X155237517Y-106436470D01*
X155136470Y-106537517D01*
X155136467Y-106537521D01*
X155057074Y-106656340D01*
X155057069Y-106656349D01*
X155002381Y-106788379D01*
X155002379Y-106788385D01*
X154982404Y-106888806D01*
X154950019Y-106950717D01*
X154948468Y-106952295D01*
X154626910Y-107273853D01*
X154605594Y-107285492D01*
X154586681Y-107300733D01*
X154569785Y-107305045D01*
X154565587Y-107307338D01*
X154552483Y-107309462D01*
X154513256Y-107313679D01*
X154486748Y-107313679D01*
X154447875Y-107309500D01*
X154447873Y-107309500D01*
X154366006Y-107309500D01*
X154298967Y-107289815D01*
X154253212Y-107237011D01*
X154243268Y-107167853D01*
X154259272Y-107122382D01*
X154272869Y-107099392D01*
X154317665Y-106945203D01*
X154320500Y-106909180D01*
X154320499Y-106510819D01*
X154317665Y-106474795D01*
X154272869Y-106320606D01*
X154271107Y-106317627D01*
X154238873Y-106263122D01*
X154221689Y-106195398D01*
X154238873Y-106136878D01*
X154259034Y-106102786D01*
X154272869Y-106079394D01*
X154313760Y-105938647D01*
X154317664Y-105925209D01*
X154317664Y-105925207D01*
X154317665Y-105925205D01*
X154320500Y-105889182D01*
X154320499Y-105490821D01*
X154317665Y-105454797D01*
X154305811Y-105413995D01*
X154306009Y-105344131D01*
X154343951Y-105285460D01*
X154350558Y-105280151D01*
X154447546Y-105207546D01*
X154533796Y-105092331D01*
X154584091Y-104957483D01*
X154590500Y-104897873D01*
X154590499Y-103409498D01*
X154610184Y-103342460D01*
X154662987Y-103296705D01*
X154714499Y-103285499D01*
X155687871Y-103285499D01*
X155687872Y-103285499D01*
X155747483Y-103279091D01*
X155882331Y-103228796D01*
X155997546Y-103142546D01*
X156083796Y-103027331D01*
X156134091Y-102892483D01*
X156140500Y-102832873D01*
X156140499Y-101837128D01*
X156134091Y-101777517D01*
X156121340Y-101743332D01*
X156120058Y-101725396D01*
X156113817Y-101708532D01*
X156117189Y-101685283D01*
X156116357Y-101673642D01*
X156116424Y-101673334D01*
X156118296Y-101664830D01*
X156134091Y-101622483D01*
X156135433Y-101610000D01*
X158595496Y-101610000D01*
X158637968Y-101756195D01*
X158720278Y-101895374D01*
X158720285Y-101895383D01*
X158834616Y-102009714D01*
X158834625Y-102009721D01*
X158973804Y-102092031D01*
X159129089Y-102137145D01*
X159150000Y-102138789D01*
X159650000Y-102138789D01*
X159670910Y-102137145D01*
X159826195Y-102092031D01*
X159965374Y-102009721D01*
X159965383Y-102009714D01*
X160079714Y-101895383D01*
X160079721Y-101895374D01*
X160162031Y-101756195D01*
X160204504Y-101610000D01*
X159650000Y-101610000D01*
X159650000Y-102138789D01*
X159150000Y-102138789D01*
X159150000Y-101610000D01*
X158595496Y-101610000D01*
X156135433Y-101610000D01*
X156140500Y-101562873D01*
X156140499Y-100567128D01*
X156137341Y-100537753D01*
X156140120Y-100522347D01*
X156137893Y-100506853D01*
X156146197Y-100488669D01*
X156149747Y-100468995D01*
X156160414Y-100457537D01*
X156166918Y-100443297D01*
X156183736Y-100432488D01*
X156197358Y-100417858D01*
X156213313Y-100413480D01*
X156225696Y-100405523D01*
X156260631Y-100400500D01*
X156378514Y-100400500D01*
X156445553Y-100420185D01*
X156491308Y-100472989D01*
X156500132Y-100500312D01*
X156502380Y-100511617D01*
X156502381Y-100511620D01*
X156557069Y-100643650D01*
X156557074Y-100643659D01*
X156636467Y-100762478D01*
X156636470Y-100762482D01*
X156737517Y-100863529D01*
X156737521Y-100863532D01*
X156856340Y-100942925D01*
X156856346Y-100942928D01*
X156856347Y-100942929D01*
X156988380Y-100997619D01*
X156988384Y-100997619D01*
X156988385Y-100997620D01*
X157128542Y-101025500D01*
X157128545Y-101025500D01*
X157271457Y-101025500D01*
X157365751Y-101006742D01*
X157411620Y-100997619D01*
X157543653Y-100942929D01*
X157575876Y-100921397D01*
X157642554Y-100900520D01*
X157644767Y-100900500D01*
X158491208Y-100900500D01*
X158558247Y-100920185D01*
X158604002Y-100972989D01*
X158613946Y-101042147D01*
X158610285Y-101059094D01*
X158595496Y-101110000D01*
X158901648Y-101110000D01*
X158964766Y-101127267D01*
X158973605Y-101132494D01*
X158973608Y-101132494D01*
X158973610Y-101132496D01*
X159129002Y-101177642D01*
X159129005Y-101177642D01*
X159129007Y-101177643D01*
X159165310Y-101180500D01*
X159165318Y-101180500D01*
X159634682Y-101180500D01*
X159634690Y-101180500D01*
X159670993Y-101177643D01*
X159670995Y-101177642D01*
X159670997Y-101177642D01*
X159826389Y-101132496D01*
X159826389Y-101132495D01*
X159826395Y-101132494D01*
X159835233Y-101127267D01*
X159898352Y-101110000D01*
X160204504Y-101110000D01*
X160189715Y-101059094D01*
X160189915Y-100989225D01*
X160227858Y-100930555D01*
X160291496Y-100901712D01*
X160308792Y-100900500D01*
X163562280Y-100900500D01*
X163813333Y-100900500D01*
X163820939Y-100900500D01*
X163820943Y-100900501D01*
X163875502Y-100900501D01*
X163913660Y-100911706D01*
X163942539Y-100920186D01*
X163942541Y-100920187D01*
X163988295Y-100972991D01*
X163988296Y-100973001D01*
X163999500Y-101024501D01*
X163999500Y-101337727D01*
X164012461Y-101436171D01*
X164014313Y-101450236D01*
X164072300Y-101590229D01*
X164072304Y-101590237D01*
X164072770Y-101591045D01*
X164077712Y-101600530D01*
X164082331Y-101610413D01*
X164090423Y-101640609D01*
X164119360Y-101690728D01*
X164149730Y-101743331D01*
X164169479Y-101777538D01*
X164169481Y-101777541D01*
X164288349Y-101896409D01*
X164288355Y-101896414D01*
X164960654Y-102568713D01*
X164960656Y-102568716D01*
X164988674Y-102596734D01*
X164991682Y-102599742D01*
X165007104Y-102618533D01*
X165036467Y-102662479D01*
X165137517Y-102763529D01*
X165137521Y-102763532D01*
X165256340Y-102842925D01*
X165256342Y-102842926D01*
X165256347Y-102842929D01*
X165270723Y-102848883D01*
X165325126Y-102892722D01*
X165347193Y-102959015D01*
X165329916Y-103026715D01*
X165292163Y-103066547D01*
X165187521Y-103136467D01*
X165187517Y-103136470D01*
X165112681Y-103211307D01*
X165051358Y-103244792D01*
X164981666Y-103239808D01*
X164937319Y-103211307D01*
X164862482Y-103136470D01*
X164862478Y-103136467D01*
X164743659Y-103057074D01*
X164743650Y-103057069D01*
X164611620Y-103002381D01*
X164611614Y-103002379D01*
X164471457Y-102974500D01*
X164471455Y-102974500D01*
X164328545Y-102974500D01*
X164328543Y-102974500D01*
X164188385Y-103002379D01*
X164188379Y-103002381D01*
X164056349Y-103057069D01*
X164056340Y-103057074D01*
X163937521Y-103136467D01*
X163937517Y-103136470D01*
X163862681Y-103211307D01*
X163801358Y-103244792D01*
X163731666Y-103239808D01*
X163687319Y-103211307D01*
X163612482Y-103136470D01*
X163612478Y-103136467D01*
X163493659Y-103057074D01*
X163493650Y-103057069D01*
X163361620Y-103002381D01*
X163361614Y-103002379D01*
X163221457Y-102974500D01*
X163221455Y-102974500D01*
X163078545Y-102974500D01*
X163078543Y-102974500D01*
X162938385Y-103002379D01*
X162938379Y-103002381D01*
X162806349Y-103057069D01*
X162806340Y-103057074D01*
X162687521Y-103136467D01*
X162687517Y-103136470D01*
X162612681Y-103211307D01*
X162551358Y-103244792D01*
X162481666Y-103239808D01*
X162437319Y-103211307D01*
X162362482Y-103136470D01*
X162362478Y-103136467D01*
X162243659Y-103057074D01*
X162243650Y-103057069D01*
X162111620Y-103002381D01*
X162111614Y-103002379D01*
X161971457Y-102974500D01*
X161971455Y-102974500D01*
X161828545Y-102974500D01*
X161828543Y-102974500D01*
X161688385Y-103002379D01*
X161688379Y-103002381D01*
X161556349Y-103057069D01*
X161556340Y-103057074D01*
X161437521Y-103136467D01*
X161437517Y-103136470D01*
X161336470Y-103237517D01*
X161336467Y-103237521D01*
X161257074Y-103356340D01*
X161257069Y-103356349D01*
X161202381Y-103488379D01*
X161202379Y-103488385D01*
X161174500Y-103628542D01*
X161174500Y-103628545D01*
X161174500Y-103771455D01*
X161174500Y-103771457D01*
X161174499Y-103771457D01*
X161202379Y-103911613D01*
X161204148Y-103917443D01*
X161201429Y-103918267D01*
X161207538Y-103975712D01*
X161184804Y-104027860D01*
X161181205Y-104032667D01*
X161181202Y-104032672D01*
X161130908Y-104167517D01*
X161127191Y-104202094D01*
X161124501Y-104227123D01*
X161124500Y-104227135D01*
X161124500Y-105272870D01*
X161124501Y-105272876D01*
X161130908Y-105332483D01*
X161181202Y-105467328D01*
X161181206Y-105467335D01*
X161267452Y-105582544D01*
X161267455Y-105582547D01*
X161382664Y-105668793D01*
X161382671Y-105668797D01*
X161490687Y-105709084D01*
X161546620Y-105750955D01*
X161571038Y-105816419D01*
X161556187Y-105884692D01*
X161506782Y-105934098D01*
X161490688Y-105941448D01*
X161382911Y-105981646D01*
X161382906Y-105981649D01*
X161267812Y-106067809D01*
X161267809Y-106067812D01*
X161181649Y-106182906D01*
X161181645Y-106182913D01*
X161131403Y-106317620D01*
X161131401Y-106317627D01*
X161125000Y-106377155D01*
X161125000Y-106650000D01*
X161776000Y-106650000D01*
X161843039Y-106669685D01*
X161888794Y-106722489D01*
X161900000Y-106774000D01*
X161900000Y-106900000D01*
X162026000Y-106900000D01*
X162093039Y-106919685D01*
X162138794Y-106972489D01*
X162150000Y-107024000D01*
X162150000Y-108954503D01*
X162296195Y-108912031D01*
X162435374Y-108829721D01*
X162435383Y-108829714D01*
X162549713Y-108715384D01*
X162552428Y-108711884D01*
X162609066Y-108670971D01*
X162678832Y-108667173D01*
X162719307Y-108684771D01*
X162806340Y-108742925D01*
X162806346Y-108742928D01*
X162806347Y-108742929D01*
X162938380Y-108797619D01*
X162938384Y-108797619D01*
X162938385Y-108797620D01*
X163078542Y-108825500D01*
X163078545Y-108825500D01*
X163221457Y-108825500D01*
X163347141Y-108800499D01*
X163361620Y-108797619D01*
X163493653Y-108742929D01*
X163612479Y-108663532D01*
X163692065Y-108583945D01*
X163753386Y-108550462D01*
X163823078Y-108555446D01*
X163867426Y-108583947D01*
X163937517Y-108654038D01*
X163937521Y-108654041D01*
X164056340Y-108733434D01*
X164056349Y-108733439D01*
X164079260Y-108742929D01*
X164188380Y-108788128D01*
X164188384Y-108788128D01*
X164188385Y-108788129D01*
X164328542Y-108816009D01*
X164328545Y-108816009D01*
X164471457Y-108816009D01*
X164587504Y-108792925D01*
X164611620Y-108788128D01*
X164743653Y-108733438D01*
X164862479Y-108654041D01*
X164963532Y-108552988D01*
X165042929Y-108434162D01*
X165097619Y-108302129D01*
X165119600Y-108191623D01*
X165124309Y-108182619D01*
X165125035Y-108172481D01*
X165140231Y-108152181D01*
X165151984Y-108129713D01*
X165160816Y-108124683D01*
X165166907Y-108116548D01*
X165190664Y-108107686D01*
X165212700Y-108095139D01*
X165222848Y-108095682D01*
X165232371Y-108092131D01*
X165257148Y-108097520D01*
X165282470Y-108098878D01*
X165292531Y-108105218D01*
X165300644Y-108106983D01*
X165328898Y-108128134D01*
X165460883Y-108260119D01*
X165494368Y-108321442D01*
X165494819Y-108323608D01*
X165502379Y-108361614D01*
X165502380Y-108361618D01*
X165557069Y-108493650D01*
X165557074Y-108493659D01*
X165636467Y-108612478D01*
X165636470Y-108612482D01*
X165737517Y-108713529D01*
X165737521Y-108713532D01*
X165856340Y-108792925D01*
X165856349Y-108792930D01*
X165874625Y-108800500D01*
X165988380Y-108847619D01*
X165988384Y-108847619D01*
X165988385Y-108847620D01*
X166128542Y-108875500D01*
X166128545Y-108875500D01*
X166271457Y-108875500D01*
X166365751Y-108856742D01*
X166411620Y-108847619D01*
X166543653Y-108792929D01*
X166662479Y-108713532D01*
X166763532Y-108612479D01*
X166810007Y-108542925D01*
X166846314Y-108488588D01*
X166848182Y-108489836D01*
X166890082Y-108447165D01*
X166958217Y-108431690D01*
X167023901Y-108455509D01*
X167066281Y-108511058D01*
X167074500Y-108555450D01*
X167074500Y-108571455D01*
X167074500Y-108571457D01*
X167074499Y-108571457D01*
X167102379Y-108711614D01*
X167102381Y-108711620D01*
X167157069Y-108843650D01*
X167157074Y-108843659D01*
X167236467Y-108962478D01*
X167236470Y-108962482D01*
X167337517Y-109063529D01*
X167337521Y-109063532D01*
X167456340Y-109142925D01*
X167456353Y-109142932D01*
X167499826Y-109160939D01*
X167554230Y-109204780D01*
X167576295Y-109271074D01*
X167559016Y-109338773D01*
X167507879Y-109386384D01*
X167452374Y-109399500D01*
X162320942Y-109399500D01*
X162168214Y-109440423D01*
X162130017Y-109462477D01*
X162130016Y-109462477D01*
X162031287Y-109519477D01*
X162031282Y-109519481D01*
X161119480Y-110431283D01*
X161119478Y-110431286D01*
X161112756Y-110442929D01*
X161079518Y-110500500D01*
X161040422Y-110568216D01*
X160999498Y-110720944D01*
X160999498Y-110720946D01*
X160999498Y-110889047D01*
X160999499Y-110889060D01*
X160999499Y-111085858D01*
X160979814Y-111152897D01*
X160927010Y-111198652D01*
X160918846Y-111202034D01*
X160907668Y-111206204D01*
X160907663Y-111206206D01*
X160792454Y-111292452D01*
X160792451Y-111292455D01*
X160706205Y-111407664D01*
X160706201Y-111407671D01*
X160655907Y-111542517D01*
X160650016Y-111597315D01*
X160649500Y-111602123D01*
X160649499Y-111602135D01*
X160649499Y-113397870D01*
X160649500Y-113397876D01*
X160655907Y-113457483D01*
X160706201Y-113592328D01*
X160706205Y-113592335D01*
X160792451Y-113707544D01*
X160792454Y-113707547D01*
X160907663Y-113793793D01*
X160907670Y-113793797D01*
X161042516Y-113844091D01*
X161042515Y-113844091D01*
X161049443Y-113844835D01*
X161102126Y-113850500D01*
X162097871Y-113850499D01*
X162157482Y-113844091D01*
X162292330Y-113793796D01*
X162407545Y-113707546D01*
X162493795Y-113592331D01*
X162544090Y-113457483D01*
X162550499Y-113397873D01*
X162550498Y-111602128D01*
X162544090Y-111542517D01*
X162542392Y-111537965D01*
X162493796Y-111407671D01*
X162493792Y-111407664D01*
X162407546Y-111292455D01*
X162407543Y-111292452D01*
X162292332Y-111206205D01*
X162292330Y-111206204D01*
X162291527Y-111205904D01*
X162290841Y-111205391D01*
X162284550Y-111201956D01*
X162285044Y-111201050D01*
X162235597Y-111164029D01*
X162211185Y-111098563D01*
X162226042Y-111030291D01*
X162247186Y-111002048D01*
X162612416Y-110636819D01*
X162673739Y-110603334D01*
X162700097Y-110600500D01*
X167857207Y-110600500D01*
X167857223Y-110600501D01*
X167864819Y-110600501D01*
X168022930Y-110600501D01*
X168022933Y-110600501D01*
X168175661Y-110559577D01*
X168234682Y-110525501D01*
X168312592Y-110480520D01*
X168424396Y-110368716D01*
X168424396Y-110368714D01*
X168434599Y-110358512D01*
X168434603Y-110358506D01*
X168512057Y-110281052D01*
X168573378Y-110247569D01*
X168575474Y-110247132D01*
X168613558Y-110239557D01*
X168745591Y-110184867D01*
X168864417Y-110105470D01*
X168965470Y-110004417D01*
X169044867Y-109885591D01*
X169069117Y-109827047D01*
X169112958Y-109772644D01*
X169179252Y-109750579D01*
X169183678Y-109750500D01*
X170415686Y-109750500D01*
X170415694Y-109750500D01*
X170452569Y-109747598D01*
X170452571Y-109747597D01*
X170452573Y-109747597D01*
X170518149Y-109728545D01*
X170610398Y-109701744D01*
X170751865Y-109618081D01*
X170868081Y-109501865D01*
X170951744Y-109360398D01*
X170996956Y-109204780D01*
X170997597Y-109202573D01*
X170997598Y-109202567D01*
X170997712Y-109201115D01*
X171000500Y-109165694D01*
X171000500Y-108924500D01*
X171020185Y-108857461D01*
X171072989Y-108811706D01*
X171124500Y-108800500D01*
X172290686Y-108800500D01*
X172290694Y-108800500D01*
X172327569Y-108797598D01*
X172327571Y-108797597D01*
X172327573Y-108797597D01*
X172369191Y-108785505D01*
X172485398Y-108751744D01*
X172626865Y-108668081D01*
X172658126Y-108636820D01*
X172719448Y-108603334D01*
X172745808Y-108600500D01*
X173113120Y-108600500D01*
X173113136Y-108600501D01*
X173120732Y-108600501D01*
X173278843Y-108600501D01*
X173278846Y-108600501D01*
X173431574Y-108559577D01*
X173502347Y-108518716D01*
X173568505Y-108480520D01*
X173680309Y-108368716D01*
X173680309Y-108368714D01*
X173690513Y-108358511D01*
X173690517Y-108358506D01*
X175175646Y-106873376D01*
X175236967Y-106839893D01*
X175301643Y-106843128D01*
X175324096Y-106850423D01*
X175372049Y-106866004D01*
X175589778Y-106900489D01*
X175589779Y-106900489D01*
X175810221Y-106900489D01*
X175810222Y-106900489D01*
X176027951Y-106866004D01*
X176237606Y-106797884D01*
X176434022Y-106697804D01*
X176612365Y-106568231D01*
X176768242Y-106412354D01*
X176897815Y-106234011D01*
X176997895Y-106037595D01*
X177066015Y-105827940D01*
X177100500Y-105610211D01*
X177100500Y-105389767D01*
X177066015Y-105172038D01*
X177026387Y-105050074D01*
X176997896Y-104962385D01*
X176997895Y-104962382D01*
X176963237Y-104894364D01*
X176897815Y-104765967D01*
X176835149Y-104679714D01*
X176768247Y-104587630D01*
X176768243Y-104587625D01*
X176612363Y-104431745D01*
X176612358Y-104431741D01*
X176434025Y-104302176D01*
X176434024Y-104302175D01*
X176434022Y-104302174D01*
X176371096Y-104270111D01*
X176237606Y-104202093D01*
X176237603Y-104202092D01*
X176027952Y-104133974D01*
X175919086Y-104116731D01*
X175810222Y-104099489D01*
X175589778Y-104099489D01*
X175551776Y-104105508D01*
X175372047Y-104133974D01*
X175162396Y-104202092D01*
X175162393Y-104202093D01*
X174965974Y-104302176D01*
X174787641Y-104431741D01*
X174787636Y-104431745D01*
X174631756Y-104587625D01*
X174631752Y-104587630D01*
X174502187Y-104765963D01*
X174402104Y-104962382D01*
X174402103Y-104962385D01*
X174333985Y-105172036D01*
X174305039Y-105354797D01*
X174299500Y-105389767D01*
X174299500Y-105610211D01*
X174302126Y-105626789D01*
X174333985Y-105827941D01*
X174347734Y-105870255D01*
X174353883Y-105889182D01*
X174356762Y-105898041D01*
X174358757Y-105967882D01*
X174326512Y-106024040D01*
X172987373Y-107363181D01*
X172960445Y-107377884D01*
X172934627Y-107394477D01*
X172928426Y-107395368D01*
X172926050Y-107396666D01*
X172899692Y-107399500D01*
X172745808Y-107399500D01*
X172678769Y-107379815D01*
X172658126Y-107363180D01*
X172626870Y-107331923D01*
X172626862Y-107331917D01*
X172521480Y-107269595D01*
X172485398Y-107248256D01*
X172485397Y-107248255D01*
X172485396Y-107248255D01*
X172485393Y-107248254D01*
X172327573Y-107202402D01*
X172327567Y-107202401D01*
X172290701Y-107199500D01*
X172290694Y-107199500D01*
X171124500Y-107199500D01*
X171057461Y-107179815D01*
X171011706Y-107127011D01*
X171000500Y-107075500D01*
X171000500Y-106834313D01*
X171000499Y-106834298D01*
X170999388Y-106820185D01*
X170997598Y-106797431D01*
X170994968Y-106788380D01*
X170963191Y-106679002D01*
X170951744Y-106639602D01*
X170868081Y-106498135D01*
X170868079Y-106498133D01*
X170868076Y-106498129D01*
X170751870Y-106381923D01*
X170751862Y-106381917D01*
X170617373Y-106302381D01*
X170610398Y-106298256D01*
X170610397Y-106298255D01*
X170610396Y-106298255D01*
X170610393Y-106298254D01*
X170452573Y-106252402D01*
X170452567Y-106252401D01*
X170415701Y-106249500D01*
X170415694Y-106249500D01*
X169862597Y-106249500D01*
X169833156Y-106240855D01*
X169803170Y-106234332D01*
X169798154Y-106230577D01*
X169795558Y-106229815D01*
X169774916Y-106213181D01*
X169719809Y-106158074D01*
X169686324Y-106096751D01*
X169691308Y-106027059D01*
X169692916Y-106022973D01*
X169697619Y-106011620D01*
X169703581Y-105981646D01*
X169725500Y-105871457D01*
X169725500Y-105728542D01*
X169697620Y-105588385D01*
X169697619Y-105588384D01*
X169697619Y-105588380D01*
X169647479Y-105467331D01*
X169642930Y-105456349D01*
X169642925Y-105456340D01*
X169563532Y-105337521D01*
X169563529Y-105337517D01*
X169462482Y-105236470D01*
X169462478Y-105236467D01*
X169343659Y-105157074D01*
X169343650Y-105157069D01*
X169211620Y-105102381D01*
X169211614Y-105102379D01*
X169071457Y-105074500D01*
X169071455Y-105074500D01*
X168928545Y-105074500D01*
X168928543Y-105074500D01*
X168788385Y-105102379D01*
X168788379Y-105102381D01*
X168656349Y-105157069D01*
X168656340Y-105157074D01*
X168537521Y-105236467D01*
X168537517Y-105236470D01*
X168436470Y-105337517D01*
X168436467Y-105337521D01*
X168357074Y-105456340D01*
X168357069Y-105456349D01*
X168302381Y-105588379D01*
X168302379Y-105588385D01*
X168274500Y-105728542D01*
X168274500Y-105871459D01*
X168298340Y-105991309D01*
X168292113Y-106060900D01*
X168249250Y-106116078D01*
X168183360Y-106139322D01*
X168176723Y-106139500D01*
X168015302Y-106139500D01*
X167979008Y-106142356D01*
X167979002Y-106142357D01*
X167823609Y-106187504D01*
X167823606Y-106187505D01*
X167684315Y-106269881D01*
X167684307Y-106269887D01*
X167569887Y-106384307D01*
X167569881Y-106384315D01*
X167487505Y-106523606D01*
X167487504Y-106523609D01*
X167442357Y-106679002D01*
X167442356Y-106679008D01*
X167439500Y-106715302D01*
X167439500Y-107124697D01*
X167442356Y-107160991D01*
X167442357Y-107160997D01*
X167487504Y-107316391D01*
X167487506Y-107316397D01*
X167499620Y-107336880D01*
X167516801Y-107404604D01*
X167499620Y-107463120D01*
X167487506Y-107483602D01*
X167487504Y-107483608D01*
X167442357Y-107639002D01*
X167442356Y-107639008D01*
X167439500Y-107675302D01*
X167439500Y-107802047D01*
X167419815Y-107869086D01*
X167384392Y-107905148D01*
X167337523Y-107936465D01*
X167337517Y-107936470D01*
X167236470Y-108037517D01*
X167236467Y-108037521D01*
X167153686Y-108161412D01*
X167151821Y-108160166D01*
X167109895Y-108202847D01*
X167041758Y-108218307D01*
X166976078Y-108194475D01*
X166933709Y-108138917D01*
X166925500Y-108094549D01*
X166925500Y-108078542D01*
X166897620Y-107938385D01*
X166897619Y-107938384D01*
X166897619Y-107938380D01*
X166843466Y-107807643D01*
X166842930Y-107806349D01*
X166842925Y-107806340D01*
X166763532Y-107687521D01*
X166763529Y-107687517D01*
X166662482Y-107586470D01*
X166662478Y-107586467D01*
X166543659Y-107507074D01*
X166543646Y-107507067D01*
X166502047Y-107489837D01*
X166447643Y-107445997D01*
X166425578Y-107379703D01*
X166425499Y-107375329D01*
X166425499Y-106377128D01*
X166420299Y-106328757D01*
X166419091Y-106317516D01*
X166368797Y-106182671D01*
X166368793Y-106182664D01*
X166282547Y-106067455D01*
X166282544Y-106067452D01*
X166167335Y-105981206D01*
X166167328Y-105981202D01*
X166060027Y-105941182D01*
X166004093Y-105899311D01*
X165979676Y-105833847D01*
X165994527Y-105765574D01*
X166043932Y-105716168D01*
X166060027Y-105708818D01*
X166131487Y-105682164D01*
X166167331Y-105668796D01*
X166282546Y-105582546D01*
X166368796Y-105467331D01*
X166419091Y-105332483D01*
X166425500Y-105272873D01*
X166425499Y-104280000D01*
X168915495Y-104280000D01*
X168957967Y-104426195D01*
X169040277Y-104565374D01*
X169040284Y-104565383D01*
X169154615Y-104679714D01*
X169154624Y-104679721D01*
X169293803Y-104762031D01*
X169449088Y-104807145D01*
X169469999Y-104808789D01*
X169969999Y-104808789D01*
X169990909Y-104807145D01*
X170146194Y-104762031D01*
X170285373Y-104679721D01*
X170285382Y-104679714D01*
X170399713Y-104565383D01*
X170399720Y-104565374D01*
X170482030Y-104426195D01*
X170524503Y-104280000D01*
X169969999Y-104280000D01*
X169969999Y-104808789D01*
X169469999Y-104808789D01*
X169469999Y-104280000D01*
X168915495Y-104280000D01*
X166425499Y-104280000D01*
X166425499Y-104227128D01*
X166419091Y-104167517D01*
X166406580Y-104133974D01*
X166368797Y-104032671D01*
X166368795Y-104032668D01*
X166368794Y-104032667D01*
X166365199Y-104027864D01*
X166340782Y-103962399D01*
X166343047Y-103928387D01*
X166345423Y-103916919D01*
X166347619Y-103911620D01*
X166373801Y-103780000D01*
X166375499Y-103771459D01*
X166375500Y-103771457D01*
X166375500Y-103628542D01*
X166347620Y-103488385D01*
X166347619Y-103488384D01*
X166347619Y-103488380D01*
X166292929Y-103356347D01*
X166292928Y-103356346D01*
X166292925Y-103356340D01*
X166213532Y-103237521D01*
X166213529Y-103237517D01*
X166112482Y-103136470D01*
X166112478Y-103136467D01*
X165993659Y-103057074D01*
X165993646Y-103057067D01*
X165979275Y-103051115D01*
X165924871Y-103007275D01*
X165902806Y-102940981D01*
X165920085Y-102873281D01*
X165927648Y-102865302D01*
X168909499Y-102865302D01*
X168909499Y-103274697D01*
X168912355Y-103310991D01*
X168912356Y-103310997D01*
X168957503Y-103466390D01*
X168957506Y-103466397D01*
X168969909Y-103487370D01*
X168987092Y-103555094D01*
X168969911Y-103613608D01*
X168957967Y-103633804D01*
X168915495Y-103780000D01*
X169221647Y-103780000D01*
X169284765Y-103797267D01*
X169293604Y-103802494D01*
X169293607Y-103802494D01*
X169293609Y-103802496D01*
X169449001Y-103847642D01*
X169449004Y-103847642D01*
X169449006Y-103847643D01*
X169485309Y-103850500D01*
X169485317Y-103850500D01*
X169954681Y-103850500D01*
X169954689Y-103850500D01*
X169990992Y-103847643D01*
X169990994Y-103847642D01*
X169990996Y-103847642D01*
X170146388Y-103802496D01*
X170146388Y-103802495D01*
X170146394Y-103802494D01*
X170155232Y-103797267D01*
X170218351Y-103780000D01*
X170524504Y-103780000D01*
X170538961Y-103760744D01*
X170538966Y-103759226D01*
X170576908Y-103700556D01*
X170640546Y-103671712D01*
X170657843Y-103670500D01*
X173043031Y-103670500D01*
X173043047Y-103670501D01*
X173050643Y-103670501D01*
X173208754Y-103670501D01*
X173208757Y-103670501D01*
X173361485Y-103629577D01*
X173411604Y-103600639D01*
X173498416Y-103550520D01*
X173610220Y-103438716D01*
X173610220Y-103438714D01*
X173620428Y-103428507D01*
X173620430Y-103428504D01*
X175175563Y-101873370D01*
X175236884Y-101839887D01*
X175301560Y-101843122D01*
X175372049Y-101866025D01*
X175589778Y-101900510D01*
X175589779Y-101900510D01*
X175810221Y-101900510D01*
X175810222Y-101900510D01*
X176027951Y-101866025D01*
X176237606Y-101797905D01*
X176434022Y-101697825D01*
X176612365Y-101568252D01*
X176768242Y-101412375D01*
X176897815Y-101234032D01*
X176997895Y-101037616D01*
X177066015Y-100827961D01*
X177100500Y-100610232D01*
X177100500Y-100389788D01*
X177066015Y-100172059D01*
X177014219Y-100012644D01*
X176997896Y-99962406D01*
X176997895Y-99962403D01*
X176963237Y-99894385D01*
X176897815Y-99765988D01*
X176881260Y-99743202D01*
X176768247Y-99587651D01*
X176768243Y-99587646D01*
X176612363Y-99431766D01*
X176612358Y-99431762D01*
X176434025Y-99302197D01*
X176434024Y-99302196D01*
X176434022Y-99302195D01*
X176319409Y-99243796D01*
X176237606Y-99202114D01*
X176237603Y-99202113D01*
X176027952Y-99133995D01*
X175896537Y-99113181D01*
X175810222Y-99099510D01*
X175589778Y-99099510D01*
X175517201Y-99111005D01*
X175372047Y-99133995D01*
X175162396Y-99202113D01*
X175162393Y-99202114D01*
X174965974Y-99302197D01*
X174787641Y-99431762D01*
X174787636Y-99431766D01*
X174631756Y-99587646D01*
X174631752Y-99587651D01*
X174502187Y-99765984D01*
X174402104Y-99962403D01*
X174402103Y-99962406D01*
X174333985Y-100172057D01*
X174303787Y-100362720D01*
X174299500Y-100389788D01*
X174299500Y-100610232D01*
X174304793Y-100643650D01*
X174333985Y-100827962D01*
X174356735Y-100897979D01*
X174358730Y-100967820D01*
X174326485Y-101023978D01*
X172917284Y-102433181D01*
X172855961Y-102466666D01*
X172829603Y-102469500D01*
X170386666Y-102469500D01*
X170319627Y-102449815D01*
X170298985Y-102433181D01*
X170285691Y-102419887D01*
X170285683Y-102419881D01*
X170156788Y-102343653D01*
X170146394Y-102337506D01*
X170146393Y-102337505D01*
X170146392Y-102337505D01*
X170146389Y-102337504D01*
X169990996Y-102292357D01*
X169990990Y-102292356D01*
X169954696Y-102289500D01*
X169954689Y-102289500D01*
X169485309Y-102289500D01*
X169485301Y-102289500D01*
X169449007Y-102292356D01*
X169449001Y-102292357D01*
X169293608Y-102337504D01*
X169293605Y-102337505D01*
X169154314Y-102419881D01*
X169154306Y-102419887D01*
X169039886Y-102534307D01*
X169039880Y-102534315D01*
X168957504Y-102673606D01*
X168957503Y-102673609D01*
X168912356Y-102829002D01*
X168912355Y-102829008D01*
X168909499Y-102865302D01*
X165927648Y-102865302D01*
X165957837Y-102833452D01*
X166019067Y-102792539D01*
X166062479Y-102763532D01*
X166163532Y-102662479D01*
X166242929Y-102543653D01*
X166297619Y-102411620D01*
X166311139Y-102343651D01*
X166325500Y-102271457D01*
X166325500Y-102128542D01*
X166301876Y-102009781D01*
X166308103Y-101940189D01*
X166350966Y-101885012D01*
X166416855Y-101861767D01*
X166439672Y-101862649D01*
X166529263Y-101874444D01*
X166537264Y-101875498D01*
X166537280Y-101875500D01*
X166537287Y-101875500D01*
X166762713Y-101875500D01*
X166762720Y-101875500D01*
X166875236Y-101860687D01*
X166875236Y-101860686D01*
X166883295Y-101859626D01*
X166883698Y-101862689D01*
X166916302Y-101862689D01*
X166916705Y-101859626D01*
X166924763Y-101860686D01*
X166924764Y-101860687D01*
X167037280Y-101875500D01*
X167037287Y-101875500D01*
X167262713Y-101875500D01*
X167262720Y-101875500D01*
X167375236Y-101860687D01*
X167515233Y-101802698D01*
X167635451Y-101710451D01*
X167727698Y-101590233D01*
X167785687Y-101450236D01*
X167800500Y-101337720D01*
X167800500Y-101100000D01*
X168915495Y-101100000D01*
X168957967Y-101246195D01*
X169040277Y-101385374D01*
X169040284Y-101385383D01*
X169154615Y-101499714D01*
X169154624Y-101499721D01*
X169293803Y-101582031D01*
X169449088Y-101627145D01*
X169469999Y-101628789D01*
X169969999Y-101628789D01*
X169990909Y-101627145D01*
X170146194Y-101582031D01*
X170285373Y-101499721D01*
X170285382Y-101499714D01*
X170399713Y-101385383D01*
X170399720Y-101385374D01*
X170482030Y-101246195D01*
X170524503Y-101100000D01*
X169969999Y-101100000D01*
X169969999Y-101628789D01*
X169469999Y-101628789D01*
X169469999Y-101100000D01*
X168915495Y-101100000D01*
X167800500Y-101100000D01*
X167800500Y-101024500D01*
X167820185Y-100957461D01*
X167872989Y-100911706D01*
X167924500Y-100900500D01*
X168237713Y-100900500D01*
X168237720Y-100900500D01*
X168350236Y-100885687D01*
X168490233Y-100827698D01*
X168610451Y-100735451D01*
X168702698Y-100615233D01*
X168702700Y-100615229D01*
X168706324Y-100608953D01*
X168756893Y-100560740D01*
X168825500Y-100547519D01*
X168890364Y-100573489D01*
X168912870Y-100596505D01*
X168915494Y-100600000D01*
X169221647Y-100600000D01*
X169284765Y-100617267D01*
X169293604Y-100622494D01*
X169293607Y-100622494D01*
X169293609Y-100622496D01*
X169449001Y-100667642D01*
X169449004Y-100667642D01*
X169449006Y-100667643D01*
X169485309Y-100670500D01*
X169485317Y-100670500D01*
X169954681Y-100670500D01*
X169954689Y-100670500D01*
X169990992Y-100667643D01*
X169990994Y-100667642D01*
X169990996Y-100667642D01*
X170146388Y-100622496D01*
X170146388Y-100622495D01*
X170146394Y-100622494D01*
X170155232Y-100617267D01*
X170218351Y-100600000D01*
X170524503Y-100600000D01*
X170537367Y-100582867D01*
X170593360Y-100541076D01*
X170612337Y-100535702D01*
X170631709Y-100531848D01*
X170682627Y-100521720D01*
X170814660Y-100467030D01*
X170933486Y-100387633D01*
X171034539Y-100286580D01*
X171113936Y-100167754D01*
X171155650Y-100067048D01*
X171199491Y-100012644D01*
X171265785Y-99990579D01*
X171270211Y-99990500D01*
X171314682Y-99990500D01*
X171314690Y-99990500D01*
X171350993Y-99987643D01*
X171350995Y-99987642D01*
X171350997Y-99987642D01*
X171437865Y-99962404D01*
X171506395Y-99942494D01*
X171645687Y-99860117D01*
X171645692Y-99860112D01*
X171658986Y-99846819D01*
X171685913Y-99832115D01*
X171711732Y-99815523D01*
X171717932Y-99814631D01*
X171720309Y-99813334D01*
X171746667Y-99810500D01*
X171903331Y-99810500D01*
X171903347Y-99810501D01*
X171910943Y-99810501D01*
X172069054Y-99810501D01*
X172069057Y-99810501D01*
X172221785Y-99769577D01*
X172279131Y-99736468D01*
X172294418Y-99727641D01*
X172332223Y-99713411D01*
X172411620Y-99697619D01*
X172543653Y-99642929D01*
X172662479Y-99563532D01*
X172763532Y-99462479D01*
X172842929Y-99343653D01*
X172897619Y-99211620D01*
X172911059Y-99144054D01*
X172925500Y-99071457D01*
X172925500Y-98928542D01*
X172897620Y-98788385D01*
X172897619Y-98788384D01*
X172897619Y-98788380D01*
X172845207Y-98661847D01*
X172842930Y-98656349D01*
X172842925Y-98656340D01*
X172763532Y-98537521D01*
X172763529Y-98537517D01*
X172662482Y-98436470D01*
X172662478Y-98436467D01*
X172543659Y-98357074D01*
X172543650Y-98357069D01*
X172479831Y-98330635D01*
X172425428Y-98286794D01*
X172403363Y-98220500D01*
X172420642Y-98152801D01*
X172471779Y-98105190D01*
X172483951Y-98099892D01*
X172571186Y-98067355D01*
X172571193Y-98067351D01*
X172686287Y-97981191D01*
X172686290Y-97981188D01*
X172772450Y-97866094D01*
X172772454Y-97866087D01*
X172822696Y-97731380D01*
X172822698Y-97731373D01*
X172829099Y-97671845D01*
X172829100Y-97671828D01*
X172829100Y-97620001D01*
X172077450Y-97620001D01*
X172077450Y-98148969D01*
X172080902Y-98155291D01*
X172075918Y-98224983D01*
X172034046Y-98280916D01*
X171993696Y-98298913D01*
X171994212Y-98300612D01*
X171988379Y-98302381D01*
X171856349Y-98357069D01*
X171856340Y-98357074D01*
X171737521Y-98436467D01*
X171737517Y-98436470D01*
X171710307Y-98463681D01*
X171683379Y-98478384D01*
X171657561Y-98494977D01*
X171651360Y-98495868D01*
X171648984Y-98497166D01*
X171622626Y-98500000D01*
X171578352Y-98500000D01*
X171515233Y-98482732D01*
X171506395Y-98477506D01*
X171506393Y-98477505D01*
X171506389Y-98477503D01*
X171350997Y-98432357D01*
X171350991Y-98432356D01*
X171314697Y-98429500D01*
X171314690Y-98429500D01*
X171204000Y-98429500D01*
X171195314Y-98426949D01*
X171186353Y-98428238D01*
X171162312Y-98417259D01*
X171136961Y-98409815D01*
X171131033Y-98402974D01*
X171122797Y-98399213D01*
X171108507Y-98376978D01*
X171091206Y-98357011D01*
X171088918Y-98346496D01*
X171085023Y-98340435D01*
X171080000Y-98305500D01*
X171080000Y-98124000D01*
X171099685Y-98056961D01*
X171152489Y-98011206D01*
X171204000Y-98000000D01*
X171577450Y-98000000D01*
X171577450Y-97620001D01*
X170819800Y-97620001D01*
X170752761Y-97600316D01*
X170707006Y-97547512D01*
X170698339Y-97507672D01*
X170695800Y-97505766D01*
X170653807Y-97517966D01*
X170653804Y-97517968D01*
X170644288Y-97523596D01*
X170640647Y-97524519D01*
X170637929Y-97527109D01*
X170607045Y-97533044D01*
X170576564Y-97540777D01*
X170573003Y-97539586D01*
X170569315Y-97540295D01*
X170540123Y-97528590D01*
X170510302Y-97518617D01*
X170506934Y-97515282D01*
X170504464Y-97514292D01*
X170494917Y-97503384D01*
X170480122Y-97488735D01*
X170477101Y-97484488D01*
X170400116Y-97354313D01*
X170346066Y-97300263D01*
X170340048Y-97291802D01*
X170331893Y-97268199D01*
X170319929Y-97246289D01*
X170320682Y-97235750D01*
X170317232Y-97225763D01*
X170323132Y-97201501D01*
X170324913Y-97176598D01*
X170333058Y-97160681D01*
X170333742Y-97157872D01*
X170335214Y-97156469D01*
X170337992Y-97151041D01*
X170342929Y-97143653D01*
X170374201Y-97068156D01*
X170825800Y-97068156D01*
X170825800Y-97120001D01*
X171577450Y-97120001D01*
X171577450Y-96616001D01*
X171277955Y-96616001D01*
X171218427Y-96622402D01*
X171218420Y-96622404D01*
X171083713Y-96672646D01*
X171083706Y-96672650D01*
X170968612Y-96758810D01*
X170968609Y-96758813D01*
X170882449Y-96873907D01*
X170882445Y-96873914D01*
X170832203Y-97008621D01*
X170832201Y-97008628D01*
X170825800Y-97068156D01*
X170374201Y-97068156D01*
X170397619Y-97011620D01*
X170411781Y-96940423D01*
X170425500Y-96871457D01*
X170425500Y-96728542D01*
X170397620Y-96588385D01*
X170397619Y-96588384D01*
X170397619Y-96588380D01*
X170342929Y-96456347D01*
X170342928Y-96456346D01*
X170342925Y-96456340D01*
X170263532Y-96337521D01*
X170263529Y-96337517D01*
X170162482Y-96236470D01*
X170162478Y-96236467D01*
X170043659Y-96157074D01*
X170043650Y-96157069D01*
X169911618Y-96102380D01*
X169911613Y-96102378D01*
X169906209Y-96101304D01*
X169844298Y-96068919D01*
X169809724Y-96008204D01*
X169808783Y-95955495D01*
X169825500Y-95871457D01*
X169825500Y-95728542D01*
X169797620Y-95588385D01*
X169797619Y-95588384D01*
X169797619Y-95588380D01*
X169742929Y-95456347D01*
X169742928Y-95456346D01*
X169742925Y-95456340D01*
X169663532Y-95337521D01*
X169663529Y-95337517D01*
X169562482Y-95236470D01*
X169562478Y-95236467D01*
X169443659Y-95157074D01*
X169443650Y-95157069D01*
X169311620Y-95102381D01*
X169311614Y-95102379D01*
X169171457Y-95074500D01*
X169171455Y-95074500D01*
X169028545Y-95074500D01*
X169028543Y-95074500D01*
X168888385Y-95102379D01*
X168888375Y-95102382D01*
X168759727Y-95155670D01*
X168690258Y-95163139D01*
X168627779Y-95131864D01*
X168624591Y-95128787D01*
X168615691Y-95119886D01*
X168615684Y-95119881D01*
X168512153Y-95058653D01*
X168476395Y-95037506D01*
X168476394Y-95037505D01*
X168476393Y-95037505D01*
X168476390Y-95037504D01*
X168320997Y-94992357D01*
X168320991Y-94992356D01*
X168284697Y-94989500D01*
X168284690Y-94989500D01*
X167875310Y-94989500D01*
X167875302Y-94989500D01*
X167839008Y-94992356D01*
X167839002Y-94992357D01*
X167683609Y-95037504D01*
X167683604Y-95037506D01*
X167662628Y-95049911D01*
X167594903Y-95067092D01*
X167536389Y-95049911D01*
X167516191Y-95037966D01*
X167516190Y-95037965D01*
X167370001Y-94995493D01*
X167370000Y-94995494D01*
X167370000Y-95301645D01*
X167352734Y-95364763D01*
X167347507Y-95373600D01*
X167347504Y-95373608D01*
X167302357Y-95529002D01*
X167302356Y-95529008D01*
X167299500Y-95565302D01*
X167299500Y-96034697D01*
X167302356Y-96070991D01*
X167326421Y-96153822D01*
X167326221Y-96223691D01*
X167288278Y-96282361D01*
X167224640Y-96311204D01*
X167155510Y-96301063D01*
X167131861Y-96286794D01*
X167015233Y-96197302D01*
X166990541Y-96187074D01*
X166946546Y-96168850D01*
X166892143Y-96125008D01*
X166870079Y-96058713D01*
X166870000Y-96054289D01*
X166870000Y-96050000D01*
X166341210Y-96050000D01*
X166309157Y-96084673D01*
X166249195Y-96120539D01*
X166218103Y-96124500D01*
X166037272Y-96124500D01*
X165950393Y-96135938D01*
X165924764Y-96139313D01*
X165924762Y-96139313D01*
X165916708Y-96140374D01*
X165916316Y-96137399D01*
X165883684Y-96137399D01*
X165883292Y-96140374D01*
X165875237Y-96139313D01*
X165875236Y-96139313D01*
X165846271Y-96135499D01*
X165762727Y-96124500D01*
X165762720Y-96124500D01*
X165537280Y-96124500D01*
X165537272Y-96124500D01*
X165450393Y-96135938D01*
X165424764Y-96139313D01*
X165424762Y-96139313D01*
X165416708Y-96140374D01*
X165416316Y-96137399D01*
X165383684Y-96137399D01*
X165383292Y-96140374D01*
X165375237Y-96139313D01*
X165375236Y-96139313D01*
X165346271Y-96135499D01*
X165262727Y-96124500D01*
X165262720Y-96124500D01*
X165126260Y-96124500D01*
X165059221Y-96104815D01*
X165013466Y-96052011D01*
X165003522Y-95982853D01*
X165004643Y-95976308D01*
X165025500Y-95871457D01*
X165025500Y-95728542D01*
X165005699Y-95629002D01*
X164997619Y-95588380D01*
X164981721Y-95549999D01*
X166341209Y-95549999D01*
X166341210Y-95550000D01*
X166870000Y-95550000D01*
X166870000Y-94995494D01*
X166869998Y-94995493D01*
X166723809Y-95037965D01*
X166723806Y-95037967D01*
X166584625Y-95120278D01*
X166584616Y-95120285D01*
X166470285Y-95234616D01*
X166470278Y-95234625D01*
X166387968Y-95373804D01*
X166387966Y-95373809D01*
X166342855Y-95529081D01*
X166342854Y-95529087D01*
X166341209Y-95549999D01*
X164981721Y-95549999D01*
X164942929Y-95456347D01*
X164942928Y-95456346D01*
X164942925Y-95456340D01*
X164863532Y-95337521D01*
X164863529Y-95337517D01*
X164762482Y-95236470D01*
X164762478Y-95236467D01*
X164643659Y-95157074D01*
X164643650Y-95157069D01*
X164511620Y-95102381D01*
X164511614Y-95102379D01*
X164371457Y-95074500D01*
X164371455Y-95074500D01*
X164324500Y-95074500D01*
X164257461Y-95054815D01*
X164211706Y-95002011D01*
X164200500Y-94950500D01*
X164200500Y-94826079D01*
X164171659Y-94681092D01*
X164171658Y-94681091D01*
X164171658Y-94681087D01*
X164115084Y-94544505D01*
X164071396Y-94479121D01*
X164050520Y-94412444D01*
X164050500Y-94410232D01*
X164050500Y-94078396D01*
X164070185Y-94011357D01*
X164086815Y-93990719D01*
X164710416Y-93367117D01*
X164771739Y-93333633D01*
X164798097Y-93330799D01*
X166433000Y-93330799D01*
X166500039Y-93350484D01*
X166545794Y-93403288D01*
X166557000Y-93454799D01*
X166557000Y-93630400D01*
X168843000Y-93630400D01*
X168843000Y-93454799D01*
X168862685Y-93387760D01*
X168915489Y-93342005D01*
X168966995Y-93330799D01*
X170782702Y-93330799D01*
X170812142Y-93339443D01*
X170842129Y-93345967D01*
X170847144Y-93349721D01*
X170849741Y-93350484D01*
X170870383Y-93367118D01*
X170935554Y-93432289D01*
X170969039Y-93493612D01*
X170966950Y-93554561D01*
X170957404Y-93587421D01*
X170957401Y-93587436D01*
X170954500Y-93624298D01*
X170954500Y-94055701D01*
X170957401Y-94092567D01*
X170957402Y-94092573D01*
X171003254Y-94250393D01*
X171003255Y-94250396D01*
X171086917Y-94391862D01*
X171086923Y-94391870D01*
X171203129Y-94508076D01*
X171203138Y-94508083D01*
X171207232Y-94510504D01*
X171254917Y-94561571D01*
X171267424Y-94630312D01*
X171240781Y-94694902D01*
X171187449Y-94733420D01*
X171083469Y-94772202D01*
X171083464Y-94772205D01*
X170968255Y-94858451D01*
X170968252Y-94858454D01*
X170882006Y-94973663D01*
X170882002Y-94973670D01*
X170833133Y-95104697D01*
X170831709Y-95108516D01*
X170825300Y-95168126D01*
X170825300Y-95168133D01*
X170825300Y-95168134D01*
X170825300Y-95771869D01*
X170825301Y-95771875D01*
X170831708Y-95831482D01*
X170882002Y-95966327D01*
X170882006Y-95966334D01*
X170968252Y-96081543D01*
X170968255Y-96081546D01*
X171083464Y-96167792D01*
X171083471Y-96167796D01*
X171218317Y-96218090D01*
X171218316Y-96218090D01*
X171225244Y-96218834D01*
X171277927Y-96224499D01*
X172376972Y-96224498D01*
X172436583Y-96218090D01*
X172436584Y-96218089D01*
X172436977Y-96217997D01*
X172437292Y-96218013D01*
X172444296Y-96217261D01*
X172444417Y-96218395D01*
X172506747Y-96221733D01*
X172563421Y-96262597D01*
X172586610Y-96312062D01*
X172589499Y-96325211D01*
X172589499Y-96354158D01*
X172624825Y-96485996D01*
X172625431Y-96488752D01*
X172623199Y-96520892D01*
X172622432Y-96553118D01*
X172620793Y-96555539D01*
X172620591Y-96558454D01*
X172601338Y-96584284D01*
X172583270Y-96610981D01*
X172580582Y-96612131D01*
X172578836Y-96614475D01*
X172548672Y-96625796D01*
X172519042Y-96638485D01*
X172515875Y-96638106D01*
X172513423Y-96639027D01*
X172500755Y-96636298D01*
X172460990Y-96631545D01*
X172436482Y-96622404D01*
X172436472Y-96622402D01*
X172376944Y-96616001D01*
X172077450Y-96616001D01*
X172077450Y-97120001D01*
X172829100Y-97120001D01*
X172829100Y-97064852D01*
X172830225Y-97064852D01*
X172845211Y-97001352D01*
X172895476Y-96952822D01*
X172963999Y-96939171D01*
X173029025Y-96964734D01*
X173040664Y-96975000D01*
X173494081Y-97428417D01*
X173527566Y-97489740D01*
X173530400Y-97516097D01*
X173530400Y-97671870D01*
X173530401Y-97671877D01*
X173536808Y-97731484D01*
X173587102Y-97866329D01*
X173587106Y-97866336D01*
X173673352Y-97981545D01*
X173673355Y-97981548D01*
X173788564Y-98067794D01*
X173788571Y-98067798D01*
X173923417Y-98118092D01*
X173923416Y-98118092D01*
X173930344Y-98118836D01*
X173983027Y-98124501D01*
X175082072Y-98124500D01*
X175141683Y-98118092D01*
X175276531Y-98067797D01*
X175352871Y-98010649D01*
X175373462Y-97995235D01*
X175438926Y-97970817D01*
X175447773Y-97970501D01*
X175803330Y-97970501D01*
X175803346Y-97970502D01*
X175810942Y-97970502D01*
X175969053Y-97970502D01*
X175969056Y-97970502D01*
X176121784Y-97929578D01*
X176176601Y-97897929D01*
X176258715Y-97850521D01*
X176370519Y-97738717D01*
X176370519Y-97738715D01*
X176380723Y-97728512D01*
X176380727Y-97728507D01*
X176639035Y-97470198D01*
X176700356Y-97436715D01*
X176770048Y-97441699D01*
X176814395Y-97470200D01*
X176824307Y-97480112D01*
X176824311Y-97480115D01*
X176824313Y-97480117D01*
X176963605Y-97562494D01*
X176996559Y-97572068D01*
X177119002Y-97607642D01*
X177119005Y-97607642D01*
X177119007Y-97607643D01*
X177155310Y-97610500D01*
X177155318Y-97610500D01*
X177624682Y-97610500D01*
X177624690Y-97610500D01*
X177660993Y-97607643D01*
X177660995Y-97607642D01*
X177660997Y-97607642D01*
X177701975Y-97595736D01*
X177816395Y-97562494D01*
X177955687Y-97480117D01*
X177955692Y-97480112D01*
X177968986Y-97466819D01*
X177995913Y-97452115D01*
X178021732Y-97435523D01*
X178027932Y-97434631D01*
X178030309Y-97433334D01*
X178056667Y-97430500D01*
X178175233Y-97430500D01*
X178242272Y-97450185D01*
X178244124Y-97451398D01*
X178276348Y-97472930D01*
X178342363Y-97500274D01*
X178408380Y-97527619D01*
X178408384Y-97527619D01*
X178408385Y-97527620D01*
X178548542Y-97555500D01*
X178548545Y-97555500D01*
X178691457Y-97555500D01*
X178804347Y-97533044D01*
X178831620Y-97527619D01*
X178963653Y-97472929D01*
X179082479Y-97393532D01*
X179183532Y-97292479D01*
X179262929Y-97173653D01*
X179317619Y-97041620D01*
X179330871Y-96975000D01*
X179345500Y-96901457D01*
X179345500Y-96758542D01*
X179317620Y-96618385D01*
X179317619Y-96618384D01*
X179317619Y-96618380D01*
X179268611Y-96500064D01*
X179262930Y-96486349D01*
X179262925Y-96486340D01*
X179183532Y-96367521D01*
X179183529Y-96367517D01*
X179082482Y-96266470D01*
X179082478Y-96266467D01*
X178963659Y-96187074D01*
X178963650Y-96187069D01*
X178831620Y-96132381D01*
X178831614Y-96132379D01*
X178691457Y-96104500D01*
X178691455Y-96104500D01*
X178548545Y-96104500D01*
X178548543Y-96104500D01*
X178408385Y-96132379D01*
X178408380Y-96132381D01*
X178371951Y-96147470D01*
X178302482Y-96154937D01*
X178240003Y-96123662D01*
X178204351Y-96063572D01*
X178200500Y-96032908D01*
X178200500Y-95665317D01*
X178200499Y-95665302D01*
X178200447Y-95664643D01*
X178197643Y-95629007D01*
X178194600Y-95618534D01*
X178156423Y-95487130D01*
X178152494Y-95473605D01*
X178127422Y-95431211D01*
X178110239Y-95363489D01*
X178127423Y-95304968D01*
X178132494Y-95296395D01*
X178172972Y-95157071D01*
X178177642Y-95140997D01*
X178177643Y-95140991D01*
X178178361Y-95131864D01*
X178180500Y-95104690D01*
X178180500Y-94695310D01*
X178177643Y-94659007D01*
X178177254Y-94657669D01*
X178132495Y-94503609D01*
X178132495Y-94503608D01*
X178132494Y-94503607D01*
X178132494Y-94503605D01*
X178120379Y-94483120D01*
X178103196Y-94415399D01*
X178120379Y-94356880D01*
X178132494Y-94336395D01*
X178177643Y-94180993D01*
X178180500Y-94144690D01*
X178180500Y-93735310D01*
X178177643Y-93699007D01*
X178175171Y-93690500D01*
X178132495Y-93543609D01*
X178132494Y-93543606D01*
X178132494Y-93543605D01*
X178050117Y-93404313D01*
X178050115Y-93404311D01*
X178050112Y-93404307D01*
X177935692Y-93289887D01*
X177935684Y-93289881D01*
X177796393Y-93207505D01*
X177796390Y-93207504D01*
X177640997Y-93162357D01*
X177640991Y-93162356D01*
X177604697Y-93159500D01*
X177604690Y-93159500D01*
X177135310Y-93159500D01*
X177135302Y-93159500D01*
X177099008Y-93162356D01*
X177099002Y-93162357D01*
X176943609Y-93207504D01*
X176943606Y-93207505D01*
X176804315Y-93289881D01*
X176804307Y-93289887D01*
X176689887Y-93404307D01*
X176689881Y-93404315D01*
X176607505Y-93543606D01*
X176607504Y-93543609D01*
X176562357Y-93699002D01*
X176562356Y-93699008D01*
X176559500Y-93735302D01*
X176559500Y-93849903D01*
X176539815Y-93916942D01*
X176523181Y-93937584D01*
X175627585Y-94833180D01*
X175600657Y-94847883D01*
X175574839Y-94864476D01*
X175568638Y-94865367D01*
X175566262Y-94866665D01*
X175539904Y-94869499D01*
X175447773Y-94869499D01*
X175380734Y-94849814D01*
X175373462Y-94844765D01*
X175276535Y-94772205D01*
X175276528Y-94772201D01*
X175141682Y-94721907D01*
X175141683Y-94721907D01*
X175082083Y-94715500D01*
X175082081Y-94715499D01*
X175082073Y-94715499D01*
X175082064Y-94715499D01*
X173983029Y-94715499D01*
X173983023Y-94715500D01*
X173923415Y-94721908D01*
X173921477Y-94722631D01*
X173919867Y-94722746D01*
X173915869Y-94723691D01*
X173915715Y-94723042D01*
X173851786Y-94727613D01*
X173790463Y-94694127D01*
X173765827Y-94658985D01*
X173761200Y-94649093D01*
X173749577Y-94605715D01*
X173706604Y-94531284D01*
X173670520Y-94468784D01*
X173558716Y-94356980D01*
X173558715Y-94356979D01*
X173554385Y-94352649D01*
X173554374Y-94352639D01*
X173449444Y-94247709D01*
X173415959Y-94186386D01*
X173418049Y-94125433D01*
X173427598Y-94092569D01*
X173430500Y-94055694D01*
X173430500Y-93814500D01*
X173450185Y-93747461D01*
X173502989Y-93701706D01*
X173554500Y-93690500D01*
X174720686Y-93690500D01*
X174720694Y-93690500D01*
X174757569Y-93687598D01*
X174757571Y-93687597D01*
X174757573Y-93687597D01*
X174799191Y-93675505D01*
X174915398Y-93641744D01*
X175056865Y-93558081D01*
X175173081Y-93441865D01*
X175256744Y-93300398D01*
X175302598Y-93142569D01*
X175305500Y-93105694D01*
X175305500Y-92674306D01*
X175302598Y-92637431D01*
X175256744Y-92479602D01*
X175173081Y-92338135D01*
X175173079Y-92338133D01*
X175173076Y-92338129D01*
X175056870Y-92221923D01*
X175056862Y-92221917D01*
X174918144Y-92139880D01*
X174915398Y-92138256D01*
X174915397Y-92138255D01*
X174915396Y-92138255D01*
X174915395Y-92138254D01*
X174757404Y-92092353D01*
X174734991Y-92078039D01*
X174710797Y-92066990D01*
X174705997Y-92059522D01*
X174698519Y-92054746D01*
X174687402Y-92030587D01*
X174673023Y-92008212D01*
X174671166Y-91995303D01*
X174669313Y-91991274D01*
X174668000Y-91973277D01*
X174668000Y-91952559D01*
X174668001Y-91952546D01*
X174668001Y-91784445D01*
X174668001Y-91784443D01*
X174627077Y-91631715D01*
X174598139Y-91581595D01*
X174548020Y-91494784D01*
X174436216Y-91382980D01*
X174436215Y-91382979D01*
X174431885Y-91378649D01*
X174431874Y-91378639D01*
X171949726Y-88896491D01*
X173869500Y-88896491D01*
X173869500Y-89233508D01*
X173907231Y-89568381D01*
X173907233Y-89568397D01*
X173982223Y-89896953D01*
X173982227Y-89896965D01*
X174093532Y-90215054D01*
X174239752Y-90518683D01*
X174239754Y-90518686D01*
X174419054Y-90804039D01*
X174629175Y-91067523D01*
X174867477Y-91305825D01*
X175130961Y-91515946D01*
X175416314Y-91695246D01*
X175719949Y-91841469D01*
X175935287Y-91916819D01*
X176038034Y-91952772D01*
X176038046Y-91952776D01*
X176366606Y-92027767D01*
X176701492Y-92065499D01*
X176701493Y-92065500D01*
X176701496Y-92065500D01*
X177038507Y-92065500D01*
X177038507Y-92065499D01*
X177373394Y-92027767D01*
X177701954Y-91952776D01*
X178020051Y-91841469D01*
X178323686Y-91695246D01*
X178609039Y-91515946D01*
X178872523Y-91305825D01*
X179110825Y-91067523D01*
X179320946Y-90804039D01*
X179500246Y-90518686D01*
X179646469Y-90215051D01*
X179757776Y-89896954D01*
X179832767Y-89568394D01*
X179870500Y-89233504D01*
X179870500Y-88896496D01*
X179832767Y-88561606D01*
X179757776Y-88233046D01*
X179646469Y-87914949D01*
X179500246Y-87611314D01*
X179320946Y-87325961D01*
X179110825Y-87062477D01*
X178872523Y-86824175D01*
X178609039Y-86614054D01*
X178328083Y-86437517D01*
X178323683Y-86434752D01*
X178020054Y-86288532D01*
X177701965Y-86177227D01*
X177701953Y-86177223D01*
X177373397Y-86102233D01*
X177373381Y-86102231D01*
X177038508Y-86064500D01*
X177038504Y-86064500D01*
X176701496Y-86064500D01*
X176701491Y-86064500D01*
X176366618Y-86102231D01*
X176366602Y-86102233D01*
X176038046Y-86177223D01*
X176038034Y-86177227D01*
X175719945Y-86288532D01*
X175416316Y-86434752D01*
X175130962Y-86614053D01*
X174867477Y-86824174D01*
X174629174Y-87062477D01*
X174419053Y-87325962D01*
X174239752Y-87611316D01*
X174093532Y-87914945D01*
X173982227Y-88233034D01*
X173982223Y-88233046D01*
X173907233Y-88561602D01*
X173907231Y-88561618D01*
X173869500Y-88896491D01*
X171949726Y-88896491D01*
X170041590Y-86988355D01*
X170041588Y-86988352D01*
X169922717Y-86869481D01*
X169922716Y-86869480D01*
X169835904Y-86819360D01*
X169816494Y-86808153D01*
X169768282Y-86757586D01*
X169754499Y-86700769D01*
X169754499Y-86648129D01*
X169754498Y-86648123D01*
X169748091Y-86588516D01*
X169697797Y-86453671D01*
X169697793Y-86453664D01*
X169611547Y-86338455D01*
X169611544Y-86338452D01*
X169496335Y-86252206D01*
X169496328Y-86252202D01*
X169361482Y-86201908D01*
X169361483Y-86201908D01*
X169301883Y-86195501D01*
X169301881Y-86195500D01*
X169301873Y-86195500D01*
X169301864Y-86195500D01*
X167898129Y-86195500D01*
X167898123Y-86195501D01*
X167838516Y-86201908D01*
X167703671Y-86252202D01*
X167703664Y-86252206D01*
X167588455Y-86338452D01*
X167514956Y-86436633D01*
X167459022Y-86478503D01*
X167389330Y-86483487D01*
X167342804Y-86462639D01*
X167330451Y-86453664D01*
X167205090Y-86362583D01*
X167043174Y-86280083D01*
X167043171Y-86280081D01*
X166870348Y-86223928D01*
X166734299Y-86202380D01*
X166690861Y-86195500D01*
X166509139Y-86195500D01*
X166465701Y-86202380D01*
X166329652Y-86223928D01*
X166329649Y-86223928D01*
X166156828Y-86280081D01*
X166156825Y-86280083D01*
X165994909Y-86362583D01*
X165911030Y-86423525D01*
X165847894Y-86469397D01*
X165847892Y-86469399D01*
X165847891Y-86469399D01*
X165719399Y-86597891D01*
X165719399Y-86597892D01*
X165719397Y-86597894D01*
X165707657Y-86614053D01*
X165612583Y-86744909D01*
X165530083Y-86906825D01*
X165530081Y-86906828D01*
X165473928Y-87079649D01*
X165473928Y-87079652D01*
X165445500Y-87259139D01*
X165445500Y-87440860D01*
X165473928Y-87620347D01*
X165473928Y-87620350D01*
X165530081Y-87793171D01*
X165530083Y-87793174D01*
X165612583Y-87955090D01*
X165719397Y-88102106D01*
X165847894Y-88230603D01*
X165994910Y-88337417D01*
X166156826Y-88419917D01*
X166156828Y-88419918D01*
X166271184Y-88457074D01*
X166329654Y-88476072D01*
X166509139Y-88504500D01*
X166509140Y-88504500D01*
X166690860Y-88504500D01*
X166690861Y-88504500D01*
X166870346Y-88476072D01*
X166870349Y-88476071D01*
X166870350Y-88476071D01*
X167043171Y-88419918D01*
X167043171Y-88419917D01*
X167043174Y-88419917D01*
X167205090Y-88337417D01*
X167342804Y-88237360D01*
X167408610Y-88213880D01*
X167476664Y-88229705D01*
X167514956Y-88263366D01*
X167543602Y-88301632D01*
X167584802Y-88356668D01*
X167588455Y-88361547D01*
X167703664Y-88447793D01*
X167703671Y-88447797D01*
X167838517Y-88498091D01*
X167838516Y-88498091D01*
X167845444Y-88498835D01*
X167898127Y-88504500D01*
X169301872Y-88504499D01*
X169361483Y-88498091D01*
X169496331Y-88447796D01*
X169585444Y-88381085D01*
X169650907Y-88356668D01*
X169719181Y-88371519D01*
X169747436Y-88392671D01*
X170162584Y-88807819D01*
X170196069Y-88869142D01*
X170191085Y-88938834D01*
X170149213Y-88994767D01*
X170083749Y-89019184D01*
X170074903Y-89019500D01*
X166484706Y-89019500D01*
X166331978Y-89060423D01*
X166304194Y-89076465D01*
X166304193Y-89076465D01*
X166195051Y-89139477D01*
X166195046Y-89139481D01*
X166083242Y-89251286D01*
X165301646Y-90032881D01*
X165240323Y-90066366D01*
X165213965Y-90069200D01*
X164502529Y-90069200D01*
X164502523Y-90069201D01*
X164447753Y-90075089D01*
X164378994Y-90062682D01*
X164327857Y-90015071D01*
X164310500Y-89951799D01*
X164310500Y-89935317D01*
X164310499Y-89935302D01*
X164307643Y-89899008D01*
X164307642Y-89899002D01*
X164262495Y-89743609D01*
X164262494Y-89743606D01*
X164262494Y-89743605D01*
X164180117Y-89604313D01*
X164180115Y-89604311D01*
X164180112Y-89604307D01*
X164164949Y-89589144D01*
X164131464Y-89527821D01*
X164136448Y-89458129D01*
X164142331Y-89445096D01*
X164142929Y-89443653D01*
X164197619Y-89311620D01*
X164213157Y-89233506D01*
X164225500Y-89171457D01*
X164225500Y-89028542D01*
X164197620Y-88888385D01*
X164197619Y-88888384D01*
X164197619Y-88888380D01*
X164142929Y-88756347D01*
X164142928Y-88756346D01*
X164142925Y-88756340D01*
X164063532Y-88637521D01*
X164063529Y-88637517D01*
X163962482Y-88536470D01*
X163962478Y-88536467D01*
X163843659Y-88457074D01*
X163843650Y-88457069D01*
X163711620Y-88402381D01*
X163711614Y-88402379D01*
X163571457Y-88374500D01*
X163571455Y-88374500D01*
X163428545Y-88374500D01*
X163428543Y-88374500D01*
X163288385Y-88402379D01*
X163288379Y-88402381D01*
X163156349Y-88457069D01*
X163156340Y-88457074D01*
X163037521Y-88536467D01*
X163037517Y-88536470D01*
X162936470Y-88637517D01*
X162936467Y-88637521D01*
X162857074Y-88756340D01*
X162857069Y-88756349D01*
X162802381Y-88888379D01*
X162802379Y-88888385D01*
X162774500Y-89028542D01*
X162774500Y-89028545D01*
X162774500Y-89171455D01*
X162774500Y-89171457D01*
X162774499Y-89171457D01*
X162802379Y-89311614D01*
X162802381Y-89311620D01*
X162859402Y-89449281D01*
X162858140Y-89449803D01*
X162870970Y-89511407D01*
X162845973Y-89576652D01*
X162835052Y-89589142D01*
X162819888Y-89604305D01*
X162819881Y-89604315D01*
X162737505Y-89743606D01*
X162737504Y-89743609D01*
X162692357Y-89899002D01*
X162692356Y-89899008D01*
X162689500Y-89935302D01*
X162689500Y-90344697D01*
X162692356Y-90380991D01*
X162692357Y-90380997D01*
X162737504Y-90536391D01*
X162737506Y-90536397D01*
X162749620Y-90556880D01*
X162766801Y-90624604D01*
X162749620Y-90683120D01*
X162737506Y-90703602D01*
X162737504Y-90703608D01*
X162692357Y-90859002D01*
X162692356Y-90859008D01*
X162689500Y-90895302D01*
X162689500Y-91304697D01*
X162692356Y-91340991D01*
X162692357Y-91340997D01*
X162737504Y-91496390D01*
X162737505Y-91496393D01*
X162737506Y-91496395D01*
X162754127Y-91524500D01*
X162819881Y-91635684D01*
X162819887Y-91635692D01*
X162934307Y-91750112D01*
X162934311Y-91750115D01*
X162934313Y-91750117D01*
X163073605Y-91832494D01*
X163094567Y-91838584D01*
X163229002Y-91877642D01*
X163229005Y-91877642D01*
X163229007Y-91877643D01*
X163265310Y-91880500D01*
X163379903Y-91880500D01*
X163409343Y-91889144D01*
X163439330Y-91895668D01*
X163444345Y-91899422D01*
X163446942Y-91900185D01*
X163467584Y-91916819D01*
X163615139Y-92064374D01*
X163615149Y-92064385D01*
X163619479Y-92068715D01*
X163619480Y-92068716D01*
X163731284Y-92180520D01*
X163802990Y-92221919D01*
X163868215Y-92259577D01*
X163874313Y-92261211D01*
X163886853Y-92268124D01*
X163906791Y-92288224D01*
X163928836Y-92305986D01*
X163931072Y-92312702D01*
X163936058Y-92317729D01*
X163941963Y-92345414D01*
X163950907Y-92372278D01*
X163949156Y-92379138D01*
X163950633Y-92386061D01*
X163940632Y-92412546D01*
X163933633Y-92439979D01*
X163927097Y-92448393D01*
X163925952Y-92451426D01*
X163923093Y-92453548D01*
X163914667Y-92464396D01*
X163081286Y-93297778D01*
X162969481Y-93409582D01*
X162969479Y-93409585D01*
X162922765Y-93490498D01*
X162922764Y-93490499D01*
X162890423Y-93546514D01*
X162890423Y-93546515D01*
X162849499Y-93699243D01*
X162849499Y-93699245D01*
X162849499Y-93867346D01*
X162849500Y-93867359D01*
X162849500Y-94410232D01*
X162829815Y-94477271D01*
X162828604Y-94479120D01*
X162809257Y-94508076D01*
X162784914Y-94544508D01*
X162728342Y-94681084D01*
X162726572Y-94686921D01*
X162724982Y-94686438D01*
X162696287Y-94741273D01*
X162635565Y-94775836D01*
X162582883Y-94776772D01*
X162571459Y-94774500D01*
X162571455Y-94774500D01*
X162428545Y-94774500D01*
X162428543Y-94774500D01*
X162288385Y-94802379D01*
X162288379Y-94802381D01*
X162156349Y-94857069D01*
X162156340Y-94857074D01*
X162037521Y-94936467D01*
X162037517Y-94936470D01*
X161936470Y-95037517D01*
X161936467Y-95037521D01*
X161857074Y-95156340D01*
X161857069Y-95156349D01*
X161802381Y-95288379D01*
X161802379Y-95288385D01*
X161774500Y-95428542D01*
X161774500Y-95428545D01*
X161774500Y-95571455D01*
X161774500Y-95571457D01*
X161774499Y-95571457D01*
X161802379Y-95711614D01*
X161802381Y-95711620D01*
X161855790Y-95840562D01*
X161857071Y-95843653D01*
X161875649Y-95871457D01*
X161878601Y-95875874D01*
X161884252Y-95893920D01*
X161894477Y-95909831D01*
X161898928Y-95940788D01*
X161899480Y-95942551D01*
X161899500Y-95944766D01*
X161899500Y-95953333D01*
X161879815Y-96020372D01*
X161863181Y-96041014D01*
X161819887Y-96084307D01*
X161819881Y-96084315D01*
X161737505Y-96223606D01*
X161737504Y-96223609D01*
X161692357Y-96379002D01*
X161692356Y-96379008D01*
X161689500Y-96415302D01*
X161689500Y-96824697D01*
X161692356Y-96860991D01*
X161692357Y-96860997D01*
X161737504Y-97016391D01*
X161737506Y-97016397D01*
X161749620Y-97036880D01*
X161766801Y-97104604D01*
X161749620Y-97163120D01*
X161737506Y-97183602D01*
X161737504Y-97183608D01*
X161692357Y-97339002D01*
X161692356Y-97339008D01*
X161689500Y-97375302D01*
X161689500Y-97784697D01*
X161692356Y-97820991D01*
X161692357Y-97820997D01*
X161737504Y-97976390D01*
X161737505Y-97976393D01*
X161737506Y-97976395D01*
X161745892Y-97990575D01*
X161819881Y-98115684D01*
X161819887Y-98115692D01*
X161934307Y-98230112D01*
X161934311Y-98230115D01*
X161934313Y-98230117D01*
X162073605Y-98312494D01*
X162114587Y-98324400D01*
X162229002Y-98357642D01*
X162229005Y-98357642D01*
X162229007Y-98357643D01*
X162265310Y-98360500D01*
X162379903Y-98360500D01*
X162446942Y-98380185D01*
X162467584Y-98396819D01*
X162685139Y-98614374D01*
X162685149Y-98614385D01*
X162689479Y-98618715D01*
X162689480Y-98618716D01*
X162801284Y-98730520D01*
X162868767Y-98769481D01*
X162938215Y-98809577D01*
X162953588Y-98813696D01*
X162965721Y-98820038D01*
X162981413Y-98835171D01*
X163000031Y-98846519D01*
X163006068Y-98858948D01*
X163016014Y-98868539D01*
X163021033Y-98889753D01*
X163030561Y-98909366D01*
X163031217Y-98913743D01*
X163040374Y-98983291D01*
X163037399Y-98983682D01*
X163037399Y-99016318D01*
X163040374Y-99016710D01*
X163037085Y-99041688D01*
X163008817Y-99105584D01*
X162950491Y-99144054D01*
X162914146Y-99149500D01*
X161470098Y-99149500D01*
X161403059Y-99129815D01*
X161382417Y-99113181D01*
X161135486Y-98866250D01*
X161135485Y-98866249D01*
X161039932Y-98811082D01*
X161039931Y-98811081D01*
X161000620Y-98788385D01*
X160998554Y-98787192D01*
X160998553Y-98787191D01*
X160998552Y-98787191D01*
X160942650Y-98772212D01*
X160845826Y-98746268D01*
X160687712Y-98746268D01*
X160680116Y-98746268D01*
X160680100Y-98746269D01*
X160340079Y-98746269D01*
X160273040Y-98726584D01*
X160227285Y-98673780D01*
X160225569Y-98661847D01*
X160206740Y-98636769D01*
X159900587Y-98636769D01*
X159837468Y-98619501D01*
X159828630Y-98614275D01*
X159828628Y-98614274D01*
X159828624Y-98614272D01*
X159673232Y-98569126D01*
X159673226Y-98569125D01*
X159636932Y-98566269D01*
X159636925Y-98566269D01*
X159167545Y-98566269D01*
X159167537Y-98566269D01*
X159131243Y-98569125D01*
X159131237Y-98569126D01*
X158975845Y-98614272D01*
X158975840Y-98614275D01*
X158967001Y-98619501D01*
X158903883Y-98636769D01*
X158597730Y-98636769D01*
X158583272Y-98656024D01*
X158583268Y-98657543D01*
X158545326Y-98716213D01*
X158481688Y-98745057D01*
X158464391Y-98746269D01*
X158002328Y-98746269D01*
X157935289Y-98726584D01*
X157889534Y-98673780D01*
X157879590Y-98604622D01*
X157908615Y-98541066D01*
X157914647Y-98534588D01*
X158312416Y-98136819D01*
X158339343Y-98122115D01*
X158365162Y-98105523D01*
X158371362Y-98104631D01*
X158373739Y-98103334D01*
X158400097Y-98100500D01*
X158508539Y-98100500D01*
X158575578Y-98120185D01*
X158593417Y-98136769D01*
X159065852Y-98136769D01*
X159113305Y-98146208D01*
X159237422Y-98197619D01*
X159237426Y-98197619D01*
X159237427Y-98197620D01*
X159377584Y-98225500D01*
X159377587Y-98225500D01*
X159520499Y-98225500D01*
X159614793Y-98206742D01*
X159660662Y-98197619D01*
X159784779Y-98146208D01*
X159832232Y-98136769D01*
X160206739Y-98136769D01*
X160164267Y-97990575D01*
X160117499Y-97911496D01*
X160100316Y-97843772D01*
X160109668Y-97800928D01*
X160146661Y-97711620D01*
X160159116Y-97649007D01*
X160174542Y-97571457D01*
X160174542Y-97428542D01*
X160146662Y-97288385D01*
X160146661Y-97288384D01*
X160146661Y-97288380D01*
X160098579Y-97172300D01*
X160091972Y-97156349D01*
X160091967Y-97156340D01*
X160012574Y-97037521D01*
X160012571Y-97037517D01*
X159911524Y-96936470D01*
X159911520Y-96936467D01*
X159792701Y-96857074D01*
X159792692Y-96857069D01*
X159660662Y-96802381D01*
X159660656Y-96802379D01*
X159520499Y-96774500D01*
X159520497Y-96774500D01*
X159377587Y-96774500D01*
X159377585Y-96774500D01*
X159237427Y-96802379D01*
X159237421Y-96802381D01*
X159105390Y-96857069D01*
X159073166Y-96878602D01*
X159006488Y-96899480D01*
X159004275Y-96899500D01*
X158020941Y-96899500D01*
X157985274Y-96909056D01*
X157985275Y-96909057D01*
X157868214Y-96940423D01*
X157868209Y-96940426D01*
X157731290Y-97019475D01*
X157731282Y-97019481D01*
X157212181Y-97538583D01*
X157150858Y-97572068D01*
X157081166Y-97567084D01*
X157025233Y-97525212D01*
X157000816Y-97459748D01*
X157000500Y-97450902D01*
X157000500Y-96634060D01*
X157000501Y-96634047D01*
X157000501Y-96465944D01*
X156997930Y-96456349D01*
X156959577Y-96313216D01*
X156941763Y-96282361D01*
X156880524Y-96176290D01*
X156880518Y-96176282D01*
X156208717Y-95504481D01*
X156208712Y-95504477D01*
X156188798Y-95492980D01*
X156171543Y-95474884D01*
X156151530Y-95459902D01*
X156143854Y-95445845D01*
X156140582Y-95442413D01*
X156134616Y-95428925D01*
X156121341Y-95393332D01*
X156116357Y-95323640D01*
X156121338Y-95306672D01*
X156134091Y-95272483D01*
X156140500Y-95212873D01*
X156140499Y-94217128D01*
X156134091Y-94157517D01*
X156121340Y-94123332D01*
X156116357Y-94053642D01*
X156121338Y-94036672D01*
X156134091Y-94002483D01*
X156140500Y-93942873D01*
X156140499Y-92947128D01*
X156134091Y-92887517D01*
X156121340Y-92853332D01*
X156116357Y-92783642D01*
X156121338Y-92766672D01*
X156134091Y-92732483D01*
X156140500Y-92672873D01*
X156140499Y-91677128D01*
X156134091Y-91617517D01*
X156121340Y-91583332D01*
X156116357Y-91513642D01*
X156121338Y-91496672D01*
X156134091Y-91462483D01*
X156140500Y-91402873D01*
X156140499Y-90407128D01*
X156134091Y-90347517D01*
X156121340Y-90313332D01*
X156116357Y-90243642D01*
X156121340Y-90226669D01*
X156134091Y-90192483D01*
X156140500Y-90132873D01*
X156140499Y-89137128D01*
X156134091Y-89077517D01*
X156121340Y-89043332D01*
X156116357Y-88973642D01*
X156121340Y-88956669D01*
X156134091Y-88922483D01*
X156140500Y-88862873D01*
X156140499Y-87867128D01*
X156134091Y-87807517D01*
X156130525Y-87797957D01*
X156083797Y-87672671D01*
X156083793Y-87672664D01*
X155997547Y-87557455D01*
X155997544Y-87557452D01*
X155882335Y-87471206D01*
X155882328Y-87471202D01*
X155800498Y-87440682D01*
X155744564Y-87398811D01*
X155720147Y-87333347D01*
X155734998Y-87265074D01*
X155784403Y-87215668D01*
X155843831Y-87200500D01*
X156461958Y-87200500D01*
X156528997Y-87220185D01*
X156565060Y-87255610D01*
X156636464Y-87362474D01*
X156636470Y-87362482D01*
X156737517Y-87463529D01*
X156737521Y-87463532D01*
X156856340Y-87542925D01*
X156856346Y-87542928D01*
X156856347Y-87542929D01*
X156988380Y-87597619D01*
X156988384Y-87597619D01*
X156988385Y-87597620D01*
X157128542Y-87625500D01*
X157128545Y-87625500D01*
X157271457Y-87625500D01*
X157365751Y-87606742D01*
X157411620Y-87597619D01*
X157543653Y-87542929D01*
X157662479Y-87463532D01*
X157763532Y-87362479D01*
X157842929Y-87243653D01*
X157897619Y-87111620D01*
X157907394Y-87062477D01*
X157925500Y-86971457D01*
X157925500Y-86828542D01*
X157897620Y-86688385D01*
X157897619Y-86688384D01*
X157897619Y-86688380D01*
X157842929Y-86556347D01*
X157842928Y-86556346D01*
X157842925Y-86556340D01*
X157763532Y-86437521D01*
X157763529Y-86437517D01*
X157662482Y-86336470D01*
X157662478Y-86336467D01*
X157543659Y-86257074D01*
X157543650Y-86257069D01*
X157411618Y-86202380D01*
X157411614Y-86202379D01*
X157373608Y-86194819D01*
X157325664Y-86174061D01*
X157317352Y-86168116D01*
X157268716Y-86119480D01*
X157173487Y-86064500D01*
X157131785Y-86040423D01*
X156979057Y-85999499D01*
X156820943Y-85999499D01*
X156813347Y-85999499D01*
X156813331Y-85999500D01*
X154714499Y-85999500D01*
X154708323Y-85997686D01*
X154701997Y-85998868D01*
X154675207Y-85987962D01*
X154647460Y-85979815D01*
X154643246Y-85974952D01*
X154637284Y-85972525D01*
X154620641Y-85948864D01*
X154601705Y-85927011D01*
X154599864Y-85919326D01*
X154597086Y-85915377D01*
X154593016Y-85890742D01*
X154590607Y-85880683D01*
X154590499Y-85878101D01*
X154590499Y-85802128D01*
X154585296Y-85753728D01*
X154585127Y-85749683D01*
X154592622Y-85719550D01*
X154598136Y-85688994D01*
X154600984Y-85685934D01*
X154601993Y-85681879D01*
X154624588Y-85660582D01*
X154645747Y-85637857D01*
X154649912Y-85636714D01*
X154652838Y-85633957D01*
X154675153Y-85629790D01*
X154709019Y-85620500D01*
X180280500Y-85620500D01*
X180347539Y-85640185D01*
G37*
%TD.AperFunction*%
%TD*%
M02*
