%TF.GenerationSoftware,KiCad,Pcbnew,9.0.5*%
%TF.CreationDate,2025-11-11T23:36:27-05:00*%
%TF.ProjectId,F25,4632352e-6b69-4636-9164-5f7063625858,v1.0.1*%
%TF.SameCoordinates,Original*%
%TF.FileFunction,Legend,Bot*%
%TF.FilePolarity,Positive*%
%FSLAX46Y46*%
G04 Gerber Fmt 4.6, Leading zero omitted, Abs format (unit mm)*
G04 Created by KiCad (PCBNEW 9.0.5) date 2025-11-11 23:36:27*
%MOMM*%
%LPD*%
G01*
G04 APERTURE LIST*
G04 Aperture macros list*
%AMRoundRect*
0 Rectangle with rounded corners*
0 $1 Rounding radius*
0 $2 $3 $4 $5 $6 $7 $8 $9 X,Y pos of 4 corners*
0 Add a 4 corners polygon primitive as box body*
4,1,4,$2,$3,$4,$5,$6,$7,$8,$9,$2,$3,0*
0 Add four circle primitives for the rounded corners*
1,1,$1+$1,$2,$3*
1,1,$1+$1,$4,$5*
1,1,$1+$1,$6,$7*
1,1,$1+$1,$8,$9*
0 Add four rect primitives between the rounded corners*
20,1,$1+$1,$2,$3,$4,$5,0*
20,1,$1+$1,$4,$5,$6,$7,0*
20,1,$1+$1,$6,$7,$8,$9,0*
20,1,$1+$1,$8,$9,$2,$3,0*%
G04 Aperture macros list end*
%ADD10C,0.300000*%
%ADD11C,0.000000*%
%ADD12C,0.600000*%
%ADD13C,5.200000*%
%ADD14RoundRect,0.102000X-0.654000X-0.654000X0.654000X-0.654000X0.654000X0.654000X-0.654000X0.654000X0*%
%ADD15C,1.512000*%
%ADD16O,0.900000X2.000000*%
%ADD17O,0.900000X1.700000*%
%ADD18C,1.800000*%
G04 APERTURE END LIST*
D10*
G36*
X160170536Y-110927433D02*
G01*
X160924712Y-110927433D01*
X161035003Y-110707615D01*
X161427012Y-110707615D01*
X160789996Y-111884865D01*
X160310517Y-111884865D01*
X159913444Y-111166791D01*
X160294718Y-111166791D01*
X160544990Y-111649705D01*
X160795263Y-111166791D01*
X160294718Y-111166791D01*
X159913444Y-111166791D01*
X159659534Y-110707615D01*
X160055054Y-110707615D01*
X160170536Y-110927433D01*
G37*
G36*
X161914811Y-111362338D02*
G01*
X161947580Y-111431249D01*
X161989407Y-111479497D01*
X162040749Y-111511021D01*
X162100296Y-111530391D01*
X162174593Y-111543151D01*
X162266597Y-111547810D01*
X162395861Y-111541232D01*
X162493668Y-111523725D01*
X162566335Y-111498026D01*
X162619223Y-111465912D01*
X162652790Y-111431848D01*
X162680856Y-111385473D01*
X162702972Y-111323853D01*
X162717818Y-111243225D01*
X162723331Y-111139161D01*
X162723331Y-110707615D01*
X162418867Y-110707615D01*
X162418867Y-111140306D01*
X162412461Y-111212073D01*
X162396601Y-111256142D01*
X162374217Y-111281509D01*
X162342274Y-111297182D01*
X162289920Y-111308703D01*
X162208818Y-111313337D01*
X162173861Y-111313337D01*
X162084027Y-111307888D01*
X162020533Y-111293777D01*
X161976940Y-111273571D01*
X161952433Y-111251135D01*
X161933175Y-111216925D01*
X161919912Y-111167010D01*
X161914811Y-111096113D01*
X161914811Y-111076727D01*
X161914811Y-110707615D01*
X161612103Y-110707615D01*
X161612103Y-111528271D01*
X161914811Y-111528271D01*
X161914811Y-111362338D01*
G37*
G36*
X163388130Y-111327991D02*
G01*
X163388130Y-111065583D01*
X163395632Y-110991513D01*
X163413470Y-110951094D01*
X163433295Y-110934084D01*
X163465617Y-110922317D01*
X163515899Y-110917663D01*
X163578530Y-110924251D01*
X163614741Y-110940332D01*
X163630526Y-110957994D01*
X163641196Y-110985693D01*
X163645348Y-111027573D01*
X163645348Y-111064209D01*
X163881653Y-111064209D01*
X163875873Y-110950809D01*
X163860768Y-110868491D01*
X163839071Y-110810321D01*
X163812502Y-110770507D01*
X163775880Y-110740891D01*
X163719686Y-110716643D01*
X163637037Y-110699574D01*
X163519410Y-110692960D01*
X163372542Y-110699118D01*
X163270805Y-110714850D01*
X163203233Y-110736690D01*
X163160602Y-110762264D01*
X163125302Y-110799698D01*
X163099296Y-110846486D01*
X163082656Y-110904683D01*
X163076644Y-110977121D01*
X163076644Y-111327991D01*
X162920863Y-111327991D01*
X162920863Y-111528271D01*
X163076644Y-111528271D01*
X163076644Y-111728550D01*
X163388130Y-111728550D01*
X163388130Y-111528271D01*
X163881653Y-111528271D01*
X163881653Y-111327991D01*
X163388130Y-111327991D01*
G37*
G36*
X164768483Y-111547810D02*
G01*
X164889432Y-111541841D01*
X164985234Y-111525633D01*
X165060298Y-111501296D01*
X165118438Y-111470263D01*
X165156878Y-111436934D01*
X165188140Y-111392656D01*
X165212226Y-111335166D01*
X165228140Y-111261329D01*
X165233995Y-111167325D01*
X165233995Y-110707615D01*
X164931210Y-110707615D01*
X164931210Y-111119698D01*
X164926357Y-111202980D01*
X164914542Y-111254111D01*
X164898848Y-111283265D01*
X164872435Y-111301736D01*
X164815106Y-111316615D01*
X164707194Y-111323107D01*
X164687960Y-111323107D01*
X164591922Y-111317619D01*
X164526666Y-111303668D01*
X164484093Y-111284180D01*
X164460085Y-111262231D01*
X164441380Y-111229431D01*
X164428603Y-111182311D01*
X164423719Y-111116187D01*
X164423719Y-111050700D01*
X164423719Y-110707615D01*
X164121011Y-110707615D01*
X164121011Y-111884865D01*
X164423719Y-111884865D01*
X164423719Y-111391037D01*
X164459988Y-111452850D01*
X164502081Y-111494557D01*
X164550573Y-111519951D01*
X164639161Y-111539968D01*
X164768483Y-111547810D01*
G37*
G36*
X166285689Y-110699982D02*
G01*
X166416950Y-110719302D01*
X166503952Y-110745600D01*
X166558563Y-110775953D01*
X166590153Y-110809052D01*
X166610975Y-110851816D01*
X166628677Y-110916913D01*
X166641292Y-111011776D01*
X166646177Y-111145038D01*
X166646177Y-111180225D01*
X166641271Y-111268780D01*
X166627970Y-111338415D01*
X166607965Y-111392612D01*
X166582292Y-111434313D01*
X166547711Y-111468549D01*
X166500319Y-111497292D01*
X166437037Y-111520069D01*
X166353925Y-111535522D01*
X166037172Y-111547810D01*
X165847274Y-111542544D01*
X165726721Y-111529022D01*
X165626768Y-111501175D01*
X165569628Y-111470393D01*
X165529366Y-111428954D01*
X165503425Y-111375390D01*
X165488995Y-111314749D01*
X165479116Y-111234152D01*
X165475414Y-111129163D01*
X165475414Y-111116874D01*
X165781710Y-111116874D01*
X165786976Y-111198772D01*
X165799888Y-111245724D01*
X165826360Y-111278990D01*
X165864541Y-111301588D01*
X165916425Y-111315169D01*
X165975479Y-111320937D01*
X166052972Y-111323107D01*
X166196465Y-111316008D01*
X166254494Y-111304403D01*
X166289200Y-111287844D01*
X166314703Y-111264472D01*
X166329424Y-111239377D01*
X166336850Y-111208338D01*
X166339957Y-111155648D01*
X166339957Y-111093976D01*
X166336602Y-111034625D01*
X166328585Y-110999637D01*
X166313338Y-110971535D01*
X166290040Y-110948499D01*
X166259011Y-110932730D01*
X166211272Y-110922930D01*
X166075717Y-110917663D01*
X166042439Y-110917663D01*
X165934819Y-110922930D01*
X165865387Y-110934041D01*
X165828955Y-110951171D01*
X165804933Y-110978718D01*
X165790411Y-111019024D01*
X165783966Y-111065060D01*
X165781710Y-111116874D01*
X165475414Y-111116874D01*
X165475414Y-111079932D01*
X165481221Y-110972885D01*
X165496644Y-110892581D01*
X165519267Y-110833490D01*
X165547603Y-110790984D01*
X165581278Y-110761577D01*
X165633960Y-110735336D01*
X165709036Y-110713705D01*
X165812951Y-110698674D01*
X165953138Y-110692960D01*
X166285689Y-110699982D01*
G37*
G36*
X167172138Y-111362338D02*
G01*
X167204907Y-111431249D01*
X167246735Y-111479497D01*
X167298076Y-111511021D01*
X167357623Y-111530391D01*
X167431920Y-111543151D01*
X167523924Y-111547810D01*
X167653188Y-111541232D01*
X167750995Y-111523725D01*
X167823662Y-111498026D01*
X167876550Y-111465912D01*
X167910118Y-111431848D01*
X167938183Y-111385473D01*
X167960299Y-111323853D01*
X167975145Y-111243225D01*
X167980659Y-111139161D01*
X167980659Y-110707615D01*
X167676195Y-110707615D01*
X167676195Y-111140306D01*
X167669789Y-111212073D01*
X167653928Y-111256142D01*
X167631544Y-111281509D01*
X167599602Y-111297182D01*
X167547247Y-111308703D01*
X167466146Y-111313337D01*
X167431188Y-111313337D01*
X167341354Y-111307888D01*
X167277861Y-111293777D01*
X167234268Y-111273571D01*
X167209760Y-111251135D01*
X167190503Y-111216925D01*
X167177239Y-111167010D01*
X167172138Y-111096113D01*
X167172138Y-111076727D01*
X167172138Y-110707615D01*
X166869430Y-110707615D01*
X166869430Y-111528271D01*
X167172138Y-111528271D01*
X167172138Y-111362338D01*
G37*
G36*
X168531655Y-110341250D02*
G01*
X168417930Y-110348196D01*
X168417930Y-110552978D01*
X168484409Y-110551299D01*
X168541053Y-110555763D01*
X168578278Y-110567060D01*
X168601722Y-110583127D01*
X168631325Y-110623755D01*
X168671713Y-110707615D01*
X168547455Y-110707615D01*
X168172923Y-111528271D01*
X168508986Y-111528271D01*
X168748726Y-110938653D01*
X169012966Y-111528271D01*
X169348953Y-111528271D01*
X168869474Y-110509091D01*
X168828959Y-110439887D01*
X168787930Y-110395537D01*
X168746055Y-110370102D01*
X168697591Y-110355515D01*
X168628118Y-110345217D01*
X168531655Y-110341250D01*
G37*
G36*
X171233613Y-110712883D02*
G01*
X171301712Y-110727954D01*
X171361787Y-110752124D01*
X171415018Y-110785238D01*
X171476393Y-110842283D01*
X171515519Y-110902153D01*
X171535766Y-110966207D01*
X171555840Y-111102983D01*
X171558511Y-111219456D01*
X171558511Y-111251208D01*
X171558511Y-111288302D01*
X171558511Y-111355392D01*
X171552539Y-111492766D01*
X171536568Y-111598242D01*
X171513083Y-111677777D01*
X171483893Y-111736570D01*
X171449976Y-111778925D01*
X171406830Y-111812035D01*
X171347351Y-111840554D01*
X171267329Y-111863483D01*
X171161719Y-111879053D01*
X171024764Y-111884865D01*
X169995815Y-111884865D01*
X169995815Y-111596659D01*
X170351035Y-111596659D01*
X170954773Y-111596659D01*
X171043502Y-111591309D01*
X171102286Y-111577828D01*
X171139404Y-111559143D01*
X171161235Y-111536590D01*
X171179920Y-111493679D01*
X171194023Y-111420300D01*
X171199779Y-111303338D01*
X171199779Y-111292729D01*
X171193461Y-111176185D01*
X171177861Y-111102001D01*
X171156884Y-111057645D01*
X171133060Y-111034071D01*
X171094569Y-111014829D01*
X171035798Y-111001173D01*
X170949507Y-110995821D01*
X170351035Y-110995821D01*
X170351035Y-111596659D01*
X169995815Y-111596659D01*
X169995815Y-110707615D01*
X171156045Y-110707615D01*
X171233613Y-110712883D01*
G37*
G36*
X171800617Y-110707615D02*
G01*
X171800617Y-111034900D01*
X172148892Y-111034900D01*
X172148892Y-110707615D01*
X171800617Y-110707615D01*
G37*
D11*
%TO.C,G\u002A\u002A\u002A*%
G36*
X150264885Y-93020266D02*
G01*
X150294105Y-93090293D01*
X150301782Y-93119226D01*
X150372037Y-93207583D01*
X150518697Y-93303465D01*
X150551548Y-93321580D01*
X150652436Y-93384412D01*
X150686841Y-93425743D01*
X150664106Y-93455331D01*
X150640039Y-93463339D01*
X150540544Y-93446993D01*
X150386551Y-93373312D01*
X150362037Y-93359378D01*
X150246542Y-93283611D01*
X150189898Y-93217243D01*
X150174834Y-93141347D01*
X150188407Y-93061277D01*
X150227796Y-93010194D01*
X150264885Y-93020266D01*
G37*
G36*
X150959265Y-92724374D02*
G01*
X150975620Y-92742353D01*
X151011274Y-92846183D01*
X151022871Y-93025587D01*
X151020755Y-93151502D01*
X151007943Y-93236598D01*
X150975593Y-93278968D01*
X150914887Y-93301113D01*
X150870216Y-93309638D01*
X150793361Y-93305127D01*
X150772424Y-93274119D01*
X150821805Y-93227935D01*
X150827185Y-93224748D01*
X150868582Y-93176444D01*
X150889728Y-93084682D01*
X150895659Y-92929096D01*
X150896929Y-92818326D01*
X150904929Y-92732004D01*
X150924223Y-92705467D01*
X150959265Y-92724374D01*
G37*
G36*
X150665208Y-92541339D02*
G01*
X150736058Y-92601984D01*
X150768447Y-92662260D01*
X150764007Y-92694967D01*
X150723948Y-92721802D01*
X150653937Y-92677710D01*
X150624660Y-92662456D01*
X150546758Y-92676149D01*
X150419108Y-92741316D01*
X150298096Y-92809773D01*
X150219548Y-92844212D01*
X150183512Y-92839307D01*
X150174963Y-92798581D01*
X150191518Y-92768173D01*
X150264669Y-92703193D01*
X150376382Y-92630181D01*
X150458457Y-92583668D01*
X150549979Y-92533537D01*
X150591018Y-92513570D01*
X150595367Y-92513402D01*
X150665208Y-92541339D01*
G37*
G36*
X151269696Y-92302042D02*
G01*
X151334129Y-92332364D01*
X151431305Y-92388602D01*
X151574123Y-92476868D01*
X151573975Y-93014060D01*
X151573826Y-93551253D01*
X151348337Y-93672874D01*
X151336272Y-93679376D01*
X151213001Y-93742530D01*
X151133169Y-93768573D01*
X151068506Y-93761718D01*
X150990740Y-93726181D01*
X150978393Y-93719698D01*
X150886668Y-93664903D01*
X150837804Y-93624165D01*
X150848989Y-93598519D01*
X150916249Y-93541923D01*
X151025933Y-93473003D01*
X151234891Y-93355542D01*
X151234891Y-92827938D01*
X151234912Y-92807098D01*
X151237309Y-92609529D01*
X151243116Y-92448482D01*
X151251515Y-92340053D01*
X151261689Y-92300334D01*
X151269696Y-92302042D01*
G37*
G36*
X149939059Y-92916093D02*
G01*
X149959154Y-92980115D01*
X149962771Y-93117779D01*
X149962771Y-93341567D01*
X150428276Y-93616026D01*
X150453615Y-93630998D01*
X150625571Y-93734444D01*
X150765628Y-93821824D01*
X150859955Y-93884328D01*
X150894720Y-93913145D01*
X150891800Y-93921574D01*
X150841843Y-93965117D01*
X150754192Y-94017948D01*
X150660467Y-94062497D01*
X150592288Y-94081195D01*
X150591737Y-94081182D01*
X150533492Y-94059390D01*
X150419649Y-94001871D01*
X150266411Y-93917240D01*
X150089983Y-93814112D01*
X149925756Y-93714893D01*
X149791877Y-93629441D01*
X149707938Y-93565276D01*
X149661482Y-93510711D01*
X149640051Y-93454054D01*
X149631189Y-93383621D01*
X149627823Y-93334382D01*
X149635350Y-93168266D01*
X149683875Y-93054597D01*
X149781156Y-92972074D01*
X149793960Y-92964466D01*
X149888618Y-92914585D01*
X149939059Y-92916093D01*
G37*
G36*
X152944779Y-92558720D02*
G01*
X153094190Y-92630119D01*
X153206239Y-92765930D01*
X153243384Y-92855113D01*
X153266721Y-93035831D01*
X153226039Y-93197771D01*
X153132893Y-93327779D01*
X152998841Y-93412690D01*
X152835438Y-93439345D01*
X152654240Y-93394583D01*
X152533959Y-93304605D01*
X152450906Y-93160463D01*
X152431150Y-93041971D01*
X152521504Y-93041971D01*
X152573553Y-93199165D01*
X152671778Y-93307710D01*
X152796714Y-93360480D01*
X152929389Y-93354148D01*
X153050828Y-93285384D01*
X153142059Y-93150858D01*
X153169790Y-93041365D01*
X153153509Y-92865612D01*
X153069589Y-92713773D01*
X152986367Y-92662492D01*
X152842749Y-92639566D01*
X152733742Y-92654362D01*
X152604093Y-92731205D01*
X152530462Y-92864023D01*
X152521504Y-93041971D01*
X152431150Y-93041971D01*
X152422844Y-92992153D01*
X152453390Y-92823594D01*
X152546153Y-92678708D01*
X152617349Y-92620185D01*
X152778875Y-92554489D01*
X152944779Y-92558720D01*
G37*
G36*
X150637384Y-91926569D02*
G01*
X150721446Y-91965984D01*
X150835103Y-92028737D01*
X150916254Y-92078242D01*
X150988334Y-92139774D01*
X151017449Y-92213144D01*
X151022871Y-92329191D01*
X151022871Y-92519605D01*
X150826712Y-92409970D01*
X150750692Y-92369049D01*
X150648258Y-92319622D01*
X150591942Y-92300334D01*
X150591538Y-92300348D01*
X150540025Y-92321115D01*
X150431169Y-92375905D01*
X150280686Y-92456518D01*
X150104288Y-92554758D01*
X150097026Y-92558872D01*
X149923678Y-92656225D01*
X149779291Y-92735798D01*
X149678754Y-92789485D01*
X149636953Y-92809182D01*
X149632852Y-92803784D01*
X149627579Y-92742313D01*
X149631701Y-92634327D01*
X149632728Y-92620690D01*
X149640976Y-92550998D01*
X149661513Y-92495584D01*
X149706570Y-92443110D01*
X149788380Y-92382243D01*
X149919176Y-92301643D01*
X150111185Y-92189979D01*
X150132636Y-92177605D01*
X150309427Y-92077215D01*
X150458403Y-91995318D01*
X150564457Y-91940060D01*
X150612482Y-91919592D01*
X150637384Y-91926569D01*
G37*
G36*
X154206300Y-92555515D02*
G01*
X154226709Y-92605227D01*
X154240506Y-92720895D01*
X154245575Y-92885995D01*
X154243331Y-93031444D01*
X154231407Y-93160666D01*
X154205035Y-93245770D01*
X154159594Y-93309521D01*
X154056962Y-93391722D01*
X153905521Y-93429720D01*
X153741294Y-93383998D01*
X153660030Y-93345312D01*
X153618558Y-93341900D01*
X153609515Y-93380546D01*
X153601866Y-93411213D01*
X153545909Y-93445242D01*
X153529150Y-93441718D01*
X153505722Y-93410491D01*
X153491407Y-93335589D01*
X153484253Y-93203322D01*
X153482304Y-93000000D01*
X153482807Y-92882684D01*
X153487268Y-92718681D01*
X153497968Y-92618485D01*
X153516863Y-92568408D01*
X153545909Y-92554758D01*
X153573923Y-92565384D01*
X153595586Y-92615057D01*
X153606505Y-92719243D01*
X153609515Y-92893013D01*
X153609863Y-92981737D01*
X153614916Y-93120724D01*
X153630305Y-93205923D01*
X153661458Y-93258494D01*
X153713803Y-93299599D01*
X153773668Y-93328382D01*
X153907715Y-93344383D01*
X154034028Y-93310573D01*
X154118716Y-93232562D01*
X154139873Y-93152081D01*
X154154997Y-93016163D01*
X154160767Y-92854374D01*
X154160768Y-92852215D01*
X154166459Y-92699368D01*
X154181471Y-92594012D01*
X154203171Y-92554758D01*
X154206300Y-92555515D01*
G37*
G36*
X155047159Y-92600074D02*
G01*
X155142114Y-92678065D01*
X155178463Y-92789407D01*
X155140374Y-92895998D01*
X155025328Y-92983220D01*
X154839231Y-93043138D01*
X154711250Y-93079133D01*
X154614808Y-93143087D01*
X154584807Y-93233878D01*
X154590968Y-93268867D01*
X154651262Y-93332194D01*
X154756162Y-93359527D01*
X154881262Y-93347440D01*
X155002154Y-93292502D01*
X155076066Y-93253137D01*
X155125676Y-93251109D01*
X155129291Y-93296838D01*
X155071701Y-93351963D01*
X154971301Y-93401566D01*
X154848289Y-93432445D01*
X154748095Y-93440167D01*
X154655181Y-93417822D01*
X154566829Y-93346311D01*
X154552807Y-93331948D01*
X154485131Y-93250652D01*
X154457595Y-93195775D01*
X154457748Y-93190902D01*
X154503514Y-93109297D01*
X154624944Y-93030692D01*
X154813463Y-92960748D01*
X154895843Y-92933487D01*
X155027531Y-92863266D01*
X155078509Y-92783957D01*
X155046792Y-92697798D01*
X155042475Y-92692932D01*
X154949839Y-92646998D01*
X154820116Y-92639878D01*
X154687680Y-92669024D01*
X154586907Y-92731888D01*
X154586169Y-92732679D01*
X154516353Y-92787766D01*
X154468644Y-92791889D01*
X154464838Y-92784657D01*
X154486289Y-92730875D01*
X154555369Y-92657161D01*
X154622031Y-92611077D01*
X154765979Y-92562094D01*
X154914734Y-92559922D01*
X155047159Y-92600074D01*
G37*
G36*
X156113627Y-92555150D02*
G01*
X156134413Y-92601917D01*
X156148543Y-92714596D01*
X156153756Y-92876050D01*
X156153537Y-92942810D01*
X156148317Y-93087196D01*
X156130707Y-93181338D01*
X156093579Y-93250834D01*
X156029805Y-93321292D01*
X155900474Y-93415196D01*
X155757756Y-93440488D01*
X155621209Y-93382985D01*
X155617822Y-93380430D01*
X155542056Y-93332310D01*
X155499005Y-93337868D01*
X155479730Y-93407413D01*
X155475291Y-93551252D01*
X155471511Y-93647233D01*
X155456109Y-93746135D01*
X155432887Y-93784474D01*
X155431652Y-93784301D01*
X155414426Y-93738039D01*
X155401473Y-93615117D01*
X155393318Y-93423116D01*
X155390483Y-93169616D01*
X155390495Y-93151704D01*
X155393686Y-92901912D01*
X155402163Y-92714103D01*
X155415406Y-92595858D01*
X155432887Y-92554758D01*
X155433112Y-92554762D01*
X155454778Y-92594703D01*
X155469721Y-92700512D01*
X155475291Y-92853514D01*
X155477934Y-92998429D01*
X155491636Y-93111977D01*
X155523200Y-93189247D01*
X155579374Y-93256352D01*
X155587358Y-93264187D01*
X155713802Y-93346105D01*
X155838143Y-93343493D01*
X155964865Y-93256352D01*
X156014431Y-93199201D01*
X156049216Y-93125086D01*
X156065139Y-93018562D01*
X156068948Y-92853514D01*
X156068948Y-92851934D01*
X156074617Y-92699284D01*
X156089635Y-92594002D01*
X156111352Y-92554757D01*
X156113627Y-92555150D01*
G37*
G36*
X157182479Y-92566705D02*
G01*
X157199181Y-92647936D01*
X157210005Y-92796199D01*
X157213856Y-93000000D01*
X157212718Y-93115791D01*
X157204982Y-93291158D01*
X157190861Y-93404806D01*
X157171452Y-93445242D01*
X157145654Y-93426260D01*
X157129048Y-93353862D01*
X157127841Y-93312440D01*
X157110351Y-93287139D01*
X157054841Y-93329357D01*
X157004619Y-93367625D01*
X156847900Y-93426209D01*
X156682867Y-93420047D01*
X156534400Y-93353108D01*
X156427381Y-93229355D01*
X156417408Y-93209199D01*
X156365228Y-93016278D01*
X156371555Y-92969639D01*
X156460009Y-92969639D01*
X156481568Y-93108265D01*
X156546831Y-93227908D01*
X156644799Y-93315551D01*
X156764476Y-93358182D01*
X156894863Y-93342787D01*
X157024965Y-93256352D01*
X157055725Y-93221093D01*
X157121509Y-93071872D01*
X157116930Y-92906692D01*
X157041162Y-92751295D01*
X156953152Y-92679428D01*
X156816188Y-92638087D01*
X156676368Y-92648672D01*
X156566469Y-92713773D01*
X156493149Y-92825042D01*
X156460009Y-92969639D01*
X156371555Y-92969639D01*
X156389937Y-92834125D01*
X156489726Y-92678708D01*
X156527137Y-92645331D01*
X156678742Y-92567697D01*
X156839270Y-92557192D01*
X156983130Y-92617015D01*
X157053020Y-92663437D01*
X157111351Y-92673519D01*
X157129048Y-92618364D01*
X157133832Y-92589104D01*
X157171452Y-92554758D01*
X157182479Y-92566705D01*
G37*
G36*
X157570990Y-92237923D02*
G01*
X157588656Y-92324393D01*
X157595492Y-92453625D01*
X157595491Y-92691724D01*
X157700010Y-92623241D01*
X157717554Y-92612564D01*
X157869753Y-92563043D01*
X158035266Y-92564228D01*
X158173869Y-92616675D01*
X158280210Y-92737487D01*
X158340083Y-92903481D01*
X158340972Y-93081546D01*
X158340359Y-93084738D01*
X158276386Y-93237511D01*
X158163867Y-93354098D01*
X158023438Y-93424124D01*
X157875740Y-93437212D01*
X157741409Y-93382985D01*
X157671518Y-93336564D01*
X157613188Y-93326482D01*
X157595492Y-93381636D01*
X157590709Y-93410897D01*
X157553088Y-93445242D01*
X157551852Y-93445069D01*
X157534625Y-93398807D01*
X157521673Y-93275885D01*
X157513518Y-93083884D01*
X157512365Y-92980726D01*
X157595492Y-92980726D01*
X157604234Y-93071838D01*
X157664943Y-93215432D01*
X157767969Y-93309800D01*
X157894926Y-93351035D01*
X158027426Y-93335224D01*
X158147080Y-93258457D01*
X158235501Y-93116825D01*
X158251470Y-93039291D01*
X158237704Y-92897388D01*
X158184803Y-92766101D01*
X158103732Y-92681645D01*
X158017508Y-92646429D01*
X157858503Y-92636966D01*
X157723776Y-92696230D01*
X157630410Y-92814168D01*
X157595492Y-92980726D01*
X157512365Y-92980726D01*
X157510684Y-92830383D01*
X157510696Y-92812472D01*
X157513886Y-92562680D01*
X157522364Y-92374871D01*
X157535605Y-92256626D01*
X157553088Y-92215526D01*
X157570990Y-92237923D01*
G37*
G36*
X159074935Y-92568277D02*
G01*
X159236282Y-92659428D01*
X159280605Y-92700566D01*
X159315839Y-92750026D01*
X159286243Y-92765439D01*
X159242182Y-92756639D01*
X159164440Y-92703172D01*
X159095140Y-92656154D01*
X158969793Y-92639285D01*
X158833334Y-92669401D01*
X158717270Y-92743649D01*
X158708089Y-92753002D01*
X158640768Y-92834502D01*
X158613188Y-92892063D01*
X158614882Y-92897123D01*
X158671446Y-92918209D01*
X158801242Y-92931664D01*
X158994824Y-92936394D01*
X159376460Y-92936394D01*
X159376460Y-93046645D01*
X159371152Y-93086917D01*
X159313019Y-93206005D01*
X159210907Y-93322169D01*
X159090069Y-93410287D01*
X158975757Y-93445243D01*
X158944264Y-93443702D01*
X158796463Y-93405335D01*
X158660173Y-93329613D01*
X158572041Y-93235571D01*
X158564447Y-93218702D01*
X158538753Y-93111063D01*
X158538522Y-93108105D01*
X158538509Y-93107938D01*
X158613188Y-93107938D01*
X158613188Y-93108105D01*
X158646836Y-93180637D01*
X158727505Y-93263698D01*
X158825438Y-93332044D01*
X158910876Y-93360434D01*
X158977706Y-93353937D01*
X159110400Y-93303458D01*
X159209175Y-93218229D01*
X159248599Y-93116611D01*
X159248345Y-93112957D01*
X159212384Y-93084570D01*
X159109581Y-93068605D01*
X158931218Y-93063606D01*
X158765021Y-93068970D01*
X158653309Y-93084349D01*
X158613188Y-93107938D01*
X158538509Y-93107938D01*
X158528380Y-92978324D01*
X158530232Y-92922375D01*
X158562990Y-92793651D01*
X158652330Y-92678708D01*
X158731813Y-92615049D01*
X158899752Y-92553716D01*
X159074935Y-92568277D01*
G37*
G36*
X157776949Y-95641265D02*
G01*
X157802132Y-95699551D01*
X157814825Y-95821521D01*
X157818323Y-96024757D01*
X157815959Y-96200201D01*
X157805030Y-96334510D01*
X157782161Y-96402202D01*
X157744053Y-96420858D01*
X157711158Y-96408250D01*
X157685975Y-96349963D01*
X157673283Y-96227993D01*
X157669785Y-96024757D01*
X157672148Y-95849314D01*
X157683078Y-95715004D01*
X157705947Y-95647312D01*
X157744054Y-95628656D01*
X157776949Y-95641265D01*
G37*
G36*
X151316398Y-95777194D02*
G01*
X151383868Y-95784475D01*
X151439972Y-95817141D01*
X151497359Y-95891576D01*
X151568679Y-96024165D01*
X151666584Y-96231290D01*
X151727557Y-96365781D01*
X151800292Y-96534705D01*
X151846666Y-96653740D01*
X151858627Y-96703102D01*
X151853875Y-96704736D01*
X151778832Y-96709590D01*
X151628179Y-96711656D01*
X151420626Y-96710828D01*
X151174883Y-96706999D01*
X150508856Y-96693178D01*
X150670134Y-96424736D01*
X150831413Y-96156294D01*
X150891685Y-96288576D01*
X150925953Y-96352082D01*
X150981004Y-96397529D01*
X151077230Y-96416836D01*
X151243508Y-96420858D01*
X151535061Y-96420858D01*
X151355081Y-96099026D01*
X151175102Y-95777194D01*
X151315964Y-95777193D01*
X151316398Y-95777194D01*
G37*
G36*
X155440210Y-95633709D02*
G01*
X155471156Y-95679163D01*
X155486860Y-95786937D01*
X155491227Y-95975244D01*
X155491452Y-96067663D01*
X155496268Y-96211229D01*
X155513328Y-96287061D01*
X155550340Y-96316737D01*
X155615009Y-96321833D01*
X155696419Y-96334126D01*
X155738791Y-96371346D01*
X155707235Y-96393706D01*
X155599954Y-96413342D01*
X155441715Y-96420858D01*
X155307552Y-96415599D01*
X155189738Y-96397719D01*
X155144639Y-96371346D01*
X155163207Y-96342568D01*
X155243664Y-96321833D01*
X155251546Y-96321736D01*
X155300496Y-96309460D01*
X155327970Y-96261735D01*
X155340018Y-96157387D01*
X155342689Y-95975243D01*
X155343772Y-95866738D01*
X155353512Y-95722328D01*
X155376607Y-95649037D01*
X155416958Y-95628657D01*
X155440210Y-95633709D01*
G37*
G36*
X158630948Y-95658600D02*
G01*
X158685732Y-95690860D01*
X158682218Y-95727768D01*
X158611775Y-95749100D01*
X158492432Y-95743769D01*
X158429043Y-95735993D01*
X158324660Y-95752843D01*
X158245776Y-95832315D01*
X158184177Y-95947107D01*
X158178627Y-96090765D01*
X158268227Y-96227098D01*
X158362792Y-96294288D01*
X158493312Y-96299853D01*
X158557692Y-96288779D01*
X158650786Y-96295443D01*
X158690053Y-96328397D01*
X158652946Y-96376777D01*
X158631286Y-96388321D01*
X158490919Y-96416655D01*
X158329350Y-96403452D01*
X158201827Y-96351774D01*
X158194253Y-96345861D01*
X158082438Y-96198634D01*
X158043585Y-96015791D01*
X158086196Y-95835306D01*
X158089963Y-95828131D01*
X158161031Y-95720458D01*
X158225761Y-95661794D01*
X158339089Y-95638115D01*
X158499579Y-95635390D01*
X158630948Y-95658600D01*
G37*
G36*
X153912286Y-95654248D02*
G01*
X154051766Y-95759116D01*
X154055997Y-95764568D01*
X154139438Y-95941090D01*
X154138138Y-96117383D01*
X154062870Y-96271045D01*
X153924409Y-96379671D01*
X153733528Y-96420858D01*
X153667067Y-96416247D01*
X153494948Y-96352375D01*
X153375463Y-96231114D01*
X153318750Y-96075183D01*
X153329020Y-95968751D01*
X153465305Y-95968751D01*
X153471730Y-96112726D01*
X153551754Y-96239890D01*
X153598878Y-96275287D01*
X153730097Y-96311959D01*
X153852989Y-96276994D01*
X153950893Y-96189628D01*
X154007145Y-96069097D01*
X154005082Y-95934637D01*
X153928041Y-95805487D01*
X153860155Y-95759890D01*
X153733527Y-95727680D01*
X153631228Y-95748767D01*
X153521972Y-95837563D01*
X153465305Y-95968751D01*
X153329020Y-95968751D01*
X153334949Y-95907301D01*
X153434201Y-95750187D01*
X153558363Y-95663971D01*
X153737213Y-95622380D01*
X153912286Y-95654248D01*
G37*
G36*
X150336322Y-95282217D02*
G01*
X150571648Y-95285184D01*
X150762073Y-95291379D01*
X150889558Y-95300034D01*
X150936062Y-95310385D01*
X150933812Y-95323374D01*
X150896771Y-95405607D01*
X150829178Y-95522534D01*
X150750485Y-95643726D01*
X150680147Y-95738756D01*
X150637617Y-95777193D01*
X150607174Y-95758127D01*
X150564717Y-95678167D01*
X150550494Y-95644509D01*
X150502742Y-95603158D01*
X150406345Y-95583887D01*
X150236236Y-95579143D01*
X149939185Y-95579143D01*
X150110078Y-95900975D01*
X150280972Y-96222808D01*
X150145327Y-96222809D01*
X150088469Y-96217290D01*
X150031176Y-96186971D01*
X149973248Y-96115185D01*
X149901925Y-95985401D01*
X149804451Y-95781088D01*
X149748436Y-95659437D01*
X149671582Y-95488256D01*
X149618821Y-95365090D01*
X149599221Y-95310718D01*
X149602748Y-95307774D01*
X149672824Y-95297687D01*
X149819025Y-95289525D01*
X150023309Y-95284060D01*
X150267641Y-95282067D01*
X150336322Y-95282217D01*
G37*
G36*
X152406662Y-95629395D02*
G01*
X152445455Y-95661654D01*
X152465349Y-95755196D01*
X152470954Y-95928654D01*
X152475542Y-96062859D01*
X152492018Y-96171433D01*
X152517432Y-96199927D01*
X152556650Y-96155672D01*
X152630883Y-96046313D01*
X152719116Y-95899929D01*
X152735573Y-95871471D01*
X152831846Y-95724751D01*
X152912145Y-95649724D01*
X152994471Y-95628657D01*
X153043035Y-95631007D01*
X153083540Y-95651584D01*
X153104890Y-95710607D01*
X153113208Y-95828267D01*
X153114619Y-96024757D01*
X153112640Y-96184951D01*
X153102150Y-96327294D01*
X153079864Y-96400288D01*
X153042713Y-96420858D01*
X153040626Y-96420818D01*
X152997953Y-96390305D01*
X152971230Y-96292396D01*
X152956067Y-96111404D01*
X152941325Y-95801950D01*
X152748616Y-96111404D01*
X152707362Y-96176350D01*
X152602063Y-96322413D01*
X152517775Y-96398803D01*
X152439162Y-96420858D01*
X152394024Y-96418578D01*
X152353776Y-96398039D01*
X152332390Y-96339006D01*
X152323919Y-96221304D01*
X152322416Y-96024757D01*
X152324781Y-95849314D01*
X152335709Y-95715004D01*
X152358579Y-95647312D01*
X152396685Y-95628656D01*
X152406662Y-95629395D01*
G37*
G36*
X156588644Y-95641265D02*
G01*
X156613828Y-95699551D01*
X156626521Y-95821521D01*
X156630019Y-96024757D01*
X156627653Y-96200201D01*
X156616726Y-96334510D01*
X156593857Y-96402202D01*
X156555751Y-96420858D01*
X156503623Y-96390246D01*
X156481481Y-96272320D01*
X156481168Y-96240425D01*
X156466875Y-96161434D01*
X156410422Y-96129648D01*
X156283430Y-96123782D01*
X156240903Y-96124017D01*
X156135582Y-96134737D01*
X156093200Y-96177077D01*
X156085379Y-96272320D01*
X156070073Y-96376573D01*
X156011110Y-96420858D01*
X155978215Y-96408249D01*
X155953032Y-96349963D01*
X155940339Y-96227993D01*
X155936841Y-96024757D01*
X155939207Y-95849314D01*
X155950134Y-95715003D01*
X155973004Y-95647311D01*
X156011110Y-95628657D01*
X156017874Y-95628969D01*
X156069275Y-95673779D01*
X156085379Y-95801950D01*
X156085822Y-95853085D01*
X156100272Y-95937606D01*
X156156625Y-95969997D01*
X156283430Y-95975244D01*
X156341870Y-95974857D01*
X156438466Y-95962213D01*
X156475485Y-95912904D01*
X156481480Y-95801950D01*
X156481615Y-95786167D01*
X156500819Y-95666234D01*
X156555750Y-95628656D01*
X156588644Y-95641265D01*
G37*
G36*
X158988635Y-95628969D02*
G01*
X159040034Y-95673779D01*
X159056140Y-95801950D01*
X159056582Y-95853085D01*
X159071033Y-95937605D01*
X159127385Y-95969998D01*
X159254190Y-95975244D01*
X159312630Y-95974857D01*
X159409225Y-95962213D01*
X159446245Y-95912904D01*
X159452241Y-95801950D01*
X159452375Y-95786167D01*
X159471579Y-95666234D01*
X159526510Y-95628657D01*
X159559407Y-95641265D01*
X159584589Y-95699551D01*
X159597281Y-95821521D01*
X159600779Y-96024757D01*
X159598416Y-96200201D01*
X159587486Y-96334510D01*
X159564617Y-96402202D01*
X159526510Y-96420858D01*
X159474384Y-96390247D01*
X159452241Y-96272320D01*
X159451928Y-96240425D01*
X159437635Y-96161435D01*
X159381182Y-96129648D01*
X159254190Y-96123782D01*
X159211663Y-96124017D01*
X159106342Y-96134736D01*
X159063960Y-96177077D01*
X159056140Y-96272320D01*
X159040833Y-96376573D01*
X158981871Y-96420858D01*
X158948975Y-96408249D01*
X158923792Y-96349963D01*
X158911100Y-96227992D01*
X158907602Y-96024757D01*
X158909966Y-95849314D01*
X158920894Y-95715004D01*
X158943764Y-95647312D01*
X158981871Y-95628656D01*
X158988635Y-95628969D01*
G37*
G36*
X157428600Y-95634925D02*
G01*
X157430445Y-95680770D01*
X157374278Y-95786518D01*
X157349923Y-95826808D01*
X157306100Y-95913362D01*
X157314422Y-95963084D01*
X157375004Y-96012133D01*
X157464257Y-96112869D01*
X157472464Y-96222640D01*
X157406411Y-96321662D01*
X157277431Y-96393284D01*
X157096852Y-96420859D01*
X156877582Y-96420858D01*
X156877582Y-96198051D01*
X157026120Y-96198051D01*
X157042845Y-96284965D01*
X157112767Y-96321075D01*
X157213241Y-96303767D01*
X157297945Y-96241700D01*
X157307209Y-96153536D01*
X157258079Y-96102424D01*
X157151456Y-96074270D01*
X157125913Y-96074908D01*
X157046239Y-96104219D01*
X157026120Y-96198051D01*
X156877582Y-96198051D01*
X156877582Y-96024757D01*
X156879946Y-95849314D01*
X156890875Y-95715004D01*
X156913744Y-95647312D01*
X156951851Y-95628656D01*
X156958615Y-95628969D01*
X157010015Y-95673779D01*
X157026119Y-95801950D01*
X157026510Y-95824653D01*
X157041534Y-95931706D01*
X157071595Y-95975243D01*
X157084575Y-95970794D01*
X157147062Y-95910414D01*
X157224172Y-95801950D01*
X157248988Y-95764463D01*
X157333025Y-95667516D01*
X157400776Y-95628656D01*
X157428600Y-95634925D01*
G37*
G36*
X154932168Y-95641390D02*
G01*
X154935615Y-95701483D01*
X154866933Y-95819370D01*
X154823591Y-95888558D01*
X154822062Y-95953325D01*
X154891690Y-96030366D01*
X154902466Y-96040463D01*
X154978982Y-96127712D01*
X154983083Y-96203274D01*
X154919024Y-96310816D01*
X154877800Y-96358586D01*
X154780319Y-96407487D01*
X154621948Y-96420858D01*
X154401949Y-96420858D01*
X154401949Y-96198051D01*
X154500974Y-96198051D01*
X154501285Y-96215629D01*
X154528642Y-96299849D01*
X154618693Y-96321833D01*
X154650039Y-96319676D01*
X154758069Y-96278402D01*
X154825451Y-96204918D01*
X154824147Y-96125951D01*
X154761438Y-96090228D01*
X154646590Y-96074270D01*
X154586700Y-96076899D01*
X154517402Y-96108963D01*
X154500974Y-96198051D01*
X154401949Y-96198051D01*
X154401949Y-96024757D01*
X154402114Y-95989323D01*
X154409711Y-95801455D01*
X154426941Y-95674981D01*
X154451461Y-95628656D01*
X154457959Y-95630152D01*
X154488538Y-95687409D01*
X154500975Y-95801950D01*
X154501174Y-95821262D01*
X154520764Y-95938753D01*
X154576044Y-95975243D01*
X154590745Y-95972469D01*
X154662824Y-95913500D01*
X154733751Y-95801950D01*
X154749805Y-95770548D01*
X154820214Y-95669430D01*
X154881489Y-95628656D01*
X154932168Y-95641390D01*
G37*
G36*
X140263982Y-93536457D02*
G01*
X140295401Y-93582493D01*
X140281411Y-93615457D01*
X140220030Y-93639021D01*
X140176077Y-93628529D01*
X140144659Y-93582492D01*
X140158648Y-93549528D01*
X140220030Y-93525965D01*
X140263982Y-93536457D01*
G37*
G36*
X143016274Y-93532531D02*
G01*
X143046439Y-93582493D01*
X143039873Y-93608855D01*
X142989911Y-93639021D01*
X142963549Y-93632455D01*
X142933383Y-93582493D01*
X142939949Y-93556131D01*
X142989911Y-93525965D01*
X143016274Y-93532531D01*
G37*
G36*
X143844101Y-94667020D02*
G01*
X143875519Y-94713057D01*
X143861531Y-94746021D01*
X143800148Y-94769585D01*
X143756196Y-94759093D01*
X143724777Y-94713056D01*
X143738767Y-94680092D01*
X143800148Y-94656530D01*
X143844101Y-94667020D01*
G37*
G36*
X143011611Y-92816417D02*
G01*
X143032777Y-92855985D01*
X143043477Y-92943497D01*
X143046439Y-93092582D01*
X143045144Y-93201081D01*
X143037230Y-93306912D01*
X143019728Y-93360417D01*
X142989911Y-93375222D01*
X142968211Y-93368747D01*
X142947045Y-93329179D01*
X142936344Y-93241667D01*
X142933384Y-93092582D01*
X142934678Y-92984083D01*
X142942592Y-92878251D01*
X142960094Y-92824747D01*
X142989911Y-92809942D01*
X143011611Y-92816417D01*
G37*
G36*
X140233597Y-92810383D02*
G01*
X140266884Y-92822592D01*
X140285503Y-92863281D01*
X140293620Y-92948071D01*
X140295402Y-93092582D01*
X140295282Y-93143459D01*
X140292027Y-93268285D01*
X140281177Y-93338108D01*
X140258566Y-93368547D01*
X140220030Y-93375223D01*
X140206462Y-93374780D01*
X140173176Y-93362572D01*
X140154556Y-93321883D01*
X140146439Y-93237093D01*
X140144659Y-93092582D01*
X140144777Y-93041705D01*
X140148032Y-92916879D01*
X140158883Y-92847056D01*
X140181493Y-92816617D01*
X140220030Y-92809941D01*
X140233597Y-92810383D01*
G37*
G36*
X140920996Y-93942865D02*
G01*
X140953451Y-93967588D01*
X140971304Y-94033303D01*
X140981280Y-94157196D01*
X140989303Y-94272199D01*
X141005053Y-94342314D01*
X141037484Y-94373806D01*
X141096217Y-94385812D01*
X141167210Y-94408116D01*
X141199852Y-94449625D01*
X141190487Y-94472630D01*
X141132389Y-94493324D01*
X141011424Y-94497222D01*
X140822997Y-94492930D01*
X140822997Y-94216717D01*
X140823051Y-94182987D01*
X140825981Y-94053328D01*
X140836410Y-93980171D01*
X140858518Y-93947801D01*
X140896487Y-93940506D01*
X140920996Y-93942865D01*
G37*
G36*
X141900818Y-92812301D02*
G01*
X141933273Y-92837024D01*
X141951126Y-92902739D01*
X141961102Y-93026632D01*
X141969125Y-93141636D01*
X141984876Y-93211750D01*
X142017306Y-93243243D01*
X142076039Y-93255248D01*
X142147032Y-93277552D01*
X142179674Y-93319062D01*
X142170309Y-93342065D01*
X142112210Y-93362760D01*
X141991246Y-93366658D01*
X141802819Y-93362366D01*
X141802819Y-93086154D01*
X141802873Y-93052424D01*
X141805804Y-92922764D01*
X141816232Y-92849607D01*
X141838340Y-92817238D01*
X141876309Y-92809941D01*
X141900818Y-92812301D01*
G37*
G36*
X143497483Y-93945310D02*
G01*
X143516931Y-93976569D01*
X143528805Y-94047315D01*
X143534735Y-94169491D01*
X143536350Y-94355045D01*
X143535695Y-94484562D01*
X143531432Y-94627179D01*
X143521785Y-94714257D01*
X143505125Y-94757744D01*
X143479822Y-94769585D01*
X143462160Y-94764781D01*
X143442713Y-94733520D01*
X143430837Y-94662775D01*
X143424908Y-94540598D01*
X143423294Y-94355045D01*
X143423949Y-94225527D01*
X143428212Y-94082911D01*
X143437859Y-93995832D01*
X143454518Y-93952346D01*
X143479822Y-93940505D01*
X143497483Y-93945310D01*
G37*
G36*
X143813716Y-93940947D02*
G01*
X143847002Y-93953155D01*
X143865622Y-93993845D01*
X143873739Y-94078635D01*
X143875519Y-94223146D01*
X143875401Y-94274023D01*
X143872146Y-94398848D01*
X143861295Y-94468670D01*
X143838685Y-94499111D01*
X143800148Y-94505787D01*
X143786581Y-94505343D01*
X143753294Y-94493136D01*
X143734675Y-94452447D01*
X143726558Y-94367657D01*
X143724777Y-94223146D01*
X143724896Y-94172268D01*
X143728151Y-94047443D01*
X143739001Y-93977620D01*
X143761612Y-93947180D01*
X143800148Y-93940505D01*
X143813716Y-93940947D01*
G37*
G36*
X146362760Y-92489615D02*
G01*
X146362760Y-92809941D01*
X146683086Y-92809942D01*
X147003412Y-92809941D01*
X147003412Y-94920327D01*
X147003412Y-97030712D01*
X145609050Y-97030712D01*
X144214688Y-97030711D01*
X144214688Y-96729229D01*
X144214688Y-96427744D01*
X141105638Y-96427745D01*
X137996588Y-96427745D01*
X137996588Y-96277003D01*
X138109644Y-96277003D01*
X142179674Y-96277003D01*
X146249703Y-96277003D01*
X146249703Y-94298517D01*
X146249703Y-92320030D01*
X142179674Y-92320030D01*
X138109644Y-92320030D01*
X138109644Y-94298517D01*
X138109644Y-96277003D01*
X137996588Y-96277003D01*
X137996588Y-94298517D01*
X137996588Y-92169288D01*
X142179674Y-92169288D01*
X146362760Y-92169288D01*
X146362760Y-92489615D01*
G37*
G36*
X139984008Y-95073581D02*
G01*
X140014685Y-95097256D01*
X140028432Y-95160683D01*
X140031603Y-95281612D01*
X140033493Y-95388545D01*
X140046283Y-95463756D01*
X140080002Y-95505046D01*
X140144659Y-95534830D01*
X140149319Y-95536629D01*
X140226034Y-95580388D01*
X140257715Y-95625770D01*
X140251379Y-95653877D01*
X140201052Y-95671287D01*
X140104496Y-95635025D01*
X140054671Y-95615262D01*
X140031602Y-95635025D01*
X140017461Y-95657705D01*
X139956231Y-95674036D01*
X139936359Y-95672927D01*
X139906393Y-95657791D01*
X139889682Y-95612790D01*
X139882434Y-95522764D01*
X139880860Y-95372552D01*
X139881138Y-95293064D01*
X139884923Y-95173199D01*
X139896172Y-95106353D01*
X139918678Y-95077363D01*
X139956231Y-95071069D01*
X139984008Y-95073581D01*
G37*
G36*
X140752759Y-92824267D02*
G01*
X140819477Y-92905751D01*
X140897993Y-93060110D01*
X140952225Y-93181748D01*
X140993496Y-93285359D01*
X141005883Y-93343713D01*
X140991587Y-93369453D01*
X140952808Y-93375223D01*
X140929081Y-93365945D01*
X140873790Y-93300871D01*
X140815884Y-93186796D01*
X140782666Y-93111894D01*
X140739533Y-93030139D01*
X140712361Y-92998368D01*
X140697237Y-93013216D01*
X140661534Y-93081612D01*
X140619387Y-93186796D01*
X140589641Y-93258521D01*
X140540325Y-93342558D01*
X140498886Y-93375223D01*
X140485495Y-93374417D01*
X140454576Y-93354771D01*
X140453303Y-93300652D01*
X140483228Y-93201181D01*
X140545901Y-93045475D01*
X140559338Y-93014392D01*
X140629094Y-92878854D01*
X140691434Y-92815390D01*
X140752759Y-92824267D01*
G37*
G36*
X138890395Y-95071856D02*
G01*
X138914531Y-95092443D01*
X138929302Y-95150418D01*
X138936702Y-95258419D01*
X138938725Y-95429080D01*
X138938724Y-95787092D01*
X139089466Y-95787092D01*
X139132803Y-95788118D01*
X139215316Y-95804315D01*
X139240208Y-95843621D01*
X139239420Y-95851819D01*
X139218834Y-95875956D01*
X139160858Y-95890726D01*
X139052857Y-95898126D01*
X138882196Y-95900149D01*
X138830272Y-95900024D01*
X138677406Y-95896774D01*
X138583859Y-95887620D01*
X138536997Y-95870567D01*
X138524184Y-95843621D01*
X138526920Y-95827369D01*
X138570110Y-95796428D01*
X138674926Y-95787092D01*
X138825668Y-95787092D01*
X138825668Y-95429080D01*
X138825792Y-95377156D01*
X138829042Y-95224290D01*
X138838197Y-95130744D01*
X138855249Y-95083882D01*
X138882196Y-95071069D01*
X138890395Y-95071856D01*
G37*
G36*
X142619667Y-95079161D02*
G01*
X142717336Y-95137018D01*
X142781215Y-95238342D01*
X142806267Y-95372676D01*
X142777534Y-95500101D01*
X142700152Y-95601298D01*
X142579245Y-95656953D01*
X142505218Y-95663350D01*
X142372539Y-95631018D01*
X142276124Y-95549947D01*
X142225073Y-95435745D01*
X142226157Y-95393832D01*
X142374712Y-95393832D01*
X142378659Y-95417844D01*
X142423902Y-95512398D01*
X142498608Y-95556530D01*
X142584792Y-95537905D01*
X142613368Y-95515878D01*
X142663975Y-95417423D01*
X142653361Y-95275358D01*
X142647556Y-95255389D01*
X142605152Y-95199092D01*
X142516942Y-95184125D01*
X142510264Y-95184177D01*
X142417935Y-95205168D01*
X142375170Y-95271487D01*
X142374712Y-95393832D01*
X142226157Y-95393832D01*
X142228486Y-95304016D01*
X142295465Y-95170364D01*
X142373682Y-95106495D01*
X142495405Y-95069754D01*
X142619667Y-95079161D01*
G37*
G36*
X141660995Y-93954141D02*
G01*
X141766193Y-94036382D01*
X141824276Y-94160329D01*
X141822780Y-94312266D01*
X141789984Y-94408317D01*
X141716388Y-94484882D01*
X141588684Y-94527887D01*
X141562026Y-94532257D01*
X141466047Y-94522053D01*
X141368047Y-94457623D01*
X141352734Y-94443525D01*
X141280107Y-94330347D01*
X141270012Y-94264721D01*
X141270012Y-94264720D01*
X141388279Y-94264720D01*
X141403350Y-94330611D01*
X141481377Y-94399079D01*
X141529965Y-94415769D01*
X141618851Y-94406014D01*
X141671739Y-94334572D01*
X141682247Y-94207529D01*
X141669218Y-94122616D01*
X141633110Y-94077554D01*
X141553253Y-94060954D01*
X141533364Y-94059489D01*
X141446649Y-94075021D01*
X141401343Y-94139657D01*
X141388279Y-94264720D01*
X141270012Y-94264720D01*
X141260414Y-94202332D01*
X141289462Y-94079724D01*
X141363058Y-93982763D01*
X141477007Y-93931690D01*
X141521144Y-93927324D01*
X141660995Y-93954141D01*
G37*
G36*
X139488574Y-95073078D02*
G01*
X139619819Y-95118012D01*
X139701807Y-95218482D01*
X139730119Y-95369817D01*
X139728682Y-95415169D01*
X139702334Y-95517600D01*
X139630823Y-95595929D01*
X139505049Y-95662233D01*
X139377268Y-95659237D01*
X139257337Y-95581535D01*
X139213424Y-95525598D01*
X139167224Y-95394717D01*
X139168275Y-95378115D01*
X139315579Y-95378115D01*
X139320789Y-95464854D01*
X139349004Y-95519339D01*
X139415656Y-95546976D01*
X139431120Y-95550253D01*
X139528967Y-95537729D01*
X139592524Y-95473161D01*
X139612112Y-95373830D01*
X139578051Y-95257018D01*
X139571276Y-95246339D01*
X139502034Y-95198068D01*
X139412195Y-95183092D01*
X139340702Y-95209249D01*
X139336587Y-95215306D01*
X139321628Y-95278768D01*
X139315579Y-95378115D01*
X139168275Y-95378115D01*
X139175798Y-95259343D01*
X139240208Y-95146439D01*
X139313270Y-95098217D01*
X139447478Y-95071069D01*
X139488574Y-95073078D01*
G37*
G36*
X139519934Y-92810597D02*
G01*
X139557994Y-92828157D01*
X139575290Y-92883645D01*
X139579377Y-92995676D01*
X139579431Y-93005972D01*
X139595699Y-93152070D01*
X139638597Y-93240632D01*
X139682558Y-93282446D01*
X139722405Y-93296576D01*
X139783565Y-93276977D01*
X139817990Y-93245091D01*
X139837501Y-93168232D01*
X139843175Y-93032022D01*
X139844430Y-92937622D01*
X139853411Y-92855109D01*
X139876151Y-92818339D01*
X139918546Y-92809942D01*
X139949476Y-92813295D01*
X139978176Y-92838993D01*
X139990984Y-92905022D01*
X139993917Y-93028851D01*
X139987063Y-93163705D01*
X139953392Y-93290869D01*
X139887438Y-93360105D01*
X139784572Y-93379155D01*
X139678886Y-93376959D01*
X139551113Y-93375605D01*
X139428635Y-93375178D01*
X139428635Y-93092559D01*
X139428753Y-93041717D01*
X139432008Y-92916885D01*
X139442858Y-92847059D01*
X139465468Y-92816617D01*
X139504006Y-92809941D01*
X139519934Y-92810597D01*
G37*
G36*
X140656823Y-95073078D02*
G01*
X140788068Y-95118012D01*
X140870056Y-95218482D01*
X140898368Y-95369817D01*
X140896932Y-95415169D01*
X140870583Y-95517600D01*
X140799072Y-95595930D01*
X140673299Y-95662233D01*
X140545517Y-95659237D01*
X140425587Y-95581536D01*
X140381673Y-95525598D01*
X140335473Y-95394717D01*
X140336524Y-95378115D01*
X140336524Y-95378114D01*
X140483828Y-95378114D01*
X140489038Y-95464854D01*
X140517253Y-95519339D01*
X140583905Y-95546976D01*
X140599369Y-95550253D01*
X140697216Y-95537729D01*
X140760773Y-95473161D01*
X140780359Y-95373830D01*
X140746300Y-95257018D01*
X140739525Y-95246339D01*
X140670283Y-95198068D01*
X140580444Y-95183092D01*
X140508951Y-95209249D01*
X140504836Y-95215306D01*
X140489879Y-95278768D01*
X140483828Y-95378114D01*
X140336524Y-95378114D01*
X140344047Y-95259343D01*
X140408457Y-95146440D01*
X140481519Y-95098217D01*
X140615727Y-95071069D01*
X140656823Y-95073078D01*
G37*
G36*
X145697975Y-93940605D02*
G01*
X145736345Y-93948755D01*
X145755404Y-93981910D01*
X145759426Y-94056765D01*
X145752685Y-94190016D01*
X145730041Y-94360226D01*
X145681952Y-94475792D01*
X145605250Y-94528940D01*
X145495994Y-94524813D01*
X145416084Y-94511198D01*
X145298145Y-94504368D01*
X145194510Y-94506984D01*
X145194510Y-94223744D01*
X145194633Y-94171940D01*
X145197906Y-94047281D01*
X145208771Y-93977558D01*
X145231378Y-93947166D01*
X145269881Y-93940505D01*
X145294337Y-93942318D01*
X145327092Y-93964071D01*
X145341829Y-94025011D01*
X145345252Y-94143160D01*
X145348403Y-94224828D01*
X145377584Y-94353389D01*
X145438341Y-94415252D01*
X145531871Y-94412146D01*
X145558677Y-94400951D01*
X145590679Y-94364911D01*
X145605462Y-94292409D01*
X145609050Y-94164078D01*
X145610593Y-94058537D01*
X145620210Y-93981291D01*
X145644201Y-93947783D01*
X145688812Y-93940505D01*
X145697975Y-93940605D01*
G37*
G36*
X143009253Y-93941561D02*
G01*
X143114390Y-93967406D01*
X143194446Y-94039801D01*
X143196190Y-94042035D01*
X143250181Y-94131291D01*
X143272552Y-94207612D01*
X143268324Y-94261525D01*
X143217149Y-94392502D01*
X143121265Y-94485457D01*
X142997555Y-94528017D01*
X142862900Y-94507812D01*
X142747963Y-94427074D01*
X142685054Y-94308473D01*
X142683392Y-94172997D01*
X142699070Y-94140519D01*
X142699070Y-94140518D01*
X142825950Y-94140518D01*
X142826937Y-94263268D01*
X142835838Y-94310206D01*
X142884010Y-94398991D01*
X142952807Y-94431383D01*
X143024231Y-94410265D01*
X143080284Y-94338523D01*
X143102967Y-94219039D01*
X143102855Y-94194457D01*
X143094558Y-94111147D01*
X143059834Y-94074462D01*
X142980230Y-94060577D01*
X142951598Y-94058690D01*
X142864943Y-94075712D01*
X142825950Y-94140518D01*
X142699070Y-94140518D01*
X142747690Y-94039801D01*
X142769320Y-94014270D01*
X142852727Y-93956301D01*
X142971068Y-93940505D01*
X143009253Y-93941561D01*
G37*
G36*
X140641322Y-93956633D02*
G01*
X140672255Y-93997033D01*
X140653815Y-94033904D01*
X140578042Y-94053561D01*
X140552630Y-94054209D01*
X140506927Y-94068918D01*
X140487733Y-94118499D01*
X140483828Y-94223146D01*
X140484188Y-94268886D01*
X140492359Y-94351151D01*
X140519904Y-94385701D01*
X140578041Y-94392730D01*
X140639495Y-94403794D01*
X140672255Y-94449258D01*
X140657494Y-94483040D01*
X140593356Y-94505787D01*
X140545254Y-94517359D01*
X140494747Y-94581158D01*
X140484998Y-94606669D01*
X140440466Y-94650123D01*
X140392926Y-94648854D01*
X140370771Y-94598818D01*
X140364376Y-94569779D01*
X140314243Y-94519415D01*
X140288113Y-94503404D01*
X140257715Y-94445227D01*
X140264235Y-94420826D01*
X140314242Y-94392730D01*
X140341752Y-94382834D01*
X140364236Y-94327674D01*
X140370771Y-94211840D01*
X140372915Y-94154772D01*
X140389114Y-94048270D01*
X140415994Y-93985727D01*
X140483076Y-93950048D01*
X140568349Y-93940535D01*
X140641322Y-93956633D01*
G37*
G36*
X142111020Y-95086377D02*
G01*
X142141988Y-95124976D01*
X142123491Y-95161115D01*
X142057196Y-95190925D01*
X142047858Y-95192390D01*
X141999313Y-95212866D01*
X141977474Y-95265823D01*
X141972404Y-95372552D01*
X141972473Y-95391237D01*
X141979263Y-95489292D01*
X142004192Y-95536510D01*
X142057196Y-95554179D01*
X142098970Y-95565646D01*
X142140147Y-95607933D01*
X142122378Y-95653028D01*
X142047774Y-95674036D01*
X141986322Y-95685100D01*
X141953561Y-95730564D01*
X141946995Y-95756926D01*
X141897033Y-95787092D01*
X141870670Y-95780525D01*
X141840503Y-95730564D01*
X141833938Y-95704202D01*
X141783976Y-95674037D01*
X141757701Y-95667981D01*
X141727448Y-95621540D01*
X141733892Y-95594801D01*
X141783977Y-95547352D01*
X141799107Y-95538330D01*
X141830579Y-95472843D01*
X141840503Y-95343587D01*
X141842709Y-95285345D01*
X141858924Y-95178758D01*
X141885727Y-95116290D01*
X141952978Y-95081032D01*
X142038050Y-95071391D01*
X142111020Y-95086377D01*
G37*
G36*
X143580788Y-92826069D02*
G01*
X143611721Y-92866469D01*
X143597732Y-92899434D01*
X143536350Y-92922997D01*
X143530936Y-92923062D01*
X143486388Y-92936492D01*
X143465911Y-92986605D01*
X143460979Y-93092582D01*
X143461008Y-93104765D01*
X143466977Y-93204997D01*
X143489249Y-93251071D01*
X143536350Y-93262167D01*
X143580303Y-93272658D01*
X143611721Y-93318695D01*
X143597732Y-93351659D01*
X143536350Y-93375223D01*
X143487627Y-93387610D01*
X143460979Y-93450594D01*
X143448592Y-93499317D01*
X143385608Y-93525965D01*
X143336885Y-93513579D01*
X143310237Y-93450594D01*
X143299745Y-93406641D01*
X143253709Y-93375223D01*
X143227347Y-93368657D01*
X143197181Y-93318695D01*
X143203747Y-93292332D01*
X143253709Y-93262167D01*
X143281219Y-93252270D01*
X143303701Y-93197111D01*
X143310237Y-93081276D01*
X143312382Y-93024209D01*
X143328579Y-92917707D01*
X143355460Y-92855164D01*
X143422542Y-92819484D01*
X143507815Y-92809970D01*
X143580788Y-92826069D01*
G37*
G36*
X143896052Y-92598675D02*
G01*
X143982699Y-92649778D01*
X143995038Y-92662904D01*
X144045307Y-92741773D01*
X144107897Y-92863028D01*
X144173237Y-93005137D01*
X144231758Y-93146570D01*
X144273889Y-93265796D01*
X144290059Y-93341282D01*
X144280614Y-93360211D01*
X144227341Y-93368564D01*
X144205537Y-93357244D01*
X144152552Y-93287160D01*
X144102384Y-93170268D01*
X144076873Y-93100991D01*
X144034975Y-93011810D01*
X144002642Y-92971652D01*
X143979559Y-92987312D01*
X143940548Y-93057739D01*
X143899560Y-93167187D01*
X143872266Y-93244115D01*
X143823232Y-93340263D01*
X143779380Y-93375223D01*
X143767722Y-93374627D01*
X143734474Y-93355312D01*
X143731081Y-93300817D01*
X143758826Y-93200395D01*
X143818991Y-93043299D01*
X143846748Y-92973560D01*
X143894383Y-92836580D01*
X143908391Y-92751889D01*
X143889348Y-92708865D01*
X143837834Y-92696885D01*
X143793882Y-92686393D01*
X143762463Y-92640356D01*
X143768464Y-92614557D01*
X143817116Y-92586613D01*
X143896052Y-92598675D01*
G37*
G36*
X144373639Y-93952601D02*
G01*
X144403116Y-93997033D01*
X144389126Y-94029998D01*
X144327745Y-94053561D01*
X144322330Y-94053626D01*
X144277782Y-94067055D01*
X144257305Y-94117169D01*
X144252375Y-94223146D01*
X144252403Y-94235328D01*
X144258371Y-94335560D01*
X144280644Y-94381633D01*
X144327745Y-94392730D01*
X144371698Y-94403222D01*
X144403116Y-94449258D01*
X144389126Y-94482223D01*
X144327745Y-94505787D01*
X144279021Y-94518174D01*
X144252374Y-94581158D01*
X144239988Y-94629881D01*
X144177003Y-94656529D01*
X144128280Y-94644142D01*
X144101632Y-94581158D01*
X144091140Y-94537205D01*
X144045104Y-94505787D01*
X144018742Y-94499221D01*
X143988576Y-94449258D01*
X143995142Y-94422897D01*
X144045104Y-94392729D01*
X144062532Y-94389523D01*
X144092598Y-94345257D01*
X144101632Y-94239511D01*
X144102127Y-94214261D01*
X144115250Y-94097986D01*
X144140643Y-94013398D01*
X144154852Y-93993657D01*
X144221588Y-93952653D01*
X144303823Y-93938388D01*
X144373639Y-93952601D01*
G37*
G36*
X141572404Y-95075225D02*
G01*
X141599561Y-95102653D01*
X141611642Y-95170893D01*
X141614392Y-95297181D01*
X141609543Y-95394006D01*
X141571866Y-95547909D01*
X141500589Y-95642547D01*
X141400163Y-95673475D01*
X141275032Y-95636249D01*
X141231123Y-95618961D01*
X141181072Y-95636249D01*
X141167619Y-95651002D01*
X141103414Y-95674037D01*
X141081993Y-95666077D01*
X141062195Y-95622202D01*
X141051998Y-95528608D01*
X141049110Y-95372552D01*
X141049346Y-95300008D01*
X141052997Y-95177191D01*
X141063969Y-95108165D01*
X141085942Y-95077825D01*
X141122600Y-95071069D01*
X141145454Y-95073059D01*
X141178887Y-95096792D01*
X141197236Y-95161293D01*
X141207392Y-95283859D01*
X141214022Y-95359350D01*
X141249132Y-95492032D01*
X141311636Y-95555142D01*
X141402000Y-95549317D01*
X141405829Y-95547731D01*
X141440629Y-95512208D01*
X141458564Y-95434537D01*
X141463650Y-95298364D01*
X141465074Y-95196539D01*
X141474263Y-95115367D01*
X141497011Y-95079277D01*
X141539021Y-95071069D01*
X141572404Y-95075225D01*
G37*
G36*
X142568506Y-92787841D02*
G01*
X142643734Y-92808016D01*
X142747557Y-92870674D01*
X142782641Y-92960683D01*
X142766902Y-93025090D01*
X142695872Y-93088717D01*
X142559091Y-93138023D01*
X142544619Y-93141990D01*
X142458563Y-93176332D01*
X142416177Y-93212148D01*
X142414151Y-93229744D01*
X142447283Y-93268338D01*
X142516728Y-93281715D01*
X142594467Y-93262031D01*
X142641773Y-93241822D01*
X142724961Y-93224481D01*
X142743028Y-93226572D01*
X142764879Y-93255774D01*
X142742072Y-93305132D01*
X142687041Y-93356294D01*
X142612219Y-93390909D01*
X142553119Y-93397353D01*
X142441245Y-93375860D01*
X142347145Y-93322670D01*
X142299500Y-93250648D01*
X142305953Y-93173696D01*
X142374827Y-93097917D01*
X142505674Y-93051346D01*
X142528736Y-93046600D01*
X142607387Y-93014720D01*
X142623189Y-92965556D01*
X142612732Y-92938755D01*
X142572113Y-92915824D01*
X142489260Y-92917469D01*
X142349258Y-92942429D01*
X142236202Y-92966010D01*
X142345985Y-92865652D01*
X142387518Y-92830302D01*
X142473887Y-92785472D01*
X142568506Y-92787841D01*
G37*
G36*
X139961914Y-93938602D02*
G01*
X140088132Y-94021856D01*
X140127662Y-94062945D01*
X140129109Y-94082542D01*
X140078960Y-94083255D01*
X139965654Y-94069590D01*
X139916955Y-94063601D01*
X139822532Y-94057684D01*
X139778596Y-94070521D01*
X139767804Y-94105234D01*
X139782715Y-94142038D01*
X139840128Y-94161351D01*
X139956231Y-94166618D01*
X140047259Y-94167843D01*
X140114325Y-94179048D01*
X140140314Y-94211622D01*
X140144659Y-94276939D01*
X140128501Y-94361346D01*
X140045363Y-94465366D01*
X139929994Y-94531415D01*
X139823804Y-94529367D01*
X139709609Y-94457384D01*
X139654931Y-94395298D01*
X139636247Y-94345623D01*
X139774978Y-94345623D01*
X139799298Y-94387251D01*
X139880860Y-94411573D01*
X139941899Y-94400034D01*
X139986743Y-94345623D01*
X139988823Y-94323815D01*
X139963607Y-94289020D01*
X139880860Y-94279674D01*
X139841874Y-94280853D01*
X139782729Y-94298604D01*
X139774978Y-94345623D01*
X139636247Y-94345623D01*
X139607326Y-94268734D01*
X139615338Y-94135814D01*
X139675748Y-94018569D01*
X139785338Y-93939029D01*
X139831607Y-93925667D01*
X139961914Y-93938602D01*
G37*
G36*
X141544267Y-92844382D02*
G01*
X141582802Y-92880956D01*
X141606475Y-92934108D01*
X141569514Y-92953896D01*
X141480498Y-92928946D01*
X141406008Y-92905821D01*
X141310754Y-92924150D01*
X141252377Y-92964648D01*
X141246370Y-93003175D01*
X141311199Y-93027548D01*
X141444807Y-93036054D01*
X141522971Y-93036974D01*
X141606698Y-93045617D01*
X141643732Y-93069006D01*
X141652077Y-93113902D01*
X141651777Y-93127628D01*
X141614310Y-93258947D01*
X141526731Y-93352089D01*
X141407026Y-93394687D01*
X141273182Y-93374378D01*
X141198586Y-93324663D01*
X141118608Y-93215891D01*
X141117465Y-93211462D01*
X141247536Y-93211462D01*
X141315317Y-93263456D01*
X141397244Y-93278336D01*
X141470170Y-93247099D01*
X141501335Y-93182181D01*
X141500203Y-93177852D01*
X141456634Y-93157420D01*
X141369436Y-93149110D01*
X141325525Y-93150897D01*
X141251923Y-93171863D01*
X141247536Y-93211462D01*
X141117465Y-93211462D01*
X141117465Y-93211461D01*
X141086795Y-93092582D01*
X141105894Y-93000196D01*
X141167914Y-92889560D01*
X141251258Y-92816332D01*
X141322830Y-92787879D01*
X141435297Y-92783648D01*
X141544267Y-92844382D01*
G37*
G36*
X142065232Y-93679928D02*
G01*
X142095276Y-93724219D01*
X142104303Y-93829988D01*
X142104448Y-93860945D01*
X142110857Y-93940659D01*
X142135232Y-93966471D01*
X142189095Y-93955427D01*
X142328858Y-93936024D01*
X142448919Y-93977949D01*
X142528020Y-94078010D01*
X142556528Y-94229034D01*
X142556416Y-94236997D01*
X142528222Y-94357786D01*
X142461821Y-94457810D01*
X142373908Y-94519183D01*
X142281182Y-94524016D01*
X142206554Y-94507693D01*
X142094882Y-94499817D01*
X141991246Y-94502752D01*
X141991246Y-94179737D01*
X142124301Y-94179737D01*
X142125979Y-94296393D01*
X142154563Y-94358603D01*
X142235751Y-94415860D01*
X142340548Y-94409701D01*
X142359735Y-94399231D01*
X142410287Y-94327229D01*
X142428036Y-94225855D01*
X142405372Y-94128159D01*
X142364511Y-94083483D01*
X142273887Y-94053561D01*
X142262714Y-94053952D01*
X142173878Y-94092358D01*
X142124301Y-94179737D01*
X141991246Y-94179737D01*
X141991246Y-94089730D01*
X141991884Y-93962226D01*
X141996123Y-93819366D01*
X142005761Y-93732135D01*
X142022432Y-93688570D01*
X142047774Y-93676707D01*
X142065232Y-93679928D01*
G37*
G36*
X144755523Y-93929844D02*
G01*
X144758607Y-93931511D01*
X144823619Y-93944669D01*
X144922118Y-93947373D01*
X145052423Y-93942475D01*
X145036895Y-94186340D01*
X145032919Y-94242909D01*
X145015847Y-94375868D01*
X144983798Y-94456112D01*
X144926559Y-94500783D01*
X144833913Y-94527031D01*
X144736208Y-94529679D01*
X144627820Y-94474453D01*
X144587668Y-94436280D01*
X144562276Y-94381466D01*
X144597127Y-94362036D01*
X144683271Y-94391400D01*
X144690799Y-94395291D01*
X144789052Y-94421309D01*
X144863509Y-94400192D01*
X144893027Y-94337385D01*
X144892773Y-94331827D01*
X144859491Y-94292021D01*
X144763819Y-94279674D01*
X144756672Y-94279604D01*
X144635356Y-94253191D01*
X144554725Y-94190572D01*
X144525074Y-94116688D01*
X144673351Y-94116688D01*
X144702701Y-94164311D01*
X144793021Y-94197704D01*
X144829264Y-94200757D01*
X144881831Y-94189293D01*
X144886590Y-94141175D01*
X144857239Y-94093553D01*
X144766920Y-94060160D01*
X144730677Y-94057108D01*
X144678110Y-94068571D01*
X144673351Y-94116688D01*
X144525074Y-94116688D01*
X144521796Y-94108519D01*
X144543589Y-94023795D01*
X144627124Y-93953168D01*
X144698145Y-93928349D01*
X144755523Y-93929844D01*
G37*
G36*
X139078648Y-92811817D02*
G01*
X139114298Y-92826416D01*
X139192773Y-92886278D01*
X139243130Y-92983593D01*
X139269969Y-93130543D01*
X139277893Y-93339311D01*
X139277633Y-93416154D01*
X139273897Y-93536462D01*
X139262681Y-93603575D01*
X139240164Y-93632693D01*
X139202522Y-93639021D01*
X139172625Y-93635678D01*
X139147965Y-93614403D01*
X139134283Y-93560758D01*
X139128405Y-93460415D01*
X139127151Y-93299044D01*
X139126131Y-93144253D01*
X139120325Y-93038533D01*
X139105763Y-92976310D01*
X139078472Y-92941206D01*
X139034481Y-92916844D01*
X139015520Y-92908736D01*
X138933654Y-92896651D01*
X138846054Y-92937363D01*
X138811013Y-92962475D01*
X138777641Y-93002125D01*
X138759424Y-93062778D01*
X138751822Y-93162552D01*
X138750297Y-93319563D01*
X138749709Y-93440009D01*
X138745154Y-93549344D01*
X138732882Y-93609062D01*
X138709174Y-93634005D01*
X138670316Y-93639021D01*
X138633677Y-93635348D01*
X138610612Y-93614431D01*
X138600216Y-93561767D01*
X138599729Y-93462858D01*
X138606391Y-93303205D01*
X138613126Y-93192098D01*
X138633295Y-93031641D01*
X138668152Y-92923933D01*
X138723594Y-92854310D01*
X138805517Y-92808114D01*
X138887689Y-92781151D01*
X138969454Y-92780464D01*
X139078648Y-92811817D01*
G37*
G36*
X139405155Y-93941015D02*
G01*
X139433491Y-93951266D01*
X139451408Y-93984766D01*
X139461272Y-94054543D01*
X139465453Y-94173626D01*
X139466320Y-94355045D01*
X139466121Y-94494515D01*
X139463758Y-94628527D01*
X139456341Y-94709920D01*
X139440976Y-94751814D01*
X139414767Y-94767329D01*
X139374814Y-94769585D01*
X139351671Y-94768259D01*
X139300211Y-94745868D01*
X139256210Y-94683160D01*
X139206333Y-94563850D01*
X139174754Y-94476956D01*
X139131843Y-94350626D01*
X139104914Y-94260725D01*
X139091395Y-94217529D01*
X139059661Y-94179813D01*
X139019043Y-94207507D01*
X138966912Y-94303302D01*
X138900639Y-94469886D01*
X138892831Y-94491134D01*
X138839258Y-94626837D01*
X138795960Y-94707306D01*
X138752570Y-94747572D01*
X138698724Y-94762667D01*
X138599554Y-94774591D01*
X138599554Y-94357548D01*
X138599657Y-94275684D01*
X138601557Y-94120376D01*
X138607686Y-94022195D01*
X138620392Y-93968151D01*
X138642022Y-93945251D01*
X138674926Y-93940505D01*
X138675627Y-93940506D01*
X138715653Y-93948168D01*
X138738170Y-93981848D01*
X138748083Y-94057980D01*
X138750297Y-94192997D01*
X138754998Y-94330155D01*
X138770404Y-94398344D01*
X138797910Y-94393750D01*
X138838913Y-94316104D01*
X138894809Y-94165138D01*
X138941973Y-94048187D01*
X139001129Y-93966618D01*
X139060413Y-93960246D01*
X139120944Y-94029101D01*
X139183842Y-94173215D01*
X139237295Y-94315334D01*
X139275785Y-94391850D01*
X139299778Y-94396491D01*
X139312100Y-94329656D01*
X139315579Y-94191741D01*
X139315579Y-94191503D01*
X139317821Y-94056986D01*
X139327837Y-93981294D01*
X139350566Y-93947957D01*
X139390950Y-93940505D01*
X139405155Y-93941015D01*
G37*
G36*
X143653777Y-87750850D02*
G01*
X143653777Y-87984703D01*
X143581822Y-87984703D01*
X143509866Y-87984703D01*
X143509866Y-87750850D01*
X143509867Y-87516998D01*
X143581822Y-87516998D01*
X143653778Y-87516998D01*
X143653777Y-87750850D01*
G37*
G36*
X143749716Y-88626299D02*
G01*
X143749716Y-88860152D01*
X143683758Y-88860152D01*
X143617799Y-88860152D01*
X143617799Y-88626299D01*
X143617799Y-88392446D01*
X143683758Y-88392446D01*
X143749716Y-88392446D01*
X143749716Y-88626299D01*
G37*
G36*
X145728470Y-90461143D02*
G01*
X145728470Y-90790935D01*
X145662511Y-90790935D01*
X145596553Y-90790935D01*
X145596553Y-90461143D01*
X145596553Y-90131351D01*
X145662511Y-90131351D01*
X145728470Y-90131351D01*
X145728470Y-90461143D01*
G37*
G36*
X145956326Y-88626299D02*
G01*
X145956326Y-88860152D01*
X145890368Y-88860152D01*
X145824409Y-88860152D01*
X145824409Y-88626299D01*
X145824409Y-88392446D01*
X145890368Y-88392446D01*
X145956326Y-88392446D01*
X145956326Y-88626299D01*
G37*
G36*
X145992304Y-90371201D02*
G01*
X145992303Y-90611049D01*
X145926344Y-90611049D01*
X145860387Y-90611049D01*
X145860387Y-90371200D01*
X145860387Y-90131351D01*
X145926345Y-90131351D01*
X145992304Y-90131351D01*
X145992304Y-90371201D01*
G37*
G36*
X139609813Y-88468229D02*
G01*
X139610808Y-88491474D01*
X139611603Y-88532284D01*
X139612131Y-88586580D01*
X139612323Y-88650284D01*
X139612323Y-88836166D01*
X139423587Y-88836167D01*
X139234851Y-88836166D01*
X139420443Y-88650284D01*
X139444472Y-88626244D01*
X139496411Y-88574473D01*
X139541323Y-88529969D01*
X139576737Y-88495166D01*
X139600179Y-88472499D01*
X139609179Y-88464401D01*
X139609813Y-88468229D01*
G37*
G36*
X143623001Y-88082463D02*
G01*
X143643533Y-88095386D01*
X143661494Y-88126076D01*
X143659094Y-88169020D01*
X143650035Y-88188172D01*
X143623361Y-88209223D01*
X143588071Y-88218263D01*
X143551431Y-88215158D01*
X143520701Y-88199768D01*
X143503144Y-88171958D01*
X143498608Y-88142661D01*
X143506566Y-88107736D01*
X143533958Y-88084119D01*
X143560077Y-88072862D01*
X143588739Y-88070524D01*
X143623001Y-88082463D01*
G37*
G36*
X143725603Y-88956243D02*
G01*
X143751590Y-88981275D01*
X143761710Y-89017055D01*
X143761706Y-89017817D01*
X143751891Y-89056380D01*
X143723595Y-89079993D01*
X143677585Y-89088007D01*
X143648067Y-89083949D01*
X143614817Y-89065249D01*
X143596917Y-89036150D01*
X143597026Y-89001985D01*
X143617799Y-88968084D01*
X143617950Y-88967934D01*
X143652230Y-88947342D01*
X143690299Y-88944189D01*
X143725603Y-88956243D01*
G37*
G36*
X145962511Y-90696836D02*
G01*
X145989833Y-90716144D01*
X145996820Y-90727880D01*
X146003219Y-90764749D01*
X145991714Y-90800132D01*
X145964436Y-90824909D01*
X145926060Y-90835087D01*
X145885230Y-90826451D01*
X145853220Y-90796828D01*
X145851928Y-90794798D01*
X145839911Y-90757191D01*
X145848151Y-90722365D01*
X145875117Y-90697292D01*
X145884944Y-90693281D01*
X145923932Y-90688621D01*
X145962511Y-90696836D01*
G37*
G36*
X138852427Y-88465990D02*
G01*
X138867228Y-88480734D01*
X138895483Y-88508963D01*
X138934763Y-88548251D01*
X138982640Y-88596167D01*
X139036685Y-88650284D01*
X139222278Y-88836167D01*
X138850802Y-88836167D01*
X138479327Y-88836166D01*
X138664919Y-88650284D01*
X138689156Y-88626011D01*
X138740803Y-88574307D01*
X138785219Y-88529866D01*
X138819977Y-88495115D01*
X138842647Y-88472484D01*
X138850802Y-88464402D01*
X138852427Y-88465990D01*
G37*
G36*
X145915381Y-88946520D02*
G01*
X145950037Y-88960390D01*
X145959571Y-88970594D01*
X145970847Y-89002177D01*
X145970172Y-89038777D01*
X145956857Y-89069380D01*
X145956187Y-89070154D01*
X145931082Y-89083382D01*
X145894819Y-89087614D01*
X145858009Y-89082868D01*
X145831262Y-89069162D01*
X145830905Y-89068801D01*
X145814958Y-89037306D01*
X145815448Y-88999438D01*
X145832264Y-88966030D01*
X145841206Y-88958398D01*
X145875446Y-88946031D01*
X145915381Y-88946520D01*
G37*
G36*
X140250823Y-89228820D02*
G01*
X140535730Y-89513542D01*
X140287005Y-89762478D01*
X140038280Y-90011415D01*
X140265905Y-90239277D01*
X140493531Y-90467139D01*
X140259963Y-90467139D01*
X140026395Y-90467139D01*
X139873325Y-90314409D01*
X139720255Y-90161678D01*
X139720255Y-90011444D01*
X139720255Y-89861210D01*
X139894150Y-89687625D01*
X140068045Y-89514040D01*
X139894150Y-89339854D01*
X139720255Y-89165669D01*
X139720255Y-89054884D01*
X139720255Y-88944099D01*
X139843085Y-88944099D01*
X139965916Y-88944099D01*
X140250823Y-89228820D01*
G37*
G36*
X138637565Y-89652042D02*
G01*
X138653638Y-89662617D01*
X138681500Y-89688614D01*
X138722246Y-89731113D01*
X138776968Y-89791192D01*
X138810686Y-89828794D01*
X138706729Y-89915624D01*
X138602772Y-90002453D01*
X138537906Y-89938392D01*
X138532581Y-89933078D01*
X138502384Y-89900604D01*
X138481097Y-89873742D01*
X138473040Y-89857859D01*
X138476065Y-89849408D01*
X138491239Y-89824101D01*
X138516300Y-89788203D01*
X138547993Y-89746545D01*
X138570006Y-89719356D01*
X138600114Y-89684468D01*
X138623171Y-89660557D01*
X138635439Y-89651678D01*
X138637565Y-89652042D01*
G37*
G36*
X138144557Y-88521928D02*
G01*
X138164898Y-88538046D01*
X138195253Y-88565927D01*
X138237880Y-88607358D01*
X138295037Y-88664131D01*
X138461420Y-88830170D01*
X138279671Y-88833490D01*
X138246664Y-88833983D01*
X138187010Y-88834269D01*
X138138369Y-88833702D01*
X138105063Y-88832355D01*
X138091410Y-88830300D01*
X138090152Y-88819880D01*
X138091077Y-88790302D01*
X138094073Y-88747291D01*
X138098596Y-88696433D01*
X138104099Y-88643312D01*
X138110039Y-88593513D01*
X138115872Y-88552620D01*
X138121054Y-88526218D01*
X138124889Y-88517818D01*
X138131973Y-88515781D01*
X138144557Y-88521928D01*
G37*
G36*
X139612323Y-87382223D02*
G01*
X139612323Y-87451320D01*
X139420453Y-87642907D01*
X139228585Y-87834496D01*
X139060495Y-87666753D01*
X139031685Y-87638097D01*
X138979099Y-87585671D01*
X138942145Y-87546647D01*
X138920359Y-87518137D01*
X138913272Y-87497252D01*
X138920417Y-87481104D01*
X138941328Y-87466807D01*
X138975537Y-87451470D01*
X139022578Y-87432207D01*
X139115200Y-87398457D01*
X139221860Y-87367552D01*
X139330649Y-87342717D01*
X139430579Y-87326788D01*
X139432889Y-87326525D01*
X139484578Y-87321117D01*
X139532785Y-87316875D01*
X139567351Y-87314695D01*
X139612323Y-87313126D01*
X139612323Y-87382223D01*
G37*
G36*
X138186865Y-89675731D02*
G01*
X138203732Y-89685328D01*
X138232896Y-89708162D01*
X138270545Y-89740625D01*
X138312865Y-89779114D01*
X138356041Y-89820021D01*
X138396261Y-89859741D01*
X138429711Y-89894669D01*
X138452578Y-89921198D01*
X138461048Y-89935725D01*
X138456142Y-89944657D01*
X138436900Y-89968901D01*
X138405655Y-90004615D01*
X138365156Y-90048679D01*
X138318152Y-90097970D01*
X138175257Y-90245279D01*
X138132269Y-90203951D01*
X138089282Y-90162623D01*
X138089282Y-89964608D01*
X138089282Y-89766592D01*
X138133689Y-89721115D01*
X138151217Y-89703777D01*
X138173845Y-89683529D01*
X138185967Y-89675638D01*
X138186865Y-89675731D01*
G37*
G36*
X139520245Y-89679017D02*
G01*
X139540044Y-89695130D01*
X139566845Y-89720045D01*
X139612323Y-89764453D01*
X139612323Y-89963538D01*
X139612324Y-90162623D01*
X139569159Y-90203951D01*
X139525995Y-90245279D01*
X139383275Y-90096624D01*
X139345893Y-90057158D01*
X139303904Y-90011385D01*
X139270531Y-89973325D01*
X139248505Y-89946113D01*
X139240557Y-89932879D01*
X139242498Y-89928543D01*
X139258341Y-89909173D01*
X139287546Y-89878613D01*
X139326991Y-89840060D01*
X139373551Y-89796713D01*
X139396841Y-89775613D01*
X139441129Y-89736103D01*
X139477591Y-89704391D01*
X139502958Y-89683296D01*
X139513956Y-89675638D01*
X139520245Y-89679017D01*
G37*
G36*
X142382577Y-88452408D02*
G01*
X142382577Y-88512372D01*
X142232673Y-88512371D01*
X142082766Y-88512371D01*
X142082766Y-88578328D01*
X142082767Y-88644288D01*
X142208687Y-88644288D01*
X142334608Y-88644288D01*
X142334608Y-88704250D01*
X142334608Y-88764212D01*
X142208687Y-88764212D01*
X142082767Y-88764212D01*
X142082766Y-88824174D01*
X142082766Y-88884137D01*
X142226676Y-88884136D01*
X142370585Y-88884136D01*
X142370585Y-88950095D01*
X142370585Y-89016053D01*
X142160717Y-89016053D01*
X141950849Y-89016053D01*
X141950849Y-88704250D01*
X141950849Y-88392446D01*
X142166713Y-88392446D01*
X142382577Y-88392446D01*
X142382577Y-88452408D01*
G37*
G36*
X144457271Y-87690888D02*
G01*
X144457271Y-87864779D01*
X144505240Y-87864778D01*
X144553210Y-87864779D01*
X144553210Y-87924741D01*
X144553210Y-87984703D01*
X144505239Y-87984703D01*
X144457271Y-87984703D01*
X144457271Y-88044665D01*
X144457271Y-88104627D01*
X144391312Y-88104627D01*
X144325354Y-88104627D01*
X144325354Y-88044665D01*
X144325354Y-87984703D01*
X144283380Y-87984703D01*
X144241407Y-87984703D01*
X144241407Y-87924741D01*
X144241407Y-87864779D01*
X144283380Y-87864779D01*
X144325354Y-87864779D01*
X144325354Y-87690888D01*
X144325354Y-87516998D01*
X144391313Y-87516998D01*
X144457271Y-87516998D01*
X144457271Y-87690888D01*
G37*
G36*
X146292115Y-90305241D02*
G01*
X146292115Y-90479132D01*
X146340085Y-90479132D01*
X146388054Y-90479133D01*
X146388054Y-90545090D01*
X146388054Y-90611049D01*
X146340085Y-90611049D01*
X146292115Y-90611049D01*
X146292115Y-90665015D01*
X146292115Y-90718981D01*
X146226156Y-90718981D01*
X146160198Y-90718981D01*
X146160198Y-90665015D01*
X146160197Y-90611049D01*
X146112227Y-90611049D01*
X146064259Y-90611049D01*
X146064259Y-90545090D01*
X146064258Y-90479132D01*
X146112228Y-90479132D01*
X146160198Y-90479132D01*
X146160197Y-90305241D01*
X146160198Y-90131351D01*
X146226156Y-90131351D01*
X146292115Y-90131351D01*
X146292115Y-90305241D01*
G37*
G36*
X147983050Y-89435789D02*
G01*
X147983049Y-89615676D01*
X148025023Y-89615676D01*
X148066997Y-89615676D01*
X148066996Y-89675638D01*
X148066997Y-89735600D01*
X148025023Y-89735600D01*
X147983049Y-89735600D01*
X147983050Y-89795562D01*
X147983050Y-89855525D01*
X147911095Y-89855525D01*
X147839140Y-89855525D01*
X147839140Y-89795562D01*
X147839140Y-89735600D01*
X147797167Y-89735600D01*
X147755193Y-89735600D01*
X147755193Y-89675638D01*
X147755193Y-89615676D01*
X147797167Y-89615676D01*
X147839140Y-89615676D01*
X147839140Y-89435789D01*
X147839140Y-89255902D01*
X147911095Y-89255902D01*
X147983050Y-89255902D01*
X147983050Y-89435789D01*
G37*
G36*
X143377950Y-90305241D02*
G01*
X143377950Y-90479133D01*
X143425919Y-90479132D01*
X143473890Y-90479132D01*
X143473890Y-90545090D01*
X143473890Y-90611049D01*
X143425920Y-90611049D01*
X143377950Y-90611049D01*
X143377950Y-90665015D01*
X143377950Y-90718980D01*
X143311992Y-90718981D01*
X143246034Y-90718981D01*
X143246034Y-90665015D01*
X143245776Y-90641000D01*
X143242062Y-90620008D01*
X143229850Y-90612201D01*
X143204060Y-90611049D01*
X143162086Y-90611049D01*
X143162086Y-90545090D01*
X143162086Y-90479133D01*
X143204060Y-90479132D01*
X143246034Y-90479132D01*
X143246034Y-90305241D01*
X143246034Y-90131351D01*
X143311992Y-90131351D01*
X143377950Y-90131351D01*
X143377950Y-90305241D01*
G37*
G36*
X139190153Y-89995715D02*
G01*
X139213563Y-90018296D01*
X139246504Y-90051697D01*
X139285695Y-90092423D01*
X139327858Y-90136983D01*
X139369711Y-90181883D01*
X139407973Y-90223631D01*
X139439364Y-90258733D01*
X139460604Y-90283695D01*
X139468413Y-90295026D01*
X139465784Y-90300107D01*
X139449813Y-90319895D01*
X139422568Y-90349893D01*
X139387786Y-90385889D01*
X139307158Y-90467139D01*
X139216629Y-90467139D01*
X139126099Y-90467139D01*
X139025399Y-90365914D01*
X138924700Y-90264688D01*
X138971268Y-90207014D01*
X138978454Y-90198256D01*
X139012446Y-90158759D01*
X139053815Y-90112720D01*
X139095187Y-90068390D01*
X139114032Y-90048886D01*
X139145572Y-90017321D01*
X139168756Y-89995556D01*
X139179564Y-89987447D01*
X139190153Y-89995715D01*
G37*
G36*
X139671274Y-90313800D02*
G01*
X139691532Y-90330160D01*
X139723571Y-90359126D01*
X139764191Y-90397768D01*
X139810198Y-90443154D01*
X139941706Y-90575071D01*
X140592500Y-90575071D01*
X141243295Y-90575071D01*
X141243295Y-90677007D01*
X141243295Y-90778943D01*
X140550982Y-90778943D01*
X139858669Y-90778942D01*
X139762213Y-90682988D01*
X139665757Y-90587033D01*
X139570365Y-90682988D01*
X139474972Y-90778943D01*
X138782126Y-90778943D01*
X138089282Y-90778943D01*
X138089282Y-90677007D01*
X138089282Y-90575071D01*
X138740077Y-90575071D01*
X139390871Y-90575071D01*
X139522379Y-90443154D01*
X139548401Y-90417293D01*
X139591812Y-90375290D01*
X139628062Y-90341659D01*
X139653953Y-90319331D01*
X139666289Y-90311237D01*
X139671274Y-90313800D01*
G37*
G36*
X145308734Y-89398483D02*
G01*
X145308752Y-89409457D01*
X145310406Y-89480697D01*
X145315871Y-89531595D01*
X145326729Y-89565297D01*
X145344566Y-89584950D01*
X145370964Y-89593701D01*
X145407509Y-89594696D01*
X145460971Y-89592369D01*
X145476002Y-89659533D01*
X145479247Y-89674467D01*
X145484808Y-89708152D01*
X145483368Y-89726943D01*
X145474836Y-89736962D01*
X145452615Y-89745019D01*
X145411066Y-89743145D01*
X145365714Y-89726414D01*
X145323725Y-89696733D01*
X145296742Y-89671457D01*
X145296742Y-89703529D01*
X145295608Y-89720608D01*
X145288164Y-89730846D01*
X145268520Y-89734889D01*
X145230783Y-89735600D01*
X145164824Y-89735600D01*
X145164825Y-89495751D01*
X145164825Y-89255902D01*
X145236780Y-89255902D01*
X145308734Y-89255902D01*
X145308734Y-89398483D01*
G37*
G36*
X145572568Y-88530904D02*
G01*
X145572647Y-88569813D01*
X145573519Y-88617552D01*
X145576112Y-88649416D01*
X145581344Y-88670448D01*
X145590134Y-88685694D01*
X145603401Y-88700195D01*
X145620279Y-88715238D01*
X145645190Y-88725793D01*
X145679479Y-88723793D01*
X145724724Y-88716558D01*
X145739410Y-88782178D01*
X145740554Y-88787357D01*
X145747996Y-88830981D01*
X145745601Y-88856750D01*
X145731683Y-88869021D01*
X145704558Y-88872144D01*
X145694277Y-88871848D01*
X145634388Y-88857774D01*
X145585039Y-88824653D01*
X145560576Y-88800189D01*
X145560576Y-88830170D01*
X145559495Y-88845144D01*
X145552062Y-88855260D01*
X145532393Y-88859373D01*
X145494617Y-88860152D01*
X145428659Y-88860152D01*
X145428659Y-88626299D01*
X145428659Y-88392446D01*
X145500613Y-88392446D01*
X145572568Y-88392446D01*
X145572568Y-88530904D01*
G37*
G36*
X138525560Y-89989669D02*
G01*
X138542245Y-90003951D01*
X138569745Y-90030614D01*
X138604404Y-90065809D01*
X138642569Y-90105693D01*
X138680585Y-90146414D01*
X138714796Y-90184130D01*
X138741550Y-90214993D01*
X138757190Y-90235156D01*
X138764478Y-90247371D01*
X138766994Y-90259279D01*
X138761700Y-90273412D01*
X138746307Y-90293456D01*
X138718534Y-90323098D01*
X138676095Y-90366024D01*
X138575506Y-90467139D01*
X138487129Y-90467139D01*
X138398753Y-90467139D01*
X138315972Y-90387221D01*
X138294874Y-90366471D01*
X138263150Y-90333564D01*
X138241317Y-90308604D01*
X138233191Y-90295807D01*
X138237953Y-90287863D01*
X138256882Y-90264635D01*
X138287701Y-90229650D01*
X138327682Y-90185989D01*
X138374103Y-90136724D01*
X138410867Y-90098462D01*
X138453501Y-90054768D01*
X138488251Y-90019936D01*
X138512252Y-89996824D01*
X138522644Y-89988288D01*
X138525560Y-89989669D01*
G37*
G36*
X143679755Y-90276346D02*
G01*
X143681084Y-90320603D01*
X143683325Y-90368384D01*
X143686757Y-90400070D01*
X143692313Y-90420350D01*
X143700933Y-90433911D01*
X143713554Y-90445442D01*
X143715929Y-90447321D01*
X143747963Y-90463201D01*
X143788357Y-90463506D01*
X143797364Y-90462341D01*
X143822835Y-90461868D01*
X143835699Y-90472867D01*
X143844842Y-90501280D01*
X143855909Y-90543055D01*
X143864600Y-90579204D01*
X143865859Y-90599702D01*
X143858370Y-90608924D01*
X143840821Y-90611247D01*
X143811899Y-90611049D01*
X143782276Y-90609788D01*
X143746236Y-90600805D01*
X143714659Y-90580001D01*
X143677762Y-90548954D01*
X143677762Y-90580001D01*
X143676651Y-90596056D01*
X143669212Y-90606231D01*
X143649556Y-90610306D01*
X143611803Y-90611049D01*
X143545845Y-90611049D01*
X143545845Y-90371200D01*
X143545845Y-90131351D01*
X143610799Y-90131351D01*
X143675753Y-90131351D01*
X143679755Y-90276346D01*
G37*
G36*
X144277383Y-89255902D02*
G01*
X144349339Y-89255902D01*
X144349339Y-89398483D01*
X144349360Y-89410416D01*
X144351040Y-89481380D01*
X144356542Y-89532042D01*
X144367460Y-89565551D01*
X144385393Y-89585059D01*
X144411930Y-89593716D01*
X144448670Y-89594672D01*
X144472272Y-89593922D01*
X144494264Y-89596949D01*
X144504600Y-89609597D01*
X144510780Y-89636977D01*
X144511482Y-89640826D01*
X144518709Y-89678061D01*
X144525053Y-89707443D01*
X144526653Y-89717208D01*
X144520342Y-89732217D01*
X144495496Y-89741103D01*
X144488973Y-89742227D01*
X144444344Y-89739089D01*
X144397008Y-89721928D01*
X144357857Y-89694436D01*
X144346438Y-89683754D01*
X144338726Y-89683625D01*
X144337346Y-89704762D01*
X144336241Y-89720606D01*
X144328803Y-89730768D01*
X144309145Y-89734850D01*
X144271388Y-89735600D01*
X144205429Y-89735600D01*
X144205429Y-89495751D01*
X144205429Y-89255901D01*
X144277383Y-89255902D01*
G37*
G36*
X139330998Y-88992331D02*
G01*
X139347884Y-89002968D01*
X139375170Y-89026048D01*
X139407724Y-89057291D01*
X139428613Y-89078619D01*
X139452054Y-89104526D01*
X139462387Y-89121706D01*
X139462136Y-89135245D01*
X139453826Y-89150232D01*
X139451986Y-89152942D01*
X139430566Y-89180875D01*
X139396641Y-89221750D01*
X139353675Y-89271636D01*
X139305136Y-89326602D01*
X139254491Y-89382712D01*
X139205206Y-89436039D01*
X139160746Y-89482650D01*
X139074138Y-89571484D01*
X138988164Y-89495263D01*
X138967122Y-89476254D01*
X138932307Y-89443069D01*
X138906904Y-89416542D01*
X138895321Y-89401141D01*
X138897344Y-89388105D01*
X138917001Y-89360544D01*
X138955049Y-89322569D01*
X138969227Y-89309637D01*
X139008601Y-89273647D01*
X139058259Y-89228194D01*
X139113259Y-89177799D01*
X139168664Y-89126983D01*
X139204570Y-89094409D01*
X139250757Y-89053696D01*
X139289126Y-89021263D01*
X139316448Y-88999818D01*
X139329497Y-88992068D01*
X139330998Y-88992331D01*
G37*
G36*
X140394461Y-87471991D02*
G01*
X140426840Y-87486473D01*
X140471835Y-87510940D01*
X140525261Y-87543072D01*
X140582941Y-87580548D01*
X140586956Y-87583270D01*
X140691775Y-87663597D01*
X140795317Y-87759483D01*
X140892224Y-87865106D01*
X140977139Y-87974645D01*
X141044705Y-88082279D01*
X141088097Y-88161865D01*
X141052030Y-88192214D01*
X140976869Y-88242389D01*
X140882056Y-88278200D01*
X140774410Y-88294032D01*
X140709328Y-88294163D01*
X140600872Y-88278081D01*
X140504283Y-88241297D01*
X140420145Y-88184155D01*
X140349040Y-88106998D01*
X140291553Y-88010167D01*
X140290957Y-88008906D01*
X140273957Y-87971000D01*
X140263141Y-87939145D01*
X140257138Y-87905833D01*
X140254580Y-87863559D01*
X140254098Y-87804817D01*
X140254847Y-87761561D01*
X140261132Y-87691132D01*
X140275820Y-87631842D01*
X140301322Y-87575521D01*
X140340057Y-87514000D01*
X140349555Y-87500925D01*
X140369202Y-87478072D01*
X140381948Y-87469028D01*
X140394461Y-87471991D01*
G37*
G36*
X141030554Y-89157086D02*
G01*
X141243295Y-89370074D01*
X141243295Y-89513715D01*
X141243295Y-89657359D01*
X141066557Y-89834393D01*
X140889817Y-90011426D01*
X141066557Y-90188460D01*
X141108433Y-90230471D01*
X141157129Y-90279868D01*
X141192427Y-90317025D01*
X141216480Y-90344714D01*
X141231441Y-90365713D01*
X141239462Y-90382796D01*
X141242696Y-90398739D01*
X141243295Y-90416317D01*
X141243295Y-90467139D01*
X141060292Y-90467139D01*
X140877289Y-90467139D01*
X140649663Y-90239277D01*
X140422038Y-90011415D01*
X140670765Y-89762476D01*
X140919492Y-89513537D01*
X140643669Y-89237910D01*
X140602258Y-89196424D01*
X140538976Y-89132607D01*
X140482710Y-89075345D01*
X140435461Y-89026706D01*
X140399233Y-88988754D01*
X140376027Y-88963560D01*
X140367847Y-88953191D01*
X140367859Y-88953094D01*
X140379954Y-88950255D01*
X140412205Y-88947786D01*
X140460906Y-88945837D01*
X140522350Y-88944558D01*
X140592830Y-88944099D01*
X140817813Y-88944099D01*
X141030554Y-89157086D01*
G37*
G36*
X142246371Y-89259410D02*
G01*
X142317485Y-89278314D01*
X142379256Y-89313887D01*
X142426778Y-89365006D01*
X142434058Y-89376117D01*
X142443871Y-89392961D01*
X142451005Y-89410717D01*
X142455975Y-89433229D01*
X142459291Y-89464341D01*
X142461466Y-89507900D01*
X142463013Y-89567751D01*
X142464443Y-89647738D01*
X142468359Y-89879509D01*
X142395487Y-89879509D01*
X142322615Y-89879510D01*
X142322615Y-89670564D01*
X142322615Y-89461619D01*
X142285715Y-89424719D01*
X142264229Y-89406518D01*
X142219831Y-89388069D01*
X142174132Y-89393487D01*
X142127927Y-89422785D01*
X142088763Y-89457752D01*
X142084991Y-89668631D01*
X142081219Y-89879509D01*
X142010039Y-89879509D01*
X141938857Y-89879510D01*
X141938857Y-89671431D01*
X141939051Y-89628242D01*
X141941557Y-89536822D01*
X141947854Y-89464815D01*
X141959068Y-89409042D01*
X141976322Y-89366316D01*
X142000742Y-89333458D01*
X142033452Y-89307284D01*
X142075577Y-89284613D01*
X142095775Y-89276112D01*
X142170830Y-89258301D01*
X142246371Y-89259410D01*
G37*
G36*
X144003603Y-88549435D02*
G01*
X144005233Y-88607035D01*
X144007463Y-88654021D01*
X144010849Y-88685323D01*
X144016182Y-88705359D01*
X144024258Y-88718552D01*
X144035865Y-88729322D01*
X144046351Y-88736801D01*
X144085259Y-88751005D01*
X144122521Y-88747180D01*
X144150783Y-88725566D01*
X144154957Y-88718466D01*
X144161933Y-88696926D01*
X144166392Y-88663667D01*
X144168758Y-88614611D01*
X144169452Y-88545680D01*
X144169452Y-88392446D01*
X144235410Y-88392446D01*
X144301369Y-88392446D01*
X144301369Y-88573519D01*
X144301202Y-88612488D01*
X144299183Y-88688376D01*
X144294094Y-88745309D01*
X144284967Y-88786776D01*
X144270834Y-88816260D01*
X144250727Y-88837248D01*
X144223677Y-88853229D01*
X144185726Y-88866516D01*
X144121335Y-88869176D01*
X144052526Y-88848482D01*
X144050055Y-88847363D01*
X144019795Y-88835078D01*
X144005287Y-88833727D01*
X144001557Y-88842749D01*
X143996338Y-88852536D01*
X143975769Y-88858432D01*
X143935599Y-88860152D01*
X143869641Y-88860152D01*
X143869641Y-88626299D01*
X143869641Y-88392446D01*
X143934646Y-88392446D01*
X143999652Y-88392446D01*
X144003603Y-88549435D01*
G37*
G36*
X139612323Y-87960999D02*
G01*
X139612323Y-88158876D01*
X139420397Y-88350518D01*
X139228471Y-88542164D01*
X139039729Y-88353420D01*
X138850987Y-88164678D01*
X138662045Y-88353343D01*
X138473104Y-88542006D01*
X138341156Y-88410467D01*
X138317857Y-88386905D01*
X138274588Y-88341125D01*
X138240162Y-88301931D01*
X138217419Y-88272641D01*
X138209206Y-88256569D01*
X138210232Y-88250388D01*
X138219784Y-88223590D01*
X138236967Y-88184490D01*
X138258825Y-88139100D01*
X138282404Y-88093429D01*
X138304749Y-88053488D01*
X138322904Y-88025289D01*
X138328503Y-88018408D01*
X138338129Y-88013128D01*
X138351426Y-88018198D01*
X138372769Y-88035877D01*
X138406534Y-88068420D01*
X138473403Y-88134148D01*
X138656057Y-87951492D01*
X138676746Y-87930882D01*
X138729410Y-87879143D01*
X138775796Y-87834595D01*
X138813265Y-87799713D01*
X138839179Y-87776970D01*
X138850898Y-87768839D01*
X138853888Y-87770303D01*
X138871833Y-87784863D01*
X138902896Y-87813039D01*
X138944467Y-87852378D01*
X138993932Y-87900424D01*
X139048682Y-87954726D01*
X139234279Y-88140614D01*
X139423301Y-87951869D01*
X139612324Y-87763124D01*
X139612323Y-87960999D01*
G37*
G36*
X142622426Y-88544577D02*
G01*
X142622521Y-88584897D01*
X142623399Y-88636625D01*
X142625760Y-88671787D01*
X142630281Y-88695042D01*
X142637637Y-88711048D01*
X142648502Y-88724464D01*
X142654317Y-88730075D01*
X142689553Y-88748688D01*
X142727574Y-88750026D01*
X142759483Y-88733374D01*
X142766801Y-88722478D01*
X142772460Y-88702456D01*
X142775994Y-88670232D01*
X142777813Y-88621883D01*
X142778328Y-88553488D01*
X142778328Y-88392446D01*
X142851564Y-88392446D01*
X142924800Y-88392446D01*
X142920055Y-88575331D01*
X142918497Y-88624686D01*
X142914241Y-88698279D01*
X142907209Y-88753264D01*
X142896278Y-88793104D01*
X142880326Y-88821259D01*
X142858228Y-88841190D01*
X142828861Y-88856363D01*
X142812446Y-88862115D01*
X142754090Y-88869511D01*
X142694946Y-88860832D01*
X142645163Y-88837140D01*
X142637407Y-88831422D01*
X142618527Y-88818916D01*
X142611483Y-88820452D01*
X142610434Y-88835808D01*
X142609694Y-88844648D01*
X142602392Y-88854665D01*
X142582555Y-88859131D01*
X142544475Y-88860152D01*
X142478517Y-88860152D01*
X142478517Y-88626299D01*
X142478517Y-88392446D01*
X142550472Y-88392446D01*
X142622426Y-88392446D01*
X142622426Y-88544577D01*
G37*
G36*
X142730358Y-89255902D02*
G01*
X142730358Y-89416930D01*
X142730363Y-89437973D01*
X142730657Y-89496754D01*
X142731949Y-89537185D01*
X142734981Y-89563635D01*
X142740499Y-89580476D01*
X142749243Y-89592078D01*
X142761958Y-89602813D01*
X142795212Y-89622524D01*
X142829843Y-89624517D01*
X142862275Y-89603683D01*
X142868989Y-89596162D01*
X142876705Y-89582331D01*
X142881728Y-89561932D01*
X142884620Y-89530612D01*
X142885944Y-89484020D01*
X142886260Y-89417800D01*
X142886260Y-89255902D01*
X142958215Y-89255902D01*
X143030170Y-89255902D01*
X143030170Y-89398175D01*
X143029909Y-89440058D01*
X143026971Y-89524604D01*
X143020273Y-89589837D01*
X143009202Y-89638928D01*
X142993144Y-89675045D01*
X142971486Y-89701360D01*
X142955363Y-89714451D01*
X142901388Y-89739359D01*
X142841568Y-89741472D01*
X142777615Y-89720621D01*
X142749420Y-89707029D01*
X142728743Y-89699323D01*
X142720104Y-89701671D01*
X142718366Y-89713449D01*
X142717880Y-89719580D01*
X142710762Y-89729719D01*
X142690780Y-89734440D01*
X142652408Y-89735600D01*
X142586449Y-89735600D01*
X142586449Y-89495751D01*
X142586449Y-89255902D01*
X142658404Y-89255901D01*
X142730358Y-89255902D01*
G37*
G36*
X146220160Y-88547478D02*
G01*
X146220161Y-88558248D01*
X146220397Y-88618605D01*
X146221596Y-88660119D01*
X146224544Y-88687270D01*
X146230030Y-88704541D01*
X146238839Y-88716412D01*
X146251759Y-88727364D01*
X146286065Y-88746569D01*
X146324899Y-88750285D01*
X146357217Y-88733374D01*
X146364535Y-88722478D01*
X146370194Y-88702456D01*
X146373728Y-88670232D01*
X146375547Y-88621883D01*
X146376062Y-88553488D01*
X146376062Y-88392446D01*
X146448017Y-88392446D01*
X146519971Y-88392446D01*
X146519059Y-88563339D01*
X146518969Y-88576659D01*
X146517133Y-88658166D01*
X146512511Y-88720036D01*
X146504147Y-88766021D01*
X146491085Y-88799879D01*
X146472367Y-88825363D01*
X146447040Y-88846229D01*
X146406631Y-88864230D01*
X146350417Y-88870680D01*
X146293129Y-88861741D01*
X146243774Y-88837789D01*
X146235248Y-88831508D01*
X146216367Y-88819086D01*
X146209258Y-88820626D01*
X146208168Y-88835808D01*
X146207428Y-88844648D01*
X146200127Y-88854664D01*
X146180289Y-88859131D01*
X146142209Y-88860152D01*
X146076251Y-88860152D01*
X146076251Y-88626299D01*
X146076251Y-88392446D01*
X146148205Y-88392446D01*
X146220160Y-88392446D01*
X146220160Y-88547478D01*
G37*
G36*
X147155571Y-90279639D02*
G01*
X147155599Y-90300487D01*
X147156305Y-90357963D01*
X147158469Y-90397742D01*
X147162762Y-90424689D01*
X147169858Y-90443663D01*
X147180426Y-90459527D01*
X147207188Y-90483118D01*
X147245705Y-90491124D01*
X147249601Y-90491090D01*
X147277128Y-90487508D01*
X147296983Y-90475806D01*
X147310354Y-90452823D01*
X147318431Y-90415399D01*
X147322405Y-90360373D01*
X147323465Y-90284584D01*
X147323465Y-90131351D01*
X147389424Y-90131351D01*
X147455382Y-90131351D01*
X147455382Y-90311623D01*
X147455314Y-90336947D01*
X147453646Y-90417086D01*
X147449098Y-90477639D01*
X147440812Y-90522019D01*
X147427933Y-90553641D01*
X147409603Y-90575918D01*
X147384968Y-90592263D01*
X147357111Y-90602901D01*
X147300739Y-90610597D01*
X147242888Y-90605264D01*
X147194546Y-90587195D01*
X147183073Y-90580234D01*
X147163759Y-90570045D01*
X147156609Y-90572378D01*
X147155571Y-90587240D01*
X147154886Y-90595443D01*
X147147616Y-90605478D01*
X147127749Y-90609997D01*
X147089612Y-90611049D01*
X147023654Y-90611049D01*
X147023654Y-90371200D01*
X147023654Y-90131351D01*
X147089612Y-90131351D01*
X147155571Y-90131351D01*
X147155571Y-90279639D01*
G37*
G36*
X146898675Y-89260204D02*
G01*
X146948701Y-89279756D01*
X146960174Y-89286717D01*
X146979489Y-89296906D01*
X146986638Y-89294573D01*
X146987677Y-89279710D01*
X146988362Y-89271508D01*
X146995631Y-89261473D01*
X147015498Y-89256954D01*
X147053635Y-89255902D01*
X147119594Y-89255902D01*
X147119594Y-89495751D01*
X147119594Y-89735600D01*
X147047977Y-89735600D01*
X146976361Y-89735600D01*
X146973024Y-89571975D01*
X146972532Y-89548174D01*
X146971017Y-89489556D01*
X146968859Y-89449205D01*
X146965241Y-89422813D01*
X146959348Y-89406074D01*
X146950365Y-89394679D01*
X146937473Y-89384321D01*
X146919880Y-89372492D01*
X146897497Y-89366808D01*
X146869294Y-89375188D01*
X146858028Y-89380638D01*
X146837346Y-89397978D01*
X146822955Y-89424981D01*
X146813881Y-89465199D01*
X146809150Y-89522180D01*
X146807791Y-89599477D01*
X146807790Y-89735600D01*
X146741831Y-89735600D01*
X146675873Y-89735600D01*
X146675940Y-89570704D01*
X146676915Y-89489341D01*
X146680489Y-89423324D01*
X146687478Y-89373837D01*
X146698702Y-89337089D01*
X146714972Y-89309292D01*
X146737106Y-89286654D01*
X146741178Y-89283421D01*
X146786158Y-89262322D01*
X146841576Y-89254487D01*
X146898675Y-89260204D01*
G37*
G36*
X138375163Y-88995403D02*
G01*
X138394927Y-89008283D01*
X138428828Y-89035232D01*
X138474346Y-89073946D01*
X138528954Y-89122125D01*
X138590134Y-89177467D01*
X138655362Y-89237671D01*
X138722115Y-89300436D01*
X138787871Y-89363460D01*
X138850108Y-89424441D01*
X138906304Y-89481079D01*
X138938129Y-89513934D01*
X139006695Y-89586081D01*
X139070048Y-89654557D01*
X139126245Y-89717135D01*
X139173339Y-89771587D01*
X139209384Y-89815684D01*
X139232440Y-89847200D01*
X139240557Y-89863906D01*
X139239907Y-89865849D01*
X139227311Y-89881469D01*
X139201948Y-89906964D01*
X139168171Y-89937890D01*
X139095786Y-90001606D01*
X139015268Y-89931773D01*
X138978494Y-89899080D01*
X138922203Y-89847016D01*
X138858100Y-89785985D01*
X138788275Y-89718124D01*
X138714817Y-89645568D01*
X138639813Y-89570453D01*
X138565352Y-89494915D01*
X138493524Y-89421088D01*
X138426416Y-89351110D01*
X138366118Y-89287115D01*
X138314718Y-89231239D01*
X138274303Y-89185619D01*
X138246964Y-89152390D01*
X138234789Y-89133687D01*
X138234663Y-89132223D01*
X138243229Y-89115948D01*
X138264521Y-89089041D01*
X138294658Y-89056504D01*
X138300632Y-89050529D01*
X138332597Y-89021082D01*
X138358519Y-89001142D01*
X138373263Y-88994747D01*
X138375163Y-88995403D01*
G37*
G36*
X142083127Y-90314236D02*
G01*
X142083488Y-90497120D01*
X142150709Y-90392186D01*
X142175189Y-90354608D01*
X142199938Y-90319738D01*
X142218651Y-90299290D01*
X142234801Y-90289663D01*
X142251858Y-90287253D01*
X142262218Y-90287989D01*
X142278725Y-90294354D01*
X142296287Y-90310356D01*
X142318552Y-90339706D01*
X142349173Y-90386111D01*
X142412559Y-90484970D01*
X142415878Y-90308160D01*
X142419196Y-90131351D01*
X142490830Y-90131351D01*
X142562464Y-90131351D01*
X142562464Y-90443154D01*
X142562464Y-90754958D01*
X142498439Y-90754958D01*
X142434415Y-90754958D01*
X142358484Y-90632035D01*
X142328928Y-90584322D01*
X142301271Y-90539937D01*
X142280059Y-90506183D01*
X142274241Y-90497120D01*
X142418555Y-90497120D01*
X142424552Y-90503117D01*
X142430547Y-90497120D01*
X142424551Y-90491124D01*
X142418555Y-90497120D01*
X142274241Y-90497120D01*
X142268357Y-90487955D01*
X142263985Y-90483071D01*
X142255786Y-90482380D01*
X142243985Y-90492280D01*
X142226467Y-90515306D01*
X142201120Y-90553995D01*
X142165826Y-90610878D01*
X142077492Y-90754958D01*
X142014172Y-90754958D01*
X141950849Y-90754958D01*
X141950849Y-90443154D01*
X141950849Y-90131351D01*
X142016808Y-90131351D01*
X142082766Y-90131351D01*
X142083127Y-90314236D01*
G37*
G36*
X144208233Y-90132057D02*
G01*
X144272949Y-90156796D01*
X144327252Y-90194789D01*
X144365137Y-90243664D01*
X144372586Y-90259079D01*
X144394674Y-90333157D01*
X144395378Y-90404665D01*
X144376622Y-90470384D01*
X144340329Y-90527100D01*
X144288424Y-90571593D01*
X144222830Y-90600649D01*
X144145466Y-90611049D01*
X144139646Y-90610995D01*
X144062399Y-90599254D01*
X143997393Y-90569166D01*
X143946586Y-90523890D01*
X143911932Y-90466585D01*
X143895388Y-90400410D01*
X143896697Y-90373700D01*
X144037262Y-90373700D01*
X144046037Y-90417243D01*
X144067521Y-90454808D01*
X144100927Y-90481175D01*
X144145467Y-90491124D01*
X144178193Y-90485875D01*
X144217490Y-90461618D01*
X144243801Y-90421423D01*
X144253399Y-90369491D01*
X144253362Y-90364536D01*
X144246373Y-90314326D01*
X144225207Y-90279936D01*
X144186860Y-90256256D01*
X144180564Y-90253651D01*
X144154971Y-90243687D01*
X144142854Y-90240043D01*
X144132779Y-90243615D01*
X144109490Y-90252567D01*
X144095063Y-90259403D01*
X144060988Y-90289559D01*
X144041983Y-90329398D01*
X144037262Y-90373700D01*
X143896697Y-90373700D01*
X143896697Y-90373699D01*
X143898910Y-90328524D01*
X143924453Y-90254085D01*
X143954575Y-90207041D01*
X144008749Y-90159195D01*
X144077808Y-90130140D01*
X144139110Y-90122945D01*
X144208233Y-90132057D01*
G37*
G36*
X144859078Y-87400071D02*
G01*
X144861107Y-87405257D01*
X144877639Y-87446567D01*
X144901112Y-87504182D01*
X144929496Y-87573169D01*
X144960764Y-87648598D01*
X144992889Y-87725537D01*
X145004203Y-87752593D01*
X145032515Y-87820920D01*
X145056891Y-87880629D01*
X145075977Y-87928354D01*
X145088421Y-87960727D01*
X145092870Y-87974380D01*
X145083750Y-87979293D01*
X145056585Y-87983204D01*
X145017685Y-87984703D01*
X144942499Y-87984703D01*
X144894762Y-87846797D01*
X144893831Y-87844112D01*
X144875115Y-87791524D01*
X144858942Y-87748592D01*
X144847013Y-87719679D01*
X144841030Y-87709140D01*
X144840918Y-87709163D01*
X144833977Y-87720513D01*
X144820108Y-87749637D01*
X144801269Y-87792245D01*
X144779419Y-87844047D01*
X144723805Y-87978707D01*
X144642997Y-87982287D01*
X144622880Y-87983029D01*
X144587352Y-87982659D01*
X144570499Y-87978611D01*
X144568639Y-87970295D01*
X144568933Y-87969599D01*
X144576739Y-87952061D01*
X144592694Y-87916732D01*
X144615156Y-87867230D01*
X144642487Y-87807174D01*
X144673041Y-87740183D01*
X144770995Y-87525643D01*
X144732606Y-87434375D01*
X144727275Y-87421687D01*
X144709385Y-87378959D01*
X144695545Y-87345656D01*
X144688389Y-87328117D01*
X144691509Y-87319577D01*
X144712281Y-87314625D01*
X144753904Y-87313126D01*
X144825247Y-87313126D01*
X144859078Y-87400071D01*
G37*
G36*
X142767653Y-87516214D02*
G01*
X142832756Y-87543745D01*
X142886701Y-87587683D01*
X142924955Y-87646268D01*
X142925037Y-87646454D01*
X142942136Y-87707519D01*
X142945134Y-87774570D01*
X142934536Y-87838804D01*
X142910849Y-87891421D01*
X142907136Y-87896762D01*
X142868357Y-87942110D01*
X142824976Y-87970993D01*
X142770986Y-87986245D01*
X142700380Y-87990699D01*
X142689796Y-87990677D01*
X142641689Y-87989316D01*
X142608146Y-87984557D01*
X142581186Y-87974615D01*
X142552831Y-87957707D01*
X142537854Y-87947007D01*
X142491070Y-87897234D01*
X142463544Y-87834382D01*
X142455288Y-87763435D01*
X142455288Y-87763434D01*
X142588009Y-87763434D01*
X142604562Y-87817049D01*
X142606775Y-87821156D01*
X142638349Y-87857735D01*
X142677630Y-87875449D01*
X142719455Y-87875300D01*
X142758663Y-87858282D01*
X142790090Y-87825394D01*
X142808576Y-87777632D01*
X142808946Y-87738641D01*
X142793453Y-87690082D01*
X142764060Y-87652003D01*
X142738648Y-87636690D01*
X142694930Y-87630419D01*
X142651027Y-87645005D01*
X142612090Y-87679514D01*
X142593778Y-87712673D01*
X142588009Y-87763434D01*
X142455288Y-87763434D01*
X142454532Y-87756939D01*
X142455905Y-87724739D01*
X142461901Y-87679162D01*
X142471044Y-87645532D01*
X142501133Y-87597738D01*
X142549384Y-87552968D01*
X142606084Y-87522572D01*
X142622120Y-87517411D01*
X142695930Y-87506850D01*
X142767653Y-87516214D01*
G37*
G36*
X144613172Y-90053708D02*
G01*
X144613172Y-90167944D01*
X144652148Y-90147391D01*
X144679716Y-90136160D01*
X144740158Y-90126650D01*
X144802302Y-90132489D01*
X144855839Y-90153370D01*
X144864922Y-90159267D01*
X144912841Y-90204532D01*
X144943423Y-90264102D01*
X144957901Y-90340233D01*
X144957909Y-90340341D01*
X144955292Y-90423206D01*
X144934091Y-90494546D01*
X144895371Y-90552071D01*
X144840196Y-90593492D01*
X144807899Y-90604475D01*
X144755027Y-90610279D01*
X144700772Y-90606439D01*
X144656773Y-90592986D01*
X144642944Y-90585841D01*
X144622405Y-90576885D01*
X144614481Y-90579288D01*
X144613172Y-90593060D01*
X144607470Y-90603767D01*
X144586991Y-90609434D01*
X144547213Y-90611049D01*
X144481254Y-90611049D01*
X144481255Y-90367700D01*
X144611880Y-90367700D01*
X144621329Y-90412739D01*
X144643370Y-90452305D01*
X144675572Y-90480424D01*
X144715505Y-90491124D01*
X144760176Y-90480964D01*
X144794500Y-90454037D01*
X144817226Y-90415737D01*
X144827144Y-90371460D01*
X144823048Y-90326599D01*
X144803729Y-90286551D01*
X144767981Y-90256706D01*
X144756241Y-90251163D01*
X144712650Y-90242196D01*
X144673084Y-90255473D01*
X144634426Y-90291813D01*
X144617450Y-90323160D01*
X144611880Y-90367700D01*
X144481255Y-90367700D01*
X144481255Y-90275260D01*
X144481255Y-89939472D01*
X144547214Y-89939472D01*
X144613172Y-89939472D01*
X144613172Y-90053708D01*
G37*
G36*
X145263743Y-90122423D02*
G01*
X145308468Y-90128949D01*
X145354108Y-90140294D01*
X145391848Y-90154910D01*
X145429383Y-90179839D01*
X145472574Y-90229625D01*
X145500215Y-90290286D01*
X145511665Y-90356896D01*
X145506281Y-90424524D01*
X145483421Y-90488242D01*
X145442442Y-90543121D01*
X145427980Y-90556268D01*
X145393827Y-90582264D01*
X145364918Y-90598342D01*
X145316965Y-90608603D01*
X145256681Y-90610159D01*
X145195884Y-90603158D01*
X145145444Y-90588106D01*
X145106948Y-90564994D01*
X145060588Y-90516471D01*
X145029116Y-90455704D01*
X145014100Y-90387704D01*
X145015026Y-90366095D01*
X145015026Y-90366094D01*
X145153464Y-90366094D01*
X145161150Y-90414142D01*
X145187887Y-90456069D01*
X145192422Y-90460415D01*
X145233650Y-90485632D01*
X145275733Y-90490752D01*
X145314824Y-90478755D01*
X145347076Y-90452626D01*
X145368642Y-90415348D01*
X145375674Y-90369902D01*
X145364325Y-90319273D01*
X145341486Y-90283847D01*
X145310275Y-90258068D01*
X145302084Y-90253873D01*
X145275803Y-90242681D01*
X145255589Y-90242084D01*
X145229442Y-90251036D01*
X145189977Y-90277632D01*
X145163512Y-90318426D01*
X145153464Y-90366094D01*
X145015026Y-90366094D01*
X145017109Y-90317484D01*
X145039710Y-90250057D01*
X145063564Y-90216345D01*
X145099658Y-90180935D01*
X145139197Y-90152016D01*
X145174039Y-90136471D01*
X145198839Y-90130489D01*
X145218791Y-90124572D01*
X145228753Y-90122259D01*
X145263743Y-90122423D01*
G37*
G36*
X143311992Y-87518242D02*
G01*
X143333756Y-87525852D01*
X143369530Y-87543221D01*
X143403191Y-87563965D01*
X143428085Y-87583828D01*
X143437561Y-87598557D01*
X143435953Y-87602601D01*
X143422786Y-87621180D01*
X143400759Y-87647029D01*
X143391738Y-87656813D01*
X143371850Y-87675182D01*
X143358204Y-87678337D01*
X143344125Y-87668850D01*
X143329930Y-87657577D01*
X143283641Y-87636506D01*
X143235295Y-87632980D01*
X143191331Y-87646703D01*
X143158186Y-87677381D01*
X143142605Y-87708342D01*
X143134896Y-87755764D01*
X143144180Y-87799571D01*
X143167097Y-87836399D01*
X143200282Y-87862895D01*
X143240371Y-87875696D01*
X143284001Y-87871444D01*
X143327808Y-87846778D01*
X143363452Y-87816785D01*
X143400683Y-87859188D01*
X143412024Y-87872649D01*
X143430584Y-87897874D01*
X143437913Y-87912995D01*
X143434771Y-87919040D01*
X143416666Y-87936366D01*
X143387821Y-87957550D01*
X143381011Y-87961990D01*
X143353786Y-87977192D01*
X143326315Y-87985869D01*
X143290697Y-87989785D01*
X143239028Y-87990699D01*
X143209091Y-87990542D01*
X143169077Y-87988700D01*
X143141644Y-87983257D01*
X143119434Y-87972342D01*
X143095087Y-87954083D01*
X143083695Y-87944449D01*
X143036816Y-87890166D01*
X143010341Y-87826744D01*
X143002449Y-87750174D01*
X143012204Y-87672433D01*
X143040774Y-87608029D01*
X143088589Y-87557740D01*
X143156090Y-87520908D01*
X143171135Y-87515663D01*
X143237317Y-87506633D01*
X143311992Y-87518242D01*
G37*
G36*
X146567941Y-89585695D02*
G01*
X146567941Y-89915487D01*
X146501983Y-89915486D01*
X146436024Y-89915487D01*
X146436024Y-89807247D01*
X146436024Y-89699007D01*
X146397049Y-89719559D01*
X146371557Y-89730345D01*
X146308667Y-89740860D01*
X146244069Y-89733581D01*
X146187111Y-89708980D01*
X146153658Y-89682230D01*
X146114774Y-89629070D01*
X146093833Y-89561995D01*
X146091275Y-89505456D01*
X146223142Y-89505456D01*
X146233157Y-89551244D01*
X146257056Y-89590289D01*
X146293315Y-89617470D01*
X146340412Y-89627669D01*
X146345927Y-89627022D01*
X146372650Y-89615010D01*
X146400969Y-89592613D01*
X146423036Y-89566237D01*
X146433458Y-89538082D01*
X146436024Y-89497342D01*
X146435320Y-89474706D01*
X146427602Y-89436079D01*
X146409041Y-89406464D01*
X146397276Y-89394475D01*
X146356415Y-89370741D01*
X146313375Y-89370327D01*
X146270721Y-89393476D01*
X146250857Y-89414129D01*
X146228534Y-89458045D01*
X146223142Y-89505456D01*
X146091275Y-89505456D01*
X146090089Y-89479233D01*
X146094568Y-89433740D01*
X146112712Y-89369228D01*
X146145784Y-89319596D01*
X146195831Y-89281003D01*
X146202365Y-89277509D01*
X146249402Y-89262449D01*
X146304678Y-89256595D01*
X146358218Y-89260293D01*
X146400047Y-89273891D01*
X146401138Y-89274513D01*
X146430051Y-89288747D01*
X146444243Y-89288539D01*
X146448017Y-89273891D01*
X146451854Y-89264495D01*
X146470271Y-89257828D01*
X146507979Y-89255902D01*
X146567941Y-89255902D01*
X146567941Y-89585695D01*
G37*
G36*
X146693204Y-90133837D02*
G01*
X146732415Y-90149946D01*
X146757082Y-90164319D01*
X146768954Y-90164397D01*
X146771813Y-90149339D01*
X146771955Y-90147171D01*
X146779555Y-90137630D01*
X146801986Y-90132732D01*
X146843767Y-90131351D01*
X146915722Y-90131351D01*
X146915722Y-90371201D01*
X146915723Y-90611049D01*
X146843767Y-90611049D01*
X146835098Y-90611013D01*
X146796928Y-90609114D01*
X146777339Y-90603506D01*
X146771813Y-90593060D01*
X146769374Y-90580137D01*
X146756490Y-90577557D01*
X146730545Y-90593441D01*
X146715057Y-90601140D01*
X146676115Y-90608954D01*
X146628840Y-90610427D01*
X146582499Y-90605522D01*
X146546359Y-90594199D01*
X146516361Y-90575084D01*
X146469685Y-90525677D01*
X146438758Y-90463498D01*
X146424775Y-90392992D01*
X146426530Y-90361564D01*
X146560114Y-90361564D01*
X146567914Y-90413095D01*
X146586239Y-90448803D01*
X146620269Y-90479181D01*
X146661362Y-90492058D01*
X146703934Y-90485956D01*
X146742404Y-90459392D01*
X146764223Y-90422454D01*
X146773291Y-90373113D01*
X146766869Y-90323331D01*
X146744830Y-90282377D01*
X146742224Y-90279538D01*
X146703708Y-90252064D01*
X146663368Y-90244808D01*
X146625021Y-90254951D01*
X146592484Y-90279672D01*
X146569575Y-90316150D01*
X146560114Y-90361564D01*
X146426530Y-90361564D01*
X146428930Y-90318604D01*
X146452420Y-90244780D01*
X146473744Y-90206935D01*
X146518894Y-90159939D01*
X146578897Y-90130295D01*
X146595727Y-90126532D01*
X146643434Y-90125494D01*
X146693204Y-90133837D01*
G37*
G36*
X142925293Y-90120908D02*
G01*
X142968776Y-90128221D01*
X143015769Y-90142387D01*
X143057149Y-90160321D01*
X143083791Y-90178940D01*
X143091314Y-90187591D01*
X143098235Y-90201628D01*
X143092790Y-90217756D01*
X143073694Y-90244312D01*
X143042018Y-90285840D01*
X142988121Y-90261999D01*
X142929131Y-90246854D01*
X142873365Y-90253817D01*
X142824879Y-90282540D01*
X142819971Y-90287070D01*
X142803865Y-90305092D01*
X142801094Y-90318056D01*
X142813783Y-90326758D01*
X142844058Y-90331990D01*
X142894042Y-90334547D01*
X142965862Y-90335222D01*
X143129411Y-90335222D01*
X143121538Y-90402214D01*
X143108380Y-90467174D01*
X143078652Y-90530573D01*
X143033745Y-90575483D01*
X142973330Y-90602208D01*
X142897086Y-90611049D01*
X142831781Y-90604299D01*
X142772956Y-90580020D01*
X142722446Y-90535913D01*
X142684930Y-90481657D01*
X142670290Y-90436478D01*
X142802313Y-90436478D01*
X142805149Y-90447982D01*
X142825310Y-90469312D01*
X142858951Y-90485011D01*
X142899062Y-90491124D01*
X142923736Y-90488759D01*
X142958408Y-90471493D01*
X142987081Y-90434160D01*
X142987824Y-90428775D01*
X142976820Y-90423077D01*
X142948261Y-90420057D01*
X142898960Y-90419169D01*
X142859982Y-90419648D01*
X142825239Y-90422183D01*
X142807368Y-90427551D01*
X142802313Y-90436478D01*
X142670290Y-90436478D01*
X142663339Y-90415029D01*
X142662168Y-90338191D01*
X142680158Y-90263973D01*
X142717160Y-90203607D01*
X142772179Y-90158787D01*
X142844287Y-90130572D01*
X142875755Y-90124482D01*
X142911067Y-90120586D01*
X142925293Y-90120908D01*
G37*
G36*
X144017775Y-87510005D02*
G01*
X144076411Y-87520731D01*
X144127516Y-87539449D01*
X144163112Y-87564587D01*
X144170635Y-87573238D01*
X144177555Y-87587274D01*
X144172110Y-87603403D01*
X144153014Y-87629959D01*
X144121339Y-87671487D01*
X144067441Y-87647646D01*
X144008451Y-87632500D01*
X143952685Y-87639462D01*
X143904200Y-87668187D01*
X143899291Y-87672717D01*
X143883185Y-87690739D01*
X143880414Y-87703703D01*
X143893103Y-87712404D01*
X143923378Y-87717636D01*
X143973362Y-87720193D01*
X144045182Y-87720869D01*
X144208731Y-87720869D01*
X144200858Y-87787861D01*
X144196897Y-87813910D01*
X144186826Y-87857371D01*
X144175235Y-87889177D01*
X144167136Y-87903177D01*
X144124775Y-87949066D01*
X144069365Y-87980167D01*
X144006130Y-87995709D01*
X143940287Y-87994923D01*
X143877055Y-87977040D01*
X143821656Y-87941289D01*
X143814736Y-87934831D01*
X143768286Y-87874552D01*
X143748230Y-87817363D01*
X143884919Y-87817363D01*
X143887344Y-87831424D01*
X143905618Y-87852786D01*
X143912446Y-87858964D01*
X143951373Y-87877256D01*
X143994172Y-87875974D01*
X144034596Y-87856397D01*
X144066400Y-87819807D01*
X144067144Y-87814422D01*
X144056140Y-87808724D01*
X144027582Y-87805703D01*
X143978281Y-87804817D01*
X143936178Y-87805499D01*
X143900483Y-87809193D01*
X143884919Y-87817363D01*
X143748230Y-87817363D01*
X143743767Y-87804636D01*
X143741320Y-87725464D01*
X143756608Y-87656973D01*
X143791348Y-87595314D01*
X143844942Y-87548450D01*
X143917533Y-87516210D01*
X143959587Y-87508842D01*
X144017775Y-87510005D01*
G37*
G36*
X147459091Y-89259689D02*
G01*
X147512346Y-89279756D01*
X147523819Y-89286717D01*
X147543134Y-89296906D01*
X147550283Y-89294573D01*
X147551322Y-89279710D01*
X147552007Y-89271507D01*
X147559276Y-89261473D01*
X147579143Y-89256954D01*
X147617280Y-89255901D01*
X147683238Y-89255902D01*
X147683238Y-89495751D01*
X147683238Y-89735600D01*
X147617280Y-89735600D01*
X147592236Y-89735303D01*
X147565685Y-89732543D01*
X147553957Y-89725076D01*
X147551323Y-89710745D01*
X147551321Y-89708942D01*
X147550021Y-89693773D01*
X147542096Y-89694015D01*
X147521445Y-89709391D01*
X147511331Y-89716594D01*
X147458406Y-89737946D01*
X147398013Y-89741826D01*
X147337126Y-89728554D01*
X147282723Y-89698448D01*
X147241707Y-89652319D01*
X147214817Y-89592327D01*
X147202668Y-89524578D01*
X147203259Y-89507296D01*
X147336090Y-89507296D01*
X147344974Y-89551073D01*
X147368294Y-89588862D01*
X147406847Y-89615441D01*
X147408948Y-89616288D01*
X147452712Y-89623022D01*
X147491280Y-89610505D01*
X147522200Y-89583125D01*
X147543013Y-89545269D01*
X147551267Y-89501325D01*
X147544506Y-89455680D01*
X147520274Y-89412724D01*
X147507873Y-89399144D01*
X147479957Y-89380661D01*
X147443390Y-89375827D01*
X147428990Y-89376787D01*
X147388093Y-89392279D01*
X147358446Y-89422676D01*
X147340846Y-89462756D01*
X147336090Y-89507296D01*
X147203259Y-89507296D01*
X147205063Y-89454544D01*
X147221806Y-89387696D01*
X147252701Y-89329506D01*
X147297550Y-89285444D01*
X147337379Y-89266292D01*
X147397550Y-89255288D01*
X147459091Y-89259689D01*
G37*
G36*
X148436485Y-89264513D02*
G01*
X148499123Y-89286085D01*
X148523592Y-89299282D01*
X148548745Y-89315281D01*
X148558364Y-89325061D01*
X148557103Y-89328786D01*
X148545083Y-89347713D01*
X148524536Y-89374248D01*
X148491030Y-89414642D01*
X148450917Y-89393899D01*
X148416315Y-89381255D01*
X148362342Y-89377635D01*
X148311685Y-89390801D01*
X148272233Y-89419619D01*
X148242825Y-89453778D01*
X148406752Y-89457114D01*
X148570679Y-89460451D01*
X148570678Y-89517533D01*
X148567547Y-89552356D01*
X148550355Y-89611402D01*
X148521738Y-89664497D01*
X148485778Y-89702734D01*
X148475075Y-89709720D01*
X148423637Y-89731036D01*
X148364227Y-89742072D01*
X148308671Y-89740317D01*
X148262674Y-89728018D01*
X148199789Y-89693454D01*
X148153437Y-89642267D01*
X148124777Y-89575918D01*
X148123424Y-89564877D01*
X148254474Y-89564877D01*
X148254709Y-89574146D01*
X148261577Y-89584587D01*
X148287252Y-89604822D01*
X148320977Y-89621032D01*
X148352603Y-89627668D01*
X148353828Y-89627636D01*
X148378007Y-89620033D01*
X148405991Y-89603293D01*
X148429128Y-89583524D01*
X148438763Y-89566835D01*
X148437841Y-89565293D01*
X148421096Y-89560412D01*
X148387654Y-89556998D01*
X148343199Y-89555713D01*
X148336630Y-89555720D01*
X148291285Y-89556529D01*
X148265283Y-89559293D01*
X148254474Y-89564877D01*
X148123424Y-89564877D01*
X148114967Y-89495869D01*
X148120835Y-89430302D01*
X148144384Y-89363838D01*
X148186369Y-89312285D01*
X148247240Y-89274892D01*
X148295727Y-89260826D01*
X148365391Y-89255947D01*
X148436485Y-89264513D01*
G37*
G36*
X144688638Y-88385056D02*
G01*
X144753408Y-88402606D01*
X144805507Y-88434832D01*
X144815195Y-88444126D01*
X144821192Y-88456354D01*
X144815169Y-88472600D01*
X144796018Y-88500507D01*
X144763676Y-88545501D01*
X144721582Y-88522940D01*
X144680586Y-88505729D01*
X144635057Y-88502355D01*
X144583771Y-88517352D01*
X144553094Y-88535715D01*
X144527371Y-88562795D01*
X144517233Y-88589533D01*
X144518087Y-88590230D01*
X144535060Y-88592619D01*
X144570472Y-88594552D01*
X144619952Y-88595846D01*
X144679131Y-88596318D01*
X144841029Y-88596318D01*
X144841030Y-88649503D01*
X144837513Y-88696417D01*
X144816593Y-88760378D01*
X144776083Y-88810935D01*
X144715108Y-88849478D01*
X144655559Y-88867747D01*
X144584123Y-88868462D01*
X144515702Y-88847751D01*
X144455523Y-88806479D01*
X144450737Y-88801858D01*
X144412906Y-88752951D01*
X144391842Y-88695136D01*
X144391583Y-88692252D01*
X144524161Y-88692252D01*
X144529077Y-88703975D01*
X144537590Y-88716917D01*
X144573461Y-88743200D01*
X144624376Y-88752220D01*
X144641434Y-88749928D01*
X144673371Y-88736083D01*
X144698760Y-88714856D01*
X144709112Y-88692257D01*
X144708770Y-88691150D01*
X144693927Y-88685478D01*
X144660414Y-88681661D01*
X144612750Y-88680265D01*
X144576774Y-88680405D01*
X144543819Y-88681655D01*
X144527678Y-88685208D01*
X144524161Y-88692252D01*
X144391583Y-88692252D01*
X144385316Y-88622574D01*
X144388543Y-88573945D01*
X144408094Y-88507360D01*
X144446361Y-88454583D01*
X144504490Y-88413602D01*
X144547687Y-88395859D01*
X144617847Y-88382651D01*
X144688638Y-88385056D01*
G37*
G36*
X145779688Y-89260549D02*
G01*
X145831988Y-89280865D01*
X145872379Y-89305828D01*
X145872380Y-89280865D01*
X145873176Y-89271304D01*
X145880507Y-89261300D01*
X145900314Y-89256890D01*
X145938338Y-89255902D01*
X146004296Y-89255901D01*
X146004296Y-89495751D01*
X146004296Y-89735600D01*
X145938338Y-89735600D01*
X145913294Y-89735303D01*
X145886742Y-89732543D01*
X145875013Y-89725076D01*
X145872380Y-89710745D01*
X145872380Y-89708942D01*
X145871078Y-89693773D01*
X145863155Y-89694015D01*
X145842502Y-89709391D01*
X145812488Y-89727772D01*
X145755337Y-89742704D01*
X145694323Y-89738416D01*
X145634946Y-89715636D01*
X145582706Y-89675089D01*
X145567947Y-89657812D01*
X145534677Y-89597134D01*
X145518816Y-89528672D01*
X145519145Y-89506480D01*
X145519145Y-89506479D01*
X145656515Y-89506479D01*
X145656931Y-89517074D01*
X145671140Y-89566121D01*
X145702753Y-89603017D01*
X145747931Y-89622879D01*
X145770066Y-89624886D01*
X145795621Y-89617053D01*
X145825882Y-89593868D01*
X145836187Y-89584394D01*
X145855872Y-89561065D01*
X145864483Y-89535026D01*
X145866383Y-89495697D01*
X145866337Y-89487400D01*
X145863432Y-89450646D01*
X145853427Y-89426335D01*
X145832735Y-89404769D01*
X145803629Y-89387074D01*
X145754791Y-89376321D01*
X145707231Y-89383853D01*
X145694958Y-89392666D01*
X145675827Y-89422109D01*
X145661900Y-89462737D01*
X145656515Y-89506479D01*
X145519145Y-89506479D01*
X145519867Y-89457737D01*
X145537329Y-89389644D01*
X145570705Y-89329706D01*
X145619496Y-89283240D01*
X145660153Y-89264518D01*
X145719193Y-89255135D01*
X145779688Y-89260549D01*
G37*
G36*
X142197155Y-87513576D02*
G01*
X142248114Y-87521973D01*
X142284871Y-87534073D01*
X142338082Y-87573900D01*
X142373669Y-87627235D01*
X142389261Y-87689370D01*
X142382861Y-87755793D01*
X142380039Y-87765101D01*
X142350816Y-87815393D01*
X142300715Y-87854676D01*
X142229367Y-87883257D01*
X142191974Y-87894590D01*
X142128865Y-87918719D01*
X142088946Y-87942564D01*
X142072609Y-87965922D01*
X142071954Y-87974848D01*
X142084000Y-87999052D01*
X142115247Y-88014959D01*
X142162593Y-88020680D01*
X142179403Y-88020091D01*
X142217893Y-88010533D01*
X142254276Y-87985185D01*
X142294703Y-87949689D01*
X142341639Y-87997937D01*
X142388574Y-88046183D01*
X142344566Y-88086676D01*
X142287598Y-88125314D01*
X142214109Y-88147309D01*
X142127805Y-88149079D01*
X142083329Y-88142057D01*
X142017696Y-88117163D01*
X141968485Y-88077670D01*
X141937590Y-88025342D01*
X141926909Y-87961943D01*
X141927501Y-87945801D01*
X141943027Y-87883292D01*
X141979069Y-87832522D01*
X142034883Y-87794271D01*
X142109727Y-87769321D01*
X142131442Y-87764171D01*
X142184595Y-87746567D01*
X142223097Y-87725989D01*
X142242306Y-87704701D01*
X142242315Y-87687697D01*
X142231087Y-87662284D01*
X142222058Y-87651900D01*
X142198277Y-87640192D01*
X142159249Y-87636922D01*
X142145571Y-87637157D01*
X142099113Y-87643872D01*
X142059171Y-87662900D01*
X142016240Y-87698320D01*
X141979697Y-87732855D01*
X141932954Y-87684987D01*
X141886211Y-87637119D01*
X141921529Y-87599972D01*
X141986497Y-87548178D01*
X142064778Y-87515486D01*
X142091064Y-87511133D01*
X142141601Y-87509692D01*
X142197155Y-87513576D01*
G37*
G36*
X143375812Y-89261906D02*
G01*
X143422922Y-89279756D01*
X143434395Y-89286716D01*
X143453710Y-89296906D01*
X143460859Y-89294572D01*
X143461898Y-89279711D01*
X143462141Y-89274375D01*
X143467927Y-89262556D01*
X143485873Y-89257177D01*
X143521860Y-89255902D01*
X143581822Y-89255902D01*
X143581822Y-89585695D01*
X143581822Y-89915487D01*
X143515864Y-89915486D01*
X143449905Y-89915487D01*
X143449905Y-89806086D01*
X143449901Y-89800541D01*
X143449130Y-89750278D01*
X143446686Y-89720460D01*
X143442062Y-89707863D01*
X143434755Y-89709259D01*
X143428173Y-89713407D01*
X143400827Y-89724782D01*
X143364647Y-89735672D01*
X143357600Y-89737335D01*
X143289565Y-89741611D01*
X143228504Y-89724762D01*
X143176823Y-89689031D01*
X143136928Y-89636660D01*
X143111227Y-89569895D01*
X143103347Y-89501585D01*
X143237703Y-89501585D01*
X143245389Y-89544100D01*
X143264197Y-89581359D01*
X143291901Y-89609619D01*
X143326280Y-89625131D01*
X143365110Y-89624149D01*
X143406167Y-89602929D01*
X143424089Y-89584565D01*
X143445777Y-89540191D01*
X143452249Y-89489031D01*
X143443053Y-89439070D01*
X143417739Y-89398293D01*
X143392682Y-89381335D01*
X143358448Y-89368928D01*
X143338550Y-89366639D01*
X143312634Y-89373305D01*
X143283120Y-89395620D01*
X143264586Y-89415771D01*
X143243361Y-89457560D01*
X143237703Y-89501585D01*
X143103347Y-89501585D01*
X143102124Y-89490977D01*
X143103374Y-89463154D01*
X143121066Y-89388939D01*
X143158941Y-89326702D01*
X143216052Y-89278215D01*
X143216075Y-89278201D01*
X143262132Y-89261052D01*
X143318796Y-89255646D01*
X143375812Y-89261906D01*
G37*
G36*
X143983056Y-89260869D02*
G01*
X144045050Y-89278902D01*
X144045534Y-89279122D01*
X144083453Y-89298728D01*
X144100801Y-89316644D01*
X144099862Y-89338322D01*
X144082924Y-89369213D01*
X144070325Y-89387732D01*
X144051285Y-89406657D01*
X144030989Y-89407891D01*
X144001558Y-89393815D01*
X143963326Y-89380033D01*
X143908930Y-89378423D01*
X143857053Y-89394122D01*
X143854168Y-89395631D01*
X143831123Y-89409045D01*
X143821671Y-89417127D01*
X143820735Y-89421868D01*
X143814392Y-89440804D01*
X143813326Y-89444945D01*
X143816474Y-89451460D01*
X143829660Y-89455759D01*
X143856369Y-89458284D01*
X143900085Y-89459475D01*
X143964297Y-89459775D01*
X144121482Y-89459774D01*
X144121482Y-89526328D01*
X144121470Y-89529632D01*
X144114035Y-89595098D01*
X144090963Y-89647008D01*
X144049413Y-89691882D01*
X143995456Y-89725054D01*
X143929029Y-89742200D01*
X143860299Y-89739410D01*
X143794596Y-89716969D01*
X143737248Y-89675162D01*
X143705290Y-89635379D01*
X143676575Y-89572354D01*
X143675430Y-89565261D01*
X143814036Y-89565261D01*
X143814192Y-89576916D01*
X143830665Y-89594894D01*
X143838757Y-89601371D01*
X143875172Y-89617604D01*
X143914920Y-89620822D01*
X143951524Y-89612258D01*
X143978504Y-89593142D01*
X143989382Y-89564708D01*
X143989003Y-89563864D01*
X143974325Y-89559726D01*
X143942584Y-89556814D01*
X143899622Y-89555713D01*
X143871325Y-89555998D01*
X143832359Y-89558697D01*
X143814036Y-89565261D01*
X143675430Y-89565261D01*
X143665646Y-89504674D01*
X143671899Y-89437051D01*
X143694731Y-89374196D01*
X143733536Y-89320821D01*
X143787712Y-89281635D01*
X143841873Y-89263564D01*
X143911948Y-89255793D01*
X143983056Y-89260869D01*
G37*
G36*
X145163680Y-88385609D02*
G01*
X145220247Y-88393199D01*
X145270585Y-88406878D01*
X145308839Y-88425627D01*
X145329154Y-88448424D01*
X145329696Y-88453893D01*
X145321867Y-88477176D01*
X145303743Y-88506123D01*
X145272107Y-88547600D01*
X145233456Y-88524034D01*
X145230937Y-88522543D01*
X145193639Y-88506889D01*
X145157603Y-88500423D01*
X145152161Y-88500641D01*
X145116290Y-88509762D01*
X145079396Y-88528661D01*
X145049623Y-88552326D01*
X145035110Y-88575752D01*
X145034972Y-88582437D01*
X145040519Y-88588652D01*
X145055792Y-88592691D01*
X145084354Y-88595010D01*
X145129770Y-88596067D01*
X145195603Y-88596318D01*
X145360059Y-88596318D01*
X145353118Y-88663578D01*
X145342148Y-88717967D01*
X145311081Y-88782086D01*
X145263689Y-88830446D01*
X145202200Y-88860980D01*
X145128848Y-88871617D01*
X145094167Y-88869229D01*
X145026482Y-88849049D01*
X144970080Y-88810980D01*
X144927193Y-88758243D01*
X144900051Y-88694056D01*
X144899713Y-88691387D01*
X145032908Y-88691387D01*
X145032948Y-88692269D01*
X145043963Y-88710108D01*
X145068680Y-88729775D01*
X145098608Y-88745676D01*
X145125257Y-88752220D01*
X145139768Y-88751299D01*
X145183153Y-88735770D01*
X145212942Y-88703975D01*
X145217120Y-88695104D01*
X145216468Y-88686831D01*
X145204403Y-88682392D01*
X145176733Y-88680599D01*
X145129269Y-88680265D01*
X145115329Y-88680382D01*
X145073313Y-88682346D01*
X145043953Y-88686232D01*
X145032908Y-88691387D01*
X144899713Y-88691387D01*
X144890888Y-88621641D01*
X144901933Y-88544217D01*
X144907551Y-88527704D01*
X144939235Y-88474072D01*
X144985422Y-88428215D01*
X145038904Y-88397834D01*
X145055271Y-88392780D01*
X145106736Y-88385130D01*
X145163680Y-88385609D01*
G37*
G36*
X144883706Y-89070458D02*
G01*
X144934448Y-89086732D01*
X144939397Y-89089285D01*
X144974146Y-89109737D01*
X145001295Y-89132598D01*
X145021769Y-89160948D01*
X145036492Y-89197862D01*
X145046389Y-89246421D01*
X145052385Y-89309705D01*
X145055402Y-89390789D01*
X145056366Y-89492753D01*
X145056893Y-89735600D01*
X144990934Y-89735600D01*
X144951676Y-89734045D01*
X144930898Y-89728460D01*
X144924976Y-89717610D01*
X144922849Y-89705288D01*
X144910347Y-89701815D01*
X144884894Y-89717126D01*
X144861602Y-89730292D01*
X144809981Y-89742326D01*
X144751442Y-89740632D01*
X144693678Y-89725807D01*
X144644384Y-89698449D01*
X144600981Y-89650630D01*
X144572256Y-89589115D01*
X144559805Y-89520517D01*
X144561645Y-89489428D01*
X144697119Y-89489428D01*
X144702527Y-89533884D01*
X144723369Y-89579437D01*
X144756125Y-89609765D01*
X144796790Y-89622769D01*
X144841356Y-89616346D01*
X144885817Y-89588394D01*
X144902430Y-89568436D01*
X144919220Y-89523771D01*
X144919511Y-89474538D01*
X144903826Y-89428480D01*
X144872685Y-89393338D01*
X144860143Y-89385865D01*
X144816621Y-89375510D01*
X144772870Y-89383801D01*
X144734578Y-89407627D01*
X144707432Y-89443873D01*
X144697119Y-89489428D01*
X144561645Y-89489428D01*
X144563951Y-89450455D01*
X144585012Y-89384545D01*
X144623310Y-89328406D01*
X144663428Y-89295929D01*
X144720032Y-89270050D01*
X144780084Y-89259144D01*
X144837174Y-89264240D01*
X144884894Y-89286369D01*
X144887609Y-89288402D01*
X144910942Y-89301876D01*
X144920426Y-89296288D01*
X144917634Y-89270894D01*
X144910198Y-89247633D01*
X144881743Y-89206575D01*
X144838752Y-89183543D01*
X144782752Y-89179120D01*
X144715267Y-89193881D01*
X144647945Y-89216609D01*
X144623726Y-89169135D01*
X144616983Y-89155387D01*
X144606117Y-89129578D01*
X144603782Y-89117386D01*
X144608346Y-89114531D01*
X144629692Y-89103734D01*
X144661583Y-89088830D01*
X144689959Y-89078457D01*
X144752423Y-89066389D01*
X144820018Y-89063700D01*
X144883706Y-89070458D01*
G37*
G36*
X143293020Y-88193058D02*
G01*
X143362587Y-88212602D01*
X143419601Y-88247324D01*
X143459668Y-88295103D01*
X143464565Y-88304116D01*
X143472049Y-88320785D01*
X143477546Y-88340108D01*
X143481360Y-88365638D01*
X143483795Y-88400933D01*
X143485158Y-88449546D01*
X143485752Y-88515032D01*
X143485882Y-88600949D01*
X143485882Y-88860152D01*
X143425920Y-88860152D01*
X143391413Y-88858738D01*
X143371497Y-88852935D01*
X143365958Y-88841164D01*
X143364709Y-88832187D01*
X143356965Y-88826805D01*
X143334903Y-88837828D01*
X143282801Y-88859558D01*
X143239007Y-88869331D01*
X143195703Y-88869207D01*
X143158018Y-88862652D01*
X143095106Y-88835000D01*
X143046230Y-88788987D01*
X143012913Y-88726301D01*
X142996679Y-88648630D01*
X142995752Y-88631993D01*
X142996347Y-88626299D01*
X143134104Y-88626299D01*
X143134110Y-88629112D01*
X143136927Y-88666855D01*
X143148087Y-88692770D01*
X143172269Y-88718119D01*
X143189878Y-88732073D01*
X143234148Y-88751031D01*
X143277247Y-88746061D01*
X143318911Y-88717165D01*
X143337523Y-88695863D01*
X143350637Y-88666723D01*
X143353966Y-88626299D01*
X143352277Y-88594977D01*
X143342210Y-88564031D01*
X143318911Y-88535433D01*
X143302773Y-88521260D01*
X143260516Y-88501739D01*
X143216926Y-88506144D01*
X143172269Y-88534479D01*
X143170413Y-88536147D01*
X143147121Y-88561219D01*
X143136578Y-88587516D01*
X143134104Y-88626299D01*
X142996347Y-88626299D01*
X143003331Y-88559522D01*
X143028483Y-88495190D01*
X143068874Y-88443463D01*
X143122166Y-88408804D01*
X143164295Y-88397420D01*
X143220320Y-88393078D01*
X143275308Y-88397554D01*
X143318584Y-88410743D01*
X143338918Y-88420485D01*
X143351230Y-88421981D01*
X143353966Y-88411307D01*
X143348835Y-88383571D01*
X143328111Y-88346522D01*
X143298113Y-88321814D01*
X143281607Y-88315956D01*
X143231658Y-88309200D01*
X143178158Y-88312857D01*
X143133733Y-88326562D01*
X143132526Y-88327187D01*
X143106513Y-88339420D01*
X143090982Y-88344476D01*
X143086349Y-88341092D01*
X143073728Y-88322568D01*
X143059174Y-88295428D01*
X143047161Y-88268335D01*
X143042162Y-88249952D01*
X143050523Y-88241205D01*
X143075578Y-88226880D01*
X143110940Y-88210844D01*
X143150094Y-88196331D01*
X143164992Y-88193710D01*
X143198729Y-88190961D01*
X143240681Y-88189521D01*
X143293020Y-88193058D01*
G37*
G36*
X146907970Y-88197208D02*
G01*
X146972781Y-88215781D01*
X147022226Y-88248656D01*
X147059631Y-88297511D01*
X147066631Y-88310223D01*
X147074922Y-88328047D01*
X147081061Y-88347877D01*
X147085453Y-88373375D01*
X147088502Y-88408206D01*
X147090613Y-88456029D01*
X147092191Y-88520510D01*
X147093641Y-88605312D01*
X147097670Y-88860152D01*
X147030681Y-88860152D01*
X146992595Y-88858737D01*
X146970226Y-88853326D01*
X146963692Y-88842837D01*
X146963630Y-88841092D01*
X146958388Y-88833805D01*
X146941384Y-88836632D01*
X146907934Y-88850187D01*
X146862459Y-88865190D01*
X146792988Y-88869514D01*
X146727652Y-88852282D01*
X146670502Y-88814813D01*
X146625591Y-88758422D01*
X146623753Y-88755166D01*
X146608143Y-88719874D01*
X146600315Y-88680121D01*
X146598826Y-88640630D01*
X146733995Y-88640630D01*
X146747642Y-88688508D01*
X146779573Y-88727480D01*
X146783469Y-88730438D01*
X146827510Y-88750048D01*
X146872647Y-88745911D01*
X146917531Y-88718119D01*
X146919388Y-88716451D01*
X146942680Y-88691379D01*
X146953222Y-88665081D01*
X146955697Y-88626299D01*
X146955691Y-88623485D01*
X146952873Y-88585743D01*
X146941714Y-88559828D01*
X146917531Y-88534479D01*
X146909573Y-88527773D01*
X146864723Y-88504269D01*
X146820256Y-88504096D01*
X146778266Y-88527362D01*
X146761725Y-88544837D01*
X146738675Y-88590518D01*
X146733995Y-88640630D01*
X146598826Y-88640630D01*
X146598285Y-88626299D01*
X146600905Y-88574690D01*
X146613979Y-88517860D01*
X146640525Y-88472563D01*
X146683296Y-88432517D01*
X146691688Y-88426643D01*
X146742887Y-88404109D01*
X146803294Y-88393104D01*
X146863437Y-88394573D01*
X146913847Y-88409465D01*
X146922084Y-88413708D01*
X146942880Y-88422681D01*
X146950580Y-88418160D01*
X146951699Y-88398205D01*
X146951681Y-88397105D01*
X146942708Y-88367082D01*
X146922263Y-88337935D01*
X146899627Y-88320011D01*
X146871524Y-88311023D01*
X146829322Y-88308924D01*
X146806669Y-88310029D01*
X146765329Y-88316410D01*
X146735835Y-88326488D01*
X146712150Y-88338202D01*
X146693085Y-88344051D01*
X146688607Y-88342081D01*
X146674432Y-88325378D01*
X146658415Y-88298625D01*
X146645318Y-88270321D01*
X146639897Y-88248968D01*
X146645693Y-88242191D01*
X146668561Y-88228669D01*
X146702856Y-88213408D01*
X146731760Y-88203356D01*
X146785482Y-88192964D01*
X146849764Y-88191745D01*
X146907970Y-88197208D01*
G37*
G36*
X139825188Y-87318921D02*
G01*
X139846090Y-87320733D01*
X139890177Y-87325245D01*
X139921903Y-87329475D01*
X139935488Y-87332700D01*
X139935809Y-87333131D01*
X139933105Y-87347102D01*
X139920996Y-87371465D01*
X139901139Y-87405082D01*
X139985105Y-87475026D01*
X140002205Y-87489501D01*
X140039458Y-87524051D01*
X140058683Y-87548238D01*
X140061510Y-87563963D01*
X140058731Y-87571890D01*
X140050038Y-87601580D01*
X140040365Y-87639081D01*
X140036130Y-87655729D01*
X140025925Y-87682550D01*
X140010791Y-87695759D01*
X139984448Y-87702482D01*
X139968081Y-87705375D01*
X139924389Y-87713460D01*
X139878607Y-87722275D01*
X139815101Y-87734789D01*
X139818645Y-87808742D01*
X139822190Y-87882694D01*
X139924126Y-87898819D01*
X140026062Y-87914943D01*
X140044957Y-87993111D01*
X140063852Y-88071279D01*
X139982746Y-88138921D01*
X139901639Y-88206564D01*
X139932466Y-88260528D01*
X139943964Y-88280342D01*
X139961011Y-88308451D01*
X139971000Y-88323199D01*
X139974548Y-88324199D01*
X139996313Y-88320868D01*
X140032449Y-88310762D01*
X140077404Y-88295334D01*
X140176101Y-88258770D01*
X140231522Y-88314190D01*
X140286942Y-88369611D01*
X140250558Y-88470625D01*
X140214174Y-88571641D01*
X140276020Y-88607830D01*
X140337865Y-88644020D01*
X140361850Y-88616787D01*
X140373882Y-88603007D01*
X140401002Y-88571607D01*
X140430634Y-88537013D01*
X140475433Y-88484471D01*
X140544562Y-88500352D01*
X140575255Y-88507965D01*
X140606956Y-88517326D01*
X140622854Y-88524064D01*
X140625741Y-88530752D01*
X140632664Y-88556110D01*
X140641475Y-88593963D01*
X140650776Y-88637655D01*
X140659170Y-88680533D01*
X140665258Y-88715943D01*
X140667641Y-88737229D01*
X140675571Y-88738591D01*
X140701651Y-88739773D01*
X140739612Y-88740227D01*
X140772339Y-88739898D01*
X140800866Y-88738812D01*
X140812018Y-88737229D01*
X140812637Y-88733870D01*
X140816777Y-88712111D01*
X140823913Y-88674878D01*
X140833005Y-88627606D01*
X140853541Y-88520980D01*
X140913503Y-88505212D01*
X140934943Y-88499851D01*
X140970590Y-88492165D01*
X140993263Y-88488915D01*
X140996842Y-88489670D01*
X141016531Y-88503089D01*
X141044392Y-88529852D01*
X141075608Y-88565477D01*
X141138156Y-88642568D01*
X141178582Y-88623290D01*
X141185407Y-88620162D01*
X141211471Y-88610797D01*
X141225144Y-88610146D01*
X141226751Y-88614456D01*
X141230693Y-88638196D01*
X141235032Y-88677347D01*
X141239083Y-88726224D01*
X141246887Y-88836167D01*
X140483571Y-88836167D01*
X139720255Y-88836167D01*
X139720255Y-88073229D01*
X139720255Y-87310289D01*
X139825188Y-87318921D01*
G37*
G36*
X151310574Y-89350897D02*
G01*
X151346244Y-89405949D01*
X151341962Y-89427986D01*
X151296956Y-89458035D01*
X151232836Y-89445038D01*
X151187209Y-89392237D01*
X151193276Y-89359490D01*
X151257902Y-89339232D01*
X151310574Y-89350897D01*
G37*
G36*
X152223223Y-89341573D02*
G01*
X152266685Y-89374546D01*
X152250892Y-89423542D01*
X152180209Y-89458953D01*
X152141308Y-89456896D01*
X152109516Y-89405948D01*
X152124962Y-89366170D01*
X152197858Y-89339232D01*
X152223223Y-89341573D01*
G37*
G36*
X153812411Y-89350897D02*
G01*
X153848081Y-89405948D01*
X153843798Y-89427986D01*
X153798792Y-89458035D01*
X153734673Y-89445038D01*
X153689045Y-89392237D01*
X153695112Y-89359490D01*
X153759738Y-89339232D01*
X153812411Y-89350897D01*
G37*
G36*
X151312025Y-88545791D02*
G01*
X151332972Y-88596670D01*
X151343410Y-88701602D01*
X151346244Y-88875897D01*
X151346068Y-88941659D01*
X151342400Y-89086769D01*
X151331230Y-89168303D01*
X151308971Y-89202126D01*
X151272037Y-89204103D01*
X151252943Y-89198191D01*
X151217585Y-89159601D01*
X151196806Y-89072683D01*
X151185046Y-88919233D01*
X151181650Y-88787439D01*
X151184671Y-88661519D01*
X151194316Y-88591027D01*
X151210538Y-88565897D01*
X151281307Y-88533556D01*
X151312025Y-88545791D01*
G37*
G36*
X152219990Y-88558909D02*
G01*
X152243716Y-88608387D01*
X152255038Y-88707104D01*
X152257930Y-88872788D01*
X152255518Y-89028116D01*
X152245002Y-89131451D01*
X152222394Y-89184153D01*
X152183723Y-89203948D01*
X152168587Y-89205933D01*
X152137433Y-89194495D01*
X152119564Y-89145693D01*
X152111438Y-89043724D01*
X152109516Y-88872788D01*
X152109716Y-88802366D01*
X152113461Y-88658057D01*
X152124684Y-88577031D01*
X152146924Y-88543488D01*
X152183723Y-88541629D01*
X152219990Y-88558909D01*
G37*
G36*
X153813861Y-88545791D02*
G01*
X153834808Y-88596670D01*
X153845246Y-88701602D01*
X153848080Y-88875897D01*
X153847905Y-88941659D01*
X153844236Y-89086769D01*
X153833067Y-89168304D01*
X153810808Y-89202127D01*
X153773873Y-89204103D01*
X153754779Y-89198191D01*
X153719421Y-89159600D01*
X153698642Y-89072683D01*
X153686882Y-88919233D01*
X153683487Y-88787439D01*
X153686507Y-88661519D01*
X153696153Y-88591027D01*
X153712375Y-88565897D01*
X153783143Y-88533556D01*
X153813861Y-88545791D01*
G37*
G36*
X150135267Y-88553864D02*
G01*
X150158578Y-88591281D01*
X150172189Y-88668006D01*
X150178556Y-88799193D01*
X150180135Y-89000000D01*
X150179033Y-89175797D01*
X150173531Y-89316349D01*
X150161148Y-89400192D01*
X150139431Y-89442480D01*
X150105926Y-89458372D01*
X150098159Y-89459629D01*
X150068255Y-89454102D01*
X150048904Y-89419241D01*
X150037860Y-89341179D01*
X150032881Y-89206054D01*
X150031720Y-89000000D01*
X150031757Y-88950531D01*
X150033529Y-88760400D01*
X150039587Y-88638309D01*
X150052176Y-88570393D01*
X150073541Y-88542788D01*
X150105927Y-88541629D01*
X150135267Y-88553864D01*
G37*
G36*
X154323080Y-88557606D02*
G01*
X154381862Y-88641764D01*
X154446989Y-88764111D01*
X154507311Y-88901164D01*
X154551681Y-89029438D01*
X154568948Y-89125447D01*
X154567970Y-89151354D01*
X154547561Y-89204074D01*
X154506184Y-89185768D01*
X154451075Y-89103011D01*
X154389472Y-88962381D01*
X154349726Y-88867823D01*
X154304407Y-88789432D01*
X154274666Y-88773361D01*
X154259711Y-88797600D01*
X154218292Y-88887289D01*
X154169613Y-89010601D01*
X154140322Y-89082875D01*
X154091598Y-89175705D01*
X154055262Y-89212020D01*
X154020236Y-89202519D01*
X153997218Y-89138097D01*
X154024270Y-89010688D01*
X154101688Y-88817779D01*
X154110348Y-88798956D01*
X154180292Y-88664532D01*
X154243761Y-88569555D01*
X154287954Y-88533556D01*
X154323080Y-88557606D01*
G37*
G36*
X151261436Y-89864337D02*
G01*
X151245542Y-89902580D01*
X151176628Y-89945175D01*
X151125992Y-89971754D01*
X151098825Y-90036698D01*
X151091820Y-90162141D01*
X151091891Y-90182696D01*
X151098919Y-90293788D01*
X151124052Y-90344718D01*
X151176628Y-90356928D01*
X151226084Y-90368734D01*
X151261436Y-90420534D01*
X151245695Y-90457626D01*
X151176628Y-90484140D01*
X151127172Y-90495946D01*
X151091820Y-90547746D01*
X151091261Y-90559186D01*
X151059131Y-90606407D01*
X150992087Y-90594555D01*
X150910426Y-90526059D01*
X150858978Y-90453713D01*
X150840042Y-90383644D01*
X150879800Y-90356928D01*
X150891338Y-90350011D01*
X150913431Y-90285171D01*
X150922204Y-90174215D01*
X150930426Y-90061501D01*
X150985200Y-89915246D01*
X151091820Y-89835104D01*
X151134840Y-89821388D01*
X151229810Y-89814754D01*
X151261436Y-89864337D01*
G37*
G36*
X150141138Y-87285559D02*
G01*
X150175784Y-87351942D01*
X150193058Y-87484438D01*
X150205982Y-87685476D01*
X150394477Y-87685476D01*
X150472014Y-87687900D01*
X150557709Y-87706927D01*
X150582973Y-87749082D01*
X150575213Y-87776060D01*
X150517924Y-87804364D01*
X150392154Y-87812688D01*
X150320166Y-87813407D01*
X150238805Y-87824626D01*
X150206867Y-87861675D01*
X150201336Y-87939900D01*
X150203716Y-88002721D01*
X150225257Y-88047244D01*
X150287845Y-88064333D01*
X150413356Y-88067112D01*
X150524093Y-88071182D01*
X150602678Y-88090719D01*
X150625376Y-88130718D01*
X150621047Y-88150631D01*
X150582120Y-88177133D01*
X150489819Y-88190583D01*
X150328548Y-88194324D01*
X150031720Y-88194324D01*
X150031720Y-87724771D01*
X150031750Y-87680101D01*
X150033478Y-87489232D01*
X150039495Y-87366628D01*
X150052063Y-87298380D01*
X150073451Y-87270577D01*
X150105927Y-87269309D01*
X150141138Y-87285559D01*
G37*
G36*
X151872328Y-88554225D02*
G01*
X151929319Y-88607763D01*
X151923252Y-88640510D01*
X151858625Y-88660768D01*
X151834869Y-88661927D01*
X151793132Y-88682728D01*
X151774532Y-88745987D01*
X151770284Y-88872788D01*
X151770647Y-88921828D01*
X151778854Y-89026265D01*
X151804224Y-89073646D01*
X151855092Y-89084808D01*
X151925904Y-89105466D01*
X151931421Y-89152736D01*
X151865693Y-89199552D01*
X151825116Y-89220071D01*
X151757576Y-89283030D01*
X151754497Y-89287872D01*
X151693374Y-89333513D01*
X151629929Y-89328858D01*
X151600668Y-89275626D01*
X151593280Y-89245963D01*
X151537062Y-89212020D01*
X151507399Y-89204632D01*
X151473456Y-89148414D01*
X151480844Y-89118751D01*
X151537062Y-89084808D01*
X151567180Y-89074412D01*
X151593325Y-89013125D01*
X151601317Y-88883389D01*
X151602141Y-88828814D01*
X151616696Y-88691245D01*
X151655820Y-88610005D01*
X151727880Y-88563976D01*
X151771342Y-88550957D01*
X151872328Y-88554225D01*
G37*
G36*
X153483680Y-88554225D02*
G01*
X153540672Y-88607763D01*
X153534604Y-88640510D01*
X153469978Y-88660768D01*
X153446220Y-88661926D01*
X153404484Y-88682728D01*
X153385884Y-88745987D01*
X153381636Y-88872788D01*
X153381999Y-88921828D01*
X153390206Y-89026265D01*
X153415576Y-89073646D01*
X153466444Y-89084808D01*
X153537257Y-89105466D01*
X153542773Y-89152736D01*
X153477045Y-89199552D01*
X153436468Y-89220071D01*
X153368928Y-89283030D01*
X153365849Y-89287872D01*
X153304726Y-89333513D01*
X153241280Y-89328857D01*
X153212020Y-89275626D01*
X153204632Y-89245963D01*
X153148414Y-89212020D01*
X153118751Y-89204632D01*
X153084808Y-89148414D01*
X153092196Y-89118751D01*
X153148414Y-89084808D01*
X153178533Y-89074412D01*
X153204677Y-89013125D01*
X153212669Y-88883389D01*
X153213493Y-88828814D01*
X153228048Y-88691245D01*
X153267172Y-88610005D01*
X153339232Y-88563976D01*
X153382694Y-88550957D01*
X153483680Y-88554225D01*
G37*
G36*
X154840608Y-89826345D02*
G01*
X154897599Y-89879883D01*
X154891532Y-89912630D01*
X154826906Y-89932888D01*
X154803149Y-89934046D01*
X154761412Y-89954848D01*
X154742812Y-90018107D01*
X154738564Y-90144908D01*
X154738927Y-90193948D01*
X154747134Y-90298385D01*
X154772504Y-90345766D01*
X154823372Y-90356928D01*
X154894185Y-90377585D01*
X154899702Y-90424856D01*
X154833973Y-90471673D01*
X154793397Y-90492191D01*
X154725856Y-90555151D01*
X154722777Y-90559992D01*
X154661654Y-90605634D01*
X154598209Y-90600978D01*
X154568948Y-90547746D01*
X154561560Y-90518083D01*
X154505342Y-90484140D01*
X154475679Y-90476752D01*
X154441736Y-90420534D01*
X154449124Y-90390871D01*
X154505343Y-90356928D01*
X154535461Y-90346532D01*
X154561605Y-90285244D01*
X154569598Y-90155509D01*
X154570421Y-90100934D01*
X154584976Y-89963365D01*
X154624101Y-89882125D01*
X154696160Y-89836096D01*
X154739622Y-89823077D01*
X154840608Y-89826345D01*
G37*
G36*
X151341108Y-87289976D02*
G01*
X151373414Y-87370764D01*
X151388067Y-87496383D01*
X151386222Y-87641072D01*
X151369033Y-87779072D01*
X151337654Y-87884621D01*
X151293239Y-87931959D01*
X151272007Y-87934197D01*
X151238436Y-87915494D01*
X151222848Y-87848473D01*
X151219032Y-87714978D01*
X151215517Y-87626823D01*
X151183646Y-87479502D01*
X151121095Y-87403177D01*
X151030934Y-87402939D01*
X151010623Y-87417709D01*
X150974966Y-87505777D01*
X150956187Y-87672295D01*
X150954738Y-87698214D01*
X150940362Y-87833370D01*
X150913921Y-87905111D01*
X150869199Y-87931996D01*
X150841860Y-87933739D01*
X150812089Y-87909800D01*
X150798333Y-87836703D01*
X150794992Y-87696690D01*
X150795367Y-87660110D01*
X150815867Y-87473810D01*
X150870821Y-87354994D01*
X150964608Y-87293246D01*
X151013371Y-87288901D01*
X151107813Y-87313948D01*
X151164907Y-87332902D01*
X151220145Y-87302039D01*
X151247432Y-87278417D01*
X151322632Y-87275846D01*
X151341108Y-87289976D01*
G37*
G36*
X151977169Y-89834216D02*
G01*
X152009474Y-89915004D01*
X152024127Y-90040623D01*
X152022282Y-90185313D01*
X152005093Y-90323311D01*
X151973714Y-90428861D01*
X151929299Y-90476199D01*
X151908067Y-90478438D01*
X151874497Y-90459734D01*
X151858908Y-90392713D01*
X151855092Y-90259220D01*
X151851577Y-90171063D01*
X151819706Y-90023744D01*
X151757155Y-89947417D01*
X151666995Y-89947179D01*
X151646684Y-89961949D01*
X151611026Y-90050017D01*
X151592248Y-90216536D01*
X151590798Y-90242455D01*
X151576422Y-90377611D01*
X151549981Y-90449351D01*
X151505259Y-90476237D01*
X151477922Y-90477979D01*
X151448149Y-90454041D01*
X151434393Y-90380943D01*
X151431052Y-90240930D01*
X151431427Y-90204352D01*
X151451927Y-90018051D01*
X151506881Y-89899234D01*
X151600668Y-89837486D01*
X151649431Y-89833141D01*
X151743874Y-89858188D01*
X151800968Y-89877142D01*
X151856205Y-89846279D01*
X151883493Y-89822658D01*
X151958692Y-89820085D01*
X151977169Y-89834216D01*
G37*
G36*
X150989912Y-88563651D02*
G01*
X151003670Y-88636751D01*
X151007012Y-88776766D01*
X151004673Y-88862384D01*
X150974074Y-89040118D01*
X150904991Y-89145170D01*
X150793575Y-89181438D01*
X150635977Y-89152826D01*
X150573952Y-89141378D01*
X150540568Y-89166758D01*
X150533368Y-89187613D01*
X150476962Y-89212020D01*
X150448290Y-89200663D01*
X150427022Y-89149969D01*
X150416307Y-89044647D01*
X150413356Y-88869680D01*
X150413531Y-88803935D01*
X150417199Y-88658817D01*
X150428369Y-88577274D01*
X150450628Y-88543443D01*
X150487563Y-88541460D01*
X150493151Y-88542689D01*
X150536097Y-88573767D01*
X150561077Y-88652262D01*
X150574421Y-88796787D01*
X150577483Y-88847628D01*
X150592847Y-88969397D01*
X150622357Y-89034789D01*
X150674098Y-89065612D01*
X150744950Y-89076854D01*
X150798298Y-89044681D01*
X150829298Y-88952627D01*
X150845568Y-88788376D01*
X150845652Y-88786872D01*
X150859940Y-88645437D01*
X150886799Y-88569832D01*
X150932805Y-88541445D01*
X150960138Y-88539708D01*
X150989912Y-88563651D01*
G37*
G36*
X151696747Y-87273982D02*
G01*
X151720503Y-87346750D01*
X151727880Y-87493166D01*
X151727893Y-87502013D01*
X151735013Y-87642750D01*
X151759944Y-87723841D01*
X151809615Y-87768640D01*
X151900827Y-87801277D01*
X151972442Y-87776671D01*
X152012339Y-87680674D01*
X152024707Y-87508214D01*
X152025831Y-87411680D01*
X152034767Y-87314087D01*
X152057299Y-87272514D01*
X152098915Y-87269280D01*
X152102198Y-87270035D01*
X152153038Y-87322664D01*
X152185187Y-87431390D01*
X152194142Y-87570105D01*
X152175399Y-87712701D01*
X152155222Y-87766716D01*
X152073008Y-87864593D01*
X151963045Y-87912886D01*
X151852543Y-87896132D01*
X151847437Y-87893426D01*
X151770704Y-87867807D01*
X151726767Y-87899297D01*
X151700628Y-87922584D01*
X151626149Y-87926208D01*
X151610394Y-87917867D01*
X151578943Y-87870298D01*
X151562811Y-87773180D01*
X151558264Y-87609066D01*
X151558264Y-87607221D01*
X151562195Y-87457518D01*
X151572342Y-87343495D01*
X151586533Y-87289705D01*
X151599223Y-87280272D01*
X151671341Y-87261436D01*
X151696747Y-87273982D01*
G37*
G36*
X153350247Y-89847557D02*
G01*
X153466444Y-89921637D01*
X153499013Y-89960334D01*
X153480905Y-89973469D01*
X153392701Y-89960643D01*
X153262438Y-89950606D01*
X153164489Y-89972265D01*
X153127212Y-90022232D01*
X153141510Y-90035869D01*
X153218276Y-90053289D01*
X153339232Y-90060100D01*
X153418301Y-90060982D01*
X153506556Y-90071170D01*
X153543677Y-90101208D01*
X153551252Y-90161413D01*
X153549339Y-90195095D01*
X153500287Y-90324358D01*
X153401802Y-90414088D01*
X153276488Y-90455607D01*
X153146951Y-90440237D01*
X153035796Y-90359298D01*
X153025917Y-90346549D01*
X152997424Y-90281442D01*
X153128973Y-90281442D01*
X153190818Y-90329859D01*
X153263394Y-90340724D01*
X153346305Y-90311557D01*
X153381636Y-90246382D01*
X153352678Y-90205054D01*
X153254424Y-90187311D01*
X153206462Y-90191970D01*
X153137501Y-90228054D01*
X153128973Y-90281442D01*
X152997424Y-90281442D01*
X152962108Y-90200742D01*
X152968765Y-90051534D01*
X153039922Y-89922243D01*
X153169616Y-89836183D01*
X153220081Y-89825959D01*
X153350247Y-89847557D01*
G37*
G36*
X153859351Y-89818223D02*
G01*
X153883108Y-89890991D01*
X153890484Y-90037406D01*
X153890497Y-90046254D01*
X153897617Y-90186990D01*
X153922548Y-90268081D01*
X153972220Y-90312880D01*
X154063431Y-90345518D01*
X154135046Y-90320912D01*
X154174944Y-90224914D01*
X154187312Y-90052454D01*
X154188435Y-89955920D01*
X154197373Y-89858327D01*
X154219903Y-89816755D01*
X154261519Y-89813521D01*
X154264803Y-89814276D01*
X154315642Y-89866905D01*
X154347791Y-89975630D01*
X154356746Y-90114345D01*
X154338004Y-90256941D01*
X154317826Y-90310957D01*
X154235613Y-90408834D01*
X154125650Y-90457126D01*
X154015147Y-90440372D01*
X154010041Y-90437667D01*
X153933307Y-90412047D01*
X153889371Y-90443537D01*
X153863232Y-90466824D01*
X153788754Y-90470448D01*
X153772999Y-90462107D01*
X153741547Y-90414537D01*
X153725414Y-90317420D01*
X153720868Y-90153307D01*
X153720869Y-90151462D01*
X153724799Y-90001759D01*
X153734946Y-89887735D01*
X153749137Y-89833946D01*
X153761827Y-89824512D01*
X153833945Y-89805676D01*
X153859351Y-89818223D01*
G37*
G36*
X155114946Y-88567213D02*
G01*
X155247412Y-88649334D01*
X155258237Y-88660542D01*
X155278178Y-88693049D01*
X155241859Y-88700486D01*
X155135752Y-88687477D01*
X155091421Y-88681755D01*
X154975335Y-88684042D01*
X154907939Y-88724665D01*
X154891695Y-88748093D01*
X154898478Y-88773540D01*
X154961022Y-88785192D01*
X155093806Y-88787980D01*
X155108120Y-88788012D01*
X155251121Y-88796563D01*
X155321277Y-88828861D01*
X155329110Y-88897364D01*
X155285140Y-89014531D01*
X155217396Y-89110928D01*
X155100068Y-89175747D01*
X154968167Y-89176349D01*
X154843340Y-89113762D01*
X154748276Y-88990360D01*
X154883558Y-88990360D01*
X154960155Y-89058119D01*
X154965099Y-89060992D01*
X155047732Y-89067035D01*
X155127113Y-89023766D01*
X155162603Y-88952404D01*
X155160932Y-88946899D01*
X155110166Y-88924340D01*
X155010657Y-88915192D01*
X154972703Y-88916539D01*
X154888559Y-88940852D01*
X154883558Y-88990360D01*
X154748276Y-88990360D01*
X154747238Y-88989013D01*
X154736861Y-88964390D01*
X154724920Y-88821791D01*
X154785108Y-88688908D01*
X154908180Y-88588730D01*
X154968323Y-88565667D01*
X155114946Y-88567213D01*
G37*
G36*
X155769378Y-88550495D02*
G01*
X155859481Y-88593774D01*
X155943045Y-88646468D01*
X155987105Y-88691066D01*
X155992496Y-88725854D01*
X155958362Y-88812472D01*
X155879590Y-88885024D01*
X155781491Y-88915842D01*
X155781049Y-88915845D01*
X155674069Y-88935098D01*
X155608067Y-88980734D01*
X155604916Y-89037663D01*
X155630976Y-89065004D01*
X155721290Y-89080711D01*
X155839715Y-89033408D01*
X155861944Y-89020872D01*
X155935671Y-89005869D01*
X155958130Y-89043295D01*
X155913415Y-89115443D01*
X155818873Y-89166041D01*
X155688121Y-89181820D01*
X155560859Y-89160861D01*
X155474005Y-89104115D01*
X155461762Y-89084755D01*
X155448865Y-88987653D01*
X155505444Y-88901999D01*
X155619671Y-88848545D01*
X155680277Y-88834929D01*
X155782913Y-88806807D01*
X155829855Y-88780118D01*
X155841068Y-88745577D01*
X155840395Y-88736731D01*
X155797923Y-88685579D01*
X155714178Y-88669535D01*
X155624007Y-88696480D01*
X155568901Y-88724066D01*
X155482542Y-88745576D01*
X155441006Y-88731318D01*
X155443598Y-88686070D01*
X155493855Y-88629375D01*
X155579691Y-88581626D01*
X155658998Y-88552081D01*
X155696928Y-88536904D01*
X155705699Y-88534144D01*
X155769378Y-88550495D01*
G37*
G36*
X152785423Y-89832401D02*
G01*
X152809009Y-89872063D01*
X152821560Y-89949773D01*
X152825007Y-90081063D01*
X152821275Y-90281466D01*
X152816325Y-90429611D01*
X152806956Y-90578163D01*
X152792216Y-90667736D01*
X152769193Y-90713487D01*
X152734975Y-90730575D01*
X152691206Y-90727652D01*
X152666929Y-90680178D01*
X152660768Y-90567521D01*
X152660755Y-90558369D01*
X152655227Y-90452968D01*
X152633499Y-90413302D01*
X152586561Y-90421659D01*
X152441927Y-90445406D01*
X152310309Y-90399540D01*
X152216166Y-90296295D01*
X152180189Y-90149524D01*
X152181973Y-90129955D01*
X152321346Y-90129955D01*
X152340856Y-90238504D01*
X152406344Y-90314524D01*
X152467526Y-90336715D01*
X152575960Y-90314524D01*
X152628491Y-90265100D01*
X152661271Y-90162012D01*
X152644791Y-90053584D01*
X152578747Y-89976784D01*
X152512749Y-89943514D01*
X152464827Y-89941776D01*
X152395743Y-89978689D01*
X152349009Y-90026734D01*
X152321346Y-90129955D01*
X152181973Y-90129955D01*
X152186549Y-90079769D01*
X152252580Y-89938671D01*
X152383670Y-89848349D01*
X152445454Y-89837285D01*
X152549550Y-89857469D01*
X152607769Y-89877173D01*
X152661881Y-89846279D01*
X152688936Y-89822722D01*
X152763990Y-89819941D01*
X152785423Y-89832401D01*
G37*
G36*
X152924458Y-88555164D02*
G01*
X152949164Y-88638505D01*
X152959226Y-88760727D01*
X152954491Y-88896259D01*
X152934797Y-89019531D01*
X152899992Y-89104973D01*
X152851740Y-89146787D01*
X152735441Y-89180872D01*
X152606430Y-89170259D01*
X152502258Y-89114087D01*
X152485575Y-89095756D01*
X152458446Y-89030785D01*
X152494450Y-89004171D01*
X152577313Y-89033408D01*
X152677313Y-89077484D01*
X152756974Y-89074795D01*
X152787980Y-89021202D01*
X152769553Y-88981508D01*
X152691405Y-88957596D01*
X152654307Y-88954731D01*
X152536023Y-88912068D01*
X152443632Y-88835108D01*
X152406344Y-88745576D01*
X152407193Y-88743066D01*
X152574318Y-88743066D01*
X152598423Y-88804281D01*
X152681970Y-88830384D01*
X152706805Y-88828755D01*
X152775603Y-88794443D01*
X152782918Y-88737370D01*
X152720906Y-88686507D01*
X152679205Y-88670887D01*
X152636020Y-88664167D01*
X152604229Y-88689038D01*
X152574318Y-88743066D01*
X152407193Y-88743066D01*
X152429605Y-88676802D01*
X152500587Y-88599567D01*
X152519693Y-88586156D01*
X152587203Y-88543719D01*
X152634340Y-88541991D01*
X152703386Y-88576075D01*
X152752794Y-88595526D01*
X152809111Y-88576075D01*
X152824249Y-88559474D01*
X152896493Y-88533556D01*
X152924458Y-88555164D01*
G37*
G36*
X152912636Y-87288161D02*
G01*
X152936221Y-87327823D01*
X152948772Y-87405533D01*
X152952218Y-87536824D01*
X152948487Y-87737225D01*
X152943537Y-87885370D01*
X152934168Y-88033922D01*
X152919428Y-88123494D01*
X152896405Y-88169247D01*
X152862187Y-88186334D01*
X152818419Y-88183411D01*
X152794141Y-88135938D01*
X152787980Y-88023281D01*
X152787967Y-88014128D01*
X152782439Y-87908728D01*
X152760711Y-87869060D01*
X152713773Y-87877418D01*
X152569139Y-87901165D01*
X152437521Y-87855300D01*
X152343379Y-87752055D01*
X152307401Y-87605283D01*
X152309186Y-87585715D01*
X152448558Y-87585715D01*
X152468068Y-87694263D01*
X152533556Y-87770284D01*
X152594738Y-87792474D01*
X152703171Y-87770284D01*
X152755703Y-87720859D01*
X152788483Y-87617772D01*
X152772003Y-87509344D01*
X152705960Y-87432544D01*
X152639961Y-87399273D01*
X152592039Y-87397538D01*
X152522955Y-87434448D01*
X152476221Y-87482494D01*
X152448558Y-87585715D01*
X152309186Y-87585715D01*
X152313760Y-87535530D01*
X152379792Y-87394431D01*
X152510882Y-87304107D01*
X152572666Y-87293045D01*
X152676762Y-87313229D01*
X152734981Y-87332932D01*
X152789093Y-87302039D01*
X152816148Y-87278482D01*
X152891202Y-87275701D01*
X152912636Y-87288161D01*
G37*
G36*
X150431949Y-89833094D02*
G01*
X150571766Y-89885343D01*
X150671889Y-89971794D01*
X150710185Y-90081302D01*
X150710083Y-90087686D01*
X150666481Y-90204295D01*
X150549189Y-90293341D01*
X150366290Y-90348542D01*
X150273551Y-90368595D01*
X150195844Y-90407908D01*
X150167061Y-90470914D01*
X150172716Y-90534524D01*
X150241267Y-90589366D01*
X150272895Y-90596861D01*
X150375253Y-90596774D01*
X150461738Y-90569469D01*
X150498164Y-90523687D01*
X150514048Y-90500713D01*
X150582973Y-90484140D01*
X150652056Y-90498625D01*
X150656280Y-90548162D01*
X150583844Y-90631765D01*
X150528525Y-90669695D01*
X150397481Y-90706647D01*
X150254386Y-90700694D01*
X150122891Y-90657710D01*
X150026652Y-90583568D01*
X149989315Y-90484140D01*
X150022846Y-90392935D01*
X150121582Y-90306636D01*
X150264942Y-90250281D01*
X150295425Y-90243424D01*
X150430481Y-90209686D01*
X150503999Y-90178747D01*
X150534515Y-90139103D01*
X150540568Y-90079253D01*
X150523217Y-90004070D01*
X150443503Y-89952547D01*
X150353249Y-89947578D01*
X150243186Y-89969531D01*
X150153554Y-90010182D01*
X150116528Y-90059052D01*
X150109343Y-90079052D01*
X150052922Y-90102504D01*
X150044452Y-90102258D01*
X149993169Y-90075574D01*
X149996832Y-90017508D01*
X150043945Y-89946132D01*
X150123012Y-89879529D01*
X150222538Y-89835775D01*
X150274579Y-89826193D01*
X150431949Y-89833094D01*
G37*
G36*
X137425393Y-98572514D02*
G01*
X137392147Y-98605760D01*
X137358901Y-98572514D01*
X137392147Y-98539268D01*
X137425393Y-98572514D01*
G37*
G36*
X141097097Y-99653011D02*
G01*
X141115706Y-100500786D01*
X141605904Y-99653011D01*
X142096102Y-98805236D01*
X142503548Y-98806244D01*
X142910994Y-98807251D01*
X143409685Y-99654019D01*
X143908377Y-100500786D01*
X143926986Y-99653011D01*
X143945596Y-98805236D01*
X144475546Y-98805236D01*
X145005497Y-98805236D01*
X145005497Y-100068587D01*
X145005497Y-101331938D01*
X144356127Y-101331938D01*
X143706759Y-101331938D01*
X143119835Y-100400948D01*
X142974340Y-100173416D01*
X142791691Y-99897764D01*
X142640789Y-99681652D01*
X142534260Y-99543003D01*
X142484733Y-99499735D01*
X142461435Y-99526961D01*
X142375090Y-99650745D01*
X142240043Y-99855694D01*
X142069301Y-100121946D01*
X141875868Y-100429638D01*
X141315183Y-101329765D01*
X140666884Y-101330852D01*
X140018586Y-101331938D01*
X140018586Y-100068587D01*
X140018586Y-98805236D01*
X140548537Y-98805236D01*
X141078487Y-98805236D01*
X141097097Y-99653011D01*
G37*
G36*
X149155512Y-98805566D02*
G01*
X149379926Y-98815307D01*
X149532376Y-98835816D01*
X149582373Y-98863404D01*
X149575512Y-98876722D01*
X149511887Y-98983509D01*
X149391322Y-99179022D01*
X149224572Y-99446007D01*
X149022395Y-99767209D01*
X148795549Y-100125373D01*
X148030890Y-101329174D01*
X147523788Y-101330556D01*
X147016684Y-101331938D01*
X146585909Y-100650393D01*
X146450896Y-100437290D01*
X146214830Y-100066360D01*
X146086596Y-99865781D01*
X147066753Y-99865781D01*
X147094333Y-99941880D01*
X147174943Y-100099445D01*
X147290016Y-100299569D01*
X147311980Y-100335716D01*
X147437388Y-100522374D01*
X147521943Y-100601613D01*
X147577781Y-100585490D01*
X147596068Y-100560090D01*
X147681178Y-100426512D01*
X147786187Y-100248224D01*
X147888798Y-100064781D01*
X147966716Y-99915737D01*
X147997644Y-99840647D01*
X147997278Y-99839137D01*
X147927863Y-99820680D01*
X147761624Y-99807592D01*
X147532199Y-99802618D01*
X147513605Y-99802668D01*
X147287770Y-99812093D01*
X147127611Y-99834651D01*
X147066753Y-99865781D01*
X146086596Y-99865781D01*
X145979286Y-99697932D01*
X145779399Y-99387042D01*
X145403666Y-98805236D01*
X145919371Y-98805657D01*
X146111662Y-98806719D01*
X146300527Y-98816499D01*
X146413679Y-98845665D01*
X146484992Y-98904962D01*
X146548347Y-99005133D01*
X146661615Y-99204189D01*
X147527398Y-99204189D01*
X148393181Y-99204189D01*
X148496335Y-99004712D01*
X148534607Y-98934351D01*
X148595568Y-98861126D01*
X148687868Y-98822638D01*
X148845391Y-98807727D01*
X149102013Y-98805236D01*
X149155512Y-98805566D01*
G37*
G36*
X151122774Y-99170943D02*
G01*
X151122774Y-99536650D01*
X151585091Y-99536650D01*
X151624381Y-99536568D01*
X151950242Y-99523088D01*
X152176043Y-99473511D01*
X152330880Y-99369178D01*
X152443846Y-99191427D01*
X152544036Y-98921597D01*
X152574761Y-98869166D01*
X152656456Y-98829473D01*
X152813718Y-98810251D01*
X153075138Y-98805236D01*
X153568848Y-98805236D01*
X153507843Y-99087828D01*
X153501445Y-99114983D01*
X153409117Y-99345372D01*
X153277944Y-99520487D01*
X153109049Y-99670558D01*
X153346016Y-99894047D01*
X153360251Y-99907544D01*
X153503124Y-100065065D01*
X153567802Y-100214774D01*
X153582984Y-100420419D01*
X153581373Y-100492719D01*
X153536328Y-100727612D01*
X153411763Y-100926789D01*
X153292963Y-101045625D01*
X153135531Y-101147010D01*
X152931959Y-101222480D01*
X152664944Y-101275372D01*
X152317179Y-101309021D01*
X151871360Y-101326765D01*
X151310182Y-101331938D01*
X150058900Y-101331938D01*
X150058900Y-100733508D01*
X151122774Y-100733508D01*
X151737827Y-100732490D01*
X151877465Y-100731017D01*
X152136079Y-100721181D01*
X152329652Y-100704226D01*
X152424221Y-100682621D01*
X152484871Y-100625063D01*
X152540877Y-100461210D01*
X152486725Y-100291149D01*
X152473361Y-100274402D01*
X152399266Y-100219812D01*
X152273783Y-100183732D01*
X152069718Y-100160710D01*
X151759879Y-100145284D01*
X151122774Y-100122242D01*
X151122774Y-100427875D01*
X151122774Y-100733508D01*
X150058900Y-100733508D01*
X150058900Y-100427875D01*
X150058900Y-100068587D01*
X150058900Y-98805236D01*
X150590837Y-98805236D01*
X151122774Y-98805236D01*
X151122774Y-99170943D01*
G37*
G36*
X137333649Y-98757490D02*
G01*
X137291271Y-98942185D01*
X137248294Y-99137376D01*
X137230099Y-99609961D01*
X137312177Y-100104090D01*
X137484587Y-100588030D01*
X137737392Y-101030054D01*
X138060651Y-101398430D01*
X138171844Y-101493313D01*
X138214563Y-101506686D01*
X138197837Y-101435404D01*
X138172156Y-101356943D01*
X138191595Y-101347180D01*
X138286929Y-101429086D01*
X138375475Y-101543560D01*
X138422774Y-101693248D01*
X138423860Y-101706031D01*
X138487098Y-101837085D01*
X138637314Y-102029667D01*
X138859952Y-102264749D01*
X138944188Y-102349274D01*
X139144048Y-102562759D01*
X139304188Y-102751478D01*
X139395923Y-102882379D01*
X139402480Y-102894819D01*
X139460074Y-103013440D01*
X139443279Y-103037505D01*
X139341075Y-102988297D01*
X139289401Y-102954689D01*
X139137224Y-102833616D01*
X138936567Y-102657547D01*
X138716955Y-102451861D01*
X138588637Y-102331366D01*
X138389809Y-102159189D01*
X138232479Y-102040857D01*
X138142515Y-101996860D01*
X138026034Y-101959304D01*
X137881580Y-101863744D01*
X137799928Y-101791669D01*
X137779877Y-101756280D01*
X137857591Y-101776698D01*
X137867587Y-101780014D01*
X137918497Y-101779438D01*
X137886100Y-101711761D01*
X137764678Y-101563878D01*
X137635452Y-101392621D01*
X137473863Y-101135252D01*
X137332966Y-100869642D01*
X137272504Y-100738118D01*
X137195245Y-100538534D01*
X137151261Y-100347515D01*
X137131439Y-100117923D01*
X137126665Y-99802618D01*
X137127245Y-99720697D01*
X137141876Y-99393106D01*
X137172907Y-99110649D01*
X137215920Y-98917142D01*
X137280845Y-98757366D01*
X137326938Y-98694808D01*
X137333649Y-98757490D01*
G37*
G36*
X156005510Y-98765604D02*
G01*
X156265570Y-98810466D01*
X156350604Y-98838225D01*
X156618756Y-98983397D01*
X156838246Y-99186209D01*
X156990301Y-99420077D01*
X157056152Y-99658416D01*
X157017026Y-99874645D01*
X156972949Y-99948380D01*
X156819586Y-100095144D01*
X156583922Y-100208043D01*
X156249309Y-100293698D01*
X155799099Y-100358722D01*
X155593904Y-100384165D01*
X155322804Y-100428539D01*
X155138294Y-100473598D01*
X155063416Y-100514463D01*
X155081259Y-100599916D01*
X155196994Y-100673048D01*
X155381662Y-100710832D01*
X155601737Y-100701613D01*
X155705360Y-100686207D01*
X155992432Y-100653833D01*
X156292382Y-100631541D01*
X156576189Y-100620171D01*
X156814836Y-100620561D01*
X156979304Y-100633552D01*
X157040575Y-100659984D01*
X157022185Y-100736133D01*
X156910228Y-100895347D01*
X156724211Y-101061187D01*
X156496212Y-101207134D01*
X156258309Y-101306671D01*
X155990909Y-101362088D01*
X155602379Y-101391485D01*
X155200859Y-101377552D01*
X154833268Y-101322438D01*
X154546527Y-101228291D01*
X154422454Y-101157216D01*
X154197585Y-100958164D01*
X154049653Y-100723798D01*
X153987594Y-100480601D01*
X154020346Y-100255052D01*
X154156847Y-100073638D01*
X154189075Y-100049362D01*
X154373335Y-99945705D01*
X154613284Y-99868098D01*
X154934636Y-99809955D01*
X155363111Y-99764689D01*
X155555700Y-99746380D01*
X155797174Y-99709382D01*
X155927203Y-99660503D01*
X155959503Y-99593091D01*
X155907792Y-99500491D01*
X155907488Y-99500128D01*
X155798621Y-99444333D01*
X155617626Y-99411435D01*
X155414871Y-99403437D01*
X155240723Y-99422343D01*
X155145549Y-99470158D01*
X155143153Y-99473280D01*
X155054094Y-99504544D01*
X154878586Y-99525142D01*
X154653134Y-99535102D01*
X154414240Y-99534455D01*
X154198407Y-99523232D01*
X154042137Y-99501464D01*
X153981937Y-99469181D01*
X154016772Y-99378645D01*
X154136705Y-99230565D01*
X154309859Y-99070771D01*
X154502303Y-98929910D01*
X154680104Y-98838624D01*
X154720256Y-98825830D01*
X154981119Y-98776549D01*
X155314683Y-98749509D01*
X155672347Y-98745573D01*
X156005510Y-98765604D01*
G37*
%TD*%
%LPC*%
D12*
%TO.C,H3*%
X137500000Y-111500000D03*
X138090000Y-110090000D03*
X138090000Y-112910000D03*
D13*
X139470000Y-111465000D03*
D12*
X139500000Y-109500000D03*
X139500000Y-113500000D03*
X140910000Y-110090000D03*
X140910000Y-112910000D03*
X141500000Y-111500000D03*
%TD*%
D14*
%TO.C,J3*%
X168600000Y-87350000D03*
D15*
X166600000Y-87350000D03*
%TD*%
D12*
%TO.C,J4*%
X149610000Y-109450000D03*
X155390000Y-109450000D03*
D16*
X148180000Y-108970000D03*
D17*
X148180000Y-113140000D03*
D16*
X156820000Y-108970000D03*
D17*
X156820000Y-113140000D03*
%TD*%
D18*
%TO.C,LS1*%
X178199990Y-102400000D03*
X173200010Y-102400000D03*
%TD*%
D12*
%TO.C,H1*%
X174900000Y-89100000D03*
X175490000Y-87690000D03*
X175490000Y-90510000D03*
D13*
X176870000Y-89065000D03*
D12*
X176900000Y-87100000D03*
X176900000Y-91100000D03*
X178310000Y-87690000D03*
X178310000Y-90510000D03*
X178900000Y-89100000D03*
%TD*%
%TO.C,H2*%
X174900000Y-111500000D03*
X175490000Y-110090000D03*
X175490000Y-112910000D03*
D13*
X176870000Y-111465000D03*
D12*
X176900000Y-109500000D03*
X176900000Y-113500000D03*
X178310000Y-110090000D03*
X178310000Y-112910000D03*
X178900000Y-111500000D03*
%TD*%
%LPD*%
M02*
