M48
; DRILL file {KiCad 9.0.5} date 2025-11-11T23:36:27-0500
; FORMAT={-:-/ absolute / inch / decimal}
; #@! TF.CreationDate,2025-11-11T23:36:27-05:00
; #@! TF.GenerationSoftware,Kicad,Pcbnew,9.0.5
; #@! TF.FileFunction,Plated,1,2,PTH
FMAT,2
INCH
; #@! TA.AperFunction,Plated,PTH,ComponentDrill
T1C0.0079
; #@! TA.AperFunction,Plated,PTH,ViaDrill
T2C0.0118
; #@! TA.AperFunction,Plated,PTH,ComponentDrill
T3C0.0197
; #@! TA.AperFunction,Plated,PTH,ComponentDrill
T4C0.0236
; #@! TA.AperFunction,Plated,PTH,ComponentDrill
T5C0.0315
; #@! TA.AperFunction,Plated,PTH,ComponentDrill
T6C0.0394
; #@! TA.AperFunction,Plated,PTH,ComponentDrill
T7C0.1181
%
G90
G05
T1
X5.6476Y-3.7854
X5.6476Y-3.8406
X5.6752Y-3.7579
X5.6752Y-3.813
X5.6752Y-3.8681
X5.7028Y-3.7854
X5.7028Y-3.8406
X5.7303Y-3.7579
X5.7303Y-3.813
X5.7303Y-3.8681
X5.7579Y-3.7854
X5.7579Y-3.8406
T2
X5.374Y-4.1732
X5.374Y-4.2126
X5.3976Y-3.4843
X5.5945Y-4.248
X5.748Y-3.4803
X5.7677Y-4.3228
X5.7988Y-3.5906
X5.878Y-4.2126
X5.9488Y-4.0157
X6.0276Y-3.7289
X6.0276Y-3.8289
X6.1299Y-4.2126
X6.1575Y-3.8543
X6.189Y-3.4213
X6.189Y-3.9488
X6.2165Y-4.1217
X6.2559Y-4.1217
X6.2717Y-3.8386
X6.3179Y-4.3022
X6.374Y-4.0827
X6.3976Y-3.7598
X6.4232Y-4.0827
X6.4232Y-4.2559
X6.437Y-3.5079
X6.4685Y-3.7717
X6.4724Y-4.0827
X6.4724Y-4.2555
X6.4961Y-4.5079
X6.5197Y-4.0236
X6.5217Y-4.0827
X6.5433Y-4.2579
X6.5669Y-4.4685
X6.5748Y-4.3307
X6.6063Y-4.2717
X6.6535Y-4.1654
X6.6575Y-3.7717
X6.6811Y-3.811
X6.7402Y-3.7205
X6.7598Y-4.3543
X6.815Y-4.4764
T3
X5.4134Y-4.3898
X5.4366Y-4.3343
X5.4366Y-4.4453
X5.4921Y-4.311
X5.4921Y-4.4685
X5.5476Y-4.3343
X5.5476Y-4.4453
X5.5709Y-4.3898
X6.8858Y-3.5079
X6.8858Y-4.3898
X6.9091Y-3.4524
X6.9091Y-3.5634
X6.9091Y-4.3343
X6.9091Y-4.4453
X6.9646Y-3.4291
X6.9646Y-3.5866
X6.9646Y-4.311
X6.9646Y-4.4685
X7.0201Y-3.4524
X7.0201Y-3.5634
X7.0201Y-4.3343
X7.0201Y-4.4453
X7.0433Y-3.5079
X7.0433Y-4.3898
T5
X6.5591Y-3.439
X6.6378Y-3.439
T6
X6.8189Y-4.0315
X7.0158Y-4.0315
T7
X5.4909Y-4.3884
X6.9634Y-3.5065
X6.9634Y-4.3884
T4
G00X5.8339Y-4.3118
M15
G01X5.8339Y-4.2685
M16
G05
G00X5.8339Y-4.4701
M15
G01X5.8339Y-4.4386
M16
G05
G00X6.174Y-4.3118
M15
G01X6.174Y-4.2685
M16
G05
G00X6.174Y-4.4701
M15
G01X6.174Y-4.4386
M16
G05
M30
