%TF.GenerationSoftware,KiCad,Pcbnew,9.0.5*%
%TF.CreationDate,2025-11-12T18:53:03-05:00*%
%TF.ProjectId,F25,4632352e-6b69-4636-9164-5f7063625858,v1.0.1*%
%TF.SameCoordinates,Original*%
%TF.FileFunction,Soldermask,Top*%
%TF.FilePolarity,Negative*%
%FSLAX46Y46*%
G04 Gerber Fmt 4.6, Leading zero omitted, Abs format (unit mm)*
G04 Created by KiCad (PCBNEW 9.0.5) date 2025-11-12 18:53:03*
%MOMM*%
%LPD*%
G01*
G04 APERTURE LIST*
G04 Aperture macros list*
%AMRoundRect*
0 Rectangle with rounded corners*
0 $1 Rounding radius*
0 $2 $3 $4 $5 $6 $7 $8 $9 X,Y pos of 4 corners*
0 Add a 4 corners polygon primitive as box body*
4,1,4,$2,$3,$4,$5,$6,$7,$8,$9,$2,$3,0*
0 Add four circle primitives for the rounded corners*
1,1,$1+$1,$2,$3*
1,1,$1+$1,$4,$5*
1,1,$1+$1,$6,$7*
1,1,$1+$1,$8,$9*
0 Add four rect primitives between the rounded corners*
20,1,$1+$1,$2,$3,$4,$5,0*
20,1,$1+$1,$4,$5,$6,$7,0*
20,1,$1+$1,$6,$7,$8,$9,0*
20,1,$1+$1,$8,$9,$2,$3,0*%
G04 Aperture macros list end*
%ADD10RoundRect,0.140000X0.140000X0.170000X-0.140000X0.170000X-0.140000X-0.170000X0.140000X-0.170000X0*%
%ADD11RoundRect,0.140000X0.170000X-0.140000X0.170000X0.140000X-0.170000X0.140000X-0.170000X-0.140000X0*%
%ADD12RoundRect,0.075000X0.075000X-0.350000X0.075000X0.350000X-0.075000X0.350000X-0.075000X-0.350000X0*%
%ADD13RoundRect,0.075000X0.350000X0.075000X-0.350000X0.075000X-0.350000X-0.075000X0.350000X-0.075000X0*%
%ADD14C,0.600000*%
%ADD15C,5.200000*%
%ADD16R,0.900000X1.500000*%
%ADD17R,1.500000X0.900000*%
%ADD18R,3.900000X3.900000*%
%ADD19RoundRect,0.102000X-0.654000X-0.654000X0.654000X-0.654000X0.654000X0.654000X-0.654000X0.654000X0*%
%ADD20C,1.512000*%
%ADD21RoundRect,0.135000X-0.185000X0.135000X-0.185000X-0.135000X0.185000X-0.135000X0.185000X0.135000X0*%
%ADD22R,0.600000X1.160000*%
%ADD23R,0.300000X1.160000*%
%ADD24O,0.900000X2.000000*%
%ADD25O,0.900000X1.700000*%
%ADD26RoundRect,0.140000X-0.140000X-0.170000X0.140000X-0.170000X0.140000X0.170000X-0.140000X0.170000X0*%
%ADD27RoundRect,0.218750X0.218750X0.256250X-0.218750X0.256250X-0.218750X-0.256250X0.218750X-0.256250X0*%
%ADD28RoundRect,0.140000X-0.170000X0.140000X-0.170000X-0.140000X0.170000X-0.140000X0.170000X0.140000X0*%
%ADD29R,1.955800X2.260600*%
%ADD30C,1.800000*%
%ADD31R,0.550000X0.950000*%
%ADD32RoundRect,0.150000X-0.587500X-0.150000X0.587500X-0.150000X0.587500X0.150000X-0.587500X0.150000X0*%
%ADD33R,0.900000X1.700000*%
%ADD34R,1.003300X0.508000*%
%ADD35RoundRect,0.135000X0.185000X-0.135000X0.185000X0.135000X-0.185000X0.135000X-0.185000X-0.135000X0*%
G04 APERTURE END LIST*
D10*
%TO.C,C9*%
X161900000Y-108150000D03*
X160940000Y-108150000D03*
%TD*%
D11*
%TO.C,R2*%
X160700000Y-101380000D03*
X160700000Y-100420000D03*
%TD*%
D12*
%TO.C,U2*%
X164650000Y-100950000D03*
X165150000Y-100950000D03*
X165650000Y-100950000D03*
X166150000Y-100950000D03*
X166650000Y-100950000D03*
X167150000Y-100950000D03*
D13*
X167850000Y-100250000D03*
X167850000Y-99750000D03*
X167850000Y-99250000D03*
X167850000Y-98750000D03*
X167850000Y-98250000D03*
X167850000Y-97750000D03*
D12*
X167150000Y-97050000D03*
X166650000Y-97050000D03*
X166150000Y-97050000D03*
X165650000Y-97050000D03*
X165150000Y-97050000D03*
X164650000Y-97050000D03*
D13*
X163950000Y-97750000D03*
X163950000Y-98250000D03*
X163950000Y-98750000D03*
X163950000Y-99250000D03*
X163950000Y-99750000D03*
X163950000Y-100250000D03*
%TD*%
D14*
%TO.C,H3*%
X137500000Y-111500000D03*
X138090000Y-110090000D03*
X138090000Y-112910000D03*
D15*
X139470000Y-111465000D03*
D14*
X139500000Y-109500000D03*
X139500000Y-113500000D03*
X140910000Y-110090000D03*
X140910000Y-112910000D03*
X141500000Y-111500000D03*
%TD*%
D16*
%TO.C,U4*%
X137130000Y-104100000D03*
X138400000Y-104100000D03*
X139670000Y-104100000D03*
X140940000Y-104100000D03*
X142210000Y-104100000D03*
X143480000Y-104100000D03*
X144750000Y-104100000D03*
X146020000Y-104100000D03*
X147290000Y-104100000D03*
X148560000Y-104100000D03*
X149830000Y-104100000D03*
X151100000Y-104100000D03*
X152370000Y-104100000D03*
X153640000Y-104100000D03*
D17*
X154890000Y-102335000D03*
X154890000Y-101065000D03*
X154890000Y-99795000D03*
X154890000Y-98525000D03*
X154890000Y-97255000D03*
X154890000Y-95985000D03*
X154890000Y-94715000D03*
X154890000Y-93445000D03*
X154890000Y-92175000D03*
X154890000Y-90905000D03*
X154890000Y-89635000D03*
X154890000Y-88365000D03*
D16*
X153640000Y-86600000D03*
X152370000Y-86600000D03*
X151100000Y-86600000D03*
X149830000Y-86600000D03*
X148560000Y-86600000D03*
X147290000Y-86600000D03*
X146020000Y-86600000D03*
X144750000Y-86600000D03*
X143480000Y-86600000D03*
X142210000Y-86600000D03*
X140940000Y-86600000D03*
X139670000Y-86600000D03*
X138400000Y-86600000D03*
X137130000Y-86600000D03*
D14*
X144150000Y-98250000D03*
X145550000Y-98250000D03*
X143450000Y-97550000D03*
X144850000Y-97550000D03*
X146250000Y-97550000D03*
X144150000Y-96850000D03*
D18*
X144850000Y-96850000D03*
D14*
X145550000Y-96850000D03*
X143450000Y-96150000D03*
X144850000Y-96150000D03*
X146250000Y-96150000D03*
X144150000Y-95450000D03*
X145550000Y-95450000D03*
%TD*%
D19*
%TO.C,J3*%
X168600000Y-87350000D03*
D20*
X166600000Y-87350000D03*
%TD*%
D21*
%TO.C,R6*%
X158900000Y-105580002D03*
X158900000Y-106600000D03*
%TD*%
D22*
%TO.C,J4*%
X149300000Y-108390000D03*
X150100000Y-108390000D03*
D23*
X151250000Y-108390000D03*
X152250000Y-108390000D03*
X152750000Y-108390000D03*
X153750000Y-108390000D03*
D22*
X154900000Y-108390000D03*
X155700000Y-108390000D03*
X155700000Y-108390000D03*
X154900000Y-108390000D03*
D23*
X154250000Y-108390000D03*
X153250000Y-108390000D03*
X151750000Y-108390000D03*
X150750000Y-108390000D03*
D22*
X150100000Y-108390000D03*
X149300000Y-108390000D03*
D24*
X148180000Y-108970000D03*
D25*
X148180000Y-113140000D03*
D24*
X156820000Y-108970000D03*
D25*
X156820000Y-113140000D03*
%TD*%
D26*
%TO.C,R7*%
X167720000Y-112300000D03*
X168680000Y-112300000D03*
%TD*%
%TO.C,R5*%
X156920000Y-102335000D03*
X157880000Y-102335000D03*
%TD*%
%TO.C,C1*%
X137320000Y-106000000D03*
X138280000Y-106000000D03*
%TD*%
D27*
%TO.C,D1*%
X171687501Y-113700000D03*
X170112499Y-113700000D03*
%TD*%
D28*
%TO.C,R3*%
X160700000Y-98320000D03*
X160700000Y-99280000D03*
%TD*%
D29*
%TO.C,CR1*%
X169871700Y-91700000D03*
X165528300Y-91700000D03*
%TD*%
D30*
%TO.C,LS1*%
X178199990Y-102400000D03*
X173200010Y-102400000D03*
%TD*%
D31*
%TO.C,U1*%
X161900000Y-106900000D03*
X163150000Y-106900000D03*
X164400000Y-106900000D03*
X165650000Y-106900000D03*
X165650000Y-104750000D03*
X164400000Y-104750000D03*
X163150000Y-104750000D03*
X161900000Y-104750000D03*
%TD*%
D32*
%TO.C,Q1*%
X169762500Y-107050000D03*
X169762500Y-108950000D03*
X171637500Y-108000000D03*
%TD*%
D11*
%TO.C,C7*%
X169719999Y-98850000D03*
X169719999Y-97890000D03*
%TD*%
D26*
%TO.C,R1*%
X167720000Y-113500000D03*
X168680000Y-113500000D03*
%TD*%
D33*
%TO.C,SW1*%
X146500001Y-107800000D03*
X143099999Y-107800000D03*
%TD*%
D14*
%TO.C,H1*%
X174900000Y-89100000D03*
X175490000Y-87690000D03*
X175490000Y-90510000D03*
D15*
X176870000Y-89065000D03*
D14*
X176900000Y-87100000D03*
X176900000Y-91100000D03*
X178310000Y-87690000D03*
X178310000Y-90510000D03*
X178900000Y-89100000D03*
%TD*%
D28*
%TO.C,R11*%
X140000000Y-106020000D03*
X140000000Y-106980000D03*
%TD*%
%TO.C,C3*%
X141400000Y-106020000D03*
X141400000Y-106980000D03*
%TD*%
%TO.C,C11*%
X177000000Y-93520000D03*
X177000000Y-94480000D03*
%TD*%
D34*
%TO.C,U5*%
X172547450Y-93549999D03*
X172547450Y-94500000D03*
X172547450Y-95450001D03*
X175252550Y-95450001D03*
X175252550Y-93549999D03*
%TD*%
D28*
%TO.C,R4*%
X177000000Y-96020000D03*
X177000000Y-96980000D03*
%TD*%
%TO.C,C4*%
X169719999Y-99890000D03*
X169719999Y-100850000D03*
%TD*%
D35*
%TO.C,R16*%
X153500000Y-106709999D03*
X153500000Y-105690001D03*
%TD*%
D33*
%TO.C,SW2*%
X165000001Y-112500000D03*
X161599999Y-112500000D03*
%TD*%
D26*
%TO.C,C2*%
X137320000Y-107000000D03*
X138280000Y-107000000D03*
%TD*%
D11*
%TO.C,C10*%
X163500000Y-91100000D03*
X163500000Y-90140000D03*
%TD*%
D35*
%TO.C,R12*%
X157900000Y-106609999D03*
X157900000Y-105590001D03*
%TD*%
D11*
%TO.C,C6*%
X162500000Y-97580000D03*
X162500000Y-96620000D03*
%TD*%
D27*
%TO.C,D2*%
X171687501Y-112000000D03*
X170112499Y-112000000D03*
%TD*%
D10*
%TO.C,C5*%
X168080000Y-95800000D03*
X167120000Y-95800000D03*
%TD*%
D14*
%TO.C,H2*%
X174900000Y-111500000D03*
X175490000Y-110090000D03*
X175490000Y-112910000D03*
D15*
X176870000Y-111465000D03*
D14*
X176900000Y-109500000D03*
X176900000Y-113500000D03*
X178310000Y-110090000D03*
X178310000Y-112910000D03*
X178900000Y-111500000D03*
%TD*%
D35*
%TO.C,R17*%
X152500000Y-106709999D03*
X152500000Y-105690001D03*
%TD*%
M02*
